<svg xmlns="http://www.w3.org/2000/svg" viewBox="0 0 65.77 122.92"><defs><style>.cls-1{fill:#414141;}.cls-2{fill:#444545;}.cls-3{fill:#5e5f5f;}.cls-4{fill:#454545;}.cls-5{fill:#424242;}.cls-6{fill:#707070;}.cls-7{fill:#7d7e7e;}.cls-8{fill:#585858;}.cls-9{fill:#6c6c6c;}.cls-10{fill:#7c7c7c;}.cls-11{fill:#909090;}.cls-12{fill:#626161;}.cls-13{fill:#868585;}.cls-14{fill:#4a4a4a;}.cls-15{fill:#7b7b7b;}.cls-16{fill:#434242;}.cls-17{fill:#858686;}.cls-18{fill:#7a7b7b;}.cls-19{fill:#888;}.cls-20{fill:#292929;}.cls-21{fill:#5d5f5f;}.cls-22{fill:#646060;}.cls-23{fill:#868888;}.cls-24{fill:#6d6c6c;}.cls-25{fill:#575656;}.cls-26{fill:#7c7d7d;}.cls-27{fill:#9a9696;}.cls-28{fill:#989696;}.cls-29{fill:#7f7878;}.cls-30{fill:#767373;}.cls-31{fill:#616161;}.cls-32{fill:#696969;}.cls-33{fill:#6e7171;}.cls-34{fill:#4a4b4b;}.cls-35{fill:#5e5e5e;}.cls-36{fill:#5d5d5d;}.cls-37{fill:#606060;}.cls-38{fill:#767676;}.cls-39{fill:#4e4c4c;}.cls-40{fill:#747474;}.cls-41{fill:#686767;}.cls-42{fill:#727373;}.cls-43{fill:#3d4040;}.cls-44{fill:#454242;}.cls-45{fill:#6d6d6d;}</style></defs><g id="Layer_2" data-name="Layer 2"><g id="Layer_1-2" data-name="Layer 1"><g id="bishop_black" data-name="bishop black"><path class="cls-1" d="M43.9,122.72c-.92,0-1.85.13-2.77.13H3.07c-.73,0-1.45,0-2.17,0a.84.84,0,0,1-.89-1,12.65,12.65,0,0,1,1.69-5.58,8.12,8.12,0,0,1,5.19-4.09,2,2,0,0,0,1.57-1.27,4.77,4.77,0,0,1,3.49-1c12,.2,24.1-.24,36.14.08h1.16c.94,0,1.89,0,2.84,0,1.82.14,3.77-.44,5.38.93l.28,1.17c-3,1.8-6.37.75-9.56,1-8.54-.1-17.09,0-26.37-.06a36.1,36.1,0,0,0,9.52,4.92c3.21,1.16,6.5,2.06,9.8,2.93C42.22,121.11,43.72,121,43.9,122.72Z"/><path class="cls-2" d="M24.49,41.32a48.85,48.85,0,0,1-7.06-10.1A6.28,6.28,0,0,1,17,25.88c1.72-5.2,3.89-10.21,6-15.26.75-1.81,1.47-3.64,2.38-5.37a2.07,2.07,0,0,0-.3-2.51,3.63,3.63,0,0,1,2.82-1c3.8-.17,7.6,0,11.4.13a2.82,2.82,0,0,1,2.24.85.83.83,0,0,1-.61.72,3.78,3.78,0,0,1-3,1.31c-.75,0-1.52,0-2.27,0a5,5,0,0,0-2.41.31c-.22.15-.44.29-.65.46l-.3.28c-.18.21-.37.41-.56.62s-.19.22-.28.34c-3.72,5.39-6.88,11-7.26,17.77A15,15,0,0,0,29,36.74a21.1,21.1,0,0,1,2.73,2.94c-.09,1.23,2.46,1.53,1.14,3.2a3.58,3.58,0,0,1-1.32.34,9.35,9.35,0,0,1-1.4,0,7.28,7.28,0,0,1-.93-.07C27.55,42.74,25.69,42.86,24.49,41.32Z"/><path class="cls-3" d="M43.9,122.72c-.82-1-2.09-.88-3.13-1.11a94.8,94.8,0,0,1-9.79-2.9,42.55,42.55,0,0,1-9.68-4.84,5.94,5.94,0,0,1-.93-.8,1,1,0,0,1-.18-.55c0-.24.15-.35.41-.36l1.24,0H47.62c2.06,2.36,1,5.4,1.82,8a2.79,2.79,0,0,1-.58,2.51A15,15,0,0,1,43.9,122.72Z"/><path class="cls-4" d="M19.65,88.46C18.17,87,18.16,87,18.86,85.37a86.68,86.68,0,0,0,5.46-15.81,43,43,0,0,0,1.15-12A22.42,22.42,0,0,0,24,50.59c1.9-1.38,3.9-1.06,5.92-.37a1.05,1.05,0,0,1,.49,1.06c-1.12,7.51,0,15,0,22.55a6.17,6.17,0,0,1-.23,1.48c-1.78,4.09-2.72,8.56-5.49,12.21C23.09,88.27,21.31,88.08,19.65,88.46Z"/><path class="cls-5" d="M11.43,107.85A17.29,17.29,0,0,1,8,104.77c-1.29-1.37-1.26-2.43.1-3.7,2.63-2.45,5.32-4.84,8-7.26a12.32,12.32,0,0,1,1.14-1c.58-.4,1.23-.72,1.84-1.07a3.41,3.41,0,0,1,3.1.39c.4,1.64-1,2.33-1.78,3.36s-1.7,2.09-2.5,3.16c-.65.88-2,1.73-1.5,2.84s2.06.44,3.14.55a9.28,9.28,0,0,1,3,.4,16.74,16.74,0,0,0,6.48,4.9c.56.34,1.13.66,1.28,1.38a1.47,1.47,0,0,1-.67.78,48.52,48.52,0,0,1-15.95-.23A3.07,3.07,0,0,1,11.43,107.85Z"/><path class="cls-6" d="M35.18,4h2.49c2,4.2,1.1,8.73,1.44,13.11a30.52,30.52,0,0,1-1.61,3.24,2.12,2.12,0,0,0,.24,2.74c2.69,2,2.3,5.05,2.54,7.83a26.84,26.84,0,0,1-.07,4.91c-.25,2.51.77,4.57,1.72,6.7a1.26,1.26,0,0,1,.79,1.19c-1.76,1.54-3.89.88-5.88,1a34.76,34.76,0,0,1-6.12-.09c-.87-.11-2.43.26-2.11-1.6a3.13,3.13,0,0,1,1.06-.15h3a4.8,4.8,0,0,0,1.29-.33,9.48,9.48,0,0,1,4,.17l.29.1c0-.18-.19-.09-.27-.18a6.48,6.48,0,0,1-1.15-.48,2,2,0,0,1-1.35-2.2c.7-5.13,0-10.33-.53-15.32-.6-5.91,1.11-11.87-.76-17.67A2.18,2.18,0,0,1,35.18,4Z"/><path class="cls-7" d="M42.07,50.64c-1.72,5-1.69,10-.91,15.15.14.91.18,1.83.27,2.74.55,2.07.38,4.26,1.13,6.31.28.76.43,1.84-.17,2.36-1.28,1.13-.74,2.33-.52,3.57a51.1,51.1,0,0,0,1.3,6.72,4,4,0,0,1-2.88.46,3.75,3.75,0,0,1-1-.32c-.46-.25-1-.56-1.06-1.06-1.13-7.39-2.32-14.78-1.19-22.31.45-3,.95-6.06.24-9.17A4.49,4.49,0,0,1,39,50.15,2.6,2.6,0,0,1,42.07,50.64Z"/><path class="cls-8" d="M11.43,107.85A28.29,28.29,0,0,0,18.06,109c3.38.16,6.78.05,10.18.05.71,0,1.45,0,2-.61.95-1,2.21-.94,3.42-1,3.76,0,7.53-.11,11.29,0,2.13.27,4.47-.49,6.45,1-.46,1.43-2.19,1.11-2.51,2.37l-40.4,0c-.1-1.2.66-1.73,1.63-2.12C10.6,108.55,11.29,108.6,11.43,107.85Z"/><path class="cls-9" d="M48.85,120.21c-.17-.25-.51-.5-.5-.75.08-2.47-.56-4.87-.73-7.32l10.13-.07a5.92,5.92,0,0,1,4.65,2,10.62,10.62,0,0,1,3.36,7.34c.07,1.1-.22,1.41-1.42,1.43-1,0-2-.06-3.06-.1a11.27,11.27,0,0,1-2.2-3.45c-.3-.59-.56-1.22-.9-1.79l-.49-.66c-.09-.1-.17-.21-.27-.31-.88-.76-1.61-2.35-3-1.34-1.8,1.3-5.58.4-5,4.37A1.65,1.65,0,0,1,48.85,120.21Z"/><path class="cls-10" d="M41.93,42.51c-.27-.31-.48-.79-.81-.89-1.81-.54-1.85-2.08-1.78-3.43a9.42,9.42,0,0,0-.14-3.92,1,1,0,0,1-.07-.59c1-2.65-.11-5.23-.2-7.84,0-1.14-1-1.76-1.19-2.77.48.11,1,.31,1.34-.26.63-1,1.23-2.11,1.86-3.15.8-1.3,1.61-2.58,2.42-3.87a.84.84,0,0,1,.85.48,96.65,96.65,0,0,0-.46,14.34c.12,2.73,1.15,5.47.2,8.23l0,0a8.73,8.73,0,0,0-1.31,1.83h0a1.45,1.45,0,0,0-.56.79Z"/><path class="cls-11" d="M43.82,15.08a2.81,2.81,0,0,1,.27-.55c.27-.31.6-.62,1-.16a3.22,3.22,0,0,1,.44.82c1.42,3.54,2.86,7.08,4.09,10.7a6.06,6.06,0,0,1-.44,5.35c-1.05,1.76-1.82,3.7-3.38,5.13a1.73,1.73,0,0,1-.74-1.31c.11-6.15-2-12.21-.85-18.41a2.77,2.77,0,0,0-.2-1.06Z"/><path class="cls-12" d="M48.86,110.86A10.06,10.06,0,0,1,48,110a.46.46,0,0,1,.19-.75c.78-.18,1.58-.25,2.48-.38-.78-.85-1.68-.33-2.47-.43a20.32,20.32,0,0,0-2.47,0,15.57,15.57,0,0,1-1.45-1.12c-2.24-2.27-2.25-2.26.37-4.26a4.64,4.64,0,0,1,1.84-.39c1.13,0,2.27,0,3.41,0,4.1.08,5,1.07,4.69,5.3l0,0c-.5,1.36.87.63,1.19,1.07a1.68,1.68,0,0,1,1.62,2l-5.5,0a2.4,2.4,0,0,0-2.49,0h-.62Z"/><path class="cls-13" d="M47.7,92.06a5.41,5.41,0,0,1,1.3.71c1.67,1.59,3.29,3.23,4.93,4.86.65,1.17,1.27,2.36,2,3.49.42.66,1,1.42,0,2.12-2.91.35-5.81-.47-8.72-.14-.2,0-.56-.07-.55-.14.19-2-.72-4.19.81-6,.25-.24.49.51.75,0a.87.87,0,0,1-.7-.11C45.76,95.17,46.75,93.61,47.7,92.06Z"/><path class="cls-14" d="M29.59,43.12l-.56.21c.08.13.15.37.23.37,4.48,0,9,0,13.46,0,.6.7.13,1.29-.2,1.89a1.65,1.65,0,0,1-.85,1.11,3.58,3.58,0,0,1-1,.25c-1,.12-2.07.1-3.1.18q-4.95.06-9.91,0c-1.44,0-2.93,0-3.82-1.49A1.76,1.76,0,0,1,24,42.92a1.33,1.33,0,0,0,.49-1.6l5.1,1.18c.2.14.27.28.2.42S29.66,43.12,29.59,43.12Z"/><path class="cls-15" d="M47.7,92.06A9.5,9.5,0,0,1,47.38,95c-.54,1.21.42,1.56.86,2.23h0c-.49.1-1.08.15-1,.85s.27,1.37.38,2.06c.14,1,0,1.75-1.11,2.1-.09,0-.09.37-.13.56l-.39.29c-1.42-.14-2.79.87-4.24.24s-1.61-2.15-.65-3.07.71-1.88.45-2.92C40.47,93,40.48,93,44.91,91.81a5.17,5.17,0,0,1,2.1-.22A.74.74,0,0,1,47.7,92.06Z"/><path class="cls-16" d="M42.07,50.64H38.91a5.27,5.27,0,0,1-2.52.8c-1.77-.1-3.55.23-5.3-.24a2.42,2.42,0,0,1-.88-.6H24c-1.14-.46-2.3-.9-1.95-2.52a4.16,4.16,0,0,1,2.58-.89c5.76,0,11.52-.07,17.28.09a3.35,3.35,0,0,1,1.76.5,1.25,1.25,0,0,1,.3,1.65C43.58,50.2,42.8,50.38,42.07,50.64Z"/><path class="cls-17" d="M44.5,15.77a58.12,58.12,0,0,0,1.14,12.55,21.4,21.4,0,0,1,.11,3.4c0,1.55,0,3.1,0,4.65A5,5,0,0,1,44,38.84c-.92-2.12-.42-4.51-1.26-6.64,1-2.54-.11-5.06-.09-7.59a22.9,22.9,0,0,1,.89-6.7,6.41,6.41,0,0,0,.39-2.12l.3-.26Z"/><path class="cls-18" d="M39.11,17.09a1.51,1.51,0,0,1-.79-1.24c-.12-1.62.18-3.27-.42-4.86A1.5,1.5,0,0,1,38,10.1a4.23,4.23,0,0,0-.46-3.83A2,2,0,0,1,37.67,4a10.34,10.34,0,0,0,3.26-.52c-.13,1.63.84,2.9,1.44,4.28a3.4,3.4,0,0,1,0,3.19C41.32,13,40.6,15.25,39.11,17.09Z"/><path class="cls-19" d="M43.28,87.21c-.36-.59-1.13-.47-1.57-.89s-.79-.91-.53-1.34c.81-1.32.3-2.6-.08-3.81a11.54,11.54,0,0,1-.31-3.35c0-.54.28-.66.77-.46.09,0,.4-.18.4-.29a6.1,6.1,0,0,0-.06-2.14c-.76-2.1-.45-4.25-.47-6.4a83.34,83.34,0,0,1,2.48,8.73c.53.53,0,1.42.65,1.9v0A16.1,16.1,0,0,0,46.1,84.6c.43,1,1.24,2,0,3A2.34,2.34,0,0,1,43.28,87.21Z"/><path class="cls-20" d="M22.14,92.26c-1-.19-2.17.35-3.07-.55a3.81,3.81,0,0,0,.58-3.25c.14-.62.37-1.14,1.12-1.16l3.86-.06a2.86,2.86,0,0,1,2.94-.44,3.26,3.26,0,0,1,1.28,1c1.33,2.17.75,3.8-1.39,5C25.64,93.13,23.81,93.56,22.14,92.26Z"/><path class="cls-21" d="M43.87,48.11l-21.82,0c-.17-.82.33-1.29.91-1.72l.92-.7a7.59,7.59,0,0,0,3.62.59l10.84,0c1,.6,2,1,3,0a4.36,4.36,0,0,1,.51,0,.59.59,0,0,1,.77,0h0c.26.41.86.28,1.12.69l.06.09A.7.7,0,0,1,43.87,48.11Z"/><path class="cls-22" d="M41.53,2.74H25.07C24.61,1.23,24.89.41,26,.15A3.54,3.54,0,0,1,26.9,0,85.46,85.46,0,0,1,35.81.2C37.53,2,39.56.82,41.47.8A1.21,1.21,0,0,1,41.53,2.74Z"/><path class="cls-23" d="M59.44,119a7.11,7.11,0,0,1,1.84,3.75c-3.93.15-7.86.2-11.8,0-.6-2.13,0-3.23,2.42-3.15,1.76.06,3.45-.72,5.23-.84C57.93,118.66,58.72,118.29,59.44,119Z"/><path class="cls-24" d="M46.37,102.77l10,0c1.25-.5,2.67-1.35,2.46,1.19a13.84,13.84,0,0,1-4.17,3.93,2.85,2.85,0,0,0-.7-1.34c-.21-.19-.47-.55-.41-.75.16-.53.73-.88,0-1.52a3,3,0,0,0-2.17-.89c-1,0-2,0-3.08,0H46.37c-.2-.14-.27-.27-.2-.4s.13-.2.2-.2Z"/><path class="cls-25" d="M43.28,87.21h3.1c.54-.08.84.07.65.69a3,3,0,0,0,0,3.68c-.44.75-1.2.61-1.89.67a2.38,2.38,0,0,1-1.81.19C40.8,91.63,41.2,89,40.16,87.3Z"/><path class="cls-26" d="M59.44,119c-1.65.19-3.19,1.11-4.93.67-.25-.07-.77,0-.83.22-.48,1.23-1.09,1-1.92.33-.55-.45-1.1-.21-1.59.29a2.81,2.81,0,0,0-.69,2.24h-.62c0-.83,0-1.65,0-2.48,0-.21,0-.41,0-.62a3.84,3.84,0,0,1,2.24-1.79,45.34,45.34,0,0,1,7.07-1.32h0c.21.2.4.43.62.62Z"/><path class="cls-27" d="M58.78,104a1.15,1.15,0,0,0-1.33-1.15c-.37,0-.75,0-1.13,0a8.52,8.52,0,0,0-1.12-1.39,3.57,3.57,0,0,1-1.27-3.77,20.6,20.6,0,0,1,4.84,4.23C59.35,102.44,59.7,103.27,58.78,104Z"/><path class="cls-28" d="M47,87.91l-.65-.69c-.17-1.37-1-2.46-1.55-3.67a5.34,5.34,0,0,1-.28-4.42c1.1,2.48,2.23,4.94,3.29,7.43C48.14,87.26,47.66,87.68,47,87.91Z"/><path class="cls-29" d="M41.47.8c-.42.28-.84.56-1.25.85A3.75,3.75,0,0,1,37.28,2C36.36,1.83,36.16.91,35.81.2c1.49,0,3-.1,4.47-.12A1.2,1.2,0,0,1,41.47.8Z"/><path class="cls-30" d="M43.87,48.11l0-1.14c.9,1.16.91,1.28.13,2.45C43.93,49,43.9,48.55,43.87,48.11Z"/><path class="cls-17" d="M42.66,40.64A1.69,1.69,0,0,1,44,38.81,2.59,2.59,0,0,1,42.66,40.64Z"/><path class="cls-24" d="M55.85,108.93a9.17,9.17,0,0,1-1.17,0c-.29,0-.6-.19-.58-.54s.26-.48.56-.55C54.82,108.49,55.52,108.49,55.85,108.93Z"/><path class="cls-28" d="M44.56,79.16c-.81-.43-.68-1.18-.65-1.9A2.17,2.17,0,0,1,44.56,79.16Z"/><path class="cls-30" d="M43.78,46.88a1.09,1.09,0,0,1-1.12-.69C43.18,46.19,43.61,46.32,43.78,46.88Z"/><path class="cls-11" d="M43.88,15.79h-.52a.74.74,0,0,1,.46-.71l.17.2a.3.3,0,0,1-.08.49Z"/><path class="cls-30" d="M42.67,46.2H41.9l.62-.62Z"/><path class="cls-17" d="M42.09,41.44a.89.89,0,0,1,.56-.79Z"/><path class="cls-8" d="M49.48,110.86c1.2-.8,1.29-.8,2.49,0Z"/><path class="cls-31" d="M31.45,40C29,38,26.67,35.9,25.09,33a16.63,16.63,0,0,1-1.58-10.79c.95-6,3.81-11.23,7.42-16.06.11-.16.34-.22.52-.33,1.17.45,1.35,1.49,1.42,2.52.36,5.12.68,10.24,1.14,15.36.08.82.14,1.95-.58,2.25s-.83.33-.66,1.18c.88,4.22,1.47,8.47-.37,12.63A1,1,0,0,1,31.45,40Z"/><path class="cls-32" d="M32.08,40a5.56,5.56,0,0,1,.38-2.12,2.57,2.57,0,0,0,.2-1.5c-.76-2.43.59-4.92-.21-7.3a14.4,14.4,0,0,1-.35-4.57c.88,0,.33.91.93,1.09a2.77,2.77,0,0,0,.06-2.68,10.57,10.57,0,0,1-.4-3.05,28.46,28.46,0,0,0-.52-7.06,14.12,14.12,0,0,1-.08-4,5.53,5.53,0,0,0-.64-3h0a4.54,4.54,0,0,0,.61-.63h0a3.76,3.76,0,0,0,.62-.64c.68-.87,1.63-.53,2.5-.56a3.16,3.16,0,0,0-.4,2.35,25,25,0,0,1,1,6.67A13.13,13.13,0,0,1,35,18.47a1.7,1.7,0,0,0,.42,2.22,2.08,2.08,0,0,1,.6,2.76c-.09.17-.2.45-.13.59.84,1.63-.07,3.21-.1,4.82A16,16,0,0,0,36.42,35a5.63,5.63,0,0,1-.07,4.48c-.19.44-.59,1-.17,1.43a4.67,4.67,0,0,0,1.06.58,3.42,3.42,0,0,1,.42.43c-1.85,1.38-3.27,0-4.8-.74a2,2,0,0,1-.67-.67C32.15,40.32,32.11,40.17,32.08,40Z"/><path class="cls-14" d="M32.7,40.61a12.39,12.39,0,0,1,1.71.61,6,6,0,0,0,3.25.67c.2.2.39.4.59.59-1.32.86-2.94-.22-4.25.66H32.63c-.17-.15-.21-.29-.15-.43s.13-.19.19-.19c.2-.16.26-.47.08-.5-1.18-.21-1.37-1-1.3-2l.63,0h0A5.86,5.86,0,0,0,32.7,40.61Z"/><path class="cls-33" d="M32.67,42.52c0,.2,0,.41,0,.62H31.52c-.38-.19-.39-.4,0-.62Z"/><path class="cls-14" d="M31.49,42.52a2.15,2.15,0,0,0,0,.62l-1.31,0c-.16-.14-.21-.27-.16-.41s.1-.21.16-.21Z"/><path class="cls-31" d="M32.06,5.19l-.61.63Z"/><path class="cls-31" d="M32.68,4.55l-.62.64Z"/><path class="cls-33" d="M30.21,42.5v.62h-.62V42.5Z"/><path class="cls-9" d="M30.91,50.62h5.51c-.81,1.83.21,3.62.14,5.43-.26,6.14-.24,12.3-.69,18.43-.2,2.73,1.58,5.05,1.2,7.81-.21,1.51-1.38,3.16.12,4.67a1,1,0,0,1-.56.74,8.17,8.17,0,0,1-4.52.11c-1.17-.42-2.74-1-2.31-2.35,1.08-3.43.28-6.7-.22-10V74.21c1.16-7,2.41-14,1.06-21.16A4,4,0,0,1,30.91,50.62Z"/><path class="cls-34" d="M30.91,50.62a23.76,23.76,0,0,1,1.17,7.29c0,.72,0,1.45,0,2.17.33,4.71-.92,9.19-2.09,13.67,0,.18-.26.31-.4.46-.11-1.83.3-3.71-.48-5.49a.41.41,0,0,1,0-.3c1.11-2.34-.22-4.64-.1-7s-.37-4.94.53-7.35a1.56,1.56,0,0,0-.08-1.2c-.69-1.14.23-1.66.79-2.33Z"/><path class="cls-35" d="M29.58,75.44c.05.2,0,.44.15.58,2.06,2.44,2.15,5.14,1.06,8-.11.28-.22.57-.31.86-.33,1.11-.31,1.12.88,1.81.26.15.49.35.74.53-1.44,1.4-2.92.72-4.4.09l-3.07-.06c.22-1.88,1.4-3.38,2.05-5.1A34.27,34.27,0,0,1,29.58,75.44Z"/><path class="cls-36" d="M44.5,103.42a4.77,4.77,0,0,0,.42,3.37,17.26,17.26,0,0,1,.83,1.6H30.21c-.32-.41-.92-.25-1.26-.62a10.37,10.37,0,0,1-5.52-3.36,2.54,2.54,0,0,1-.7-1.61c.86-.91,2-.87,3.12-.88,1.82,0,3.65-.05,5.48,0a13.5,13.5,0,0,1,2.2.27C37.17,102.83,40.91,102.44,44.5,103.42Z"/><path class="cls-37" d="M25.87,102.78l-3.14,0c-2,0-3.91,0-5.87,0-.68,0-1.51.24-1.94-.54s.18-1.33.63-1.89q3.3-4,6.59-8.09l5.57-.07a6.12,6.12,0,0,1,5.1-.47,1.31,1.31,0,0,1,.68.69.82.82,0,0,1-.41.78c-1.35.67-2.86.2-4.26.54s-1.72.86-1.15,2.1a1.4,1.4,0,0,1,.54.64C28.72,99.06,27.55,101,25.87,102.78Z"/><path class="cls-8" d="M29,107.78a1.26,1.26,0,0,1,1.26.62A1.33,1.33,0,0,1,29,107.78Z"/><path class="cls-33" d="M34,43.14a1.42,1.42,0,0,1,1.28-.6l3-.06,1.16.12c.14.34.07.48-.17.49Z"/><path class="cls-38" d="M37,87.19c-.36-.59-1.12-.48-1.58-.89a1,1,0,0,1-.08-1.57,2.31,2.31,0,0,0,.76-3c0-.09-.07-.19-.12-.29-.49-1,.66-1.91.26-2.64s-1.21-1.19-1.42-2.13c-.27-1.17.27-2.23.43-3.31a8.45,8.45,0,0,0,0-4.21c-.49-1.44.09-3.09-.51-4.58a.39.39,0,0,1,0-.3c1.8-2.52.64-5.39.95-8.08A4.32,4.32,0,0,0,35,53c-.62-.85-.4-1.16.73-1.82.26-.15.49-.36.74-.54h2.49c-.75,1-.55,2.38-1.07,3.51a1.2,1.2,0,0,0,.41,1.39,2,2,0,0,1,.46,2.25,3.4,3.4,0,0,0-.3.88,35.38,35.38,0,0,1-1.16,9.1,23.52,23.52,0,0,1,.45,4.88c0,1.13-.28,2.2-.19,3.35a30.81,30.81,0,0,0,1.58,7.79c.2.61.47,1.2,0,1.72-.88.9.22,1.17.49,1.71A1.61,1.61,0,0,1,37,87.19Z"/><path class="cls-39" d="M37,87.19l2.5,0,.62.09c.24.18.45.46.71.52A1.3,1.3,0,0,1,42,89.34a3,3,0,0,0,1.25,2.85c-.65.67-1.58.28-2.32.61a2.86,2.86,0,0,1-1.45-.14c-2.29-1.1-2.1-3.33-2.4-5.34Z"/><path class="cls-40" d="M58.18,116.48a1.42,1.42,0,0,0-1.26.72c-.41.72-.84,1-1.72.45-.55-.36-1.43.67-2.11-.13-.57.6-1,1.27-2.13.93-.8-.25-1.33.84-2.09,1.14v-.31c0-2.85-.72-3.76,3.43-3.84.85,0,1-.59,1.42-1,1.31-1,1.74-1,2.88.11C57.17,115.18,57.66,115.85,58.18,116.48Z"/><path class="cls-40" d="M58.8,117.1l-.62-.62Z"/><path class="cls-10" d="M43.91,15.77a1.62,1.62,0,0,1,.08-.49l.51.49h-.59Z"/><path class="cls-41" d="M44.5,103.42H35.27a2.17,2.17,0,0,1-2-.62c1.07-1,2.43-.87,3.75-.88a6.72,6.72,0,0,1,4.34.87l5,0v.6Z"/><path class="cls-15" d="M48.24,97.2c.08,0,.25.12.24.14,0,.21-.14.16-.24-.14Z"/><path class="cls-30" d="M41.39,46.24c.19.58.5,1.19-.55,1.23s-2,0-2.5-1.2Z"/><path class="cls-42" d="M41.4,102.79H37.05c.39-2.76-2.17-5.79.76-8.32a3,3,0,0,1-.91-1.2.83.83,0,0,1,.38-.75c1.11-.8,2.37.53,3.48-.25l2.49-.08,1.87.07c-.74.92-1.92.51-2.85.91-.65.28-1.13.74-.8,1.28,1,1.59.62,3.58,1.66,5.14.33.5-.07.79-.94.62-.32-.07-.62-.13-.72.22C41.26,101.2,40.83,102,41.4,102.79Z"/><path class="cls-43" d="M33.33,92.28l-5.62-.09c1.18-1.29,1.71-2.68.66-4.31,1.15-.59,2.38-.27,3.57-.28,4,0,4.39.38,4,4.58A1.87,1.87,0,0,1,33.33,92.28Z"/><path class="cls-44" d="M35.8,92.19a5.78,5.78,0,0,1-.64-2.32c-.16-1.93-.21-2-2.22-2-1.52,0-3,0-4.57,0l-.67-.58,4.4-.09,5,.11c.6.66,1.42,1.19,1.21,2.29a2.77,2.77,0,0,0,1.23,2.58c-.71.62-1.58.22-2.37.36A1.25,1.25,0,0,1,35.8,92.19Z"/><path class="cls-31" d="M32.7,40.61l-.62-.6Z"/><path class="cls-41" d="M27.72,96c-.32.39-.63.79-1,1.15a.64.64,0,0,1-.52.19.61.61,0,0,1-.33-.41c-.31-1.62.63-2.72,1.66-3.73a1.79,1.79,0,0,1,1.15-.29c1.33,0,2.66,0,4,0,1.38,3.32.79,8-1.24,9.94l-5.58,0a4.26,4.26,0,0,1,.81-2.23,7.42,7.42,0,0,0,1-4.59Z"/><path class="cls-45" d="M31.45,102.8c.32-.64.62-1.28.94-1.92a1.64,1.64,0,0,0,.12-1.47,4.39,4.39,0,0,1,0-3.23,15.85,15.85,0,0,0,.21-3.32h.63a5.08,5.08,0,0,1,3.72,0c.58.7,1.41,1.2,1.68,2.13.11.38.29.79-.13,1-.07,0-.4-.4-.63-.58a1.14,1.14,0,0,0-.52-.22c-.24,0-.36.14-.36.4a4.42,4.42,0,0,0,.08,1.51c.87,1.92.44,3.78-.11,5.65h-5.6Z"/><path class="cls-41" d="M37,92.85H33.32c0-.19,0-.38,0-.57l2.47-.09,1.25.09c.2.13.27.25.2.38s-.13.19-.2.19Z"/><path class="cls-45" d="M37.05,92.85v-.57l2.47-.09,1.24.08a1.58,1.58,0,0,1-1.31.58Z"/><path class="cls-37" d="M27.72,96a5.54,5.54,0,0,1,.07-.57c0-.09.12-.23.16-.22.25,0,.34.2.2.42a2.21,2.21,0,0,1-.43.37Z"/></g></g></g></svg>