<svg xmlns="http://www.w3.org/2000/svg" viewBox="0 0 65.75 123.11"><defs><style>.cls-1{fill:#85542a;}.cls-2{fill:#8a592d;}.cls-3{fill:#89582d;}.cls-4{fill:#996a3c;}.cls-5{fill:#845328;}.cls-6{fill:#b28353;}.cls-7{fill:#b28553;}.cls-8{fill:#8a572b;}.cls-9{fill:#c49c6d;}.cls-10{fill:#a67746;}.cls-11{fill:#8a582d;}.cls-12{fill:#c19768;}.cls-13{fill:#a97947;}.cls-14{fill:#805128;}.cls-15{fill:#bd9361;}.cls-16{fill:#bd9363;}.cls-17{fill:#bd9466;}.cls-18{fill:#cca677;}.cls-19{fill:#a17040;}.cls-20{fill:#c59b6d;}.cls-21{fill:#c59c6c;}.cls-22{fill:#b98d5c;}.cls-23{fill:#845329;}.cls-24{fill:#532c17;}.cls-25{fill:#c7a071;}.cls-26{fill:#ac7748;}.cls-27{fill:#cea77b;}.cls-28{fill:#966137;}.cls-29{fill:#b88d5d;}.cls-30{fill:#d2ad80;}.cls-31{fill:#cba477;}.cls-32{fill:#b18452;}.cls-33{fill:#b18050;}.cls-34{fill:#6a472a;}.cls-35{fill:#c59465;}.cls-36{fill:#d4ad7f;}.cls-37{fill:#ac7e4c;}.cls-38{fill:#bb905f;}.cls-39{fill:#a27343;}.cls-40{fill:#a27545;}.cls-41{fill:#85582d;}.cls-42{fill:#915f32;}.cls-43{fill:#a67948;}.cls-44{fill:#9f7343;}.cls-45{fill:#9d5c33;}.cls-46{fill:#a17241;}.cls-47{fill:#bd9464;}.cls-48{fill:#a17445;}.cls-49{fill:#b68a58;}.cls-50{fill:#b18451;}.cls-51{fill:#ac7f4d;}.cls-52{fill:#623a23;}.cls-53{fill:#845631;}.cls-54{fill:#aa7d4c;}.cls-55{fill:#784a2b;}.cls-56{fill:#b08451;}</style></defs><g id="Layer_2" data-name="Layer 2"><g id="Layer_1-2" data-name="Layer 1"><g id="bishop_white" data-name="bishop white"><path class="cls-1" d="M.29,121c.39-4.31,2.36-7.41,6.67-8.72a2.25,2.25,0,0,0,1.44-1.07C10,110,11.88,110,13.73,110c12.93.5,25.87.2,38.81.35a12,12,0,0,1,3.69.28,1.78,1.78,0,0,1,.85.73c-.59,1.54-2,1.21-3.15,1.3-2.25.18-4.53-.25-6.76.37a8.6,8.6,0,0,1-2.08.27c-7.31.1-14.62,0-22.21.08.6,1.33,2,1.72,2.32,3,.53,4.58-.71,5.94-5.1,6.19-5.87.34-11.74.09-17.61.15C1.47,122.72-.32,123.34.29,121Z"/><path class="cls-2" d="M24.54,41.7a64.41,64.41,0,0,1-6.49-9.06A8.09,8.09,0,0,1,17.27,25c2.3-6.1,4.81-12.1,7.38-18.09.43-1,1.2-1.95,1.07-3.17l.38-.23a37.14,37.14,0,0,1,5.27.26,2.08,2.08,0,0,1,.76.44,1.42,1.42,0,0,1,.16.86,4.86,4.86,0,0,1-.47,1.25,6,6,0,0,1-.45.77,39.69,39.69,0,0,0-6.64,13.56C22.66,29,25.68,36,33.29,40.26l3,1.34a2.33,2.33,0,0,1,.77.63c.32.68-.16.93-.63,1.2-3,.59-6.09.21-9.13.26A2.73,2.73,0,0,1,24.54,41.7Z"/><path class="cls-3" d="M19.45,88.34c-1.31-1.16-1.34-1.18-.76-2.47a91.32,91.32,0,0,0,5-13.59A43.32,43.32,0,0,0,25.27,55.8c-.24-1.95-.53-3.88-1.88-5.45,2.09-.84,4.1-.34,6.1.35a3.88,3.88,0,0,1,.67,3.52c-.81,3.28-.3,6.53,0,9.8s0,6.36.26,9.53A6.77,6.77,0,0,1,30.16,75a57.52,57.52,0,0,1-3.24,8.66c-.52,1.2-1.27,2.38-.89,3.82a1.24,1.24,0,0,1-.64.67A15,15,0,0,1,19.45,88.34Z"/><path class="cls-4" d="M56.92,111.25c-13,0-26,.06-39-.06-3.16,0-6.31-.15-9.47.06a2.26,2.26,0,0,1,1.9-2.41c.47-.14,1,0,1.24-.67,4.72-.83,9.48-.14,14.21-.32a12.64,12.64,0,0,0,3.68-.34,111,111,0,0,1,13.89-.19,6.22,6.22,0,0,1,2.41.49c.71.32,1.86.37,1.67,1.44-.14.77-1.13.71-1.84.74a23.11,23.11,0,0,0-3.72.17c4.1-.12,8.59-.66,13.11-.35C55.8,110,56.89,109.92,56.92,111.25Z"/><path class="cls-5" d="M29.55,108.15a1.84,1.84,0,0,1-1.66.62c-4.66,0-9.32,0-14,0a6.44,6.44,0,0,1-2.38-.61,25.71,25.71,0,0,1-3.74-3.41,1.58,1.58,0,0,1-.59-1.59c2.26-2.23,4.91-1.5,7.53-1a2.54,2.54,0,0,0,.61.07C21.34,101.2,25.41,104.76,29.55,108.15Z"/><path class="cls-6" d="M57.61,111.78a11.56,11.56,0,0,0,1.45.54c4.25,1,6.8,6.24,6.68,9.48,0,.82-.27,1.19-1,1.21-1.13,0-2.27,0-3.4-.05a5.59,5.59,0,0,1-1.82-2.75,10.26,10.26,0,0,0-1.84-3.1c-.73-1.75-2.18-1.12-3.46-1-.26-.06-.1-.37-.27-.49-.12.29.27.44.2.73a20.67,20.67,0,0,1-6,2.33c-.82-2.09-1.7-4.17-.36-6.37C51,111.87,54.36,112.72,57.61,111.78Z"/><path class="cls-7" d="M36.41,42.21l-.61,0a1.83,1.83,0,0,1-.49-1.12c.44-5.75-.53-11.47-.51-17.23,0-5.28.65-10.7-.68-16a4.22,4.22,0,0,1,.26-3.6A2.25,2.25,0,0,1,36.93,4c2.45,4.21,2.18,8.84,2,13.45a11.19,11.19,0,0,1-1.41,3,3.07,3.07,0,0,0-.55,2c1.86,2.18,2,4.85,2.14,7.53a51.74,51.74,0,0,1-.41,11.33C38.26,42.32,37.24,42,36.41,42.21Z"/><path class="cls-8" d="M.29,121c.13.78.47,1.36,1.36,1.38.72,0,1.44,0,2.16,0,4.21,0,8.42,0,12.63,0,1.21,0,2.48.27,3.55-.62.13-.11.46-.19.55-.11,2.32,2.06,2.26-1.57,3.73-1.58.11,0,.28-.73.3-1.12.05-.92,0-1.85,0-2.77,1.31-.53,2.43.2,3.51.67a73.61,73.61,0,0,0,13.79,4.35c.91.49,2.35.2,2.57,1.73-4.24,0-8.48.09-12.72.09-9.52,0-19,0-28.56,0-.73,0-1.45,0-2.18,0-.94,0-1.08-.27-1-1.48A1.84,1.84,0,0,1,.29,121Z"/><path class="cls-9" d="M45.16,37.39a2.57,2.57,0,0,1-1.29,1.77c-2.2-4.56-4.36-9.3-4-14.38.23-3.15,2.44-6,4.26-8.69.13-.2.53.12.72.38,1,3.32.43,6.7.44,10.06,0,.78-.48,1.22.62,2.2,1.45,1.29.92,4,.31,6.12A17.6,17.6,0,0,1,45.16,37.39Z"/><path class="cls-10" d="M44.46,123a1.52,1.52,0,0,0-1.26-.54,1.38,1.38,0,0,1-1.21-.6c-1.18-1.69-1-3.71-1.18-5.59-.15-1.21.12-2.62,2-1.85.14,0,.21,0,.19-.1-.58-2.06,1.54-1,2.06-1.79l1.85,0a.38.38,0,0,1,.65,0c.16,1.82.8,3.58.72,5.45,0,.24.33.49.5.73a3.13,3.13,0,0,1,0,4.24A16.32,16.32,0,0,1,44.46,123Z"/><path class="cls-11" d="M14.68,103.15c-2.49-1.1-5-.66-7.47,0a1.33,1.33,0,0,1,.39-1.41q5.13-4.67,10.29-9.3a4.29,4.29,0,0,1,1.1-.52c.89.06,1.82-.16,2.58.51.72,1.32-.22,2.13-.95,3-1.48,1.72-2.88,3.5-4.23,5.32A25.05,25.05,0,0,1,14.68,103.15Z"/><path class="cls-12" d="M42.06,51c-1.74,4.64-1.58,9.41-1,14.22l.39,3.64c.56,2.08.35,4.27,1.09,6.34.3.83.34,2-.74,2.38-.48.18-.79-.24-.6.7A28,28,0,0,1,42,82.82c0,.75-.57,2.22-1.13,1.5-1.2-1.53-1.12.51-1.68.32-1.67-1.33-1.85-3.28-1.63-5.07.77-6.2.28-12.49,1.6-18.65.69-3.22-.31-6.56.11-9.84a1.91,1.91,0,0,1,1.94-.65A1.61,1.61,0,0,1,42.06,51Z"/><path class="cls-13" d="M56.92,111.25c-.45-.73-1.18-.6-1.86-.62-2.49-1.39-5.33-1.47-8-2.08-1.79-.4-2.84-1.58-4.12-2.56-.94-.72-.61-1.46.81-2.22-1.87.83-3.32,1-4.77.47-.57-.23-1.13-.63-.49-1.38,1.29-.73,2.69-.57,4.08-.57,1.75,0,3.51,0,5.27.06a7.32,7.32,0,0,1,1.48.2c3.34.08,5.11,2,5.81,5.07-.09.4-.73.91.18,1.14,1.31.33,2.24,1,2.21,2.5-.2.28-.4.28-.59,0Z"/><path class="cls-14" d="M41.28,50.89,39.51,51a4,4,0,0,1-3,.85c-1,0-2.06,0-3.09,0a24.19,24.19,0,0,1-2.55-.13A2.34,2.34,0,0,1,29.57,51a17.67,17.67,0,0,1-6.18-.61A1.52,1.52,0,0,1,22,48.46a3.09,3.09,0,0,1,3.19-1.41c5.62.77,11.27.44,16.91.48,1.39,0,2.61.21,1.75,2.11-.19.6-.7.73-1.22.86A6,6,0,0,0,41.28,50.89Z"/><path class="cls-15" d="M48.22,103.16H42.63c-.92-3.57-1.78-7.14-.12-10.74,1.42-1,3-.62,4.54-.54a.65.65,0,0,1,.53.21c.14.16.34.34.32.51C47.46,96.14,48.13,99.64,48.22,103.16Z"/><path class="cls-16" d="M39,17.49a5,5,0,0,1-.71-2.61,7.1,7.1,0,0,0-.39-3.32A2.4,2.4,0,0,1,38,9.78c.11-.37.23-1,0-1.15-1.33-1.23-1-2.81-1-4.3a3.54,3.54,0,0,1,3.14-1.05,1.24,1.24,0,0,1,.66.53c.13,1.58,1,2.88,1.6,4.29a3.17,3.17,0,0,1,0,2.92C41.28,13.17,40.48,15.52,39,17.49Z"/><path class="cls-17" d="M44.48,16.14a9.75,9.75,0,0,0-1.4,3.36,6.79,6.79,0,0,1-1.94,3.44,2,2,0,0,0-.65,2.17,32.42,32.42,0,0,0,1.38,6.6,9.21,9.21,0,0,1,.2,2.41c.35.31,1.24-.4,1.13.48-.18,1.61.72,3,.67,4.56A7.5,7.5,0,0,1,42,41.65c-.87-1.73-1.91-3.47-1.68-5.48s-.26.12-.52-.06A1.53,1.53,0,0,1,39,34.64c.42-3.7-.51-7.37-.1-11.06A64,64,0,0,1,44,15C45,15,44.81,15.53,44.48,16.14Z"/><path class="cls-18" d="M44.48,16.14A1.23,1.23,0,0,0,44,15c.77-1.1.86-1.11,1.27-.3a4.22,4.22,0,0,1,.55,2c.26.44.15,1,.59,1.38h0c.53.51,0,1.41.68,1.86v0a26.14,26.14,0,0,1,.6,13.84,9.19,9.19,0,0,1-2.49,3.73,35.5,35.5,0,0,0,.56-8c0-.27.13-.6-.29-.82-.17.18-.34.52-.56.56-.42.07-.38-.34-.38-.63Q44.47,22.33,44.48,16.14Z"/><path class="cls-19" d="M43.87,49.64c-.13-.63.17-1.39-1.08-1.34-3.81.14-7.62.23-11.42.07-1.8-.07-3.63.17-5.46-.41a4.94,4.94,0,0,0-3.89.5,1.6,1.6,0,0,1,.8-1.83c.83-.48.57-1.21.58-1.9a1,1,0,0,1,1,0c4.46,1.85,9.08,1,13.65.72,1.52-.09,3-.7,4.54,0,0,.86.82,1.08,1.24,1.61C44.48,47.83,44.92,48.74,43.87,49.64Z"/><path class="cls-20" d="M39.51,84.52v-1.9c1,0,.85,1.15,1.56,1.31.09-.13.25-.25.28-.39,0-.3,0-.62,0-.92.16-1.17-1.55-1.82-.89-3.09.57-1.09-.31-2-.31-3a4.9,4.9,0,0,1,.15-.82c.72.22.74,1,1.26,1.32.28.08.4,0,.39-.3a4.48,4.48,0,0,0,0-1.22c-.78-2.19-.56-4.44-.52-6.69a13.08,13.08,0,0,1,1.27,5c.47,4.19,1.72,8.31,2,12.46a3.61,3.61,0,0,1,3,.68h0a.53.53,0,0,1-.07.64l0,0a3.09,3.09,0,0,1-.9.47,9.7,9.7,0,0,1-5.1.11,4.65,4.65,0,0,1-2.3-1.2A2,2,0,0,1,39.51,84.52Z"/><path class="cls-21" d="M48.22,103.16a27,27,0,0,1-1.31-4.73A5,5,0,0,1,47,96c.28-1.3.43-2.62.63-3.93a8.29,8.29,0,0,1,3.19,2.77c1.45,1.48,2.7,2.9,1.21,5.2-.57.88.87,2.31-.29,3.38-.75,0-1.53.23-2.23-.24Z"/><path class="cls-22" d="M38.85,23.58c.79.58.66,1.43.66,2.24,0,3.17,0,6.34,0,9.53,1.15-.21.18-1.33,1-1.7.45.24.17.77.22,1.17a10.07,10.07,0,0,1,0,1.23q0,.77,0,1.53c0,.41.28.46.62.42s.71-.61,1.05-.07a1.15,1.15,0,0,1-.13,1.15c-.41.82-.95,1.62-.32,2.57v1.22a5.86,5.86,0,0,1-3.73-1.24c.15-3.08-.38-6.19.41-9.23-.52-1.6-.25-3.28-.51-4.89s-.77-3.4-1.16-5.09C37.7,22.67,38,23.53,38.85,23.58Z"/><path class="cls-23" d="M42.58,45.38a18.58,18.58,0,0,1-6.28,1.14c-3,.26-6.15.06-9.23.08A4.49,4.49,0,0,1,24.72,46,1.59,1.59,0,0,1,24,44.75l-.27-.3.11-.38a1.77,1.77,0,0,1,.66-.42,4,4,0,0,1,.77-.13c.26,0,.52,0,.78,0h1.9a6.31,6.31,0,0,1,1.5.15,3.48,3.48,0,0,0,1.84-.06,4.57,4.57,0,0,1,1.65.08,8.15,8.15,0,0,0,3.51.1,11.65,11.65,0,0,1,3.89-.48,4.67,4.67,0,0,1,2.43.76C43.16,44.56,42.92,45,42.58,45.38Z"/><path class="cls-24" d="M19.45,88.34a2.11,2.11,0,0,1,1.89-.72l4.51,0a1.89,1.89,0,0,1,2.06-.21C30,89,30.09,90.74,28,92.48c-2.65.82-5.26.2-7.87-.26-.47-.09-.63-.45-.52-.92A5.42,5.42,0,0,0,19.45,88.34Z"/><path class="cls-25" d="M60,120a11.37,11.37,0,0,1,1.26,3c-3.95.12-7.9.2-11.85,0-.48-.7-.24-1.47-.22-2.22.13-.28.34-.65.6-.64,3,0,5.85-.82,8.78-1.15C59.29,118.86,59.66,119.46,60,120Z"/><path class="cls-26" d="M25.13,3.16c-.76-1.33-.71-1.61.51-2.67C29.43.3,33.23-.14,37,.83c1.37.35,2.61-.33,3.93-.34a.48.48,0,0,1,.42.27,2.54,2.54,0,0,1,.16,2.42l-.66.63-.17-.23c-5-.19-10-.1-15-.45Z"/><path class="cls-27" d="M47.67,87c-1.12,0-2.24,0-3.36,0-.17,0-.34-.15-.51-.23.42-1.39.33-1.36-.23-3a13.16,13.16,0,0,1-1-4.43c0-1.84.05-3.67.07-5.5,1,2.57,2,5.12,2.93,7.71C46.27,83.34,47.35,85,47.67,87Z"/><path class="cls-28" d="M41.43,87.58l5.43.08c.21.08.3.18.25.31s-.1.21-.16.21a3,3,0,0,0,.1,3.7,1.8,1.8,0,0,1-1.63.69l-2.79.07a2.37,2.37,0,0,1-2.79.26c-.25-1.84,1.06-3.29,1.23-5Z"/><path class="cls-29" d="M49.46,120.58l0,2.37h-.62c0-1.41,0-2.83,0-4.24.63-.37.59-1,.67-1.62s.28-1,.87-1.09.68.37.91.71.51.3.61-.06c.29-1.1.81-.38,1.33-.25s.52-.43.59-.8h0c.46.08,1.26.8,1-.5-.09-.44,0-.78.38-1s.58.06.79.27a10.13,10.13,0,0,1,2.17,2.45c-1.15,2.68-3.92,1.84-5.92,2.62A8,8,0,0,0,49.46,120.58Z"/><path class="cls-30" d="M47.65,33.66a8,8,0,0,0-.4-2.7,3.31,3.31,0,0,1,0-2.38,7.35,7.35,0,0,0-.45-5.91,2.5,2.5,0,0,1,.24-2.85c1.55,2.36,2.11,5.09,2.94,7.72A3.73,3.73,0,0,1,49.76,30,10.07,10.07,0,0,1,47.65,33.66Z"/><path class="cls-31" d="M52,103.14c-.72-1-.61-2.17-.91-3.25a1.09,1.09,0,0,1,.62-1.29c.62-.21,1-.39.51-1a6.61,6.61,0,0,1-1.41-2.73,8.1,8.1,0,0,1,3,2.75c.22.19.42.38.62.59h0c.45,1.8,2.57,3.1,1.56,5.34C54.56,104.24,53.26,103.74,52,103.14Z"/><path class="cls-32" d="M29.56,44.11H27.73a.44.44,0,0,0-.67,0h-1.2a.44.44,0,0,0-.67,0h-.57a.38.38,0,0,0-.62,0h0a.36.36,0,0,1-.58,0A1.24,1.24,0,0,1,24,42.92a1.38,1.38,0,0,0,.57-1.22,4,4,0,0,0,3,1.23c3.16-.12,6.33,0,9.5-.06,2.5-.9,2.85-.76,3.12,1.22-1.21.13-2.49-.18-3.6.56-1.23-.62-2.65.21-3.86-.54H30.81A.84.84,0,0,1,29.56,44.11Z"/><path class="cls-33" d="M52,103.14H56.3c1.1-.66,2.13-1,2.57.71a12,12,0,0,1-3.75,3.77c-.82-.64-1.68-1.14-1.66-2.48,0-.77-.75-1.37-1.74-1.35-.79,0-1.66.19-2.26-.59Z"/><path class="cls-34" d="M19.59,91.3c.47.7,1.2.69,1.93.69l6.78,0c2.29-.73,4.58-1.46,4.87-4.41a1.51,1.51,0,0,1,1.48-.14c1.56,1.27,1.49,2.83.84,4.51a3.44,3.44,0,0,1-1.83,1.25c-2,.52-4,.27-6.08.31s-4.16.55-6-.79c-.86-.2-1.91.24-2.55-.75A.83.83,0,0,1,19.59,91.3Z"/><path class="cls-35" d="M40.9.49a3.26,3.26,0,0,1-4.63.82,5.08,5.08,0,0,0-2.92-.7c-2.57,0-5.14-.08-7.71-.12A1.8,1.8,0,0,1,27.05,0c4.35,0,8.69.05,13,.11C40.36.11,40.63.36,40.9.49Z"/><path class="cls-36" d="M58.87,103.85c-.67-.93-1.69-.58-2.57-.71a1.91,1.91,0,0,0-.32-.52,4.5,4.5,0,0,1-1.55-4.41,27.3,27.3,0,0,1,4.12,3.54C59.07,102.21,59.71,103,58.87,103.85Z"/><path class="cls-37" d="M40.13,44.09c-.08-.63-.35-1.13-1.07-1.17s-1.36,0-2.05-.05l-.6-.66c.47-.69,1.19-.55,1.86-.58,1.4,0,2.81-.13,3.73,1.24a1.09,1.09,0,0,1,.74,1.19Z"/><path class="cls-4" d="M56.92,111.25h.59a.64.64,0,0,1,.1.52c-.57.8-1.42.72-2.24.72l-7.76,0-.65,0a2.23,2.23,0,0,1,1.95-.6H55C55.69,111.87,56.42,111.92,56.92,111.25Z"/><path class="cls-35" d="M41.48,3.18,41.33.76C42.23,1.81,42.24,1.93,41.48,3.18Z"/><path class="cls-30" d="M47.05,19.85c-.83-.4-.69-1.16-.68-1.86A2.1,2.1,0,0,1,47.05,19.85Z"/><path class="cls-30" d="M46.38,18a1.19,1.19,0,0,1-.59-1.38A1.55,1.55,0,0,1,46.38,18Z"/><path class="cls-38" d="M41.28,50.89a1.25,1.25,0,0,1,1.37-.39c-.2.16-.39.33-.58.5Z"/><path class="cls-2" d="M23.4,44.14a3.75,3.75,0,0,1,.58,0c0,.2,0,.41,0,.61H23.4A.62.62,0,0,1,23.4,44.14Z"/><path class="cls-27" d="M47.58,87.59c0-.21.05-.43.07-.64C48.13,87.22,48.05,87.43,47.58,87.59Z"/><path class="cls-27" d="M47,88.18a2.27,2.27,0,0,1-.09-.52l.69,0A.71.71,0,0,1,47,88.18Z"/><path class="cls-36" d="M54.42,98.2l-.62-.59A.77.77,0,0,1,54.42,98.2Z"/><path class="cls-26" d="M25.72,3.73a.61.61,0,0,1-.59-.57L25.39,3c.49,0,.68.28.63.74Z"/><path class="cls-39" d="M45.11,112.51a2.68,2.68,0,0,1-.14.59c-.34.59-1.43-.19-1.46.65,0,.52.54,1,.78,1.6a1.72,1.72,0,0,1,0,1.58c-.74-.3-.82-1.06-1.19-1.58s-.61-.91-1.22-.64-.44.86-.47,1.35a1.55,1.55,0,0,0,.05.61c.71,1.67.54,3.43.54,5.17a30,30,0,0,1-8.32-1.92c-3.08-1.06-6.06-2.44-9.08-3.69-.4-.66-1.14-.85-1.75-1.19a4.52,4.52,0,0,1-2.12-2,1.51,1.51,0,0,1,.13-.34.43.43,0,0,1,.27-.1Z"/><path class="cls-40" d="M33.3,41c-2.92-.88-4.88-3-6.63-5.29-3.36-4.36-4-9.28-2.84-14.61A39.34,39.34,0,0,1,30.67,6.72a2.91,2.91,0,0,1,.74-.53c1.34.5,1.42,1.71,1.41,2.82,0,2.87.85,5.73,0,8.6A4.07,4.07,0,0,0,33.2,20a6.33,6.33,0,0,1,.38,3.94c-1.18,3.32-.13,6.7-.35,10.05C33.07,36.27,33.31,38.66,33.3,41Z"/><path class="cls-37" d="M33.3,41a3.35,3.35,0,0,1-.76-3.38A4,4,0,0,0,32,33.78a.84.84,0,0,1,0-1.13,3.91,3.91,0,0,0,.47-3.56c-.45-1.82-1-3.58.42-5.26.36-.4,0-1-.19-1.46-.4-.95.67-2.38-1-2.94-.1,0-.09-.56,0-.84.22-1.1.48-2.2.69-3.31a2.35,2.35,0,0,0,.05-1.2c-.68-1.61-.4-3.27-.42-4.91a5.67,5.67,0,0,0-.66-3h0c.41-.3.26-.9.64-1.22h0c.26-.35.38-.81.84-1a1.45,1.45,0,0,1,1.63.37c.26,2.14.37,4.32.82,6.42a14.62,14.62,0,0,1,0,7c-.3,1.18-.54,2.45.57,3.48a1.24,1.24,0,0,1,.27,1.43c-.68,1.6-.26,3.28-.42,4.92-.23,2.54-.71,5.09.58,7.51,0,1.84.35,3.71-.35,5.52a6.41,6.41,0,0,0-.2,1.53Z"/><path class="cls-41" d="M34.54,4.34l-1.86,0a.36.36,0,0,1-.59,0c-1.24,0-2.48,0-3.72,0A4.06,4.06,0,0,1,26,3.75L25.39,3a1.43,1.43,0,0,1,1.35-.53,70.21,70.21,0,0,1,7.68.07c2.08.23,4.24.18,6.23,1L37,4.33Z"/><path class="cls-40" d="M32.06,5a1.24,1.24,0,0,1-.64,1.22A1.24,1.24,0,0,1,32.06,5Z"/><path class="cls-40" d="M32.09,4.35a5.83,5.83,0,0,1,.59,0L32.07,5A4.19,4.19,0,0,1,32.09,4.35Z"/><path class="cls-42" d="M29.57,51l1.3,0c1.87,1.31,1.76,3.44,1.94,5.31a34.34,34.34,0,0,1-.08,8c-.6,2.35-.55,4.85-1.38,7.16-.35,1-.2,2.36-1.78,2.46-.07-1.63.23-3.31-.48-4.89a.86.86,0,0,1,0-.61c.86-1.93.23-3.81-.06-5.75-.34-2.23.16-4.54-.27-6.8,1.29-1.39.52-3.1.72-4.66A1.72,1.72,0,0,1,29.57,51Z"/><path class="cls-43" d="M29.57,74a20,20,0,0,0,1.86-7.36c0-.72-.06-1.47.62-2,1.61,3.21,1,6.64.63,9.94a25.46,25.46,0,0,0-.18,5.73A9.61,9.61,0,0,1,31,87.08a2.23,2.23,0,0,1-2.56.21c-1.14-1.44-.79-3.09-.57-4.69.33-2.52,1.34-4.89,1.65-7.41Z"/><path class="cls-44" d="M29.56,75.19c.36,2.41-.47,4.71-.7,7.06-.12,1.21-.61,2.35-.12,3.6.11.29-.26.76-.41,1.14a2.41,2.41,0,0,1-2.5,0c-.41,0-1-.16-.81-.63a31.54,31.54,0,0,1,1.44-3.68,39.06,39.06,0,0,0,2.71-7.07C29.21,75.47,29.42,75.34,29.56,75.19Z"/><path class="cls-45" d="M25.83,87l2.5,0h2.49a3.6,3.6,0,0,1,2.48-.82c1.24-.07,2.48,0,3.72,0A3.52,3.52,0,0,1,39.5,87c.68.06,1.41,0,1.93.55l-.1.1c-1.07.91-2.37.82-3.66.81a5.23,5.23,0,0,1-3.13-.82l-1.26,0c-1.86,1.31-3.72,1-5.58,0l-1.85-.09C25.84,87.39,25.83,87.2,25.83,87Z"/><path class="cls-46" d="M38.26,103.18c.52.67,1.26.61,2,.61h4.2c-.09.65-.47.55-.72.66s-.63.25-.73.47.16.6.48.64a1.83,1.83,0,0,1,1.78,1.4,1.68,1.68,0,0,0,2,1.16c2.64-.25,5,.91,7.55,1.3.81.13.39.75.3,1.21h-14a13.41,13.41,0,0,1-1.55-.08c-.4-.05.08.08-.11-.28,0-.09.17-.44.26-.44,2.44,0,4.82-.67,7.28-.62a10,10,0,0,0-4.73-1.07c-4.23.05-8.47,0-12.71,0-.5-.07-1.12,0-1.48-.24-1.82-1.29-4-2.08-5.34-4a1.75,1.75,0,0,0-1.6-.72l-6.45,0a2.14,2.14,0,0,1,1.19-2.48c2,1.57,4.42,1,6.69,1.06,1.24,0,2.48,0,3.72,0a8.67,8.67,0,0,1,1.82.25,7.56,7.56,0,0,0,1.82.32c.81,0,1.61,0,2.41,0a36.82,36.82,0,0,1,4.58.11A2,2,0,0,1,38.26,103.18Z"/><path class="cls-47" d="M49.46,120.58A2.85,2.85,0,0,1,52,118.84c1.23,0,2.31-1.32,3.74-.56.34.17.53-.18.68-.44a1.94,1.94,0,0,1,1.74-1c.76,1,1.75,1.77,1.87,3.11-.48-.15-1-.53-1.42-.43a11.91,11.91,0,0,1-4.36.48c-.18,0-.51.06-.55.17-.58,1.51-1.39.67-2.17.25S50.16,120.65,49.46,120.58Z"/><path class="cls-29" d="M53.81,115.6c-.09,0-.25-.11-.25-.14,0-.2.15-.15.25.14Z"/><path class="cls-48" d="M26.46,102.55H16.06c-.91-.6.71-1.33-.19-1.88a2.41,2.41,0,0,1,.53-1.38c1.45-1.67,2.88-3.36,4.34-5a3,3,0,0,0,.8-1.59l6.15,0a3.11,3.11,0,0,1,1,4.25C27.84,98.73,28.16,101,26.46,102.55Z"/><path class="cls-38" d="M39.5,87,37,87c-1.42-.77-1.56-2.14-1.44-3.49.51-5.79-.9-11.51-.56-17.3.26-4.42.3-8.85.56-13.28a3.21,3.21,0,0,1,.83-2l3.1,0c.79,3.12.61,6.31.61,9.48,0,.52.14,1.14-.09,1.53a4.78,4.78,0,0,0-.76,4.3,4.29,4.29,0,0,0,.09,3.28,3.72,3.72,0,0,1-.5,3.53,1.77,1.77,0,0,0-.33,2,3.67,3.67,0,0,1,0,2.69,8.59,8.59,0,0,0,.93,6.76Z"/><path class="cls-49" d="M38.26,103.18H37c-.43-3.59-1.47-7.22.69-10.64a2,2,0,0,1,.71-.22,1.19,1.19,0,0,1,.6.2s0,.3,0,.29a2.14,2.14,0,0,1,.27-.09l.24-.14,3.12.07a16.73,16.73,0,0,1-.11,3.4,3.84,3.84,0,0,0,.3,3.23,2.16,2.16,0,0,1,.12,2.08,8.89,8.89,0,0,0-.31,1.81Z"/><path class="cls-50" d="M36.41,51c-.16,2.35.34,4.73-.38,7.05.74,2.34-.24,4.64-.17,7,0,2,.4,4,0,6a2.71,2.71,0,0,0,.08,1.52c.62,1.59.35,3.25.55,4.87a19.36,19.36,0,0,1,0,6A5,5,0,0,0,37,87L33.3,87c-.95-4.11-.62-8.26-.34-12.4.23-3.33-.73-6.62-.49-9.92a44.74,44.74,0,0,0,0-7.85,11.73,11.73,0,0,0-.23-3.26A1.94,1.94,0,0,1,33.29,51Z"/><path class="cls-51" d="M33.29,51c-.63,1.15-.94,2.29,0,3.44A1,1,0,0,1,33.23,56a2,2,0,0,0-.1,2.8,2.62,2.62,0,0,1,.16,3.62,2,2,0,0,0,.2,3,1.18,1.18,0,0,1,0,1.68c-.7.9-1.11,1.74,0,2.66.52.45.43,1.13.45,1.74.06,1.94-.39,3.88,0,5.81.25,1.25-1.24,2-1,3.13s1,2,1,3.2-.54,2.19-.65,3.31H30.82c.29-1.81.5-3.65.91-5.43a2.55,2.55,0,0,0-.27-2.31,2.54,2.54,0,0,1,.13-3.62,2.71,2.71,0,0,0,.46-2v-9c0-2.25,0-4.5,0-6.75A23,23,0,0,0,30.86,51Z"/><path class="cls-2" d="M32.67,44.11c1.3.11,2.69-.46,3.85.54-.86,0-1.73.06-2.6.07A1.47,1.47,0,0,1,32.67,44.11Z"/><path class="cls-2" d="M29.56,44.11h1.25C30.39,44.75,30,44.75,29.56,44.11Z"/><path class="cls-2" d="M24,44.13c.19-.37.4-.36.62,0C24.41,44.12,24.21,44.13,24,44.13Z"/><path class="cls-2" d="M25.19,44.1c.22-.4.45-.4.67,0Z"/><path class="cls-2" d="M27.06,44.1c.22-.4.44-.4.67,0Z"/><path class="cls-52" d="M27.7,87.67l5.58,0c0,1,0,2.07,0,3.11A1.12,1.12,0,0,1,32,91.94c-1.24,0-2.49,0-3.73,0,0-.1,0-.21.05-.29C29.24,90.15,28.81,88.86,27.7,87.67Z"/><path class="cls-53" d="M38.89,92.64h-.63c-1.3.44-2.6,1.06-4,.28l-.34-.39A1.33,1.33,0,0,1,35.16,92c1.73-.92,1.46-3,2.46-4.3,1.24,0,2.48,0,3.71,0a9.7,9.7,0,0,0,.06,1.53,2.81,2.81,0,0,1-1.88,3.36l0,.07A.4.4,0,0,1,38.89,92.64Z"/><path class="cls-54" d="M26.46,102.55c.8-2.71,1-5.57,2.49-8.16a3.62,3.62,0,0,0-.79,0c-1,.25-1.19.12-1-.63a8.41,8.41,0,0,1,.5-1.11l6.24-.13,0,.15c-.53,2.44-1.31,4.83-.74,7.41.25,1.13-.46,2.14-1.09,3.08H29.57c-.32-.4-.92-.24-1.25-.62Z"/><path class="cls-55" d="M37.62,87.68c0,.69,0,1.38,0,2.07,0,2,0,2-2.48,2.23-.06-1.46.26-3-.62-4.31Z"/><path class="cls-56" d="M32.05,103.17c-.08-.39-.38-.93-.22-1.13a2.85,2.85,0,0,0,.4-3.08c-.62-1.55.37-3.11.33-4.71,0-.76.94-1,1.32-1.57l4.38,0c-.27.5-1.29.86-.22,1.59a2.36,2.36,0,0,1,.6,1,.6.6,0,0,1,0,.54c-.06.07-.33,0-.5,0-.81-.16-1.59.37-1.5,1.06a1.56,1.56,0,0,0,.29.83c1.06,1.24.86,2.62.54,4-.12.49-.26,1-.39,1.46Z"/><path class="cls-48" d="M28.32,102.55a1.28,1.28,0,0,1,1.25.62A1.29,1.29,0,0,1,28.32,102.55Z"/><path class="cls-56" d="M39.51,93.23a2.21,2.21,0,0,1,.43.37c.14.21.05.39-.2.42,0,0-.14-.14-.16-.22a5.54,5.54,0,0,1-.07-.57Z"/><path class="cls-56" d="M38.89,92.64h.64c0,.19,0,.39,0,.59h0Z"/></g></g></g></svg>