<svg xmlns="http://www.w3.org/2000/svg" viewBox="0 0 92.19 121.75"><defs><style>.cls-1{fill:#434343;}.cls-2{fill:#414141;}.cls-3{fill:#404040;}.cls-4{fill:#484848;}.cls-5{fill:#5e5f5f;}.cls-6{fill:#4a4a4a;}.cls-7{fill:#737373;}.cls-8{fill:#474646;}.cls-9{fill:#3c3c3c;}.cls-10{fill:#8e8e8e;}.cls-11{fill:#6c6d6d;}.cls-12{fill:#5b5a5a;}.cls-13{fill:#7b7d7d;}.cls-14{fill:#939393;}.cls-15{fill:#6b6969;}.cls-16{fill:#817e7e;}.cls-17{fill:#959696;}.cls-18{fill:#6c6f6f;}.cls-19{fill:#666;}.cls-20{fill:#696969;}.cls-21{fill:#686868;}.cls-22{fill:#828383;}.cls-23{fill:#6e7070;}.cls-24{fill:#6e6b6b;}.cls-25{fill:#706c6c;}.cls-26{fill:#696868;}.cls-27{fill:#726f6f;}.cls-28{fill:#727272;}.cls-29{fill:#5f5f5f;}.cls-30{fill:#626464;}.cls-31{fill:#6b6b6b;}.cls-32{fill:#747575;}.cls-33{fill:#707373;}.cls-34{fill:#6e6c6c;}.cls-35{fill:#706f6f;}.cls-36{fill:#494747;}.cls-37{fill:#4b4949;}.cls-38{fill:#8a8c8c;}.cls-39{fill:#666767;}.cls-40{fill:#4a4949;}.cls-41{fill:#717070;}.cls-42{fill:#534e4e;}.cls-43{fill:#787171;}.cls-44{fill:#514d4d;}.cls-45{fill:#757676;}.cls-46{fill:#737272;}.cls-47{fill:#7e7676;}.cls-48{fill:#7a7575;}.cls-49{fill:#4d4d4d;}.cls-50{fill:#7a7b7b;}.cls-51{fill:#8f8989;}.cls-52{fill:#814e4e;}.cls-53{fill:#616161;}.cls-54{fill:#5d5e5e;}.cls-55{fill:#5d5d5d;}.cls-56{fill:#606060;}.cls-57{fill:#656565;}.cls-58{fill:#575757;}.cls-59{fill:#606161;}.cls-60{fill:#5e5e5e;}.cls-61{fill:#5c5d5d;}.cls-62{fill:#504f4f;}.cls-63{fill:#505050;}.cls-64{fill:#676767;}.cls-65{fill:#6e6e6e;}.cls-66{fill:#686767;}.cls-67{fill:#292828;}.cls-68{fill:#303333;}.cls-69{fill:#616262;}.cls-70{fill:#6a6a6a;}.cls-71{fill:#878787;}.cls-72{fill:#7f7f7f;}.cls-73{fill:#868686;}.cls-74{fill:#8b8e8e;}.cls-75{fill:#303030;}.cls-76{fill:#4f4d4d;}.cls-77{fill:#878686;}.cls-78{fill:#787979;}.cls-79{fill:#706e6e;}.cls-80{fill:#838484;}.cls-81{fill:#2c2b2b;}.cls-82{fill:#5f5e5e;}.cls-83{fill:#767676;}.cls-84{fill:#707070;}.cls-85{fill:#7f8080;}.cls-86{fill:gray;}.cls-87{fill:#807f7f;}.cls-88{fill:#787878;}</style></defs><g id="Layer_2" data-name="Layer 2"><g id="Layer_1-2" data-name="Layer 1"><g id="knight_black" data-name="knight black"><path class="cls-1" d="M.47,55.55c-.83-1.19-.36-2.42-.11-3.64a1.68,1.68,0,0,1,1.85-1.06A22.32,22.32,0,0,0,7,51.12c1.36,0,2.68,0,3-1.8a2.26,2.26,0,0,0-1.85-2.94,15,15,0,0,0-3.89-1.09,3,3,0,0,1-2.15-.85,6.48,6.48,0,0,1,.71-3.08c.72-.68,1.38-.19,2,.11a23.93,23.93,0,0,0,2.18,1.17c3.73,1.64,3.83,1.6,5.09-2.32a1.09,1.09,0,0,0-.28-.84l-.48-.33a7.15,7.15,0,0,0-.77-.42,3.71,3.71,0,0,1-.53-.26c-.26-.14-.52-.28-.79-.4a3.68,3.68,0,0,1-.57-.26c-.29-.14-.58-.27-.88-.39l-.65-.23a14.1,14.1,0,0,1-1.45-.4c-.72-.4-1-.92-.54-1.69l0,0A3.06,3.06,0,0,1,6,34.35a1,1,0,0,1,.65-.07,4,4,0,0,1,.61.23,5,5,0,0,1,.57.28c.27.15.53.31.81.44a3.36,3.36,0,0,1,.54.26l.79.4a2.84,2.84,0,0,1,.53.25l.79.39a4.25,4.25,0,0,1,.52.27,8.08,8.08,0,0,0,.79.37,3.44,3.44,0,0,0,.55.15,1.23,1.23,0,0,0,.55-.15,3.81,3.81,0,0,0,.44-.46,2.24,2.24,0,0,1,.54-.48.92.92,0,0,1,.71.22c2.35,1.09,3.45,4.15,6.44,4.16,1.46,0,2,.76,2.18,2-2.24,5,.42,7.57,4.63,9.7,3.57,1.81,6.3,4.89,9.39,7.41a4.3,4.3,0,0,1,1.75,3.14c-.12,2-1.28,4,.49,5.88a1.51,1.51,0,0,1-.12,2,1.81,1.81,0,0,1-2,.53C36.72,71,35.89,70,35,68.92c-2.55-2.9-5-6.09-8.29-8-1.75-1-3.48-2.8-5.91-2.47-2.64-1.09-4.91-.25-7,1.37-.92.61-1.52,1.84-2.93,1.5L7.17,59.34c-.16-.84.48-1,1-1.25a17.49,17.49,0,0,0,6.14-2.72c-3-2.07-6-1.52-9-1.09C3.57,54.21,2.15,55.4.47,55.55Z"/><path class="cls-2" d="M74.88,109.72a.52.52,0,0,1,.12.53c-.24,1.74-1.69,1.52-2.81,1.59a63.66,63.66,0,0,1-7.31,0c-8.14,0-16.28,0-25.09,0A16,16,0,0,0,45,115.15,79.31,79.31,0,0,0,59,119.78c1.08.26,2.6,0,2.83,1.76-.82,0-1.64.14-2.47.14l-39.07,0c-.62,0-1.24,0-1.86,0a.87.87,0,0,1-.93-1,10,10,0,0,1,7.11-9.74,1.75,1.75,0,0,0,1.23-1.21c1.08-1,2.44-1,3.78-1,13.71.08,27.41.11,41.12,0C72.21,108.71,73.69,108.64,74.88,109.72Z"/><path class="cls-2" d="M20.84,58.11c1.61-1.12,1.84-1.12,2.73,0a11.49,11.49,0,0,0,1.1,1.47c.35.32.74.21.71-.42a1,1,0,0,1,.09-.56.3.3,0,0,1,.52.07,5.07,5.07,0,0,0,3.77,2.83c.46.06.81.42.67.84a1.53,1.53,0,0,0,.88,2.06c2.31.7,3.28,2.67,4.49,4.4a4.25,4.25,0,0,0,3,2,1,1,0,0,0,1-.46,1,1,0,0,0,.05-1.17,7.14,7.14,0,0,0-.92-.8c-.22-.22-.59-.56-.53-.72.53-1.48-.52-3.33,1.07-4.55l.39.12a2.33,2.33,0,0,1,.61.56,4.51,4.51,0,0,1,.4.75c-.64,4.34,2.4,6.72,5,9.29.86.85,2.2,1.28,2,2.86-1.83,3.21-4.58,5.83-5.77,9.46S41,90.2,44.87,90.23c1.85,0,3.71,0,5.56,0,1.12,0,2.31,0,3.12,1a3.31,3.31,0,0,1-.29,3.56c-2.62-2.86-6.1-2-9.38-2.26-5.56-.36-11.11-.86-16.68-.37-1.77-.68-1-2-.71-3.12s1.09-2,1.42-3.1a3.07,3.07,0,0,1,.72-1.13c1.8-1.72,3.07-3.87,4.84-6-1.91-.22-3.55,0-5.17-.1-1.55-.61-3.81.27-4.48-2.15a1.46,1.46,0,0,1,.69-1.13c1.73-.62,3.49,0,5.23-.16.31,0,.62,0,.93,0,4.27.09,4.27.09,2.63-3.92-.11-.23-.2-.47-.31-.71l-.18-.32c-.16-.19-.31-.37-.48-.55a4.57,4.57,0,0,0-1.33-.6c-1.41-.38-.62-1.75-1.15-2.53-.23-.42-.49-.83-.73-1.25-.13-.19-.25-.38-.37-.58s-.14-.18-.21-.27-.3-.32-.47-.48l-.26-.21-.57-.38a11.26,11.26,0,0,1-1.15-.8l-.59-.44c-.12-.06-.22-.14-.34-.2a4.81,4.81,0,0,1-1.66-1.15,6.26,6.26,0,0,1-.45-.57l-.42-.53-.22-.24L22,59.15a2.31,2.31,0,0,1-.24-.2c-.18-.11-.34-.24-.51-.36A1.18,1.18,0,0,1,20.84,58.11Z"/><path class="cls-3" d="M30.15,106.64c.17-.26.36-.51.5-.78,1-1.75.76-2.85-.7-4.07a4.2,4.2,0,0,0-.77-.53,6,6,0,0,1-3.38-5.82,2.58,2.58,0,0,1,2.54-.76c4,.7,8,.31,12,.43,1.3.46,1.43,2,2.4,2.72,2.1,2.69,5.23,2.57,8.14,2.85,2.55.24,5.13,0,7.69.09,1.29,0,2.72-.21,3.6,1.18a9.17,9.17,0,0,1-.08,3.69c-.24,1.38-1,2.35-2.45,2.34-9.69,0-19.38.65-29.06-.33A.79.79,0,0,1,30.15,106.64Z"/><path class="cls-4" d="M23.33,42.59c-.09-.61-.09-1.26-.87-1.45-.77.88-1.57.52-2.45.12a4.15,4.15,0,0,1-2.26-2.37c-.49-1.24-1.09-.77-1.83-.21-.46.35-.92,0-.82-.7s.14-1.21-.48-1.62c.29-3.21-1.54-5-4.19-6.18-.74-.41-1.64-.54-2.16-1.3a5.8,5.8,0,0,1,1.37-2.47c1-.41,1.46.37,2.08.83a7.68,7.68,0,0,1,.59.55l.29.28.61.55.32.26c.41.31.8.63,1.23.91.71.45,1.46.9,2.13,0a1.73,1.73,0,0,0-.14-2.25,7,7,0,0,0-3.88-2.79,2.39,2.39,0,0,1-1.51-.82,9.23,9.23,0,0,1,2.06-3.06c.53-.56,1-.32,1.51.07a17.88,17.88,0,0,0,2.65,2.64c2.31,1.5,3.72,1.32,4.66-.66s-1.14-2.51-1.85-3.7c-.54-1.4-2.8-1.9-2.06-4A2.94,2.94,0,0,1,19.63,14c1.74.05,2,1.72,3,2.64a26,26,0,0,0,3.66,3.9c.84,1.5-.88,2.1-1.15,3.29a3.72,3.72,0,0,0,3.25,1.23c1.6-.21,2.3.53,2.25,2.09a4.51,4.51,0,0,1-.4,1.19,7.12,7.12,0,0,1-.35.74c-.24.48-.48,1-.7,1.46C28.46,32,27.73,33.43,27,34.89a11.23,11.23,0,0,0-.59,1.38,6,6,0,0,1-.23.68,9.57,9.57,0,0,0-.47,1.3,3.79,3.79,0,0,1-.21.65,9.71,9.71,0,0,0-.42,1.29q-.09.33-.21.66c-.17.44-.31.89-.49,1.34a1.65,1.65,0,0,1-.45.57A.52.52,0,0,1,23.33,42.59Z"/><path class="cls-5" d="M61.87,121.54a1.56,1.56,0,0,0-1-.59A69,69,0,0,1,44.69,116a27.27,27.27,0,0,1-6.56-4,.63.63,0,0,1-.12-.54.67.67,0,0,1,.41-.38,6.29,6.29,0,0,1,1.22-.11q12.38,0,24.73,0c1.85,3.34,2.82,6.79,1.23,10.54A8.54,8.54,0,0,1,61.87,121.54Z"/><path class="cls-6" d="M89.87,55.05c-.35,1.61-2,2.66-1.87,4.51,0,.13-.44.4-.7.45a8,8,0,0,1-3-.36c-.15.14-.41.27-.4.39.09,2.58-.69,2.68-2.79,2.27-3.86-.76-7.69-1.61-11.54-2.42a2.38,2.38,0,0,1-2.2-2.21c-.18-1.42-.72-2.81-.57-4.28-.46-1.16,0-2.43-.4-3.6a2,2,0,0,1,.2-1.47c1-.85,2.15-.29,3.23-.12,1.3.45,1.37,1.64,1.67,2.72.39,1.44.41,3,1.63,4.25.22-.85-.27-1.62,0-2.38a2.45,2.45,0,0,1,.35-.79.77.77,0,0,1,.78-.18c1.62,2.08,1.06-1.37,2.07-.83a1.05,1.05,0,0,1,.6-.07,13.39,13.39,0,0,0,7.9.08.74.74,0,0,1,.57.16c.62.49-.1,1.31.4,1.91a6.46,6.46,0,0,0,.73-2.76c.36-1,.92-1.69,2.09-1.63C91.27,50.34,90.54,52.7,89.87,55.05Z"/><path class="cls-6" d="M66.84,48.17v1.25c-.81.37-1.28-.38-1.92-.57h0c-.35-.51-1-.4-1.45-.6l-.22.05-.16-.15c-.55-.56-1.38-.11-2-.55l-.28.06-.24-.14a30.53,30.53,0,0,0-9.3,0l-.26.13-.28-.06c-1.22.86-2.76,0-4,.75a1.52,1.52,0,0,1-1.25.06c-3-2.53-6.17-4.81-8.65-7.86-3-3.74-3-4.55.22-8.12,1.9-1.27,3.27-3.34,5.68-3.85a1,1,0,0,1,.64.55c.08,1.23-.7,2.21-1,3.34-.64,5.06,2.17,7.92,7.65,7.76,1.33,0,2.66-.43,4-.06a26.34,26.34,0,0,0,5.81,1.53A8.47,8.47,0,0,1,66.84,48.17Z"/><path class="cls-7" d="M45.62.81c.34-1,.34-1,1.29-.39,1.51,3.21,3.35,6.15,6.42,8.16a4.11,4.11,0,0,1,1.82,3.13c.35,3-1.12,5.6-1.73,8.39A42.33,42.33,0,0,1,51.18,24c-.83,1.15-1.24,2.67-2.79,3.18-1-.24-1.57-1.1-2.31-1.71-.27.32-.39-.14-.14.18.05.05.36,0,.52.17.4.92,1.38,1.54,1.4,2.67-.16.9-.39,1.74-1.55,1.77-2.38-1.44-4.45-3.3-6.67-4.95a2.78,2.78,0,0,1-1.06-2.08c.64-2.27,2.92-2.72,4.45-4,.31-.26.83-.15,1-.61a.82.82,0,0,1-1-.57c1.51-2.15,3.85-.61,5.69-1.29a18.9,18.9,0,0,1-3.2-15.54C45.58,1.1,45.6,1,45.62.81Z"/><path class="cls-8" d="M46.93,48.19c-.18-.47-.39-.93-.53-1.41a.62.62,0,0,1,.15-.53.52.52,0,0,1,.5,0,2.8,2.8,0,0,1,.84.84c.42.81.76.6,1.34.12s1.12-.1,1.54.41h0c-.49.39-.45.78,0,1.15.09,0,.21.06.28.13C57,55,63,61.08,69,67.23a32.45,32.45,0,0,1,4.84,6.4,24.2,24.2,0,0,1,2.06,4.14C77,80.93,77,80.36,75.17,82.4a16.43,16.43,0,0,0-3.43,6.18c-.66,1,.24,2.39-.66,3.39a8.27,8.27,0,0,1-5.55.26,1.52,1.52,0,0,1-.72-.6,34.53,34.53,0,0,1,6.54-9.47c2.12-2,2.27-3.87.78-6.23-1.75-2.79-3.73-5.41-5.67-8.06-3.76-5.23-8.75-9.23-13.57-13.39a10.18,10.18,0,0,1-1.78-1.69,6.74,6.74,0,0,1-.42-.62c-.07-.09-.13-.19-.2-.29a3.59,3.59,0,0,0-.73-.67,4.8,4.8,0,0,1-.52-.36,4.51,4.51,0,0,1-.47-.4s-.21-.22-.22-.22-.28-.27-.42-.42l-.2-.21c-.14-.13-.28-.28-.41-.42s-.19-.22-.2-.22a1.58,1.58,0,0,1-.33-.48Z"/><path class="cls-9" d="M40.76,95.43a4.22,4.22,0,0,1-1.15.45,43,43,0,0,1-9.55,0,27.88,27.88,0,0,0-4.26-.39c-2.07-1.39-2.09-2.33-.09-3.82.27-.31.51-.28.72.07,3.23-.81,6.51-.62,9.79-.62a11.41,11.41,0,0,1,3.66.4,9.56,9.56,0,0,0,2.74.21c2.68,0,5.35,0,8,0,1.42,0,1.89.3,1.89,1.76a1.6,1.6,0,0,0,.61,1.35l.3.08c.09,0,.27.06.27.09a1,1,0,0,1-.95,1C48.75,96.17,44.69,97.08,40.76,95.43Z"/><path class="cls-10" d="M81.82,36.26a31.45,31.45,0,0,1,5.61,7.92c.26.92.81,1.79.48,2.81-.5,1.13-1.32,1.83-2.34.74-5.09-5.44-11.75-9.22-16.16-15.36-.18-.26-.35-.52-.51-.79-.85-2.16-2.37-4-3-6.29.9-1.78,1.9-.41,2.71,0a45.16,45.16,0,0,1,11.81,9.83C80.83,35.6,81.12,36.18,81.82,36.26Z"/><path class="cls-11" d="M65.6,121.54c-.16-1.84.41-3.75-.38-5.52-.73-1.62,0-3.45-.85-5l8.37,0c.82,0,1.67.07,2.26-.7a4.44,4.44,0,0,0,1,.6c4.22,1.08,6.14,4.13,7,8.09.11.5.19,1,.25,1.52.09.79-.18,1.15-1,1.17A18.66,18.66,0,0,1,78,121.5a2.15,2.15,0,0,1-.62-.87l-.41-1a5.83,5.83,0,0,1-.25-.7,7.41,7.41,0,0,0-.82-1.73c-.77-.68-1.29-2.7-2.22-1.91C71.68,117,67.11,114,67,119a3.64,3.64,0,0,1-.82,2.58Z"/><path class="cls-12" d="M30.15,106.64a1.6,1.6,0,0,1,.06.54c.93.69,2,.34,3,.35,6.8,0,13.61-.11,20.42.06,4.95.12,9.82-.75,14.75-.78a5.41,5.41,0,0,1,2.19-.21,5.56,5.56,0,0,0,2.52,1c1,.23,1.9.82,1.79,2.12h-49c-.09-1.27.72-1.86,1.76-2.15A5.27,5.27,0,0,0,30.15,106.64Z"/><path class="cls-13" d="M69.21,17.07c.45,1.25,1.72,1.66,2.57,2.5.65.64.61,1-.29,1.65a2.89,2.89,0,0,1-.84.3C68,20.76,66.93,17.8,64.29,17a7,7,0,0,0-2.38-.55,7.39,7.39,0,0,1-.82-.14c-1.35-.47-2.78.59-4.12-.2a2,2,0,0,1-.59-1.86c0-.69-.43.12-.59-.14a1.19,1.19,0,0,1-.56-.61c.4-2.16-.95-4.22-.33-6.39,2.08-.28,2.63,1.42,3.49,2.7.33.68.53,1.46,1.28,1.86s1.93.7,2.82,1.23c.34.2.67.42,1,.63,1,.5,1.94.91,2.84,1.5.23.12.46.26.68.39A6.38,6.38,0,0,1,69.21,17.07Z"/><path class="cls-14" d="M55,7.16a3,3,0,0,0,.1.6A9.48,9.48,0,0,1,55.63,14c-1.7-.21-.38-1.84-1.17-2.48-.22-1.49-1.34-2.27-2.44-3a12.48,12.48,0,0,1-4.47-5,6.39,6.39,0,0,1-.64-3c1.17.77,2.67.32,3.86,1C51,3,52.37,3.64,53.36,4.58A4.52,4.52,0,0,1,54.75,6,2,2,0,0,1,55,7.16Z"/><path class="cls-15" d="M71.14,91.63c.14-1-.33-2.18.6-3l0,1.22c0,1.54.11,1.61,1.48,1.72a16.1,16.1,0,0,1,1.84.14,1.79,1.79,0,0,1,1.1,2.87,5.2,5.2,0,0,0-1.51,3.17,4.59,4.59,0,0,1-2.09,3c-.81.62-1.69,1.15-2.53,1.72a11.72,11.72,0,0,1-2,.11c-1.83-.1-3.71.34-5.46-.53a1,1,0,0,1,0-1.66c1.8-.38,3.63.13,5.45-.11,2.71-.35,3.73-1.63,3.54-4.5C71.45,94.33,69.46,93.19,71.14,91.63Z"/><path class="cls-16" d="M81.82,36.26c-.18.28-.48.5-.74.25-1.13-1-2.27-2.11-3.32-3.24-3.2-3.42-7.1-5.9-11-8.33-.09-.05-.34.15-.51.24a.94.94,0,0,1-.81.27,1.14,1.14,0,0,1-.77-1,1.72,1.72,0,0,1,.3-.87,3.06,3.06,0,0,1,3-.8,1.85,1.85,0,0,1,.77.52A55,55,0,0,1,81.82,36.26Z"/><path class="cls-17" d="M68.74,23.28l-.66,0c-.93-.52-2.2-.28-2.78-1.6a4.42,4.42,0,0,0-3.74-2.82,2.05,2.05,0,0,1-1.91-2.4c.14-.86.75-1.2,1.6-.65h.61c.66.89,1.77,0,2.49.62a11,11,0,0,1,5.34,3.88l1,1.17a10.57,10.57,0,0,1-1,.64A1.52,1.52,0,0,0,68.74,23.28Z"/><path class="cls-18" d="M8.39,58.73a1.3,1.3,0,0,0-1.22.61c-2.35-1.05-4.81-1.91-6.7-3.79.24-.19.56-.33.7-.57a2.46,2.46,0,0,1,2.58-1.24c.51,0,1,0,1.53,0,3.25-1.47,2.12,2,3.2,3C8.76,57,8.7,58.05,8.39,58.73Z"/><path class="cls-19" d="M23.82,76.61c.22.21.41.54.66.6,1.47.3,3,.54,4.44.8,2,1.65.83,3.14-.7,3.67s-.76,1.33-1.06,2c-2.17.66-3.58-.35-4.66-2.09-.14-1.48,1.33-2.67.79-4.24A.78.78,0,0,1,23.82,76.61Z"/><path class="cls-20" d="M17.12,23.92a5.9,5.9,0,0,1-2.46-2.51,32.09,32.09,0,0,1,3.06-5.57.68.68,0,0,1,.61-.6c.17.37.23.89.51,1.06a6.08,6.08,0,0,1,2,2.64c.21,1.67-.32,2.74-2.19,2.73C19.3,23.21,19.13,24.2,17.12,23.92Z"/><path class="cls-21" d="M30.16,76.13c-1,0-2,0-3.05,0a4.55,4.55,0,0,1-2.6-.68c.17-1,.35-2,.53-3l.21-.39a8.13,8.13,0,0,1,4.4-1.95c1.77.42,1.16,1.69,1.2,2.88,0,.5-2.13,1.53.37,1.94C32,75.13,30.42,75.61,30.16,76.13Z"/><path class="cls-22" d="M66.22,121.54c0-1,0-2.07,0-3.11,3.46-.88,6.88-2,10.54-1.24a3.85,3.85,0,0,1,.62,1.86,2.81,2.81,0,0,1-2.84,1.45,46.41,46.41,0,0,0-7.71,1Z"/><path class="cls-23" d="M25,72.52a7.82,7.82,0,0,0-3-4c-.85-.69-1.68-1.4-2.52-2.11-.44-1,.25-1.38.87-1.84,3.54-.87,5.14,1.72,7,3.91a2.21,2.21,0,0,1,0,.85,4,4,0,0,1-.56,1.11c-.46.65-1,1.23-1.46,1.89Z"/><path class="cls-24" d="M22.09,17.08,19.63,14a18.21,18.21,0,0,1,4.28-3.79,2.87,2.87,0,0,1,2.44,1.6,3.88,3.88,0,0,1,.32.82c0,.14,0,.29,0,.44C25.51,14.81,24.49,16.74,22.09,17.08Z"/><path class="cls-25" d="M33.28,4a13.36,13.36,0,0,1,5-1.82A3.26,3.26,0,0,1,39.52,4.6c0,3.1-2.57,3.29-4.62,4.07C33,7.61,33.07,5.85,33.28,4Z"/><path class="cls-26" d="M55,7.16l-.54-.68c.63-1.37,0-3.09,1.19-4.29a5.53,5.53,0,0,1,3.06.62c.42.27.89.47,1.1,1a8.23,8.23,0,0,1-1.71,6.5C57.1,9.21,56.46,7.78,55,7.16Z"/><path class="cls-27" d="M38.8,2.1a3.25,3.25,0,0,1,2-.59C42.41,1.29,44,1,45.62.81c.05.1.1.2.16.3.15,1.4-.71,2.59-.83,3.94a5.39,5.39,0,0,1-.79,1.5,3,3,0,0,1-.67.56c-.83.4-1.66.71-2.49,0C39.71,5.68,40.31,3.43,38.8,2.1Z"/><path class="cls-8" d="M25.82,12.11c-.3-1-1.42-1.12-1.91-1.9A3.06,3.06,0,0,1,25.26,9a1.06,1.06,0,0,1,.58-.46l.56-.31.35.19A27.93,27.93,0,0,1,28.61,11c.17.21.33.42.49.64s.31.45.45.68c.57,1,1.16,1.88,1.76,2.81.4.75,1.31,1.48.36,2.37-.7.66-1.5,1.49-2.54.41-1-1.66-2.43-3.14-2.72-5.19h0C26.22,12.53,26,12.31,25.82,12.11Z"/><path class="cls-28" d="M2.17,51.3a2.85,2.85,0,0,0-1.81.61,34.24,34.24,0,0,1,1.82-7.47l2.49,0c1.75,2.73,0,4.82-1.27,7A1.26,1.26,0,0,1,2.17,51.3Z"/><path class="cls-29" d="M26.43,91.69l-.72-.07c.11-1-.88-1.49-1.2-2.29a1.09,1.09,0,0,0-.67-.69v0C21.94,86.47,22.78,85,25.13,84a3.18,3.18,0,0,1,3.18,2.09c.6.65.06,1.23-.26,1.64A9.34,9.34,0,0,0,26.43,91.69Z"/><path class="cls-8" d="M33.28,4c.61.4.59,1,.62,1.64a3.66,3.66,0,0,0,1.22,2.73,7.58,7.58,0,0,1,2.39,5c-.25,1.54-1.06,1.81-2.34,1-1-1.06-1.41-2.51-2.15-3.75-.13-.24-.25-.49-.36-.74s-.33-.74-.48-1.11A6.85,6.85,0,0,0,31,6.43a1,1,0,0,1-.2-1.09A5.83,5.83,0,0,1,33.28,4Z"/><path class="cls-30" d="M69.21,17.07a3.49,3.49,0,0,1-2.4-1.18c.71-2.53,2.5-4.35,4.08-6.31.43-.54,1-1,1.81-.46.75,1.13,1.23,2.29.35,3.58l0,0c-.18.21-.37.42-.57.62Z"/><path class="cls-31" d="M5.26,35.1c.11.74.4,1.29,1.27,1.27.32.39.91.23,1.25.6a3.43,3.43,0,0,0,.56,0,1,1,0,0,1,.37.73c-.66,2.07-1.44,4-4,4.22a3.67,3.67,0,0,0-1.78-.6A20.65,20.65,0,0,1,5.26,35.1Z"/><path class="cls-32" d="M89.87,55.05c0-1,0-2-.05-3A3.52,3.52,0,0,0,88,48.85l-.32-.36a1.38,1.38,0,0,1,0-1c.12-1.05-.28-2.58,1.74-1.94a.47.47,0,0,1,.45.12c.32.36.9.22,1.21.61l0,0a2.25,2.25,0,0,1,.52.59.56.56,0,0,1,.16.51,2.36,2.36,0,0,1,0,2.09l-.15,1.13c-.32.42-.27.95-.43,1.43A4.46,4.46,0,0,1,89.87,55.05Z"/><path class="cls-33" d="M10.84,61.28l2.49-2c1.81-.64,2.73.41,3.46,1.82a1.21,1.21,0,0,1-.32.75c.21.09.24-.27.45-.19,1.2.47,2,1.14,1.28,2.57a2.73,2.73,0,0,1-1.07.67A50.39,50.39,0,0,1,10.84,61.28Z"/><path class="cls-34" d="M61.24,3.42A8,8,0,0,1,65,4.63a3.31,3.31,0,0,1-.17,4.12C63,8.79,60.7,9.84,60,6.87A4.56,4.56,0,0,1,61.24,3.42Z"/><path class="cls-25" d="M67.43,5.38a15.65,15.65,0,0,1,4.35,1.76c-1.17,1.53-1.37,3.74-3.32,4.72a2.47,2.47,0,0,1-2.88-2.09A4.77,4.77,0,0,1,67.43,5.38Z"/><path class="cls-35" d="M8.27,28.88a4.15,4.15,0,0,1,2.58.7c.48,2.37-.62,4.12-2.26,5.64a.69.69,0,0,1-.8-.06,5.9,5.9,0,0,0-.59-.06q-.35-.29-.66-.6h0c-.28-.18-.63-.28-.7-.67A15.29,15.29,0,0,1,8.27,28.88Z"/><path class="cls-36" d="M38.8,2.1c1.77.4,1.87.4,1.89,1.75a27.38,27.38,0,0,0,.67,3.29,5.64,5.64,0,0,1,1.09,5c-1.87,2-2.18,0-2.84-1.11-1.06-2-.27-4.28-.74-6.38l-.62-2.43A.76.76,0,0,1,38.8,2.1Z"/><path class="cls-3" d="M68.71,101.67a1.27,1.27,0,0,1,1.35.7c-1,1.55-.46,2.92.51,4.23a1.34,1.34,0,0,1-1.25.63c-1.37.4-3.19,1-3.85-.41-.84-1.72.41-3.3,1.9-4.41A14.38,14.38,0,0,1,68.71,101.67Z"/><path class="cls-37" d="M67.43,5.38c-.23.65-.4,1.33-.69,2a5,5,0,0,0-.54,2.29c-.81,1.61-.27,4.18-3.1,4.37l-.65-.6c-.37-1.89.72-3.16,1.87-4.41A11.09,11.09,0,0,0,65,4.63,4.36,4.36,0,0,1,67.43,5.38Z"/><path class="cls-38" d="M66.84,121.54a2.87,2.87,0,0,1,2.75-1c1,.24,1.49-.22,2.13-.76s1.41-.92,2.21-.18a1.27,1.27,0,0,0,1.43.16c.67-.26,1.35-.48,2-.72a5.82,5.82,0,0,1,0,.59c.21.21.38.45.6.64l0,1.22A92.84,92.84,0,0,1,66.84,121.54Z"/><path class="cls-39" d="M25.18,84.23c-.4,1-1.35,1.48-2.07,2.16.16.82,1,1.37.74,2.28a3.78,3.78,0,0,1-1.75-1.51c-.56-.45-.72-1.24-1.41-1.57-.41-1.34-1.49-2.83.78-3.59C23,82.25,24.51,82.54,25.18,84.23Z"/><path class="cls-40" d="M68.69,11.49c.44-1,.93-2,1.3-3a1.87,1.87,0,0,1,1.79-1.33,2,2,0,0,1,1.28.64c.27.66-.07,1-.63,1.23a24.33,24.33,0,0,0-3.37,4.13c-.72.94-1,2.21-2.25,2.75l-.53-.1C66.06,13.79,67.54,12.73,68.69,11.49Z"/><path class="cls-4" d="M61.24,3.42l-.63,3.72c-.53,1.62.37,3.6-1.24,4.94-1.16-.28-1.16-.28-1.26-1.81.33-1.48.6-3,1-4.43a9.47,9.47,0,0,0,.24-2.42,1.36,1.36,0,0,1,1.53-.06A.27.27,0,0,1,61.24,3.42Z"/><path class="cls-41" d="M11.49,27.68,9.64,26.41a4.87,4.87,0,0,1,1.72-2.5l2,.06c1.38,1.83,2.13,3.59-.59,4.93h0a5.2,5.2,0,0,0-.63-.61h0A4.54,4.54,0,0,0,11.49,27.68Z"/><path class="cls-1" d="M17.13,64.92l.6-.58c2.1-1.16,3.39-3.35,5.6-4.36.62.9,1.69,1.2,2.48,1.85-1.39,1.48-3.45,1.87-5,3.1a2.39,2.39,0,0,0-1.28,1.45A6.12,6.12,0,0,1,17.13,64.92Z"/><path class="cls-42" d="M25.18,84.23a6.83,6.83,0,0,0-3.74-1.86c-.69.29-1.07-.07-1.34-.65a3.61,3.61,0,0,1,1.4-1.82c1.06-.24,1.08.54,1.2,1.22,1,1.56,2.69,2,4.35,2.5,1,.27,2,.45,1.88,1.83l-.62.63Z"/><path class="cls-43" d="M30.81,5.34l.57.61c.79,1.39.27,2.31-1.09,2.85s-2.75,1.74-3.89-.3V8.25A12.39,12.39,0,0,1,30.81,5.34Z"/><path class="cls-44" d="M55.66,2.19c0,1.13,0,2.27-.1,3.41,0,.62-.55.8-1.09.88L53.19,5.25c-1-2.92-.84-3.16,2-3.2A.49.49,0,0,1,55.66,2.19Z"/><path class="cls-45" d="M72.43,9l.63-1.23a3.06,3.06,0,0,1,1.81,1.08A1.31,1.31,0,0,1,75,10.79a5.49,5.49,0,0,1-2,1.91C72.84,11.47,72.63,10.24,72.43,9Z"/><path class="cls-46" d="M55.16,2.05c-1.95.43-1.95.43-2,2.29,0,.1,0,.2,0,.3s0,.41,0,.61a10.94,10.94,0,0,1-3-2.74c-.8-.84.2-.82.63-1.06C52.23,1.65,53.79,1.2,55.16,2.05Z"/><path class="cls-47" d="M17.72,15.84a8.61,8.61,0,0,1-3.06,5.57,1.37,1.37,0,0,0-1.24-.56A24.78,24.78,0,0,1,17.72,15.84Z"/><path class="cls-48" d="M22.7,81.12,21.5,79.9a9.52,9.52,0,0,1,1.79-2.56,1.45,1.45,0,0,0,1,.69c.16,0,.28.21.42.32C23.42,78.85,24,80.68,22.7,81.12Z"/><path class="cls-49" d="M51.31,47.52c.34-.19.68-.53,1-.54q3.61-.06,7.25,0c.34,0,.68.35,1,.54Z"/><path class="cls-50" d="M20.1,81.72l1.34.65c-.49.59-1.2,1.07-.68,2,.16.3,0,.77-.07,1.17C18.84,83.76,18.83,83.7,20.1,81.72Z"/><path class="cls-49" d="M64.92,48.85a3.38,3.38,0,0,1,1.92.57c0,1.32,0,2.65-.08,4a3.2,3.2,0,0,1-.54-2A3.62,3.62,0,0,0,64.92,48.85Z"/><path class="cls-51" d="M89.38,45.59C87.7,45.78,88,47.08,88,48.16c-.54.13-.81,0-.6-.61,0-1.12.05-2.24.08-3.36Z"/><path class="cls-50" d="M20.69,85.59a1.53,1.53,0,0,1,1.41,1.57A2.38,2.38,0,0,1,20.69,85.59Z"/><path class="cls-4" d="M5.84,33.82l.7.67-1.23.63A1.45,1.45,0,0,1,5.84,33.82Z"/><path class="cls-51" d="M91.78,49.54c0-.7,0-1.39,0-2.09A1.5,1.5,0,0,1,91.78,49.54Z"/><path class="cls-49" d="M61.13,47.61c.72,0,1.47-.2,2,.55A2.59,2.59,0,0,1,61.13,47.61Z"/><path class="cls-52" d="M60.88,3.36l-1.53.06-.63-.61A2.46,2.46,0,0,1,60.88,3.36Z"/><path class="cls-51" d="M91.2,52.1a1.22,1.22,0,0,1,.43-1.43A1.41,1.41,0,0,1,91.2,52.1Z"/><path class="cls-49" d="M63.48,48.26c.6-.06,1.15,0,1.45.6A1.6,1.6,0,0,1,63.48,48.26Z"/><path class="cls-6" d="M50.75,48.74c-.73-.37-.75-.76,0-1.15Z"/><path class="cls-51" d="M91,46.32a1.19,1.19,0,0,1-1.21-.61A1,1,0,0,1,91,46.32Z"/><path class="cls-45" d="M72.44,13.36a.77.77,0,0,1,.57-.62A.63.63,0,0,1,72.44,13.36Z"/><path class="cls-43" d="M25.84,8.56a.52.52,0,0,1-.58.46A.51.51,0,0,1,25.84,8.56Z"/><path class="cls-51" d="M91.6,46.94l-.52-.59A.49.49,0,0,1,91.6,46.94Z"/><path class="cls-39" d="M23.84,88.64a.84.84,0,0,1,.67.69A.84.84,0,0,1,23.84,88.64Z"/><path class="cls-53" d="M23.33,42.59l.61,0c.07.07.15.12.22.2s.11.17.16.25c1.53-3.19,3.93-1.67,6.15-1.15a7.91,7.91,0,0,1,.79.35c2.46,2.27,5.59,3.33,8.57,4.68,3.28,3.44,5.65,7.68,9.31,10.8,2.44,2.75,5,5.4,7.32,8.28a1.9,1.9,0,0,1,.11.85c-.08.33-.4.73-.16,1s.23-.36.46-.49c1.53-.1,2.18.94,2.74,2.09.14.57.12,1.22.83,1.47a1.56,1.56,0,0,1,.6.48,2.18,2.18,0,0,1,.34,2c-.22.47-.54.88-.79,1.33-1.24,2.22-1.22,2.21-2.68.28-.15-.2-.11.28-.26.41a.92.92,0,0,1-1.13,0c-1.54-.75-3.18-4.17-2.83-6a10.51,10.51,0,0,0,.21-2.15c0-1.2-.56.19-.77-.13a.56.56,0,0,0-.47-.05.61.61,0,0,1,.41.36c.55,2.37-1.84,2.65-2.87,3.83-.55.63-1.44-.34-1.71-1.19-.2-.59-.08-1.23-.25-1.83-.21-.79-.36-1.55-1.53-1.57-1.57,0-.68,1-.86,1.64a1.08,1.08,0,0,1-.59.65,1.63,1.63,0,0,1-.82-.07c-.64-.49-1.07-1.21-1.76-1.64-1.3-.86-1.55-2.48-2.57-3.54h0c-.21-.2-.4-.43-.62-.63h0c-.73-1.65-3.39-3.91-3.39-3.91a59.17,59.17,0,0,0-4.7-4c-2.28-1.59-4.53-3.21-6.95-4.59-2.67-1.53-2.76-1.93-1.83-5A7.53,7.53,0,0,0,23.33,42.59Z"/><path class="cls-5" d="M23.33,60c-.08.28-.08.66-.27.84-1,1-2.08,1.87-3.1,2.83a2.82,2.82,0,0,1-2.23.69c.38-1.39.38-1.39-1.25-2.49h0c-.49-1.55-1.75-2.14-3.16-2.55,1.19-1.61,3.15-1.71,4.81-2.34,1.09-.42,1.78.77,2.7,1.15a3.62,3.62,0,0,0,.57,0,7.79,7.79,0,0,1,.66.62h0c.21.2.41.41.63.61h0a5.93,5.93,0,0,0,.62.61Z"/><path class="cls-54" d="M8.39,58.73c-.13-.49-1.1-.7-.77-1.16,1.17-1.66-.38-1.76-1.37-2.21a8.9,8.9,0,0,0,.85-.71c.34-.4.28-.75-.28-.83a13,13,0,0,0-1.54-.07,1.75,1.75,0,0,1,1.37-.59c1.45,0,2.9,0,4.35,0a3.58,3.58,0,0,1,2.08.5c.89.59,2.55.59,2.43,2-.11,1.14-1.61,1-2.51,1.45-.75.35-1.5.7-2.23,1.08A4.14,4.14,0,0,1,8.39,58.73Z"/><path class="cls-55" d="M4.67,42c.39-.11,1-.12,1.12-.36.63-1.5,2.09-2.44,2.61-4a.39.39,0,0,1,.62,0l.61,0c.19.22.44.39.64.6l.6,0c.2.21.44.38.64.59l.61,0c.19.23.43.39.63.6.61,1.06-.28,1.89-.42,2.84-.44,3.06-.93,2.59-3.37,1.8A9.86,9.86,0,0,1,4.67,42Z"/><path class="cls-56" d="M8.4,35.16a29.82,29.82,0,0,0,2.45-5.58,17.75,17.75,0,0,1,4,2.89,1.6,1.6,0,0,1,.4,2.16,10,10,0,0,0-.58,1.73c0,.2,0,.4,0,.59-.2.22-.39.45-.61.65h0a.88.88,0,0,1-1.25,0h0c-.33-.37-.9-.26-1.24-.61h0c-.32-.38-.91-.24-1.24-.61l-.61,0L9,35.78l-.62,0c-.16-.13-.21-.25-.16-.38S8.34,35.16,8.4,35.16Z"/><path class="cls-55" d="M2.17,51.3l1.24,0A8.45,8.45,0,0,1,6.1,49.85c.55-.12,1-.63.63-1.1-2.13-2.53.53-2.36,1.66-3a3.87,3.87,0,0,1,1.75.55c.72.35,1.18.76.92,1.68a12.2,12.2,0,0,0-.19,1.84c-.18,1.61-.56,2.06-2.07,2.1-1.85.06-3.71,0-5.56,0C2.88,51.82,2.53,51.49,2.17,51.3Z"/><path class="cls-57" d="M8.39,45.7c0,1.37-1.27,1-1.93,1.52.41.31,1,.54,1.17.93.84,1.52.46,2.22-1.23,2.51-1,.17-2,.4-3,.6.19-.47.59-1,.53-1.39-.18-1.19-.73-2.4.86-3.06a2.76,2.76,0,0,0-.13-2.33A13.21,13.21,0,0,1,8.39,45.7Z"/><path class="cls-4" d="M12.75,37.61H14C13.58,38.24,13.17,38.24,12.75,37.61Z"/><path class="cls-4" d="M11.51,37a1.29,1.29,0,0,1,1.24.61A1.25,1.25,0,0,1,11.51,37Z"/><path class="cls-4" d="M10.27,36.37a1.27,1.27,0,0,1,1.24.61A1.27,1.27,0,0,1,10.27,36.37Z"/><path class="cls-4" d="M7.78,37a1.32,1.32,0,0,1-1.25-.6A1.27,1.27,0,0,1,7.78,37Z"/><path class="cls-4" d="M9,35.78l.63.57Z"/><path class="cls-4" d="M8.4,35.16a5.61,5.61,0,0,0,0,.58l-.62-.58A3.11,3.11,0,0,1,8.4,35.16Z"/><path class="cls-4" d="M6.54,34.5l.66.6Z"/><path class="cls-4" d="M12.75,39.45l-.63-.6Z"/><path class="cls-4" d="M11.51,38.83l-.64-.59Z"/><path class="cls-4" d="M10.27,38.21l-.64-.6Z"/><path class="cls-4" d="M14,37.6c.21-.21.41-.43.61-.65C14.4,37.17,14.2,37.39,14,37.6Z"/><path class="cls-4" d="M9,37.58l-.62,0c0-.19,0-.39-.06-.59Z"/><path class="cls-54" d="M52.54,66.82c.59,0,1-.18.82-.92,0-.13.12-.32.19-.49.17.08.43.12.49.25.65,1.51,1,3,0,4.57a1.17,1.17,0,0,0,.24,1.66,5.73,5.73,0,0,1,1.8,2c.2.45.44,1.24.92,1.08.83-.28.24-1,.1-1.51,0-.17,0-.48.07-.54a.45.45,0,0,1,.67.32c.25.87.4,1.77.63,2.65a.67.67,0,0,0,.43.35c.22.07.4-.09.39-.35A3.07,3.07,0,0,1,61.24,73c1.57-.28,1.86,1,2.32,2,.59,1.2.88,2.53,1.36,3.78.25.66.13,1.92.53,1.91,1.6,0,3.86.7,3.73-2.34a11.19,11.19,0,0,0-.77-4.83,6.8,6.8,0,0,1-.32-.81c-.11-.27-.19-.55-.27-.82-.28-1.5-1.93-2.69-1-4.45.1,0,.22.07.28.14,2.43,3.19,5,6.3,6.68,10a2.92,2.92,0,0,1-.73,3.87c-.7.62-1.31,1.33-2,2a9.42,9.42,0,0,0-2.34,3.24A9.18,9.18,0,0,1,65,91.06a16.6,16.6,0,0,1-11.82,0H43c-.52,0-1,0-1.54,0-1-.08-1.53-.69-1.24-1.66A53.35,53.35,0,0,1,42,84.18a23.78,23.78,0,0,1,4.63-6.82c.34-.37.62-.81.93-1.21.29-1.74-1.25-2.61-1.85-3.92-.53-1.15-1.79-2-1.26-3.55.41,0,.88-.07.83-.63a13,13,0,0,0-.35-1.5c-.19-.89.16-.87.73-.42.34.26.54.11.65-.21.23-.71.68-.61,1.19-.34,1.5.8,1.72,2.18,1.61,3.66,0,.41-.24.82,0,1.17a1.81,1.81,0,0,0,.72.49c.07,0,.38-.23.36-.32-.19-1,.53-1.13,1.23-1.42C52.77,68.63,52.75,68.58,52.54,66.82Z"/><path class="cls-58" d="M53.15,91.07H65c0,.21,0,.42,0,.62-1.44,1.34-3.54.95-5.28,2.06.92,1.11,2.27.67,3.33,1,.57.2,1.33.31,1.22,1.11-.07.52-.69.71-1.2.81a29.49,29.49,0,0,1-5.23.18c-2,0-3.91.06-5.86,0s-3.71.1-4.88,2.28c-.86,1.62-2.36,1.48-3.26-.33-.41-.82-.58-2-1.86-.89a2.15,2.15,0,0,1-1.2-2.49H52.52c.37,0,.88,0,.63-.62Z"/><path class="cls-59" d="M20.81,64.93a6.79,6.79,0,0,1,5-3.1v0q.29.32.6.6l1.21.66a5.46,5.46,0,0,1,.65.62h0a6,6,0,0,1,.62.62h0a5.46,5.46,0,0,1,.62.65l.65,1.2a2.94,2.94,0,0,1-3.09,3.13c-.51-1.5-1.78-2.28-3-3.14-.31-.24-.86-.33-1-.62C22.6,64.32,21.62,65,20.81,64.93Z"/><path class="cls-1" d="M44.46,68.68c.87,1.41,1.75,2.8,2.6,4.21a14.53,14.53,0,0,1,1,1.92,1.07,1.07,0,0,1-.48,1.34,2.87,2.87,0,0,0-1.82-1.52,4.07,4.07,0,0,1-2.29-2.31c-.31-.73-.61-1.52-1.65-1.55-.21,0-.49-.33-.6-.58-.44-1-.84-2.06-1.23-3.11-.06-.17-.11-.49,0-.56,1.1-.9.13-1.88.15-2.81A4,4,0,0,1,42,65.58a2.58,2.58,0,0,0,1.23,1.25c.5.56.63,1.38,1.27,1.85Z"/><path class="cls-60" d="M28.93,85.45c-.48-.76-1.6-.86-1.88-1.83.07-.67-.48-1.07-.72-1.61a16.65,16.65,0,0,0,1.85-.9c1.13-.72,1.27-1.44.74-3.1h5.44c.39.54.16.84-.1,1.17-1.2,1.53-2.4,3.06-3.57,4.61A4.46,4.46,0,0,1,28.93,85.45Z"/><path class="cls-61" d="M30.16,76.13c.23-.31.68-.65.64-.92-.06-.49-.62-.25-1-.31-.19,0-.4,0-.59,0a1.67,1.67,0,0,1-.31-.11c0-.68.69-.49,1-.69.84-.49-.16-1.17.12-1.46,1-1.06.35-1.55-.53-2-.27-1.52,1.3-1.19,1.88-1.86a1.34,1.34,0,0,1,1.24.61c.19.21.39.42.6.62h0c.21.21.4.44.61.65C34,72,35,73.16,35.5,74.49c.35,1,0,1.6-1.08,1.63C33,76.16,31.58,76.13,30.16,76.13Z"/><path class="cls-1" d="M31.43,68.7c-.3,1-1.42,1.07-1.88,1.86-1.43.52-2.6,1.65-4.2,1.74-.45-1.16.48-1.69,1.09-2.36.21-.2.41-.42.63-.61h0a10.37,10.37,0,0,0,3.09-3.13c.57.55,1.13,1,.56,2C30.37,68.79,31.15,68.56,31.43,68.7Z"/><path class="cls-1" d="M22.07,58.75l-.65-.62Z"/><path class="cls-1" d="M22.7,59.36l-.63-.61Z"/><path class="cls-1" d="M23.32,60l-.62-.61Z"/><path class="cls-1" d="M26.42,62.45l-.6-.6Z"/><path class="cls-1" d="M28.28,63.73l-.65-.62Z"/><path class="cls-1" d="M39.49,63.08l.62.63Z"/><path class="cls-1" d="M28.9,64.35l-.62-.62Z"/><path class="cls-1" d="M29.52,65c-.2-.22-.41-.44-.62-.65C29.11,64.56,29.31,64.78,29.52,65Z"/><path class="cls-1" d="M33.27,69.93l-.6-.62Z"/><path class="cls-1" d="M33.88,70.58l-.61-.65Z"/><path class="cls-61" d="M42,97.92c-.06-.41-.14-.81-.16-1.22a.63.63,0,0,1,.23-.5,1.62,1.62,0,0,1,2.39,1c.07.51,0,1,.11,1.54a.87.87,0,0,0,.74.85,1.3,1.3,0,0,0,1.32-.6,1.8,1.8,0,0,0,.26-.56c.19-.67-.1-1.52.51-2,.79-.66,1.78-.36,2.69-.37,3.81,0,7.62,0,11.43,0h2.21c-.28-.85-.85-.59-1.26-.61-.93-.05-1.86,0-2.78-.07-.63-.06-1.21-.34-1.17-1.15,0-.59,0-1.12.81-1.38,1.87-.56,3.67-1.36,5.69-1.15l6.16-.05c.12.77-.74,1.89.82,2.14.33,0,.33.48.22.79s-.25.55-.38.83a1.4,1.4,0,0,1-1,.63c-2.8,0-5.23.51-6.11,3.72a1.24,1.24,0,0,1-1.56.65,1.26,1.26,0,0,0-.64,1.25.44.44,0,0,1-.65,0c-3.2,0-6.39-.14-9.58,0a34.12,34.12,0,0,1-6.4-.76,7.59,7.59,0,0,1-3.29-1.62A1.77,1.77,0,0,1,42,97.92Z"/><path class="cls-62" d="M61.83,101.66l.65,0,6.23,0a23.85,23.85,0,0,1-1.61,1.86,5.35,5.35,0,0,0-1.23,2.78.66.66,0,0,0,.67.83c.92.06,1.85.06,2.78.09a1.88,1.88,0,0,1-1.66.61H64q-15.44,0-30.89,0c-1,0-2.1.41-2.85-.65l28.7,0h.62c1.34-.09,1.63-.35,1.7-1.65S61.08,102.88,61.83,101.66Z"/><path class="cls-63" d="M40.11,10.87c.49.28.51.83.74,1.26.33.62.77.46,1.14,0,1.18-1.67.19-4.06,1.85-5.58.38-.32.25-.9.6-1.25a8.14,8.14,0,0,1,1.34-4.16,1,1,0,0,1,.47,1.33c-1.19,2.67-.16,5.3.26,7.86A11.24,11.24,0,0,0,50.15,17a.68.68,0,0,1,.23.76h-5.5a1.87,1.87,0,0,0-1.66.63c-1.28,1.53-3.42,1.56-4.86,2.81-.22.16-.45.3-.67.44l-.33.23c-.21.17-.43.32-.65.48a8,8,0,0,1-.67.47,18.1,18.1,0,0,0-3,2.76c-.86.71-1.35,1.82-2.46,2.25l-.4-.14a5.58,5.58,0,0,0-.08-1.23c-.22-.78-.64-1.06-1.37-.74a2,2,0,0,1-2.53-.28,5.06,5.06,0,0,0-1.37-.7c-.35-.16-.83-.08-1.08-.72.7-.75,1.47-1.56,2.22-2.39.25-.28.16-.56-.14-.78.22-2.28,1.75-2.95,3.74-3.09.76.06,2-.53,2-1,0-.14-.28-.27-.36-.44a9.73,9.73,0,0,1-.42-1.06A26.19,26.19,0,0,1,35.14,14l.28.11c1.2.52,1.22.52,1.59-.74A28.3,28.3,0,0,0,40.11,10.87Z"/><path class="cls-64" d="M30.78,42.58c-1.29-.25-2.58-.53-3.88-.73-1.15-.18-1.16-.15-1.72,1.08-.08.18-.08.43-.21.56a3.48,3.48,0,0,1-.69.5,8,8,0,0,1-.32-.81,2.48,2.48,0,0,1,0-.61h0c.62-.49.08-1.36.62-1.87,0-.21,0-.41,0-.61.39-.33.24-.92.61-1.25,0-.21,0-.41,0-.61.39-.33.23-.92.6-1.26,0-.2,0-.41,0-.61.39-.33.23-.92.61-1.25a12.67,12.67,0,0,1,2.47-5l.31.32c.53,1.25-.26,2.27-.59,3.41a11.05,11.05,0,0,0,.88-1.26,11.56,11.56,0,0,1,.77-1c.58-.6,1.83-1.36,2-.93,1.2,2.54,4.16-.19,5.35,1.95-.55,1.1-1.68,1.77-2.16,3a2,2,0,0,0,.24,2.27,32.2,32.2,0,0,0,6.81,7,11.22,11.22,0,0,1,3.18,3.29c.41.82,0,1.42-.53,2-3.15-.37-4.57-3-6.44-5a.9.9,0,0,1,0,.09c.46.72,1.55,1.21.7,2.27a6,6,0,0,0-3.34-1.31,3.39,3.39,0,0,1-2.87-1.55c-.64-1-1.67-1.41-2.51-2.1.35-.36.07-.72,0-1.07C30.72,41.87,31.08,42.22,30.78,42.58Z"/><path class="cls-60" d="M29.53,17.71s-2.94,1.52-3.74,3.09a13,13,0,0,1-3.7-3.72,30.41,30.41,0,0,0,4.32-4.32C27.5,14.38,29.53,17.71,29.53,17.71Z"/><path class="cls-60" d="M17.12,23.92l1.06-.56c.48-.25.46-.57.19-1s-.37-.82.19-.91c1.47-.24,1.7-1.54,2.3-2.54a9,9,0,0,1,1,.73c2.59,2.57,2.53,2.25,0,4.76-.58.58-1.18,1.14-1.91,1.84Z"/><path class="cls-59" d="M12.76,28.9A4.42,4.42,0,0,0,13.35,24c1.86.57,3,2.05,4.33,3.34A1.71,1.71,0,0,1,18,29.55a10.83,10.83,0,0,1-.77,1.32c-.79,1-1.19,1-2,.2S13.19,30.08,12.76,28.9Z"/><path class="cls-53" d="M24.55,40.7c0,.69.13,1.43-.62,1.87C24,41.89,23.85,41.16,24.55,40.7Z"/><path class="cls-53" d="M25.18,38.84a1.27,1.27,0,0,1-.61,1.25A1.29,1.29,0,0,1,25.18,38.84Z"/><path class="cls-53" d="M25.8,37a1.29,1.29,0,0,1-.6,1.26A1.27,1.27,0,0,1,25.8,37Z"/><path class="cls-53" d="M26.43,35.11a1.3,1.3,0,0,1-.61,1.25A1.28,1.28,0,0,1,26.43,35.11Z"/><path class="cls-64" d="M28.9,30.13a1.31,1.31,0,0,1,.64-1.23l.24.33c0,.59,0,1.11-.85.93Z"/><path class="cls-64" d="M29.54,28.9v-.61a.41.41,0,0,1,.65,0c0,.47-.09.74-.63.6Z"/><path class="cls-59" d="M12.12,28.29l.63.61Z"/><path class="cls-63" d="M30.16,28.28h-.62l.6-.65,0,0,.21.31Z"/><path class="cls-59" d="M11.49,27.68l.63.61Z"/><path class="cls-49" d="M66.84,48.17A9.54,9.54,0,0,0,63.56,45a1.58,1.58,0,0,1-.79-1.2c-.19-.87-.28-.85-1.07.07-.36.42-.8.4-.93-.05s-.12-.82-.24-1.21-.31-.83-.78-.73c-.2,0-.28.51-.49.71a2.41,2.41,0,0,1-2.74-.08c-.74-.55-1.41-1.17-2.12-1.77,1.69-1.57,3.94-.31,5.76-1.16.67-.67.34-1.32,0-2-.54-.88-1.27-1.62-1.79-2.5s-1.73-2-.76-3,2.09.08,3,.59a32.21,32.21,0,0,1,6.09,4.14,7.08,7.08,0,0,1,.88,1.3c.15.2.28.4.42.61a6.49,6.49,0,0,1,.41.61c.13.21.24.43.35.65s.22.44.32.67a3.9,3.9,0,0,1,.24.73c.18.89.45,1.75.64,2.63a12.17,12.17,0,0,0,.4,1.55,4.49,4.49,0,0,1,.21.8,2.59,2.59,0,0,1-.58,2.4A5.13,5.13,0,0,1,66.84,48.17Z"/><path class="cls-65" d="M69.35,44.44c-.22-1.24-.84-2.4-.67-3.71,1.52-.59,2.72.24,4,.87a7.07,7.07,0,0,1,1.73,2.15c2.53,4,5.61,5.33,10.24,4.47a8.94,8.94,0,0,1,3.32.51l.06.12c-.41.62-.83,1.23-1.25,1.84l-.22.29a2.55,2.55,0,0,1-.66.33H85.5c-1.34,0-1.93,1-2.58,1.92-.78,1.16-1,1.16-2.28.57A8.3,8.3,0,0,1,77.8,52a2,2,0,0,0-1.67-.65,2,2,0,0,1-.55.39,2.56,2.56,0,0,1-1,.07.85.85,0,0,0-.9.15c0,.2,0,.39,0,.59-.43.35-.15,1.39-1,1.23a1.26,1.26,0,0,1-.88-1.46c.28-2.46-1.07-4.44-1.8-6.6h0C69.59,45.35,69.71,44.78,69.35,44.44Z"/><path class="cls-66" d="M69.93,45.7c.53.07,1,.2,1.18.81.27,1,.56,2,.84,3,1.52.53,1.13,1.37.38,2.28a1,1,0,0,0,0,1.15c.26.56.53.47.84,0a2.57,2.57,0,0,1,.47-.39,4.11,4.11,0,0,0,.89,3.16.6.6,0,0,1,0,.83.86.86,0,0,1-1.13.13,4.26,4.26,0,0,1-2.11-2.9,36.58,36.58,0,0,1-.72-3.61A1.91,1.91,0,0,0,70,48.79Z"/><path class="cls-67" d="M86.75,50.69c.13.15.37.31.35.45A7.45,7.45,0,0,1,86,54.49a.62.62,0,0,1-1,0,1.59,1.59,0,0,1-.16-2.16c.21-.34.46-.65.69-1h0c.3-.41.89-.26,1.22-.62Z"/><path class="cls-68" d="M75.55,51.33a2.81,2.81,0,0,1,.58,0,1.72,1.72,0,0,1-.52,1.38c-.29.25-.71.65-1,.59s-.32-.67-.33-1.07c0-.1,0-.2,0-.3l.24-.28A1.8,1.8,0,0,0,75.55,51.33Z"/><path class="cls-66" d="M73.69,51.94l.65-.63c.18.14.23.28.17.41s-.13.2-.19.2h0C74.1,51.92,73.9,51.93,73.69,51.94Z"/><path class="cls-65" d="M29.56,28.92l.6-.64h0a.61.61,0,0,1,.74-.15c2.62,1,3-1.9,4.53-2.69a7.67,7.67,0,0,1,.58-.56c.18-.19.37-.36.57-.54l.28-.27a7,7,0,0,1,.58-.51c.44-.27.87-.62,1.42-.25.75.29.44,1.68,1.23,1.58,1.45-.17,1.76.61,2,1.71a1.57,1.57,0,0,0,1.11,1,20.51,20.51,0,0,1,2,.8,1.85,1.85,0,0,1,1.06,1.76c.77.89.16,1.74-.07,2.6-.39.82-.42,1.82-1.13,2.5-2.21,0-3-1.32-3.15-3.25.05-1.17.86-2.06,1.23-3.11l0,0a2,2,0,0,0-1.59.67,22.4,22.4,0,0,1-4,3.08c-.47.11-.65-1.6-1.45-.08s-2,1.27-2.85-.06a5.3,5.3,0,0,1-.32-.86s-1-.75-1.56-.23-1,1.24-1.59,1.86-.63,2-2,1.84c-.45-1,.1-1.8.51-2.61a4.76,4.76,0,0,0,.57-2.36A1.38,1.38,0,0,0,29.56,28.92Z"/><path class="cls-69" d="M45.07,50.05a4.31,4.31,0,0,1,.65-1.9l1.21,0h0c.2.22.43.41.63.62h0l.62.62h0c.21.21.41.42.63.62h0c.2.21.4.42.62.61h0c.32.39.9.27,1.22.65h0c.23.19.41.43.63.63a8.38,8.38,0,0,0,1.19,1.38,107,107,0,0,1,10.1,8.94,25.91,25.91,0,0,1,4.25,5.21c.24,1.62,1.27,2.89,1.87,4.35a1,1,0,0,1-.77.3c-2.4-1.53-3.3-4.55-5.86-5.92-2.87-2.43-5.48-5.17-8.56-7.37A18.91,18.91,0,0,1,51,56.65c-.48-.48-1-1-1.48-1.41C47.9,53.63,45.3,52.86,45.07,50.05Z"/><path class="cls-70" d="M42,32c.39.46,1,.85,1.14,1.37.32,1.05,1.18,1.32,2,1.75,2.2,2.48,4.74,3.81,8.09,2.31,3-.16,5.85.41,8.09,2.67a1.9,1.9,0,0,1-1.65.6l-5.21,0c-1.33,0-2.66.2-4,.3A8.83,8.83,0,0,1,44.8,39.9c-.93-.61-2.07-1-2.66-2.06A5.6,5.6,0,0,1,42,32Z"/><path class="cls-71" d="M48.19,27l2.47-3.12c1.11,2,2.14,1.76,3.11-.1,2,.54,2.61,2.51,3.57,4s-.88,1.71-1.61,2.41c-1.17,1-2.32,2.87-3.54,0-.39-.9-.4.12-.58.18-2.88.84-3.41.49-3.84-2.64A1.38,1.38,0,0,1,48.19,27Z"/><path class="cls-72" d="M48.18,27.65a6.53,6.53,0,0,0,.71,2.25s.78.81,1.29.33,1.2-.24,1.67-.61.61,0,.74.39a2.85,2.85,0,0,0,.42.79.7.7,0,0,0,1.24,0c.24-.44.29-1,.78-1.26a2.94,2.94,0,0,1,.79,1.94c.09.41.19.83.28,1.25a3.52,3.52,0,0,1,0,.86C56,34.23,55.53,35,55,34.7c-2.17-1.33-4.44-.12-6.62-.49-.6-1-3.14,1.24-2.67-1.58.21-.83.42-1.65.62-2.48.7-.44.88-1.22,1.24-1.87C47.32,27.63,47.63,27.53,48.18,27.65Z"/><path class="cls-73" d="M54.46,11.49A1.49,1.49,0,0,1,55,12.74a1.38,1.38,0,0,0,.6,1.23l0,0c.74.75.09,1.73.45,2.55,1.41,1.52,3.43,2.7,2.94,5.29a6.25,6.25,0,0,1-5.9-.9,5.5,5.5,0,0,1-.63-.73C53.13,17.28,54.68,14.58,54.46,11.49Z"/><path class="cls-74" d="M38.86,23.31l-1.23.63c-.21.2-.44.39-.63.61h0c-.22.19-.42.4-.63.61h0c-1.47.67-1.45-.31-1.34-1.26A2.8,2.8,0,0,1,36.35,22h0a2.65,2.65,0,0,0,.63-.62h0a4.43,4.43,0,0,0,.64-.59,12.73,12.73,0,0,1,5.6-2.49c.49.06,1-.11,1.53.41-.76,1-2,1.37-2.85,2.12S39.51,22.05,38.86,23.31Z"/><path class="cls-75" d="M50.06,8.38c1,.86,2.06,1.72,3.11,2.56a1.08,1.08,0,0,1,.47,1.34c-.5,1-.42,2.26-1.45,3.23A58.88,58.88,0,0,1,49.38,9C49.2,8.4,49.46,8.22,50.06,8.38Z"/><path class="cls-10" d="M52.54,20.2h.62c.62,1.17,1.58,2.29.62,3.73A3.88,3.88,0,0,1,53,26.54a1,1,0,0,1-1.6,0,4,4,0,0,1-.76-2.62C50.83,22.44,52.14,21.55,52.54,20.2Z"/><path class="cls-65" d="M48.18,27.65l-.62.63L45.7,25.79l.07-1.42c.82.33.85,1.15,1.32,1.52s1.24.25,1.1,1.14C48.18,27.24,48.18,27.44,48.18,27.65Z"/><path class="cls-76" d="M50.06,8.38,49.38,9c-.32-.49-.66-1-1-1.48a.59.59,0,0,1,0-.52c.28-.26.55,0,.72.17C49.5,7.58,49.77,8,50.06,8.38Z"/><path class="cls-65" d="M42.92,24.32c0,.08.13.16.13.24s-.11.15-.17.22C42.69,24.6,42.7,24.45,42.92,24.32Z"/><path class="cls-65" d="M45.69,26.08c-.08.17-.15.35-.22.52-.43-.21-.2-.44,0-.65a1,1,0,0,1,.24-.16C45.7,25.89,45.69,26,45.69,26.08Z"/><path class="cls-6" d="M50.66,51.3a1.26,1.26,0,0,1-1.22-.65A1.24,1.24,0,0,1,50.66,51.3Z"/><path class="cls-6" d="M48.18,49.42c-.21-.2-.42-.41-.62-.62C47.76,49,48,49.22,48.18,49.42Z"/><path class="cls-6" d="M49.43,50.65,48.81,50Z"/><path class="cls-6" d="M48.81,50l-.63-.62Z"/><path class="cls-6" d="M47.56,48.8l-.63-.62Z"/><path class="cls-6" d="M51.29,51.92l-.63-.63Z"/><path class="cls-7" d="M53.78,23.93c-.19-1.25-.82-2.42-.62-3.73,1.88,1.37,4.05,1.31,6.22,1.23A4.42,4.42,0,0,1,65,24l-.06.73c-1.93,1-4-.71-6,.3,1.28,2.71,2.55,3.26,5.41,3,2.37-.25-.07-2.18,1.14-2.72l.71,0a19.51,19.51,0,0,1,3.12,6.21c.5,1.59,1.85,2.85,1.77,4.66a2.23,2.23,0,0,1-.26.83c-.64.58-1,0-2-.65.76.88.61,2.06,1.78,1.17a.94.94,0,0,1,.78.18,3,3,0,0,1,.46.72c.26,1.21,1.46,2.27.56,3.66l-3.75-1.23h0a6,6,0,0,0-.59-.64,2.82,2.82,0,0,1,0-.58c-.19-.23-.39-.46-.6-.67h0c-.36-.32-.25-.91-.66-1.21C64,35.83,61.25,34,58.46,32.28a.59.59,0,0,0-.55.09c-.12.11-.23.42-.16.53.62,1,1.27,1.88,1.92,2.8s1.35,1.83,1.95,2.79a1.1,1.1,0,0,1-.36,1.61c-.7-.06-1.64.25-2.06-.33-1.33-1.85-3-1.73-4.93-1.29-.58.14-.87-.41-1.11-.87l.15-.39c.9-1,2.29-.63,3.4-1.16a6.77,6.77,0,0,0-1.06-2.81c0-.2,0-.41,0-.61-.22-.2-.38-.45-.61-.63V29.53l2.35-1.06C55.71,27.17,55,25.37,53.78,23.93Z"/><path class="cls-77" d="M70.57,36.36c-.22-1.71-1.34-3.19-1.24-5,1.39,1,2,2.89,3.87,3.35.2,0,.33.48.47.74a14.64,14.64,0,0,0,4.24,4.75,9.22,9.22,0,0,1,2.28,2,1.06,1.06,0,0,0,1.6.34c.32-.25.57,0,.69.27.85,1.91,2.71,3,3.76,4.79.23.39.74,0,1.11-.08l.6.61a5.42,5.42,0,0,1,0,.57l-3.69.07a2.08,2.08,0,0,1-2.77-.6c-2.24-4.19-7-5.63-9.75-9.22-.18-.25-.34-.51-.54-.75,0-.21,0-.41,0-.62C70.69,37.33,71,36.67,70.57,36.36Z"/><path class="cls-78" d="M76.77,117.19c-.8.06-1.68-.25-2.34.47a.72.72,0,0,1-1.07.12c-.72-.56-1.37,0-2,.08s-.52,1.23-1.15,1.16c-.4,0-.7-.7-1.13-1a.88.88,0,0,0-1.11.25c-.55.57-1.11.38-1.69.12.24-.88.45-1.78.74-2.64.24-.7.75-1,1.39-.48.79.69,1.72-.94,2.42.22a2.37,2.37,0,0,0,.37-.41c.16-.35.24-.85.72-.26.25.3.48.8.91.56s.2-.73.11-1.12.12-.8.62-.6a3.58,3.58,0,0,1,1.94,1.42C75.85,115.83,76.32,116.5,76.77,117.19Z"/><path class="cls-22" d="M78,120.28l-.6-.64Z"/><path class="cls-10" d="M65,24a12.59,12.59,0,0,0-5.58-2.52,6.43,6.43,0,0,0-1-.62c-.41-.16-.79-.38-.68-.82.35-1.45-.38-1.93-1.67-2.14-.88-.14-.69-.79-.4-1.37s.55-1,1.23-.64a5.81,5.81,0,0,0,2.73-.39,1.22,1.22,0,0,1,1.64.39c-1.36.61-1.54,1.14-.59,1.83.7.51,1.42,1.36,2.38.31.08-.09.63.1.79.3a9.64,9.64,0,0,1,2,2.7c.43,1.22,1.37,1.68,2.24,2.33A5,5,0,0,0,65,24Z"/><path class="cls-53" d="M59.37,12.08a9.7,9.7,0,0,1,1.24-4.94c.36.78,1.55,1.65,2,1.29,1-.73,1.13.38,1.68.55-.21,1.65-1.21,2.95-1.87,4.41A6.15,6.15,0,0,1,59.37,12.08Z"/><path class="cls-59" d="M68.69,11.49a2.7,2.7,0,0,1-.63,1.61c-.63.87-1.19,1.79-1.78,2.69L63.1,14a2.88,2.88,0,0,0,1.4-1.53c.53-1,.78-2.11,1.7-2.84C66.38,11.11,67.56,11.26,68.69,11.49Z"/><path class="cls-79" d="M56.88,15.84l-1.23.64c-.54-.34-.52-.78-.29-1.32A11.19,11.19,0,0,0,55.68,14c1.15-.22,1.16-.22,1.21.72C56.91,15.09,56.89,15.46,56.88,15.84Z"/><path class="cls-10" d="M64.35,16.47a3.11,3.11,0,0,0-.87.15c-.87.39-1.29-.06-1.62-.77C62.73,15.92,63.69,15.56,64.35,16.47Z"/><path class="cls-80" d="M63.12,100.39A4.22,4.22,0,0,0,65,97.09c.26-1.57.32-1.6,2-1.64s3.25,0,4.87-.06c.39.11.82.13,1,.54a1.54,1.54,0,0,1,.06,1.47c-1.1,2.22-2.6,3.87-5.4,3.62-1-.09-2,0-3,0A1.61,1.61,0,0,1,63.12,100.39Z"/><path class="cls-81" d="M65.5,25.22c.19,1.11.94,2.07.9,3.25-.57.57-1.15-.15-1.74,0a9.65,9.65,0,0,1-1.51.32,3.66,3.66,0,0,1-3.61-1.27c-.73-.87-1.56-1.65-2.33-2.48a.67.67,0,0,1,.37-1,28.09,28.09,0,0,1,5.52.15l1.8.44Z"/><path class="cls-59" d="M27.07,69.33l-.63.61Z"/><path class="cls-60" d="M25.82,12.11l.59.64Z"/><path class="cls-29" d="M40.11,10.87c-.32,2.05-.5,2.19-3.1,2.48L35.12,8.41c.37-.33.78-.63,1.12-1s.44-.77.91-.69c1.82.32,1.67-1,1.72-2.07.13.16.36.3.39.47C39.56,7,39.83,9,40.11,10.87Z"/><path class="cls-53" d="M43.84,6.52c.14,1.75-.65,3.35-.86,5,0,.44-.6.46-1,.54a13.62,13.62,0,0,0-.31-2.33,7.88,7.88,0,0,1-.32-2.63Z"/><path class="cls-53" d="M44.44,5.27a1.23,1.23,0,0,1-.6,1.25A1.29,1.29,0,0,1,44.44,5.27Z"/><path class="cls-82" d="M35.14,14c-.53.77-1.46.93-2.18,1.4a2,2,0,0,1-2.18-.15c-.7-1-1.81-1.73-1.87-3.11,1.24-1.14,2.32-2.65,4.38-1.87A7.45,7.45,0,0,1,35.14,14Z"/><path class="cls-21" d="M33.29,10.25a2.77,2.77,0,0,0-1.65.67,5.06,5.06,0,0,1-2.73,1.2h0c-.17-.23-.42-.4-.61-.62-.73-.94-1.72-1.71-1.9-3a5.5,5.5,0,0,1,.81.39c.46.32.86.56,1.22-.13a1.32,1.32,0,0,1,.95-.67c1.77-.4,1.77-.41,2-2.14a3.44,3.44,0,0,1,1.29,3,4.49,4.49,0,0,0,.58.65C33.27,9.84,33.28,10,33.29,10.25Z"/><path class="cls-82" d="M28.3,11.5l.61.62Z"/><path class="cls-82" d="M33.25,9.63,32.67,9Z"/><path class="cls-5" d="M16.48,61.85c-.05.08-.11.25-.14.24-.21,0-.15-.14.15-.24Z"/><path class="cls-20" d="M68.71,73a2.85,2.85,0,0,1,1.16,2.1,27.3,27.3,0,0,1,0,4.61A2.46,2.46,0,0,1,67.64,82a1.12,1.12,0,0,1-1.28-.56c-.86-1.29-.64.75-1.28.32-.65-1.94-1.31-4-2-6-.36-1.06-.67-2.19-1.84-2.71a4.28,4.28,0,0,1-.62-1.86c.45-.5,1.15-.44,1.69-.75a1.27,1.27,0,0,1,.77-.06,4,4,0,0,1,.34.23l.27.31C64.68,73.24,67.33,71.64,68.71,73Z"/><path class="cls-83" d="M53.77,58.13A62.45,62.45,0,0,1,60,63.38a9.36,9.36,0,0,0,2.48,2.21c.47.74.52,2-.35,1.73-1.94-.59-4.12.23-5.86-1.13a7.43,7.43,0,0,1-2.3-2c-1.77-2-3.46-4-5.19-6,1.42-.64-.34-2.57,1.27-3.13a2.15,2.15,0,0,1,1.25,1.24C52,57.1,51.92,58.86,53.77,58.13Z"/><path class="cls-84" d="M56.27,66.19c1.09-.89,1.1-.89,1.8-.16,1,1,1,1,1.92-.21.3-.42.56-.55.92-.2s.81.88,1.21,1.33c.53-.37.3-.91.36-1.36a13.45,13.45,0,0,1,4,4.07,21,21,0,0,0,1.65,2.14,5.19,5.19,0,0,1,.62.62c0,.2,0,.41,0,.61-.24.15-.65.48-.71.43-1.1-1-2.27-.58-3.45-.26a2.07,2.07,0,0,1-.68-.08c-.25-.82-.51-1.7-.76-2.57h-.62c0,.69-.29,1-1.05.75a3.19,3.19,0,0,0-.82-.12l-.61,0c-.46-.28-1-.51-.63-1.23a6.41,6.41,0,0,0-2.49-2.49.73.73,0,0,1-.62-.62Z"/><path class="cls-85" d="M50.05,55c-.81,1.18.33,2.08.49,3.07-.62.55-1.19-.11-1.76.06a31.21,31.21,0,0,1-4.52-4.6c-1.69-1.93-2.81-4.29-4.76-6A2.44,2.44,0,0,0,38.86,46a2.23,2.23,0,0,1-.61-1.55h0a7.25,7.25,0,0,1,1.22.9,39.37,39.37,0,0,0,5.61,4.7,15.07,15.07,0,0,0,4,3.85A6.81,6.81,0,0,1,50.05,55Z"/><path class="cls-54" d="M56.27,66.82l.62.62v1.92C55.54,68.2,55.54,68.2,56.27,66.82Z"/><path class="cls-54" d="M44.46,68.68c-1.23-.07-1.24-1-1.27-1.85A1.84,1.84,0,0,1,44.46,68.68Z"/><path class="cls-54" d="M59.38,69.93,60,71.16c-.33.45-.65.31-.91,0A.72.72,0,0,1,59.38,69.93Z"/><path class="cls-54" d="M51.14,67.46l-.18.22c0-.09-.13-.17-.12-.25s.11-.14.17-.22Z"/><path class="cls-54" d="M52.07,66.17l.24-.15c.07.17.15.34.21.51.11.34,0,.4-.22.14A2.07,2.07,0,0,1,52.07,66.17Z"/><path class="cls-54" d="M49.9,66.22l-.18.21c0-.08-.13-.16-.12-.24s.1-.15.16-.22Z"/><path class="cls-20" d="M68.7,72.42l-.62-.62h.62Z"/><path class="cls-61" d="M46.29,97.31c0,.31,0,.62-.37.73s-.78-.51-.74-1.14c0-.35.22-.61.58-.54S46.28,96.9,46.29,97.31Z"/><polygon class="cls-2" points="41.97 68.06 41.71 67.92 41.83 67.81 41.97 68.06"/><polygon class="cls-2" points="41.97 68.06 42.23 68.21 42.11 68.32 41.97 68.06"/><path class="cls-86" d="M36.35,22c-.25.75-.52,1.5-.76,2.25s.25.83.78.89a28.49,28.49,0,0,1-4.2,4.44c-.65.63-1.13.36-1.36-.71a4.15,4.15,0,0,1,0-.61C31,27,32,26.2,32.64,25.17,33.66,23.86,34.54,22.39,36.35,22Z"/><path class="cls-64" d="M32.64,25.17c-.09,1.35-1.11,2.15-1.85,3.12h-.63v-.62C31,26.85,31.45,25.64,32.64,25.17Z"/><path class="cls-86" d="M37,21.42l-.63.62Z"/><path class="cls-86" d="M37.62,20.83l-.64.59Z"/><path class="cls-53" d="M35.67,43.19l-1.29.72a.49.49,0,0,1-.75-.17c-.71-1.57-1.37-3.15-2-4.72,0-.06.07-.25.11-.25s.46,0,.49.07C32.82,40.68,34.94,41.35,35.67,43.19Z"/><path class="cls-53" d="M29.35,39.58c-1,.22-.93-1.33-1.94-1.14-.22,0,.06-1.37.42-1.52s.37-.08.49.17A6.88,6.88,0,0,1,29.35,39.58Z"/><path class="cls-53" d="M30.78,42.58A3,3,0,0,1,30.33,40c.69.51.7,1.24.87,1.89.05.19-.27.47-.42.72Z"/><path class="cls-85" d="M38.25,44.44a2.21,2.21,0,0,1-.43-.37c-.14-.22,0-.39.2-.42,0,0,.13.14.15.23a5.22,5.22,0,0,1,.07.57Z"/><path class="cls-66" d="M69.35,44.44a1.3,1.3,0,0,1,.59,1.25A1.23,1.23,0,0,1,69.35,44.44Z"/><path class="cls-65" d="M66.8,37.62a1.2,1.2,0,0,1,.66,1.21A1.33,1.33,0,0,1,66.8,37.62Z"/><path class="cls-65" d="M68.1,40.09c.19.22.39.43.59.64C68.49,40.52,68.29,40.31,68.1,40.09Z"/><path class="cls-65" d="M67.47,38.84l.6.67Z"/><path class="cls-87" d="M71.19,38.23c1.81,1.33,3.65,2.63,5.42,4a10.52,10.52,0,0,1,1.33,1.66c.42.51,1.06-.85,1.49.18a10.56,10.56,0,0,0,.89,1.25c.32.53.56,1.1.86,1.64a3.93,3.93,0,0,0,3.07,1.81c-1,1-2.38.78-3.48.5-3.14-.79-5.89-2.26-7.2-5.53A11.19,11.19,0,0,0,72.43,42Z"/><path class="cls-6" d="M74.32,51.92c0-.21,0-.41,0-.61l1.21,0A1.42,1.42,0,0,1,74.32,51.92Z"/><path class="cls-6" d="M86.74,50.69a1.28,1.28,0,0,1-1.22.62A1.11,1.11,0,0,1,86.74,50.69Z"/><path class="cls-7" d="M45.7,32.63c.07.51.08,1.19.85.65s1.29-.14,1.64.6c1.08,1.15,2.07,2.38,3.93,2.3a1,1,0,0,1,1,1.42h0c-.88,1.28-2.17,1.26-3.53,1.26a3.6,3.6,0,0,1-3-1.24c-.66-.76-1.58-1.34-1.57-2.51C45.17,34.26,44.79,33.29,45.7,32.63Z"/><path class="cls-6" d="M43.22,28.91c0-.08.1-.25.13-.25.2,0,.15.14-.15.23Z"/><path class="cls-86" d="M36.37,25.17l.63-.61Z"/><path class="cls-86" d="M37,24.55l.63-.61Z"/><path class="cls-85" d="M53.77,58.13c-.29.53-.43,1.16-1.2,1.54-.62-1.06-1.72-1.91-1.27-3.42Z"/><path class="cls-88" d="M53.16,37.6a8.05,8.05,0,0,0-.79-.86c-.11-.09-.38,0-.57,0-2.73-.1-2.73-.11-3.61-2.86a3.65,3.65,0,0,1,1.1-.45c.73,0,1.47.63,2.18-.28.45-.56,1.08.87,1.84,0,.47-.51.77.27,1.09.59.7.69.74.67,1.25-.53a3.16,3.16,0,0,1,1.87,2.27c.1.58.74,1.15.24,1.71S56.67,37,56.24,37A5.53,5.53,0,0,0,53.16,37.6Z"/><path class="cls-88" d="M55,32l.61.63Z"/><path class="cls-65" d="M70.57,37.6c0,.21,0,.54-.1.58a8.5,8.5,0,0,1-2-.65,3,3,0,0,1-.06-1.72c.13-.27.3-.52.48-.83,1,.37.87,1.59,1.7,2,.19.13.26.27.2.4S70.63,37.6,70.57,37.6Z"/><path class="cls-87" d="M70.57,37.6c0-.2,0-.41,0-.61s0-.42,0-.63a1.27,1.27,0,0,1,.61,1.25Z"/><path class="cls-87" d="M78.26,42.12l-.08-.27c.08,0,.21-.08.23-.06C78.58,42,78.52,42.14,78.26,42.12Z"/><path class="cls-20" d="M62.49,70.55a2,2,0,0,1-.43-.37c-.14-.22-.05-.39.2-.42,0,0,.14.13.16.22a5.51,5.51,0,0,1,.06.57Z"/><path class="cls-20" d="M63.11,70.55c0-.08.11-.25.14-.24.2,0,.15.14-.14.24Z"/></g></g></g></svg>