<svg xmlns="http://www.w3.org/2000/svg" viewBox="0 0 92.02 121.82"><defs><style>.cls-1{fill:#956033;}.cls-2{fill:#85542a;}.cls-3{fill:#825228;}.cls-4{fill:#a37443;}.cls-5{fill:#b98b5a;}.cls-6{fill:#9d693a;}.cls-7{fill:#835223;}.cls-8{fill:#7b4d25;}.cls-9{fill:#cea677;}.cls-10{fill:#b18353;}.cls-11{fill:#8c592e;}.cls-12{fill:#b68756;}.cls-13{fill:#996b3d;}.cls-14{fill:#8a562b;}.cls-15{fill:#c09566;}.cls-16{fill:#c49d6c;}.cls-17{fill:#c6996a;}.cls-18{fill:#d1ab7c;}.cls-19{fill:#925e31;}.cls-20{fill:#d3ae80;}.cls-21{fill:#a47646;}.cls-22{fill:#a17141;}.cls-23{fill:#ab7d4d;}.cls-24{fill:#b08251;}.cls-25{fill:#ad7e4e;}.cls-26{fill:#b28353;}.cls-27{fill:#865524;}.cls-28{fill:#845323;}.cls-29{fill:#ab7e51;}.cls-30{fill:#a67c4d;}.cls-31{fill:#af7f4e;}.cls-32{fill:#855323;}.cls-33{fill:#855524;}.cls-34{fill:#b48a5a;}.cls-35{fill:#885726;}.cls-36{fill:#ba8d5d;}.cls-37{fill:#af8152;}.cls-38{fill:#865424;}.cls-39{fill:#b68b5c;}.cls-40{fill:#895928;}.cls-41{fill:#b98959;}.cls-42{fill:#ba8a5b;}.cls-43{fill:#ae7f4e;}.cls-44{fill:#8b5a29;}.cls-45{fill:#b28656;}.cls-46{fill:#8c5a29;}.cls-47{fill:#b4885c;}.cls-48{fill:#b68d5f;}.cls-49{fill:#92602f;}.cls-50{fill:#b88858;}.cls-51{fill:#bd8c5d;}.cls-52{fill:#bb8f61;}.cls-53{fill:#bc9163;}.cls-54{fill:#835523;}.cls-55{fill:#b98f62;}.cls-56{fill:#bf8f61;}.cls-57{fill:#bc8d5f;}.cls-58{fill:#af7d4d;}.cls-59{fill:#ac7e4d;}.cls-60{fill:#a97b49;}.cls-61{fill:#b98b5b;}.cls-62{fill:#b18251;}.cls-63{fill:#9c6738;}.cls-64{fill:#af814f;}.cls-65{fill:#a57746;}.cls-66{fill:#af804f;}.cls-67{fill:#572e17;}.cls-68{fill:#6b3a1f;}.cls-69{fill:#844f2a;}.cls-70{fill:#9c6f40;}.cls-71{fill:#88552a;}.cls-72{fill:#c9a171;}.cls-73{fill:#c39969;}.cls-74{fill:#cca778;}.cls-75{fill:#5b341c;}.cls-76{fill:#c79f6f;}.cls-77{fill:#bc8f5f;}.cls-78{fill:#6e3e23;}.cls-79{fill:#8a572f;}.cls-80{fill:#986335;}.cls-81{fill:#a27443;}.cls-82{fill:#a07242;}.cls-83{fill:#a97a4a;}.cls-84{fill:#8a552e;}.cls-85{fill:#8a582c;}.cls-86{fill:#9d7242;}.cls-87{fill:#a37444;}.cls-88{fill:#a27342;}.cls-89{fill:#a07443;}.cls-90{fill:#ad7f4e;}.cls-91{fill:#a77949;}.cls-92{fill:#a47645;}.cls-93{fill:#ab7d4c;}.cls-94{fill:#9d7141;}.cls-95{fill:#9c6e3f;}.cls-96{fill:#855429;}.cls-97{fill:#9c7041;}.cls-98{fill:#94673b;}.cls-99{fill:#c9a070;}.cls-100{fill:#ba8f5f;}.cls-101{fill:#a07343;}.cls-102{fill:#9c7043;}.cls-103{fill:#cea778;}.cls-104{fill:#a07445;}.cls-105{fill:#b28559;}.cls-106{fill:#532b16;}.cls-107{fill:#9a6538;}.cls-108{fill:#a17342;}.cls-109{fill:#a07040;}.cls-110{fill:#c49d6d;}.cls-111{fill:#925d30;}.cls-112{fill:#a27343;}.cls-113{fill:#ad7d4c;}.cls-114{fill:#ad7f4f;}.cls-115{fill:#bc9161;}.cls-116{fill:#a87b4a;}.cls-117{fill:#a47544;}.cls-118{fill:#b98f5e;}.cls-119{fill:#c19968;}.cls-120{fill:#be9362;}.cls-121{fill:#b18555;}.cls-122{fill:#ab7e4d;}</style></defs><g id="Layer_2" data-name="Layer 2"><g id="Layer_1-2" data-name="Layer 1"><g id="knight_white" data-name="knight white"><path class="cls-1" d="M89.81,55.18c-.3,1.5-1.9,2.46-1.74,4.21.05.51-.6.82-1.16.76-.91-.11-1.82-.29-2.68-.43-.61.36-.36.92-.45,1.4-.24,1.3-.6,1.6-1.89,1.34-4-.8-8.09-1.66-12.14-2.46a2.77,2.77,0,0,1-2.53-2.62c-.25-1.94-.8-3.85-1-5.8a3.07,3.07,0,0,0-2.35-2.87,22.69,22.69,0,0,0-9.76-1.29c-1.09.11-2.17.32-3.51.52,1.07,2,2.9,3,3.86,4.67a1.94,1.94,0,0,1-.69,1.54,2.82,2.82,0,0,1-2.11-.47,129.77,129.77,0,0,1-14.48-13c-1.13-1.2-2.39-2.32-2.49-4.14a4.74,4.74,0,0,1,1-2.26,5.68,5.68,0,0,1,.5-.6c.45-.45.91-.88,1.35-1.34a6.5,6.5,0,0,1,.52-.53,5.07,5.07,0,0,1,.55-.49,15,15,0,0,1,1.22-.87l.61-.48.29-.27c.2-.2.41-.38.62-.56.9-.53,1.88-1.41,2.21.51a3.19,3.19,0,0,1-.22.91c-2.44,5.87-.15,9.34,6.19,9.62,3.62.16,7.14-1,10.75-.61a5.73,5.73,0,0,1,1.36.2A1.93,1.93,0,0,1,63,40.88c1,3.27,3.92,3.71,6.65,4.39,1.5,1.53,1.2,3.64,1.74,5.48.49,1.65.52,3.49,2.19,4.92-.24-1.36-1.08-2.61.19-3.61,1.11.56,1.78-.14,2.45-.85A2.15,2.15,0,0,1,77.47,51c2,1.54,4.24,2.15,6.69,1,.51.34.72,1,1.23,1.48,1.15-.9.78-2.26,1.21-3.31,1.91-1.61,3.3-1.21,3.76,1.14A7.62,7.62,0,0,1,89.81,55.18Z"/><path class="cls-2" d="M74.91,110a.57.57,0,0,1,.11.49c-.12,1.66-1.47,1.48-2.52,1.58a49.35,49.35,0,0,1-7.09.07c-7.68,0-15.36,0-23,0-1.49,0-2.58.09-1.31,1.9-.16,1.56-1.15,3-.21,4.74a1.8,1.8,0,0,1-1.68,2.61c-6.88.16-13.77.14-20.65.11a1.48,1.48,0,0,1-.86-.29,9.18,9.18,0,0,1,1.41-5.87,8,8,0,0,1,5.07-4.17c.71-.18,1.4-.37,1.71-1.14,1.45-1.28,3.26-1.31,5-1.24,14,.54,27.94.19,41.91.38A3.24,3.24,0,0,1,74.91,110Z"/><path class="cls-3" d="M30.1,106.74c1.74-2.84,1.63-3.7-1-5.5-1.78-1.2-3.14-2.56-3.18-4.89,0-.44-.45-.87-.69-1.31A69.45,69.45,0,0,1,40,95a2.74,2.74,0,0,1,1.59,1.38,8.31,8.31,0,0,0,6.74,4.31c1.49.57,3.16,0,4.62.79,1.05,1.63.6,4,2.66,5.23.65.4-.32,1.17-1,1.44-7.32.58-14.65.24-22,.17C31.62,108.32,30.22,108.4,30.1,106.74Z"/><path class="cls-4" d="M40.73,114.28c-.83-.75-1.68-1.49-2.49-2.26-.1-.1,0-.37-.06-.55s.13-.2.2-.2L65,111.19c1.39,2.55,1.28,5.36,1.39,8.12a2.22,2.22,0,0,1-2,2.36,9.25,9.25,0,0,1-3.15,0,56.13,56.13,0,0,1-18.5-5.84,7.94,7.94,0,0,1-.75-.42A7.3,7.3,0,0,1,40.73,114.28Z"/><path class="cls-5" d="M45.79.59c.33-1,.75-.46,1.16-.07,1.43,3.25,3.25,6.18,6.33,8.17A4.24,4.24,0,0,1,55,11.2c.7,3.82-1,7.08-2.51,10.35a52.79,52.79,0,0,1-3.6,6.15c-.56.81-1,1.76-2,2.2a.56.56,0,0,1-.61-.21c-.17.41.29.62.3,1a3.84,3.84,0,0,1,0,.83c-.33,1.41.08,2.92-.62,4.28a.75.75,0,0,1-.79.27c-.94-2-2-4-2-6.31h0c0-1.72-.62-2.25-1.88-1.47-1.6,1-2.74,1-2.92-1.1-.14-1.63-.62.35-.78-.14a1.79,1.79,0,0,1-2.47-.31c-.33-2.13,1.79-2.42,2.71-3.61a22.16,22.16,0,0,1,6.48-4.34c-1,.19-1.65.41-1.88-.56,1-1.47,2.75-1.16,4.19-1.56a5.36,5.36,0,0,1,1.27.08c.65.05.67-.26.36-.7C45,11.29,44.53,6.08,45.79.59Z"/><path class="cls-6" d="M45.79.59a2.35,2.35,0,0,1,.34,2.62,6.71,6.71,0,0,0,0,4.55c.39,1.07.14,2.23.47,3.35a16.93,16.93,0,0,0,3.17,5.63c.23.29.73.62.3,1a1.66,1.66,0,0,1-1.16.12c-.27,0-.51-.31-.76-.48-.35-.76-1.27-.72-1.76-1.25-.32-.22.11.06-.23-.17a.92.92,0,0,0,.21.17c.38.32.88.56.57,1.18a18.46,18.46,0,0,1-3.62.74c-.25,0-.49.33-.74.51a1.9,1.9,0,0,1-.5.59,7.33,7.33,0,0,1-1,.63,28.17,28.17,0,0,0-3.82,2.16,4.12,4.12,0,0,1-.74.34,14.93,14.93,0,0,0-2.46,1.39,1.72,1.72,0,0,1-.81.05c-1.92-.1-3-1.85-4.75-2.43-1.29-.42-.26-1.93.32-2.88a4.71,4.71,0,0,1,.54-.63,19.26,19.26,0,0,0,2-2,11,11,0,0,0,3-2.78c.92.06,1.79,0,1.88-1.22,1.25-.42,2.58.63,3.8-.21.75.22,1.4.17,1.73-.68,1-1.16,1-2.66,1.44-4a6.65,6.65,0,0,1,.23-.76,10.74,10.74,0,0,0,.41-1.55c.34-1,.19-2.21.68-3.23C45,1.12,45.5,1.07,45.79.59Z"/><path class="cls-7" d="M5.2,35.22a.85.85,0,0,1,.13-.47c.34-.34.19-.93.64-1.2H6c.42-.26.73,0,1,.23A5,5,0,0,0,8.93,35a51.7,51.7,0,0,1,5.44,2.41c1.11.93.72,2,.35,3.12a52.78,52.78,0,0,0-1.78,6.89c-.8,3.92-.73,4.11,2.8,5.65,3.74,1.62,6.77,4.28,10,6.63A2.29,2.29,0,0,1,26.6,61a.94.94,0,0,1-.31.76c-1,.64-2.15,1.13-3.12,1.87a17.86,17.86,0,0,0-2,1.81,3.16,3.16,0,0,1-1.59,1,8.26,8.26,0,0,1-2.45-1.39c-.12-.49.17-.75.52-1a15.33,15.33,0,0,0,1.79-.95c.91-.89,2.78-1.59,2.11-3a3.68,3.68,0,0,0-4.41-2,12.47,12.47,0,0,0-3,1.19c-1.14.44-1.7,1.57-2.68,2.22a24.58,24.58,0,0,1-4.3-2.13c.3-1.56,1.79-1.42,2.8-2,1.68-.46,3.2-1.35,5-1.82-3.79-2.15-7.77-1.62-11.72-1.23C2.37,54.72,1.87,55.68.94,56A1.88,1.88,0,0,1,0,53.91,19.35,19.35,0,0,1,.4,51.53c.76-1.5,2.05-.64,3.14-.72A7.28,7.28,0,0,1,4.83,51a6.53,6.53,0,0,0,1.81.3c1.12,0,2.39.22,3-1a2.56,2.56,0,0,0-.74-3.55l-.68-.4a6.62,6.62,0,0,0-1.85-.57c-.63-.17-1.26-.36-1.91-.49a10.57,10.57,0,0,1-2.32-.66,5.94,5.94,0,0,1,.67-3.1c1-1.61,1.81-.09,2.69.21A18.93,18.93,0,0,0,8.09,43c1,.22,2.18,1.34,3.07.09.74-1,1.45-2.37.05-3.56a14,14,0,0,0-4-1.77C6.18,37.23,4.58,37.12,5.2,35.22Z"/><path class="cls-8" d="M40.76,95.66c-3.48,0-7,0-10.44,0A15.84,15.84,0,0,1,25.19,95c-1.29-1.3-1.28-1.71,0-3.1.45-.33.95-.6,1.41-.93,4.47-1.3,9-.41,13.54-.62,4.4.11,8.83-.55,13.2.44a4.38,4.38,0,0,1,0,5.24C49.18,96.73,44.93,97.35,40.76,95.66Z"/><path class="cls-9" d="M82.45,37.09a32.42,32.42,0,0,1,5.56,8,2.58,2.58,0,0,1,.08,3.25c-1.61.69-2.6-.44-3.37-1.43a20.28,20.28,0,0,0-5.49-4.61c-3.75-2.37-6-6.47-9.65-9-1.44-2.14-2-4.65-3.1-7a1.79,1.79,0,0,1,.25-.84c2.3-.58,3.81,1.09,5.45,2.11,3.51,2.17,6,5.45,8.87,8.38C81.47,36.45,81.74,37,82.45,37.09Z"/><path class="cls-10" d="M64.36,121.67a2.78,2.78,0,0,0,1.24-2.6,10.62,10.62,0,0,0-.12-2.13c-.69-1.89-.46-3.83-.51-5.75l7.86,0a2.41,2.41,0,0,0,2.19-.72,8.49,8.49,0,0,0,1.14.46c4.08,1,6,4,6.86,7.85a15.68,15.68,0,0,1,.29,1.82c.1.8-.16,1.13-1,1.15-1.23,0-2.45,0-3.68-.06-1.58-.74-1.54-2.51-2.38-3.72-.14-.23-.27-.48-.4-.72l-.44-.7c-.85-1.42-1.74-2.27-3.35-.78-.55.52-1.61-.08-2.1,0a3.29,3.29,0,0,0-3,3.87,2.8,2.8,0,0,1-.78,2.06Z"/><path class="cls-11" d="M53.77,54a1.57,1.57,0,0,1,.71-1.4v0a.93.93,0,0,0,.66.68l-.05,0a1.07,1.07,0,0,0,.66.67l0,0a1.08,1.08,0,0,0,.66.66l0,0a1.21,1.21,0,0,0,.68.67A173.93,173.93,0,0,1,71,69.56a27.86,27.86,0,0,1,5.43,9.62,2.25,2.25,0,0,1-.55,2.51,16.21,16.21,0,0,0-4.14,7.13c-.54.82.11,1.88-.53,2.69-1.39.92-3,.36-4.52.8a2.93,2.93,0,0,1-1.35,0,1,1,0,0,1-.58-.63l0-.44a3.33,3.33,0,0,1,.42-.76,16.19,16.19,0,0,0,1.36-1.62,18.65,18.65,0,0,1,5-6.67c2.24-1.81,2.11-3.88.77-6a71.41,71.41,0,0,0-5.79-8.06c-3.18-4.32-7.24-7.79-11.08-11.47-.3-.28-.59-.58-.9-.85C54.08,55.25,53.42,54.85,53.77,54Z"/><path class="cls-12" d="M87.35,48.39A1.44,1.44,0,0,0,88,47.15c0-.68,0-1.36.05-2C92,46.2,92.56,47,91.63,51a8.73,8.73,0,0,1-1.82,4.18c0-.93,0-1.85,0-2.77A4.86,4.86,0,0,0,89,49.83c-.31-.52-.76-.61-1.27-.15a11,11,0,0,0-1,1.17c0,.09-.11.18-.16.28a6.08,6.08,0,0,1-.78.55,3.92,3.92,0,0,1-.58.29,2.72,2.72,0,0,1-.62.17h-.33a1.33,1.33,0,0,0-1.31,1,1.23,1.23,0,0,1-1.74.72,11.06,11.06,0,0,1-2.14-1.09A20.6,20.6,0,0,1,77.4,51.5c-1.5-.34-3.38-.08-3.66-2.33-.23-.68-1.12-1.14-.68-2.05l-.16.07c-.31,1,.91,1.45.8,2.36-2,1.36-2.54-.29-2.87-1.59a7.84,7.84,0,0,0-1.89-3.66c-.53-1-1-2-.46-3.14A3.88,3.88,0,0,1,72,40.51a4.42,4.42,0,0,1,2,2.25c2.57,4.93,5.09,6.25,10.67,5.57.62-.08,1.24,0,1.85-.09A.83.83,0,0,1,87.35,48.39Z"/><path class="cls-13" d="M30.1,106.74a2,2,0,0,0,1.93.72H55.64c1.69-1.4,3.69-.81,5.59-.9,2.41.1,4.87-.47,7.21.57.85,1.61-.57,1.44-1.32,1.51-1.64.17-3.29.05-4.94.07,2.54-.07,5.08.06,7.62-.18,1.19-.11,2.77-.44,3.25,1.4-12.79,0-25.58.09-38.37-.06-2.95,0-5.88-.08-8.83.09a2.21,2.21,0,0,1,2.08-2.42A4.46,4.46,0,0,0,30.1,106.74Z"/><path class="cls-14" d="M42,114.91a8.72,8.72,0,0,1,1.45.45,65.76,65.76,0,0,0,15,5.2,5.66,5.66,0,0,1,2.8,1.11c-5.76,0-11.53.08-17.3.09q-12.19,0-24.41,0c-.65,0-1.49.34-1.84-.63H34.09c1.24,0,2.48.12,3.53-.8a1,1,0,0,1,.85-.09c.5.17,1,1.09,1.46.16.69-1.49.49-2.29-.41-3-.24-.19-.54-.31-.77-.51s-.93-.64-.7-1.24c.28-.76.9-.66,1.54-.43.9.31,1-.31,1.14-1a1.3,1.3,0,0,1,1.24.63c-.71,1,0,2.17-.43,3.18,0,.45.68-.15.3,0A4.7,4.7,0,0,1,42,114.91Z"/><path class="cls-15" d="M69.17,17.3c.61,1.1,1.89,1.45,2.7,2.34.53.59.49.76-.51,1.52a1.36,1.36,0,0,0-.79.46l-.62.15c-1.74-2.61-4.4-4-7.15-5.17-2-.85-4,.13-6-.07-1-.38-1-1.05-.65-1.92s-.48.08-.51-.28a1.62,1.62,0,0,1-.45-.69c.57-2.13-1.1-4.2-.13-6.33,2.08-.69,2.43,1.19,3.34,2.24.26.5.42,1,.63,1.55.87,1.1,2.3,1.26,3.4,2l1.43.74c.94.52,1.93,1,2.83,1.54.23.14.44.29.66.45A5.55,5.55,0,0,1,69.17,17.3Z"/><path class="cls-16" d="M76.77,117.41c.62,1.42,1.25,2.83,1.87,4.25H66.2l0-2.38c1.08-1.5,2.94-.78,4-1.22,2-.86,4-.7,6-1.28h0C76.37,117,76.55,117.21,76.77,117.41Z"/><path class="cls-17" d="M82.45,37.09a.57.57,0,0,1-1,.11c-1.89-1.86-3.75-3.76-5.65-5.61a32.26,32.26,0,0,0-3-2.63,57.86,57.86,0,0,0-6-3.56l-.29,0a1.57,1.57,0,0,0-.53.31l-.32.07a1.51,1.51,0,0,1-.66-.21,1.32,1.32,0,0,1-.42-1,1.93,1.93,0,0,1,.28-.77,3.16,3.16,0,0,1,1.67-1.29c1.06-.32,1.62.53,2.34,1a42.08,42.08,0,0,1,9.35,8.36A27.17,27.17,0,0,1,82.45,37.09Z"/><path class="cls-18" d="M55.05,7.36a2.35,2.35,0,0,0,.07.6,9.63,9.63,0,0,1,.5,6.24c-1.95-.43-.2-2.3-1.2-3.1a11.19,11.19,0,0,0-3.24-3.19A9,9,0,0,1,47,.52a7.82,7.82,0,0,0,3.28.65c1,0,2.07-.16,3,.58l-.28.32a3.14,3.14,0,0,1-1.41.33c.22.73,1,1,1.38,1.51.19.18.36.37.53.56s.33.35.49.54a8.57,8.57,0,0,1,.64.82,2.7,2.7,0,0,1,.31.58A3.45,3.45,0,0,1,55,7C55,7.14,55,7.25,55.05,7.36Z"/><path class="cls-19" d="M68.7,107.46H61.24c-1.27-1.63-.76-3.58-1-5.4.24-1,.77-1.36,1.71-.73a11.08,11.08,0,0,1,.73,1.36c1,1.64,2.16,2.18,3.56.36a7,7,0,0,1,1.57-1.49,4.2,4.2,0,0,1,1.66-.66c.61.06,1.27.06,1.08,1-1.44,1.62-1.27,3.23.05,4.82C70.54,108.33,69.63,107.92,68.7,107.46Z"/><path class="cls-20" d="M68.9,23.45a7.28,7.28,0,0,0-2.69-.53c-1-.81-1.41-2-2.2-3-.37-.44-.5-1.1-1.38-.92-1.81.38-3.47-.57-3.16-2.21s2.25-1.13,3.64-.76c2.33.41,4,2.1,5.92,3.21A2.44,2.44,0,0,1,70,21.77C69.65,22.36,68.47,22.41,68.9,23.45Z"/><path class="cls-21" d="M26.38,91.9l-1.15,0c.21-.45.58-.89.12-1.38-.89-1-1.8-2-2.7-2.92-1-1.78-.45-3.27.81-4.66,2,.08,3.4,1.24,4.82,2.43C29.63,88.15,27.46,89.86,26.38,91.9Z"/><path class="cls-22" d="M68.7,107.46c.74,0,1.52.05,2-.76a4.73,4.73,0,0,0,2.17.84A2.15,2.15,0,0,1,74.91,110l-1.86,0c-.62-.76-1.49-.59-2.29-.6H61.18c-.51,0-1,0-1.54-.08-.26,0-.38-.21-.29-.41s.18-.42.32-.46a6.4,6.4,0,0,1,1.49-.27c1.86,0,3.71,0,5.57,0C67.45,108.07,68.19,108.13,68.7,107.46Z"/><path class="cls-23" d="M54.41,6.76a2.48,2.48,0,0,1-.06-.54,6,6,0,0,1,1.14-3.89.6.6,0,0,1,.83,0c1.07.05,2.17-.09,3.12.6,1.11,2.63.25,4.85-1.38,6.92a3.41,3.41,0,0,1-1.32-1.54,1.9,1.9,0,0,0-1.69-1h0C54.82,7.16,54.62,7,54.41,6.76Z"/><path class="cls-24" d="M21.39,80.07a6.75,6.75,0,0,1,1.9-2.47,3,3,0,0,1,2.19-.53c3.67,1.14,4,1.92,1.35,4.49-.68.67.12,1.42-.6,1.82a1.59,1.59,0,0,1-.83.16A12.78,12.78,0,0,1,24.2,83C22.85,82.43,21.45,81.89,21.39,80.07Z"/><path class="cls-25" d="M10.24,58.31a10.06,10.06,0,0,0-3,1.16c-.55,0-.88-.39-1.28-.66s-.45-.68-.78-.92c-2.47-1.78-2.48-1.77-.31-4.14C10,53.61,10.62,54.14,10.24,58.31Z"/><path class="cls-26" d="M61.82,3.68A7.81,7.81,0,0,1,65.7,4.81c.13,2.15,0,4.21-1.77,5.79-2.59.5-2.52-2.26-3.94-3.21C59.93,5.82,60.24,4.43,61.82,3.68Z"/><path class="cls-27" d="M31.4,16.07a1.73,1.73,0,0,1-1.87,1.87l-.36-.2a32.21,32.21,0,0,1-2.82-3.95l-.48-.62c-.17-.19-.34-.4-.5-.59-.36-.39-.72-.76-1.05-1.16S23.7,10.53,24,10l1.77-1.34c2.09.15,2.37,2.21,3.52,3.35C30,13.35,31.36,14.38,31.4,16.07Z"/><path class="cls-28" d="M25.81,77.66l-2.52-.06c.2-.41.4-.83.61-1.24a1.87,1.87,0,0,1,1.74-.94c3.32.31,6.65-.13,10,.21.94.23,1.88.6,1.61,1.75-.37,1.55-1.64,1.88-3.07,1.75C31.19,79.64,28.59,78.15,25.81,77.66Z"/><path class="cls-29" d="M71.12,91.26c.12-.83-.2-1.77.6-2.44,0,.4,0,.81,0,1.21.1,1.2.16,1.29,1.14,1.39.61.07,1.23,0,1.83.14A2,2,0,0,1,76.51,93a1.62,1.62,0,0,1-.89,2c-.87.36-1.49,1.21-2.52,1.26A4,4,0,0,1,70.85,96c.17-1.36-.67-2.68-.22-4.07C70.78,91.71,71,91.49,71.12,91.26Z"/><path class="cls-30" d="M69.17,17.3a3.24,3.24,0,0,1-2.33-1.23c1.41-2.72,2.08-6.09,5.84-6.8A2.68,2.68,0,0,1,73,12.79Z"/><path class="cls-31" d="M28.92,12.34c-1-1.23-2.07-2.47-3.11-3.71A1.51,1.51,0,0,1,27,7.82c1.88.42,3-1,4.35-1.83,1.35,0,1.52,1.11,1.86,2a16.16,16.16,0,0,1,.3,1.69,1.77,1.77,0,0,1-.18.84C32.05,11.63,31,13.25,28.92,12.34Z"/><path class="cls-32" d="M12,22.79,13.31,21a1.15,1.15,0,0,1,1.56.07,6.67,6.67,0,0,1,.59.6l.29.3A20.4,20.4,0,0,0,18,23.79c.71.66,1.39,1.36,2.14,2a1.8,1.8,0,0,1,.18,2.93c-.9,1-1.63.39-2.3-.36a13.81,13.81,0,0,0-3.55-2.81L13,24.74a3.08,3.08,0,0,1-.65-.49A1.35,1.35,0,0,1,12,22.79Z"/><path class="cls-33" d="M32.66,8.6a3.19,3.19,0,0,0-1.28-2.42c-.55.06-.81-.14-.67-.73h0c.29-.11.47-.37.72-.53l1.67-.79a1,1,0,0,1,.88,0c.92,1.25.7,2.92,1.56,4.19.36,1.1,1.34,2.06.83,3.38,0,.2,0,.4.08.6.34,1.38.28,2.05-.22,2.11-1,.12-.94-.92-1.46-1.32l-.25-.18c-1.33-.65-.94-2-1.27-3.08h0C32.9,9.52,33,8.94,32.66,8.6Z"/><path class="cls-7" d="M8.39,28.5l1.38-2.37c.88-.33,1.26.34,1.73.84a11.65,11.65,0,0,0,2.77,2.42c.73.67,1.43,1.38,2.21,2,2,2.42.26,4.13-1.09,5.93a.86.86,0,0,1-1.09-.47c-.24-1.73.89-3.84-1.4-5l-.61-.51-.65-.45A16.74,16.74,0,0,0,9.1,29.73C8.65,29.44,8,29.26,8.39,28.5Z"/><path class="cls-34" d="M17.71,64.53l-.56.53a47.43,47.43,0,0,1-5.64-3.47A2.76,2.76,0,0,1,14,58.93C16.08,60.23,18.38,61.4,17.71,64.53Z"/><path class="cls-35" d="M42,11.09a1.35,1.35,0,0,1,0,.29c-.45,1.43-.54,1.46-1.59.5a2.07,2.07,0,0,0-.24-.17c-1.34-1.83-1-4.1-1.61-6.13A13.25,13.25,0,0,0,37.87,4c-.22-.49-.57-1-.2-1.55a5.27,5.27,0,0,1,3-.68,3.33,3.33,0,0,1,.88,2.38C41.32,6.49,43.06,8.71,42,11.09Z"/><path class="cls-36" d="M2.16,44.67c.84-.6,1.67-.07,2.5,0a12.25,12.25,0,0,1-1.25,6.78A5,5,0,0,1,2,51.36a1.76,1.76,0,0,0-1.61.17C.92,49.23,1.06,46.82,2.16,44.67Z"/><path class="cls-37" d="M5.2,35.22c.14.57.23,1.14,1,1.34a16.17,16.17,0,0,1,1.62.66c.57,2.37-.61,3.86-2.5,5-.34-.13-.81-.17-1-.42-.45-.63-.92-.47-1.45-.22A19.73,19.73,0,0,1,5.2,35.22Z"/><path class="cls-38" d="M18.25,15.32l1.22-1.19a1,1,0,0,1,.79-.11,19.47,19.47,0,0,1,2.34,2.86,30.59,30.59,0,0,0,2.92,3.31c.87,1.23.35,2.11-.71,2.85a1.32,1.32,0,0,1-.81.08,2.17,2.17,0,0,1-.62-.51c-.6-.84-1.34-1.56-2-2.35a5.23,5.23,0,0,1-.41-.63,7.9,7.9,0,0,0-.63-.92c-.56-.68-1.26-1.24-1.82-1.92A1.31,1.31,0,0,1,18.25,15.32Z"/><path class="cls-39" d="M19.6,66.45a2.32,2.32,0,0,1,1.17-1.31c3.08.18,4.6,2.32,5.92,4.72a2.31,2.31,0,0,1-1.27,1.67.76.76,0,0,1-.8-.13,11.18,11.18,0,0,0-2.93-3.16C21,67.63,20.3,67.05,19.6,66.45Z"/><path class="cls-40" d="M63.71,10.46A11.5,11.5,0,0,0,65,6.09a1.54,1.54,0,0,1,.71-1.28,2.68,2.68,0,0,1,1.77.66c.51.79,0,1.52-.14,2.26a11.79,11.79,0,0,1-.64,1.4c-.23.45-.45.91-.65,1.37-.09.26-.19.5-.29.75-.51,1.1-.63,2.47-2,3a1.35,1.35,0,0,1-1.23-.62C62,12.2,62.82,11.32,63.71,10.46Z"/><path class="cls-41" d="M40.76,4.26,40.7,1.78a7.15,7.15,0,0,1,3.82-.51c1,1.23.06,2.41-.08,3.61-.37.33-.25.91-.6,1.25h0C41.92,7,41.56,5.26,40.76,4.26Z"/><path class="cls-42" d="M18.25,15.32,19,16.71c-.07,2.59-1.85,5.28-3.68,5.55l0,0a3.13,3.13,0,0,1-.58-.57A1.42,1.42,0,0,0,13.31,21,28.56,28.56,0,0,1,18.25,15.32Z"/><path class="cls-43" d="M38.27,3.6a1.38,1.38,0,0,1,.61,1.26c.57,1,.36,2.53-.39,2.76-1.1.34-2.1,1.26-3.38,1-1.36-1.19-1.26-2.8-1.22-4.38-.16-.13-.21-.26-.16-.39s.11-.19.16-.19a.82.82,0,0,1,.59-.12c.63.6.59,1.22.38,1.46C35.47,4.18,36.89,3.93,38.27,3.6Z"/><path class="cls-44" d="M61.82,3.68C61.25,4.85,60.51,6,60.6,7.36c-.67.85.18,1.82-.22,2.7s-.54,2.4-2.26,1.67L58.06,9.9a5.16,5.16,0,0,1,.1-.89,24.16,24.16,0,0,1,1-3.15c.44-1-.49-2,.25-2.88A3.56,3.56,0,0,1,61.82,3.68Z"/><path class="cls-45" d="M23.31,83.22c-.14.45-.51.91-.12,1.37.53.64.37.88-.37,1.23-.89.41.1,1.22-.17,1.82a8,8,0,0,1-2.4-2.26c-1.33-1.59-1.3-1.78,0-4A3.3,3.3,0,0,1,23.31,83.22Z"/><path class="cls-46" d="M72.41,9.21a5.11,5.11,0,0,0-1.89,2,33.1,33.1,0,0,1-3.68,4.89h0c-.93-1.15-.19-2.1.35-3.08.12-.24.27-.47.41-.7s.4-.69.58-1a16.79,16.79,0,0,0,1.22-2.9,2.73,2.73,0,0,1,1.18-1.62,4.91,4.91,0,0,1,2.57,1.13C73.45,8.6,73,9,72.41,9.21Z"/><path class="cls-47" d="M73,95.66l2.59-.59c-.24.44-.68.88-.7,1.33-.08,2.47-1.53,3.94-3.5,5.08-.26.15-.54.27-.82.4a1.2,1.2,0,0,0-1.29-.6l-.18-.38a1.31,1.31,0,0,1,.35-.75C71.2,99.07,71.89,97.2,73,95.66Z"/><path class="cls-48" d="M4.65,54c.3,1.29.3,1.29-1.39,2.15L5.07,57c.79.36.86,1.06.86,1.79C4.18,58,2.3,57.44.94,56c.36-.9.63-1.89,1.85-2A1.55,1.55,0,0,1,4.65,54Z"/><path class="cls-49" d="M23.31,83.22c-1-.64-2.23-.88-3.06-1.81a2.67,2.67,0,0,1,1.14-1.34,7.77,7.77,0,0,0,3.17,2.53,7,7,0,0,0,.64.57l.61,0c1,.42,2.26.25,2.66,1.6,0,.49-.41.68-.79.87Z"/><path class="cls-50" d="M70.59,6.72c-.22.63-.44,1.26-.67,1.89C68.77,9,67.45,10.08,66.8,8a5.22,5.22,0,0,1,.67-2.49A6.71,6.71,0,0,1,70.59,6.72Z"/><path class="cls-51" d="M30.71,5.45l.67.73a1.58,1.58,0,0,1-1,1.64,8.82,8.82,0,0,0-2.12,1c-.62.42-.76.27-1.23-1A8.89,8.89,0,0,1,30.71,5.45Z"/><path class="cls-52" d="M72.41,9.21l.75-1.36a3.31,3.31,0,0,1,.85.31c1.73,1.32,1.78,1.76.34,3.4A14.14,14.14,0,0,1,73,12.79C73.32,11.51,72.56,10.41,72.41,9.21Z"/><path class="cls-51" d="M38.27,3.6c-.1.63-.32,1.2-1,1.23a3.74,3.74,0,0,0-2.44.76c-.48-.65-.19-1.38-.31-2a6.14,6.14,0,0,1,3.19-1.09Z"/><path class="cls-53" d="M8.39,28.5a1.37,1.37,0,0,0,1.22.7c-1.12,1.56-.27,4.36-3.06,4.88L6,33.54A14,14,0,0,1,8.39,28.5Z"/><path class="cls-54" d="M55.5,2.49a4.62,4.62,0,0,1-1.15,3.73l-.66-.65a1.61,1.61,0,0,0-.54-.67h0c-.56-1-.93-2,.11-2.93l-.07-.22,1.19.12C54.69,2.18,55.33,1.91,55.5,2.49Z"/><path class="cls-55" d="M24.62,71.4h.45a5.17,5.17,0,0,1,1.45.72A3,3,0,0,1,26.88,76a2.32,2.32,0,0,1-1.71-.21l-1.27.58A8.32,8.32,0,0,0,24.62,71.4Z"/><path class="cls-56" d="M20.14,14.28l-.67-.15A21.52,21.52,0,0,1,24,10c.18.38.35.76.53,1.13C24.09,13.56,22.37,14.28,20.14,14.28Z"/><path class="cls-57" d="M10.91,27.25a2.47,2.47,0,0,0-1.14-1.12,8.11,8.11,0,0,1,1.7-2.66,6.36,6.36,0,0,1,1.3.66h0C13.44,27.08,13.22,27.45,10.91,27.25Z"/><path class="cls-58" d="M55.5,2.49a1.54,1.54,0,0,1-1.13-.62,1.94,1.94,0,0,1,2,.51Z"/><path class="cls-59" d="M12.77,24.13a1.19,1.19,0,0,1-1.3-.66.78.78,0,0,1,.57-.68Z"/><path class="cls-53" d="M6,33.55a1.13,1.13,0,0,1-.64,1.19A1,1,0,0,1,6,33.55Z"/><path class="cls-20" d="M70.57,21.62a.82.82,0,0,1,.79-.46A.84.84,0,0,1,70.57,21.62Z"/><path class="cls-1" d="M55.13,53.31a.79.79,0,0,1-.66-.68A.82.82,0,0,1,55.13,53.31Z"/><path class="cls-1" d="M55.74,53.94a.82.82,0,0,1-.66-.67A.78.78,0,0,1,55.74,53.94Z"/><path class="cls-1" d="M56.36,54.56a.81.81,0,0,1-.66-.66A.8.8,0,0,1,56.36,54.56Z"/><path class="cls-1" d="M57,55.19a.84.84,0,0,1-.68-.67A.85.85,0,0,1,57,55.19Z"/><path class="cls-51" d="M33.89,3.67a5.61,5.61,0,0,0,0,.58l-.78-.11A.74.74,0,0,1,33.89,3.67Z"/><path class="cls-51" d="M31.44,4.93a.79.79,0,0,1-.72.53A.59.59,0,0,1,31.44,4.93Z"/><path class="cls-60" d="M35.13,36a5.36,5.36,0,0,0,1.68,3.24c2.56,2.55,5.07,5.18,7.72,7.65,1.65,1.54,3.52,2.84,5.29,4.25a7.52,7.52,0,0,1,2.11,2.24,2,2,0,0,1,.13,3.19c-1.46.39-2.08-.85-3-1.54-3.76-3.19-7.51-6.41-10.47-10.41a.4.4,0,0,1-.17-.5s-.1-.05-.11,0c-.1.32.32.36.33.62,1.7,2.42,3.51,4.74,5.21,7.14.58.84,1.74,1.56,1.07,2.9-2.64-.32-5.26-.64-6.53-3.56a1.64,1.64,0,0,0-2.53-.9c-.65.36-1.65.72-2,.21-2.17-2.8-6.88-2.07-8.16-5.95-.32-1-.46-.21-.76-.06-1.49.69-1.42-.54-1.65-1.38a6.64,6.64,0,0,1,.11-1.78,6.46,6.46,0,0,1,.24-.86c1-1.69.48-4.21,2.77-5.22,1,1.5,6.06,2.43,7.5,1.36C34.27,36.28,34.51,35.76,35.13,36Z"/><path class="cls-61" d="M65,24.15l0,.69c-2,1-4.13-1-6.17.29,1.09,2.89,3.39,3,5.8,2.77,2-.17-.2-2,1-2.48l.67,0c.38,0,.39.44.61.63a17.52,17.52,0,0,1,2.72,6.39c0,.16.26.3.39.44A1.91,1.91,0,0,1,70.35,35c-.24.88-1.16,0-1.21.28A3.94,3.94,0,0,0,70,38c.14.22.15-.86.71-1a1.22,1.22,0,0,1,1,.76c.28,1,.92,2,.11,3.11-1-.23-2.08.72-3.12,0l-.25-.17a5.71,5.71,0,0,1-.51-.77,4.07,4.07,0,0,1-.31-.53,3.26,3.26,0,0,0-.58-.76c-.19-.13-.37-.27-.57-.4s-.44-.25-.66-.39c-2.17-1.58-4.39-3.06-6.8-4.54.72,1.35,1.72,2.38,2.45,3.57.62,1,1.47,2.1.39,3.35l-1.24,0c-2-1.78-4.58-1.33-6.71-1a17.77,17.77,0,0,1-6-.6c-1.38-.27-2.44-1-2.24-2.71h0c.72-.68,1-1.87,2.15-2.07a1.57,1.57,0,0,1,.8.3c2.34,2.19,5.16,2.4,8.17,1.85,0-.89-.91-1.37-1.35-2.13a6,6,0,0,1-.47-.76,5.74,5.74,0,0,1-.51-1.26,4,4,0,0,1,.07-2.25c.7-.93,1.35-1.85.23-2.95-.28-.29,0,.11-.19-.25-1-1.77-2.72-3.72-1.57-5.64s3.42-.18,5.18-.48C60.76,21.08,63.59,21.34,65,24.15Z"/><path class="cls-62" d="M45.7,36a5.51,5.51,0,0,0,1.6,1.86,2,2,0,0,0,.8.41c.5.17.7-.85,1.28-.37.32.26.51.67.84.88a1.79,1.79,0,0,0,2,0,1.7,1.7,0,0,1,1.09-.47c1.74.1,3.5.14,5.25.19a1.81,1.81,0,0,1,2,1.87,41.77,41.77,0,0,0-6.77.49,21.38,21.38,0,0,1-6.19.06,7.86,7.86,0,0,1-5.84-3.7c-.94-1.45-.67-3.22-.16-4.8a5.08,5.08,0,0,1,1.55-2.64c0,.2,0,.5.16.59a4.21,4.21,0,0,1,1.73,4.29A1.42,1.42,0,0,0,45.7,36Z"/><path class="cls-63" d="M61.85,40.31A4.87,4.87,0,0,0,60.6,36.9c-1.16-1.57-2.28-3.18-3.49-4.86,1.77.09,6.23,3.13,9.72,5.79.19.23.42.42.62.64h0c.38.33.26.91.63,1.24h0c.37.34.24.92.62,1.25h0c-.16,1.11.56,2,.64,3.1a.88.88,0,0,1,0,1.25c-.6.5-1,1.22-2,.34a4.5,4.5,0,0,0-3-1.39c-.58,0-1-.54-1.25-1.19C62.72,42.13,62.72,41,61.85,40.31Z"/><path class="cls-64" d="M35.13,36c-.63.71-1.24,1.44-1.83,2.17s-.73,1-1.29.2c-.38-.53-.77-1-1.52-.68a1.58,1.58,0,0,1-1.72-.32c-1-.94-1.38.1-2,.54-.62-.3-.28-.87-.34-1.31a8.4,8.4,0,0,1,0-1.23c-.76-.9-.16-1.72.14-2.57,1.94-3.29,3.12-7.13,6.71-9.22l.61,0,.26.33c.24,1.65-1.31,2.41-1.81,3.68-.42,1.08-1.85,1.89-1,3.34,2.38,0,3,2.72,5.05,3.23C36,34.76,35.81,35.53,35.13,36Z"/><path class="cls-65" d="M51.92,56.47a5.43,5.43,0,0,0,0-3.12l1.84.66A2.2,2.2,0,0,0,55,55.24a7.47,7.47,0,0,0,.64.62c3.49,2.89,6.52,6.26,9.72,9.47a13.14,13.14,0,0,1,1.47,2.33c.6,1.16,1.86,2,1.44,3.61-1.36.77-1.77-.52-2.38-1.18a38.24,38.24,0,0,0-5.05-4.89C58,62.13,54,60.31,51.92,56.47Z"/><path class="cls-62" d="M36.38,34.11c-.37-.09-.76-.49-1.12-.13s-.89.37-1.25-.09a4.87,4.87,0,0,1-.83-1.27c-.44-1.29-1.37-1.24-2.4-1,.12-2.2,1.61-3.19,3.42-3.91.75.36.52,1.12.7,1.71.23.33-.07-.09.16.25a1.14,1.14,0,0,0-.15-.23c-.15-.57,0-1.22-.51-1.66a1,1,0,0,1,.38-1l.35-.14a3.13,3.13,0,0,0,3.64-1.41c0,.88.07,1.57.14,2.26a.91.91,0,0,0,.72.88A1.15,1.15,0,0,0,40.76,28a2.36,2.36,0,0,0,.49-.76c.18-.56.34-1,.9-.27a1.94,1.94,0,0,0,1.26.75c1.19.25,1.28.55.54,1.48a3.13,3.13,0,0,1-.75.52c-.3-1-.3-1-1.08-.47-.25.17-.52.31-.77.47s-.42.4-.63.61h0l-.6.61-1.24.66c-.26-.08-.38-.32-.52-.47a1.34,1.34,0,0,1,.12.24.85.85,0,0,1-.23.84h0c-1.73-.49-1.26,1.23-1.87,1.86Z"/><path class="cls-66" d="M69.32,45.3c0-.42,0-.83,0-1.25,1.41,1.27,1.94,3,2.53,4.72.3.9.59.92,1.81.25h0a2.69,2.69,0,0,1,.72.49A2.77,2.77,0,0,0,76.73,51c.22,0,.45.33.67.51H76.16a1.88,1.88,0,0,1-1.92.59c-1.19,1.19-.27,2.28.13,3.41.1.27.25.63-.12.8a1.87,1.87,0,0,1-.88.13,1.49,1.49,0,0,1-1.27-.77,7.84,7.84,0,0,1-.85-2c-.49-2.1-.93-4.21-1.29-6.33A7.89,7.89,0,0,0,69.32,45.3Z"/><path class="cls-67" d="M86.71,50.85c.13.15.37.3.37.45A7.6,7.6,0,0,1,86,54.7a.65.65,0,0,1-1,0,3.88,3.88,0,0,1-.73-2.57h0c.33-.36.92-.23,1.22-.64h0c.34-.33.93-.18,1.22-.61Z"/><path class="cls-68" d="M74.24,52.09a2.14,2.14,0,0,1,1.92-.59,2.23,2.23,0,0,1-.87,1.77c-.45.42-.82.32-1-.31A5,5,0,0,1,74.24,52.09Z"/><path class="cls-69" d="M77.42,54.91a3.38,3.38,0,0,1,3.09.77c.1.06.07.32.09.49-.18,0-.4.12-.54.06C79.32,55.89,78.61,55.51,77.42,54.91Z"/><path class="cls-64" d="M36.38,34.11c0-.41,0-.83,0-1.24,0-.6.23-1,.94-.76a8.84,8.84,0,0,0,.92.14A4,4,0,0,1,36.38,34.11Z"/><path class="cls-64" d="M38.24,31l.63.64-.63.61Z"/><path class="cls-64" d="M40.72,30.36l.63-.61Z"/><path class="cls-64" d="M40.11,31l.6-.61Z"/><path class="cls-70" d="M40.76,95.66l13,0c3.2-1.74,6.57-.71,9.87-.59.78.39,1.19.88.24,1.52a4.49,4.49,0,0,1-2.37.5c-3.57.21-3.57.21-2.94,3.62a1.93,1.93,0,0,1-.56,1.14,1.61,1.61,0,0,1-1.08.42c-.41-.09-.82-.38-1.28-.14a1.89,1.89,0,0,1-.67,0c-.45-.16-.93,0-1.38-.11a2.13,2.13,0,0,0-.66-.46c-1.58-.18-3.21.33-4.76-.3C43.83,101,42,99.54,40.76,95.66Z"/><path class="cls-71" d="M56.27,101.85H57.5a2.4,2.4,0,0,1,.87-.41,2,2,0,0,1,2.24.4,1.83,1.83,0,0,1,.63,1.63c0,1.32,0,2.65,0,4h-5.6l-.42-.82c-.3-.59-.53-.58-1.13-.18-.88.58-1.65,0-1.5-1,.18-1.21.75-2.35.56-3.62a.37.37,0,0,1,.64,0h.6a.41.41,0,0,1,.64,0h.61A.4.4,0,0,1,56.27,101.85Z"/><path class="cls-19" d="M53.79,101.85l-.64,0H49.81a1.83,1.83,0,0,1-1.63-.61h4A1.82,1.82,0,0,1,53.79,101.85Z"/><path class="cls-72" d="M58.13,21.05c-.93,0-1.86,0-2.79-.05-2.39-.23-2.34-.26-1.61,2.08a12.76,12.76,0,0,0,3.34,5.14c-.14,1.2-1.66.62-2.06,1.53-1.63,1.11-3.52-.65-5.34.56-.62.41-2.21-.81-1.49-2.43a14.12,14.12,0,0,1,2.49-4.57c1.81-2.6,2.52-5.63,3.58-8.51.4-1.11.13-2.46.17-3.7A1.67,1.67,0,0,1,55,12.65a1.62,1.62,0,0,0,.59,1.55h.05c.75.69-.45,1.84.58,2.47C57.34,17.94,59.78,18.62,58.13,21.05Z"/><path class="cls-73" d="M48.18,27.88a2,2,0,0,0,.75,1.57c.9.69,1.4.59,2.12-.43.16-.24.34-.46.52-.71.84,1.33,2.22,1.18,3.45,1.44,0,.83,0,1.66,0,2.49.22.19.38.44.61.62,0,.21,0,.42,0,.62.14,1.28-.79,1-1.4.85a41,41,0,0,0-6.06-.23h0c-1.16-.71-2.53-1.3-1.87-3.1v-.63c-.18-.14-.23-.27-.17-.41s.12-.2.18-.2C47.29,29.48,47.41,28.36,48.18,27.88Z"/><path class="cls-74" d="M37,21.59a7.93,7.93,0,0,1,4.35-2.47q.36-.24.69-.51l.59-.06H44.7c-.88,1.48-2.29,1.84-3.29,2.67s-2.11,1.55-3.17,2.32C36.13,24,36.46,22.85,37,21.59Z"/><path class="cls-75" d="M50.19,11.12,50,10.51c-.34-.71-.48-1.32.65-1.28h0a3.32,3.32,0,0,0,.64.6h0a1.59,1.59,0,0,0,.73.58c1.86,1.05,1.88,1.06,1.34,2.67a6.11,6.11,0,0,1-1.21,2.72c-.55-1.44-1.05-2.72-1.55-4C50.48,11.58,50.33,11.35,50.19,11.12Z"/><path class="cls-76" d="M37,21.59c.06.89,0,1.88,1.29,1.95A2.54,2.54,0,0,1,37,24.78a4,4,0,0,0-1.87,1.86h0c-1.8-.35-.89-1.65-.91-2.62.31-1.16,1.33-1.66,2.16-2.34Z"/><path class="cls-77" d="M46.32,31c.15.37.21.85.48,1.09a6,6,0,0,1,1.39,2,2.58,2.58,0,0,0-1.26,1.2A1.41,1.41,0,0,1,45.7,36V32.62A1.78,1.78,0,0,1,46.32,31Z"/><path class="cls-78" d="M50.67,9.23A1.43,1.43,0,0,0,50,10.51c-.75-.74-.84-1.72-1.25-2.85A2.66,2.66,0,0,1,50.67,9.23Z"/><path class="cls-79" d="M46.33,16.07a3.31,3.31,0,0,1,1.82.64c.31.18.24.44,0,.66l-1.21-.07-.63-1.21Z"/><path class="cls-62" d="M46.33,29.76c0,.2,0,.41,0,.61-.17-.19-.49-.39-.48-.56C45.89,29.33,46.14,29.55,46.33,29.76Z"/><path class="cls-78" d="M51.32,9.84l-.64-.6Z"/><path class="cls-78" d="M52,10.42a.85.85,0,0,1-.73-.58Z"/><path class="cls-78" d="M50.19,11.12l.43.69Z"/><path class="cls-80" d="M33.27,23.55a48.79,48.79,0,0,0-5.61,8.66,2.9,2.9,0,0,1-.61.66c-.93-.47-1.14-1.74-2.24-2s-2.33-.26-2.14-2c.23-2.12-1.49-4.83,1.89-5.94A3.18,3.18,0,0,1,25,22.2c.64-.55.51-1.14.16-1.76a6.78,6.78,0,0,1,3.49-2.7c.48.07.6.53.87.82a14.76,14.76,0,0,0-1,1.53,1.17,1.17,0,0,0,.1.85.47.47,0,0,0,.75.23c.94-.73,1.44-.05,2,.56.38.41.42,1.54,1,1.24C33.4,22.51,33.19,23.09,33.27,23.55Z"/><path class="cls-81" d="M35.11,8.63c.52-.06,1-.17,1.19-.74.14-.42.3-.77.8-.39s.89.16,1.21-.33a4,4,0,0,0,.57-2.31,15.65,15.65,0,0,1,1.24,6.85c-1.35,1.53-1.4,1.54-3,.5-.26-.17-.52-.32-.78-.48A10,10,0,0,1,35.11,8.63Z"/><path class="cls-82" d="M33.26,9.86a6.7,6.7,0,0,1,1.27,3.08c.06,2.14-1.55,2.62-3.13,3.13a12.34,12.34,0,0,1-2.48-3.73C30.71,12.13,32,11,33.26,9.86Z"/><path class="cls-83" d="M40.76,4.26a6.25,6.25,0,0,1,2,1.4c.23.27.72.32,1.09.47.18,1.56-.52,3-.85,4.42-.1.45-.61.46-1,.54C41.59,8.81,40.64,6.63,40.76,4.26Z"/><path class="cls-84" d="M46.31,16.09a4,4,0,0,1-.59-.09,2.15,2.15,0,0,1-1.49-1.35c-.2-.55.94,0,1.8.9a3.35,3.35,0,0,1,.3.52Z"/><path class="cls-64" d="M36.37,21.67a4.18,4.18,0,0,1-1.85,1.89c-.19.28-.39.27-.6,0l0,0A3,3,0,0,1,36.37,21.67Z"/><path class="cls-83" d="M43.84,6.13a1.29,1.29,0,0,1,.6-1.25A1.23,1.23,0,0,1,43.84,6.13Z"/><path class="cls-27" d="M29.53,18.56l-.6-.6a.36.36,0,0,1,.61,0h0C29.54,18.14,29.54,18.35,29.53,18.56Z"/><path class="cls-5" d="M42,18.61l-.69.51Z"/><path class="cls-85" d="M14.6,36.57l.64.64A5.53,5.53,0,0,1,19,39.59a2,2,0,0,0,2.33,1.07c2.52-1,2.09.88,2.33,2.18-1.57,4.51.36,7,4.38,9.19,7,3.84,12.17,9.76,16.88,16.1C46,69.79,47,71.54,48,73.29c.56,1,1.34,2.17-.12,3.17A5,5,0,0,1,43,73c-.64-1.55-3.14-2-2.77-3.85.52,1.11.27,2-1.62,2.14-1.67.1-2.69-.84-3.59-2.06-1.48-2-3-4-5.62-4.62-1.3-.75-2.56-1.54-3-3.12-1.08-1.41-2.68-2.19-4-3.28C20.9,57,19,56.28,17.72,54.72c-.56-.68-1.56,0-2.24-.72a7,7,0,0,0-2.15-1.18c-1.69-.75-2.07-1.31-1.73-3,.39-2,.81-4,1.35-6a16.75,16.75,0,0,1,1.45-4.37A1.14,1.14,0,0,0,14,37.81C13.58,37.09,13.61,36.58,14.6,36.57Z"/><path class="cls-86" d="M4.65,54,2.79,54a2,2,0,0,1,1.68-.58c1.45,0,2.9.1,4.33,0a9.93,9.93,0,0,1,7.27,2.21,23.15,23.15,0,0,1-5.83,2.74c.23-.82-1.12-1.16-.72-1.86.63-1.1.1-1.2-.77-1.25a.8.8,0,0,1-.46-.26c.2-.55.33-1-.54-.95C6.72,54,5.69,54,4.65,54Z"/><path class="cls-87" d="M14.6,36.57A1.43,1.43,0,0,0,14,37.81a24.11,24.11,0,0,1-5.58-2.44c.86-1.2,1.22-2.79,2.67-3.55a3.17,3.17,0,0,1,.57-.53A2.06,2.06,0,0,1,12.73,31a6.21,6.21,0,0,1,1.2.86c.52.59,1.51.78,1.66,1.62S15,35,14.78,35.7A6.39,6.39,0,0,0,14.6,36.57Z"/><path class="cls-88" d="M8.4,45.92a3,3,0,0,1,1.71.58c1.28.89,1,4.8-.44,5.44a.6.6,0,0,1-.29.08c-1.58,0-3.24.59-4.72-.49,0-1.49,2.61-2,1.34-4.2C5.66,46.74,7.4,46.14,8.4,45.92Z"/><path class="cls-7" d="M26.43,61.46l3.1,2.48c1.73,1.5,3.85,2.7,4,5.36a1.07,1.07,0,0,1-.63.53,5.74,5.74,0,0,0-3.31,1.36,18.15,18.15,0,0,1-3.76,1.48c-.6-.21-.57-.81-.78-1.26a3,3,0,0,1,1.32-1.3,7.91,7.91,0,0,1,1.69-2.32c1.25-1.2.52-2.11-.35-3.11s-2.2-1.59-2-3.19Z"/><path class="cls-89" d="M25.74,61.49c1.19,1.27,2.39,2.52,3.57,3.8.94,1,.94,1.3,0,2.3a6.37,6.37,0,0,1-1,.71c-2.86-.55-3.86-3.18-5.6-5C23.65,62.61,24.4,61.55,25.74,61.49Z"/><path class="cls-90" d="M8.4,45.92a2.48,2.48,0,0,1-2,1.4c.23.73,1.42.83.85,1.56s.08,2.25-1.58,2a1.11,1.11,0,0,0-1,.6l-1.25-.06A9.81,9.81,0,0,1,4,46.63c.25-.64.14-1.39.62-1.94a3.51,3.51,0,0,1,1.88.59c.48.61,1.35.08,1.86.63Z"/><path class="cls-91" d="M17.71,64.53c0-1,.13-2-1.35-2.23-.65-.11,0-1.46-1-1.82A2.52,2.52,0,0,1,14,58.93a4,4,0,0,1,3.1-1.24c2.77,1.29,3.43,2.94,2.49,6.23A3.29,3.29,0,0,1,17.71,64.53Z"/><path class="cls-92" d="M5.27,42.21a31.87,31.87,0,0,0,2.5-5,7.44,7.44,0,0,1,3.74,1.85c-.81.79-.94,2.42-2.62,2.15-.35-.14-.6-.47-1-.52.19.28.63.11.8.44.72.25,1.81.37,1.54,1.39-.32,1.19-1.49,1-2.46.91A3.71,3.71,0,0,1,5.27,42.21Z"/><path class="cls-93" d="M22.7,63.32a2,2,0,0,1,1.38.55,16.21,16.21,0,0,1,2.42,2.71c.41.74.74,1,1.49.94.09,0,.21.51.31.78a3.49,3.49,0,0,1-1.91,1.81c-.31-.52-.51-1.2-1-1.52S24.3,68,24.15,67.18s-1.36-.08-1.76-.84a1.86,1.86,0,0,0-1.62-1.2A4.25,4.25,0,0,1,22.7,63.32Z"/><path class="cls-94" d="M19.58,63.92c0-.85-.6-1.68.19-2.58.37-.42-.18-.87-.82-.77-.35.06-1.08.2-.73-.34.8-1.2.11-1.59-.74-2.08-.17-.09-.26-.3-.39-.46a1.75,1.75,0,0,1,2.48-.19c.95.58,1.85,1.24,2.76,1.9s1,1.05.19,1.89A11.54,11.54,0,0,1,19.58,63.92Z"/><path class="cls-66" d="M12.73,31a1.27,1.27,0,0,1-1.22.6h0c.18.55.53,1.2-.5,1.23s-1,.31-.46,1a.47.47,0,0,1-.24.73c-.64.28-1.29.53-1.93.79a1.89,1.89,0,0,1-1.83-1.29c.68-1,2-1.71,1.66-3.27,0-.11.39-.39.64-.47a1.14,1.14,0,0,0,.76-1.14l2.51,1.23a6.63,6.63,0,0,1,.61.57Z"/><path class="cls-95" d="M8.4,40.94c.59-.11,1.39.31,1.59-.74.15-.77,1.28-.39,1.52-1.13,1.63.56,1.65.57,1.33,1.77-.23.9-.48,1.79-.74,2.68s-.74,1.29-1.53,1.07a5.16,5.16,0,0,1-2.8-1.15l1.67-.67c.53-.23.46-.56.11-.88s-.77-.64-1.15-1Z"/><path class="cls-88" d="M8.4,45.91c-.69,0-1.42.11-1.86-.63C7.22,45.3,8,45.19,8.4,45.91Z"/><path class="cls-96" d="M33.26,69.53c-.34-1.86-2-2.87-2.86-4.4a12,12,0,0,0-.87-1.19c1.11-.16,1.7,1.18,2.85,1,.19,0,.51.31.68.54,1.06,1.38,2.09,2.78,3.15,4.16a3.25,3.25,0,0,0,3.55.78.85.85,0,0,0,.18-.81A11.68,11.68,0,0,0,39,68.41c-.56-.75-.67-1.6-.27-1.56a1.7,1.7,0,0,1,1.44,1c.25.57.41,1.16.65,1.73.32.74.52,1.58,1.68,1.39.43-.07.7.38.87.76.41.94.79,1.89,1.2,2.83s.59.94,1.85.46c.54-.2.77.06,1,.43a3.72,3.72,0,0,1,.2.89c0,.12-.05.23-.07.35a3,3,0,0,1-.38.61c-.22.3-.44.59-.64.9l-.59,1c-2.94,3.53-4,7.94-5.76,12-3.49,0-7,0-10.46,0a6.71,6.71,0,0,0-3.28.62c0-1.64,1-2.91,1.59-4.3.32-.72.45-1.38-.29-1.92l.62-.61c2.13-2.22,3.79-4.86,6.2-6.83a1.32,1.32,0,0,0,1.86-.31c.66-.81.57-1.08-.65-1.58a15.29,15.29,0,0,1-2.82-6A1.52,1.52,0,0,1,33.26,69.53Z"/><path class="cls-97" d="M40.12,91.29a17.81,17.81,0,0,1,2.72-8.68c.89-1.49,1.9-2.92,2.86-4.37a1.23,1.23,0,0,1,.8-.08c1.27,0,2.59-1.18,3.79.58.37.55,2.13-.11,2.7-.82,1.41-1.74,1.76-.69,2,.6a14.39,14.39,0,0,1,.1,3.93c1.42-1.57,2-1.35,3.69,1.36A4.19,4.19,0,0,0,59,81.57c0-.79-.33-1.87.79-2,.76-.1,1.08.82,1.34,1.5s.18,1.53.62,2c.88,1.06,0,3.6,3,3,1.89-.37,2.29,1.61,2.14,3.3a2.15,2.15,0,0,1-1.25,1.24c-.2.22-.42.41-.62.62h0c-3.74,1.26-7.48,1.6-11.22,0Z"/><path class="cls-98" d="M53.75,91.31l11.22,0c0,.21,0,.41,0,.62-1.57,1.29-3.84.51-5.46,1.94,1.67,1.13,4.13-.55,5.5,1.47a.5.5,0,0,1-.67.32H53.77A4.08,4.08,0,0,1,53.75,91.31Z"/><path class="cls-99" d="M70,35.35c0-.83,0-1.66,0-2.49,1.16-.06,1.3,1.28,2.13,1.59A4.17,4.17,0,0,1,74,36.23a22.56,22.56,0,0,0,4.27,4.35c.81.63,1.66,1,2,2.08a.79.79,0,0,0,1,.49c.23-.09.34-.46.54-.69a4.6,4.6,0,0,1,.55-.42c.76,2.87,3,4.54,5,6.36h-.61c-3.47.65-5.51-1.84-7.67-3.75A6.85,6.85,0,0,0,77,43.25c-2.57-1.06-4.3-3.12-5.78-5.42l-.61-.62A1.81,1.81,0,0,1,70,35.35Z"/><path class="cls-17" d="M66.82,26l-.61-.63h0a.45.45,0,0,1,.61,0h0Z"/><path class="cls-100" d="M76.16,116.78a19.73,19.73,0,0,0-1.8,1.16.74.74,0,0,1-1.06,0c-.6-.49-1.17,0-1.75,0-.79.08-.76,1-1.21,1.2-.6.23-.71-.87-1.34-.94a1.38,1.38,0,0,0-.86.11,3.49,3.49,0,0,1-1.91.89,5,5,0,0,1,.49-2.41c.41-1,.48-2.54,2.19-1.22a1,1,0,0,0,.38-.4c.17-.45.47-.8.83-.33.58.75.89.93,1.3-.11.11-.28.52,0,.78.15a2.35,2.35,0,0,0,.54.11c0-.19.12-.41.06-.55-.18-.37-.46-.69-.63-1.06,0-.12.1-.4.23-.51s.5-.17.54-.11C73.84,114.3,76,114.73,76.16,116.78Z"/><path class="cls-100" d="M76.77,117.41l-.61-.63Z"/><path class="cls-101" d="M66.84,89.43c-.63-.38-.56-1-.68-1.63C66,87,65.74,86.33,64.74,87c0,0-.29-.18-.37-.32-.22-.41-.4-.76-.63,0-.12.39-.12.92-.38,1.11s-.77.08-1.17,0c-.87-.09-.95-.18-.56-.88.3-.55.79-1,.31-1.67A7.81,7.81,0,0,1,60.4,81c0-.36-.38-.7-.58-1.06a.8.8,0,0,0-.24,1.14c.92,1.7-.14,3.17-.53,4.71,0,.05-.16.08-.25.11a.36.36,0,0,1-.49-.28c-.08-.51-.1-1-.19-1.52S58,83.21,57.79,83A9.59,9.59,0,0,0,56,81.9a1.65,1.65,0,0,0-.31.46c-.1.27-.16.55-.26.94-1.38-1.74-.9-3.72-1.06-5.63-1.28.06-.85,1.39-1.48,1.87-.45.41-.3-1.87-1-.22-.29.68-1.07.45-1.48,1s-.75.1-.89-.36-.22-1-.39-1.48a.64.64,0,0,0-.46-.34c-.13,0-.3.2-.42.33a.91.91,0,0,0-.1.29c-.14.52-.37,1.07-1,1s-.79-.84-.86-1.46l.22-.3a3.89,3.89,0,0,0,.64-.92,3.18,3.18,0,0,1,.38-.64h0c.78-.53.66-1.22.27-1.89C46.9,72.87,46,71.29,45,69.73a3.24,3.24,0,0,1-.53-1.42,9.05,9.05,0,0,0-.12-.91c-.09-.7-.31-1.58.63-1.78s1.33.68,1.56,1.5c.14.49.06,1,.24,1.49,0,.28.72.41.17.8.59-.49-.32-.62-.25-1A1.79,1.79,0,0,1,48.36,66c2.14.61,1.42,2.52,1.07,4.17.37-.35.19.18.29,0,1.53-2.11,2.92-2.19,4.64-.09.78,1,1,3.14,3.25,2.16.34-.14,1,.82,1,1.4,0,2.74,1.71,3.62,4.06,4a3.89,3.89,0,0,1,1.84,1.08c.4,1.12.9,2,2.38,1.81,1.68-.17,2.12-1.28,2.39-2.61a5.87,5.87,0,0,0-.1-3c-.1-.25-.18-.5-.26-.75a7,7,0,0,0-.65-1.35c-.23-.44-.56-.87-.19-1.39-.42-1.24-.83-2.49-1.24-3.74,2.31,1.81,3.43,4.56,5.27,6.74A11.52,11.52,0,0,1,73.9,78a2.87,2.87,0,0,1-.75,3.61c-.47.41-.86.89-1.32,1.3a15.64,15.64,0,0,0-4.24,5.62A4.48,4.48,0,0,1,66.84,89.43Z"/><path class="cls-102" d="M65,95.61A1.89,1.89,0,0,0,63.3,95H58.7c-.12-.5-.2-.89-.3-1.27s-.12-.92.45-.79c1.27.28,1.87-1.18,3.08-1.06,1,.09,2,0,3.05,0h1.23a8.81,8.81,0,0,1,5,0c.06.76-.78,1.79.72,2.11.27.06,0,.51-.18.7-.38.31-.78.59-1.17.89-1.64,1.33-3.41,1-5.2.41Z"/><path class="cls-98" d="M71.17,91.9h-5a1.81,1.81,0,0,1,1.61-.61l3.3,0C71.14,91.48,71.15,91.69,71.17,91.9Z"/><path class="cls-1" d="M55.65,55.86,55,55.24Z"/><path class="cls-98" d="M65,91.29l.62-.62Z"/><path class="cls-73" d="M71.18,37.83a13.15,13.15,0,0,1,3.6,3.25c.65,1,2,.9,2.76,1.8a.92.92,0,0,0,.42-.27c.21-.3.32-.85.76-.22.63.91.53,2.2,1.52,3,.52.39.89,1.28,1.71.42.54.35,1.47.29,1.64,1,.42,1.86,1.85,1.58,3.15,1.63-4.78,2.46-10,.11-12.37-2.75a2.28,2.28,0,0,1-.66-1.34c-.07-1.46-1-2.38-1.9-3.38C71.75,39.87,71,39,71.18,37.83Z"/><path class="cls-66" d="M73.67,49a1.77,1.77,0,0,1-1.16-1.32,1.66,1.66,0,0,1,.12-.56c.15,0,.37.06.44.17a2.93,2.93,0,0,1,.6,1.71Z"/><path class="cls-1" d="M86.7,50.87a1.14,1.14,0,0,1-1.22.61A1.21,1.21,0,0,1,86.7,50.87Z"/><path class="cls-1" d="M85.46,51.49a1.16,1.16,0,0,1-1.22.64A1.18,1.18,0,0,1,85.46,51.49Z"/><path class="cls-22" d="M57.51,109.15c-.14-.12-.36-.21-.4-.36a.22.22,0,0,1,.33-.26c.14.08.21.3.3.47Z"/><path class="cls-2" d="M42,114.91V119c-.83-2.19-.82-2.29,0-4.06Z"/><path class="cls-103" d="M58.13,21.05a13,13,0,0,0-.08-1.77c-.08-.48-.31-1-.91-1-1.07,0-1.11-1-1.5-1.59-.19-.62,0-.8.63-.6,1.83-.13,3.6-.91,5.49-.62a1.89,1.89,0,0,1,1.35.61c-.31,0-.62,0-.93,0-.88.06-2.11-.3-2.36.85-.2.95,1.1,1,1.69,1.56s.86.18,1-.47c.06-.28.13-.73.31-.79.46-.17.7.25.87.61a10.28,10.28,0,0,0,2,3.06,2.55,2.55,0,0,1,.52,2A2.15,2.15,0,0,1,65,24.15,17.28,17.28,0,0,0,58.13,21.05Z"/><path class="cls-104" d="M58.12,11.73a1.36,1.36,0,0,0,1.2-.75c.58-1.16.34-2.6,1.29-3.62,0,.2,0,.52.11.57,1.22.59,1.51,2.26,3,2.53,0,1.2-.82,2.08-1.22,3.13A14.82,14.82,0,0,1,58.12,11.73Z"/><path class="cls-104" d="M68,12.94c-.44,1-1.53,1.8-1.19,3.12a10.44,10.44,0,0,1-3.13-1.85c.8-1.15.91-2.65,1.88-3.71A5,5,0,0,1,68,12.94Z"/><path class="cls-105" d="M56.27,16.08l-.63.6a.82.82,0,0,1-.41-1c.15-.48.29-1,.44-1.45.27-.07.61-.28.81-.19.5.22.15.6.05.94S56.35,15.7,56.27,16.08Z"/><path class="cls-106" d="M65.54,25.42c.13,1.13.94,2.08.83,3.48a8.3,8.3,0,0,0-4.2,0A2.5,2.5,0,0,1,59.92,28a12.47,12.47,0,0,1-1.42-1.65c-.46-.6-1.77-.83-1.28-1.83.37-.74,1.51-.64,2.28-.66a19.84,19.84,0,0,1,3.66.42,13.93,13.93,0,0,1,1.78.52Z"/><path class="cls-9" d="M66.84,25.4h-.61C66.44,25,66.64,25.06,66.84,25.4Z"/><path class="cls-58" d="M53.25,2c0,1-.07,2-.11,2.93L49.7,2Z"/><path class="cls-58" d="M53.15,4.9a.76.76,0,0,1,.54.67Z"/><path class="cls-15" d="M54.41,6.76l.62.6Z"/><path class="cls-4" d="M64.35,95.64l.6,0,0,.06a2.44,2.44,0,0,1,.49,2.25,16.86,16.86,0,0,1-1.13,2.31c1.6.65,3.52-.35,5,.94v.1a1.34,1.34,0,0,1-1.23.6,5.67,5.67,0,0,1-6.22,0c-.41-.63-.83-.63-1.25,0H58.15c-.17-.13-.23-.26-.18-.4s.1-.2.16-.2a7.21,7.21,0,0,0-1.57-3.56.84.84,0,0,1,.65-1.34c1.63-.07,3.26-.06,4.89-.09C62.9,96.25,63.75,96.41,64.35,95.64Z"/><path class="cls-107" d="M61.86,101.86l6.22,0A8.93,8.93,0,0,1,65,105a1.9,1.9,0,0,1-1.12.22,4.86,4.86,0,0,1-.57-.09C63.46,103.75,61.54,103.29,61.86,101.86Z"/><path class="cls-87" d="M34.5,78.24a2,2,0,0,1-.75,1.64c-1.92,1.41-2.55,4.06-4.84,5.11a2,2,0,0,1-.61.08l-2.49-1.86c.08-.17.29-.43.24-.5-.29-.39-.63-.72-1.08-1.21,1-.25,2.21-.11,2.58-1.31a3.27,3.27,0,0,0,.3-1.48c-.14-.58-.85-.38-1.3-.55a3.57,3.57,0,0,1-.74-.5,7,7,0,0,1,2.1,0C30.08,78.41,32.3,78.18,34.5,78.24Z"/><path class="cls-87" d="M25.2,83.17l-.64-.57Z"/><path class="cls-108" d="M29.54,17.94l-.61,0A5.54,5.54,0,0,0,27,19.5a2.68,2.68,0,0,1-1.87.94,9.79,9.79,0,0,1-3.06-3.15c.34-.95,1.3-1.24,1.95-1.86.19-.18.39-.35.59-.51.77-.49,1.05-1.43,1.78-1.95A14.73,14.73,0,0,1,29.54,17.94Z"/><path class="cls-43" d="M24.56,15.46a1.23,1.23,0,0,1-1,1.27,9.73,9.73,0,0,0-1.4.56c-.55-1.07-1.9-1.62-2-3,1.61-.87,3.3-1.63,4.43-3.18a2.12,2.12,0,0,1,1.27,1.2,2.9,2.9,0,0,0,.59.67h0C26.24,14.94,26.24,14.94,24.56,15.46Z"/><path class="cls-108" d="M26.43,13l-.59-.67Z"/><path class="cls-109" d="M33.26,70.17a20.9,20.9,0,0,1,2.45,6.18l-8.57,0c-.72,0-1.45,0-2-.59l1.87,0c.07-.07.13-.17.21-.2,3.17-1.1,3.17-1.1,2.25-4.78a3.61,3.61,0,0,1,2.13-1.62.82.82,0,0,1,1,.39A4,4,0,0,1,33.26,70.17Z"/><path class="cls-110" d="M65,98.12c0-.81,0-1.63,0-2.44l5.54-.08,2.49.06c-.17,2.45-1.18,4.27-3.71,5A4.85,4.85,0,0,1,65,98.12Z"/><path class="cls-82" d="M32.66,8.6a1.32,1.32,0,0,1,.6,1.26A1.25,1.25,0,0,1,32.66,8.6Z"/><path class="cls-111" d="M23.32,42.81a2.85,2.85,0,0,0-.82-2c-.51.53-.82,1.15-1.9.77a4.33,4.33,0,0,1-2.88-2.55c-.36-.88-.85-1-1.64-.36-.4.32-.73-.11-.79-.58,0-.31,0-.62,0-.93a19.26,19.26,0,0,1,1.26-3.06c.74-1.19.08-1.82-.64-2.53a19.34,19.34,0,0,1,2.51-3.75l.64.64c.25.25.56.3.75,0a2.51,2.51,0,0,0,.63-1.33c0-.4-.52-.78-.81-1.16.43-.85,1.29-1.27,1.9-1.94.18-.19.36-.36.55-.54l.29-.25a4,4,0,0,1,.61-.47l.35-.17a.67.67,0,0,1,.66.24h.62c-.23.34-.45.69-.7,1-1.12,1.39-1.14,1.4-.25,3.05a1.64,1.64,0,0,1-.32,2.21.5.5,0,0,0,.35.87c2.21-.3,3.19.79,3.41,2.83l-.63,2.47c-.81.82-.84,2-1.28,2.94s-.36,2-1.2,2.67a8.23,8.23,0,0,1-.7-2.84A6.89,6.89,0,0,0,24,41l0,1.83C23.74,43.09,23.53,43.08,23.32,42.81Z"/><path class="cls-112" d="M22.07,24.16A3,3,0,0,1,19.58,26a4.37,4.37,0,0,1-1.87-1.84c.29-2.3.9-4.34,3.79-4.41a6.5,6.5,0,0,1,2.42,2.49,3.64,3.64,0,0,1-.61.63h0c-.2.21-.41.42-.62.62h0C22.48,23.73,22.29,24,22.07,24.16Z"/><path class="cls-113" d="M21.5,19.79c-.36.15-.86.2-1,.47-.45.7-.37,1.81-1.67,1.77-.34,0-.31.44-.23.74.21.77-.71.87-.85,1.43-.88-.56-2-.78-2.43-1.94.41-.06,1-.11,1-.55a7.36,7.36,0,0,1,2.4-4.14c.19-.19.18-.57.27-.86a3.88,3.88,0,0,1,1.87,1.88,4.71,4.71,0,0,1,.58.6Z"/><path class="cls-81" d="M18.37,27.87a3.73,3.73,0,0,1-2.51,3.75A4.35,4.35,0,0,1,14,29.77c1.26-1.52,0-3.37.65-5C15.93,25.74,17.53,26.34,18.37,27.87Z"/><path class="cls-59" d="M14.61,24.79a2.52,2.52,0,0,0,.68,1.62c.33.38.75,1,.44,1.31-.64.65-.45,2-1.77,2.05-1.2-.61-2.47-1.14-3.05-2.52.77,0,1.61.17,1.55-1.11a9.36,9.36,0,0,1,.32-2A3.47,3.47,0,0,1,14.61,24.79Z"/><path class="cls-113" d="M14.67,21.67l.58.57Z"/><path class="cls-87" d="M12.73,31l-.61-.57Z"/><path class="cls-112" d="M21.41,19.19l-.58-.6Z"/><path class="cls-80" d="M23.31,22.91l.61-.63c0,.21,0,.42,0,.63Z"/><path class="cls-114" d="M68,12.94c-.58-.4-1.14-.83-1.74-1.19a1.48,1.48,0,0,1-.7-1.25h0c.39-.33.24-.92.61-1.26A1.42,1.42,0,0,1,66.8,8a1.11,1.11,0,0,0,1.48.51,2,2,0,0,1,1.64.14c0,1.19-.79,2.09-1.24,3.11-.22.2-.39.44-.59.64A5.44,5.44,0,0,1,68,12.94Z"/><path class="cls-104" d="M66.21,9.23a1.28,1.28,0,0,1-.61,1.26A1.3,1.3,0,0,1,66.21,9.23Z"/><path class="cls-104" d="M68.09,12.36l.59-.64Z"/><path class="cls-115" d="M65,98.12c.19.67,1.37-.79,1.34.68,0,.93.23,1,1.28.4.44-.23.62-.28.84.27a5.07,5.07,0,0,0,.91,1.14v.57c-2.09.11-4.17.06-6.61.06A17.38,17.38,0,0,1,65,98.12Z"/><path class="cls-116" d="M29.5,70.76c.2,0,.41,0,.61,0,.5,0,1.2.1.67.83-.68.95-.45,1.37.56,1.8.37.16-.13.38-.34.5s-.48.35-.11.62.76.45.57.91-.69.29-1.07.29c-1.12,0-2.24,0-3.35,0a3,3,0,0,1-.41-2.49c.15-.45-.4-.54-.78-.58A7,7,0,0,1,29.5,70.76Z"/><path class="cls-117" d="M23.32,42.81l.61,0a3.19,3.19,0,0,0,0,.62c.07.28.12.68.31.79s.54-.16.74-.4a6,6,0,0,1,.44-.48c.74.29.76,1.11,1.14,1.65a6.48,6.48,0,0,0,3.05,2.52.84.84,0,0,0,.86-.08c.36-.28.15-1.2.91-.94.54.18.55.81.71,1.3a5.07,5.07,0,0,0,.51,1.11,2.1,2.1,0,0,0,3.16.72c.49-.28.77-1,1.57-.66a2.66,2.66,0,0,1,1.4,1.15c.34.64.67,1.28,1,1.93.38.8.79,1.47,1.87,1,.54-.25,1,.11,1.37.47a3,3,0,0,0,2.1,1.16l.32.07a2.24,2.24,0,0,1,.51.41,4.8,4.8,0,0,1,.36.52l.37.51a4.77,4.77,0,0,0,.76.58,6.41,6.41,0,0,1,.86.57,6.55,6.55,0,0,1,.56.49c.2.16.38.34.57.52l.3.27c2.41,2.49,5.07,4.72,7.2,7.47,1.41,1.77,3.31,3.13,4.43,5.16,1.14,2.51,3.59,4.49,3,7.67-1,.28-1.67-.79-2.53-.78a6.6,6.6,0,0,1-2.38-.56c-.93-.34-2.08-.81-1.07-2.19a4.78,4.78,0,0,0-1.1-2.82c-.79.69.17,1.32.05,2-.28.37-.59.16-.75-.06C55.47,73,54.37,71.51,53.39,70c-.48-.74-.92-1-1.75-.62-.36.19-.91.21-1.08.49s0,.78,0,1.19a2.05,2.05,0,0,1-.2.57l-2-.7c-.24-.69.26-1.2.56-1.68.6-1-.09-1.79-.25-2.67,0-.23-.38-.26-.4-.07-.1,1-.89.38-1.31.6-.1,0-.08.39-.08.59,0,.42,0,.83,0,1.24-.72-.41-.55-1.28-.95-1.86-.26-.37-.29-1.07-1-.84-.11,0,0,.71,0,1.1a1.12,1.12,0,0,1-.59,1A7.22,7.22,0,0,1,42,65.94,45.58,45.58,0,0,0,31.21,55.08c-2.58-1.91-5.3-3.54-8-5.19a2,2,0,0,1-1.1-2,6.69,6.69,0,0,1,.36-2.12C22.79,44.8,23,43.79,23.32,42.81Z"/><path class="cls-118" d="M56.28,66.41c-1.43-2-3.4-3.51-5.05-5.32a13.19,13.19,0,0,1-2.43-2.74c.46-1.2-.38-2.63.63-3.74l2.49,1.86,7.2,6.29,2.11,1.81c-.89,3.16-1.13,3.25-3.78,1.52C57.08,65.86,56.81,66.78,56.28,66.41Z"/><path class="cls-119" d="M49.43,54.61a8.91,8.91,0,0,0,.3,1.8c.39,1-.12,1.53-.93,1.94h0a6,6,0,0,0-.62-.62h0c-.21-.38-.28-.87-.81-1a1.64,1.64,0,0,1-.63-.22,5.25,5.25,0,0,1-.49-.46c-.22-.24-.31-.58-.56-.81v0a7,7,0,0,0-.61-.61h0c-1.64-2.17-3.3-4.32-4.91-6.51A9.06,9.06,0,0,1,38.25,44l0,0c2,1.33,3.44,3.25,5.17,4.85a36.82,36.82,0,0,0,5.07,4.51A4.73,4.73,0,0,1,49.43,54.61Z"/><path class="cls-117" d="M28.18,44.54c-.14.16-.19.26-.27.29a.33.33,0,0,1-.27,0,1.09,1.09,0,0,1-.52-1c0-.15.18-.29.28-.43.09.06.2.1.25.18C27.84,43.85,28,44.22,28.18,44.54Z"/><path class="cls-117" d="M29.53,43.88c-.14-.12-.36-.21-.4-.36s.13-.38.33-.26.22.3.31.47Z"/><path class="cls-119" d="M38.25,44c-.09,0-.26-.1-.26-.13,0-.21.14-.15.24.15Z"/><path class="cls-77" d="M48.19,34.1c.52-.3,1.23-1,1.53-.84,1,.46,2-.85,2.86.24.42.52.78-.58,1.31-.17a2.55,2.55,0,0,0,1,.57c.2.05.48-.27.72-.42a4.71,4.71,0,0,1,2.28,2.8c.2.52.2,1.06-.35,1.34a.8.8,0,0,1-1.22-.52c-.33-1-.54-.51-.83,0-.08.15-.33.34-.45.31-2-.57-4.21-.65-6.09-1.75A1.77,1.77,0,0,1,48.19,34.1Z"/><path class="cls-12" d="M70,35.35c.71.45.59,1.18.62,1.86a4,4,0,0,1,0,.6c-.06.3.15.9-.54.66-1.59-.55-1.92-1.22-1.46-2.86.09-.29.16-.58.26-.87,0-.05.14-.07.22-.1Z"/><path class="cls-12" d="M68.07,39.7a1.32,1.32,0,0,1-.63-1.24A1.23,1.23,0,0,1,68.07,39.7Z"/><path class="cls-12" d="M68.69,41a1.33,1.33,0,0,1-.62-1.25A1.25,1.25,0,0,1,68.69,41Z"/><path class="cls-77" d="M55.64,32.86,55,32.24Z"/><path class="cls-12" d="M67.45,38.47l-.62-.64Z"/><path class="cls-1" d="M63.12,38.55a5.53,5.53,0,0,1,1.72,4.58c-.37-.44-.64-.62-.72-.86C63.76,41,63.45,39.79,63.12,38.55Z"/><path class="cls-120" d="M33.92,23.57a4,4,0,0,1,.6,0c.13,1-.41,2.21.6,3.07-.2.42-.41.83-.62,1.25h0a13.79,13.79,0,0,0-3.72,3.74c-.19.26-.43.47-.75.35a.69.69,0,0,1-.35-1c1.07-1.84,1.74-3.93,3.25-5.51A2.9,2.9,0,0,0,33.92,23.57Z"/><path class="cls-121" d="M56.28,66.41c.51-.25.53-.81.89-1.42a18.93,18.93,0,0,0,1.38,1.78.69.69,0,0,0,1.07-.06,8.24,8.24,0,0,1,1.61-2.14A25.82,25.82,0,0,1,67,70.41a2.62,2.62,0,0,0,1.12,1c.2.42.41.83.62,1.24.37.33.23.92.62,1.25h0c.49.88.21,1.69-.73,1.18-1.37-.73-2.49-1.68-4.18-.9-.42.19-1.11-.28-1.2-.77-.29-1.49-1.81-1.25-2.59-2a16.11,16.11,0,0,0-3.43-3.8A5,5,0,0,1,56.28,66.41Z"/><path class="cls-64" d="M38.24,30.29V31a1,1,0,0,1-.54-.93c0-.15.19-.28.29-.43Z"/><path class="cls-64" d="M35.13,29.75c-.73-.45-.6-1.18-.63-1.87h0C35.24,28.33,35.11,29.06,35.13,29.75Z"/><polygon class="cls-64" points="35.13 29.75 35.39 29.89 35.27 30.01 35.13 29.75"/><path class="cls-19" d="M55,101.85h-.64C54.61,101.44,54.82,101.44,55,101.85Z"/><path class="cls-19" d="M56.27,101.85h-.63Q56,101.24,56.27,101.85Z"/><path class="cls-19" d="M58.13,101.25c0,.2,0,.4,0,.6H57.5Z"/><path class="cls-111" d="M27.11,30.45a10.16,10.16,0,0,1-.59-1.36,2,2,0,0,1,.14-1.19C27.09,28.68,27.73,29.37,27.11,30.45Z"/><path class="cls-85" d="M33.26,70.17l-.59-.64h.59Z"/><path class="cls-95" d="M8.4,40.94a5.54,5.54,0,0,1-.57-.07c-.09,0-.23-.11-.22-.16,0-.24.2-.33.41-.19a1.9,1.9,0,0,1,.38.42Z"/><path class="cls-87" d="M11.51,31.62c-.09-.05-.25-.11-.25-.14.05-.21.14-.16.25.14Z"/><path class="cls-85" d="M47.55,76.37V77l-.31.25L46.92,77Z"/><path class="cls-85" d="M46.3,77.61l.62-.63h0a.53.53,0,0,1-.2.75Z"/><path class="cls-85" d="M46.31,78.23H45.7l.6-.63h0q.32.21.21.42c-.08.13-.15.2-.22.2Z"/><path class="cls-122" d="M60.62,71.4a5.65,5.65,0,0,0,1.51.2c.43-.06.77-.67,1,.29.57,2,1.14,2.43,3,.85a2.93,2.93,0,0,1,.53-.29c.91.41.92,1.59,1.76,2.07s.81-.11.88-.63c1.69,1.81.7,3.8.38,5.75-.69.15-.88.61-1.09,1.27-.39,1.24-1.48,1.47-2.22.4-.86-1.23-.67-.25-.83.25a2.75,2.75,0,0,1-.33.48,6.28,6.28,0,0,1-.89-3.18C63.58,76.13,62,73.83,60.62,71.4Z"/><path class="cls-97" d="M46.31,78.23c0-.2,0-.41,0-.62l.62-.62.61,0A1.11,1.11,0,0,1,46.31,78.23Z"/><path class="cls-117" d="M47.41,69.57l-.24.15c-.07-.17-.15-.34-.21-.52-.11-.33,0-.4.22-.13A1.91,1.91,0,0,1,47.41,69.57Z"/><path class="cls-122" d="M69.32,73.89a1.28,1.28,0,0,1-.62-1.25A1.28,1.28,0,0,1,69.32,73.89Z"/><polygon class="cls-108" points="24.56 15.46 24.3 15.31 24.42 15.2 24.56 15.46"/><path class="cls-85" d="M24,41A3.77,3.77,0,0,1,22.85,37c1.43,1.17,1,2.63,1.09,3.94Z"/><path class="cls-80" d="M22.69,23.53l.62-.62Z"/><path class="cls-80" d="M22.07,24.16l.62-.63Z"/><path class="cls-118" d="M47,56.48c.44-.13.88-.57,1.34-.1s0,.9-.11,1.35L47,57.1q-.29-.21-.18-.42C46.83,56.55,46.89,56.48,47,56.48Z"/><path class="cls-60" d="M45.69,55.26l.65.6.24.32a3.88,3.88,0,0,0-.26.31A1.3,1.3,0,0,1,45.69,55.26Z"/><path class="cls-60" d="M45.07,54.63c.21.2.41.41.61.61C45.48,55,45.28,54.83,45.07,54.63Z"/><path class="cls-60" d="M47,56.48v.62l-.63-.61v0a.42.42,0,0,1,.61,0Z"/><path class="cls-118" d="M48.18,57.73c.21.21.42.41.62.62C48.6,58.14,48.39,57.94,48.18,57.73Z"/><path class="cls-118" d="M46.94,56.47h-.61c0-.2,0-.41,0-.61Z"/></g></g></g></svg>