<svg xmlns="http://www.w3.org/2000/svg" viewBox="0 0 57.65 95.94"><defs><style>.cls-1{fill:#8a572c;}.cls-2{fill:#87562b;}.cls-3{fill:#caa372;}.cls-4{fill:#87552b;}.cls-5{fill:#8d592d;}.cls-6{fill:#a07343;}.cls-7{fill:#b38655;}.cls-8{fill:#cea577;}.cls-9{fill:#996c3e;}.cls-10{fill:#b28553;}.cls-11{fill:#ad7f4d;}.cls-12{fill:#c49c6b;}.cls-13{fill:#623e24;}.cls-14{fill:#935a2f;}.cls-15{fill:#d1ac7f;}.cls-16{fill:#c39a6a;}.cls-17{fill:#633b24;}.cls-18{fill:#c9a071;}.cls-19{fill:#b88d5b;}.cls-20{fill:#c19867;}.cls-21{fill:#dab88c;}.cls-22{fill:#c19866;}.cls-23{fill:#86542e;}.cls-24{fill:#b78e5d;}.cls-25{fill:#cca676;}.cls-26{fill:#d2ac7f;}.cls-27{fill:#ac7b4b;}.cls-28{fill:#935d35;}.cls-29{fill:#b18153;}.cls-30{fill:#d5b284;}.cls-31{fill:#c7a070;}.cls-32{fill:#b68b5a;}.cls-33{fill:#a37645;}.cls-34{fill:#aa7c4a;}.cls-35{fill:#a47645;}.cls-36{fill:#b08250;}.cls-37{fill:#a97b49;}.cls-38{fill:#6c4125;}.cls-39{fill:#774828;}.cls-40{fill:#a67846;}.cls-41{fill:#7e4b23;}.cls-42{fill:#d5b182;}.cls-43{fill:#cea979;}.cls-44{fill:#a07040;}.cls-45{fill:#a17343;}.cls-46{fill:#915d30;}.cls-47{fill:#a67947;}.cls-48{fill:#b98f5d;}.cls-49{fill:#bb8f5d;}.cls-50{fill:#a47041;}.cls-51{fill:#d0af81;}.cls-52{fill:#c7a06f;}.cls-53{fill:#ac7d4c;}</style></defs><g id="Layer_2" data-name="Layer 2"><g id="Layer_1-2" data-name="Layer 1"><g id="pawn_white" data-name="pawn white"><path class="cls-1" d="M12.28,61.73l-1.15-1.38c.11-1.3,1.24-1.34,2-1.35,3.16-.07,6.26-1,9.44-.72H23.7c1.78,0,3.57-.06,5.35,0s3.51,0,5.51,0c-3.9-6-4.31-12.62-4.33-19.3,0-2.62-1.53-5.28,0-7.9a2.89,2.89,0,0,1,1.51-.65c1.16-.09,2.33-.18,3.15.9a70.05,70.05,0,0,0,2.32,13c.42,1.38.85,2.76,1.38,4.09,1.72,4.39,4.21,8.23,8.22,10.89a.27.27,0,0,1,.07.26c0,.08-.14.14-.21.21a3.64,3.64,0,0,1-2.29.7c-3.65-.79-7.26.09-10.87.15-2.17.34-4.91-1.31-6.25,1.85a2.72,2.72,0,0,1-.89.43,28,28,0,0,1-4.66.21c-.9,0-1.79,0-2.68,0C16.74,63,14.19,63.9,12.28,61.73Z"/><path class="cls-2" d="M45.37,61.69c.81.61,1.64,1.2,2.44,1.82A12.9,12.9,0,0,1,49,82.78a2.52,2.52,0,0,1-2.54,1.45c-2.88,0-5.78.44-8.64-.32-1.48-1.07-.3-2,.25-2.85,3.59-5.25,4.74-10.65,1.3-16.45-.47-.79-.88-1.67-.09-2.55A8.54,8.54,0,0,1,45.37,61.69Z"/><path class="cls-2" d="M50.29,85.89a1.77,1.77,0,0,0,1,.61A9,9,0,0,1,57.65,95a.76.76,0,0,1-.68.85,8.47,8.47,0,0,1-1.23.08H38.8a7.24,7.24,0,0,1-.92-.12c-1.19-.76-1.7-2.7-3.8-1.9-.87.33-1.07-.76-1.22-1.43a9.85,9.85,0,0,1,.28-5.19,2.56,2.56,0,0,1,1.45-1.35c4.88-.65,9.79-.06,14.68-.37A1.61,1.61,0,0,1,50.29,85.89Z"/><path class="cls-3" d="M8.14,84.06c.12-.46.55-.9.1-1.41a12.24,12.24,0,0,1-1-1.19c-3.66-5.15-3.08-13.6,2.13-17.64a2.77,2.77,0,0,1,.55-.26c1,1,.66,2.2.38,3.37s-.83,2.26-.46,3.49c0,2.42-.67,4.85.23,7.24.26,1.88,1.19,2.33,3,1.67s2.72-2,4.14-2.87a13.77,13.77,0,0,1,1.91,7.19,4.24,4.24,0,0,1-2.51.6C13.8,84,11,84.91,8.14,84.06Z"/><path class="cls-4" d="M38.53,6.31c2.8,5.53,1,10.07-3.28,14.22,1.1.91,2.11,1.76,3.13,2.59l4.33,3.49c.74.6.72.66-.47,1.35-2.14.09-4.28.73-6.42,0-2.15-2.13-4.73-3.92-5.75-7-.14-1.19,1.41-1.48,1.4-2.61a2.3,2.3,0,0,1,.58-1c.19-.2.39-.38.59-.56s.59-.59.88-.89A10.73,10.73,0,0,0,37.17,8.5C37.22,7.63,36.91,6.3,38.53,6.31Z"/><path class="cls-5" d="M33.53,87.72c0,1.83-.39,3.68.18,5.56.62.26.66-.5,1-.72.51-.33,1.06-.41,1.36.07.63,1,1.75,1.82,1.79,3.18-1.53,0-3.06.13-4.59.13q-9.21,0-18.42-.12a.78.78,0,0,1,0-.9c.77-1,2-1,3.05-1.32,4.5-1.23,8.93-2.62,12.83-5.31C31.53,87.73,32.4,87,33.53,87.72Z"/><path class="cls-6" d="M38.53,6.31A1.73,1.73,0,0,0,37.9,8a10.37,10.37,0,0,1-4.36,8.93c-.21.21-.45.39-.64.62l-.61,0-.36-.25C31.39,14,30.12,11,31.86,7.35c.92-1.9,1-3.9,3.45-4.36a.93.93,0,0,1,.8.18A5.19,5.19,0,0,1,38.53,6.31Z"/><path class="cls-7" d="M21.09,42.33c.27-1.7.46-3.42.83-5.1a28.68,28.68,0,0,0,.51-6.06A.75.75,0,0,1,23,31c.35.11.67-.12,1-.13a3,3,0,0,1,.8.12,2.9,2.9,0,0,1,1.84,1.2c2.57,5.9,1.3,11.78,0,17.66-1.28.11-1.29-1-1.23-1.64.24-2.64-2.26-4.65-1.36-7.44-1.26,1.18-1.19,2.68-1.7,4-.34.78-.8,1.56-1.74,1.34-.53-.11-.5-.78-.18-1.26l0,0C21.22,44.15,20.44,43.06,21.09,42.33Z"/><path class="cls-8" d="M23,59.14c-3.41,0-6.78.74-10.21.56a1.64,1.64,0,0,0-1.63.65c-.5-.3-.81-.73-.27-1.17,1.09-.9,2.26-1.71,3.39-2.56.94.24,1.53-.38,2.15-.89.17-.17.36-.33.54-.49s.34-.31.5-.46.15-.16.23-.25L18,54a6.28,6.28,0,0,1,.31-.57q.24-.43.45-.9a5.38,5.38,0,0,1,.31-.64,2.89,2.89,0,0,1,.69-.9.94.94,0,0,1,.77.09C21.43,53.75,23.08,56.18,23,59.14Z"/><path class="cls-9" d="M37.26,83.4c2.94,0,5.87,0,8.81,0A5.14,5.14,0,0,0,49,82.78a1.53,1.53,0,0,0,.6,1.26,1.49,1.49,0,0,1,.64,1.23c-1.73,1-3.64.57-5.47.59-4.23,0-8.46,0-12.69.07a14.18,14.18,0,0,0-5.73-1.12c-1,0-2.64.39-2.69-1.56,1.76-1.19,3.73-.68,5.63-.75C32,82.69,34.76,81.7,37.26,83.4Z"/><path class="cls-10" d="M31.73.67a1.8,1.8,0,0,1,1.36.59c-2.52,3.88-4.92,7.8-4.84,12.68,0,.81-.26,2.19.17,2.33,1.63.55,1.37,1.33.69,2.39a2.31,2.31,0,0,1-.76.51A2.29,2.29,0,0,1,26.54,19c-2.11-5.35-3.43-10.64,1.32-15.4.89-.89,1-2.3,2-3.07A2.55,2.55,0,0,1,31.73.67Z"/><path class="cls-11" d="M28.57,18.75a5.37,5.37,0,0,0,.49-1.13c.1-.44.35-1.19-.66-.66-.34.17-.49-.19-.63-.45a3.54,3.54,0,0,1-.25-3,2.93,2.93,0,0,0,.07-2.39A1.25,1.25,0,0,1,27.71,10c1.21-2.12,1.57-4.65,3.18-6.57a2.38,2.38,0,0,0,.49-1.07c.2-.88,1-.91,1.71-1a3.51,3.51,0,0,1,2.33,1.32l-.3.31a9.39,9.39,0,0,0-4.49,10.63,8.13,8.13,0,0,1,0,4.81C30,19,29.41,19.34,28.57,18.75Z"/><path class="cls-12" d="M26.09.74a.93.93,0,0,1,.49-.11.8.8,0,0,1,.82,0,3.37,3.37,0,0,1-.71,2.88c-2.43,3.73-2.79,7.77-2.09,12,.17,1.07,1.2,2.44-.67,3.12-1.4.11-2.58-.19-3.1-1.7A17.41,17.41,0,0,0,21,11.51c-.42-2.41.5-4.6,1.26-6.81C22.88,2.76,24.41,1.67,26.09.74Z"/><path class="cls-13" d="M45.37,61.69a6.3,6.3,0,0,1-2.94.58c-1.1,0-2.22,0-3.33,0l-.49.08a19.91,19.91,0,0,1-4.88-.08c-1.74-.29-2-1.21-.81-2.51a24.8,24.8,0,0,0,5.21-.5,8.54,8.54,0,0,1,4,0,24.58,24.58,0,0,0,4.59.48A4.46,4.46,0,0,1,45.37,61.69Z"/><path class="cls-14" d="M31.67,85.25l18.55,0,.07.62h-.6a4.65,4.65,0,0,1-2.73.28c-9.71-.29-19.38,1-29.09.61A5.16,5.16,0,0,0,16,87a7.43,7.43,0,0,1-1.13.27c-2.46,0-5,.53-7.35-.51a1,1,0,0,1-.13-1.52l.06,0c2.19-1.18,4.57-.93,6.92-.91,4.76-.25,9.5.26,14.25.27A7,7,0,0,1,31.67,85.25Z"/><path class="cls-15" d="M23,4.45a3.82,3.82,0,0,1-.44,2.1,7.93,7.93,0,0,0-.6,6,4.8,4.8,0,0,1-.82,4.3c-.86.55-1.27-.66-2-.51A10.66,10.66,0,0,1,19.3,5.73C20.4,7,20.4,7,19.89,10.21c.26-1.16.36-2.36.73-3.49S21.31,4.29,23,4.45Z"/><path class="cls-16" d="M7.43,85.27l.1,1.13c-.91,1.13.15,2.17.17,3.25a7.56,7.56,0,0,1-.88,2.87C6.3,93.69,6.28,95.13,5,95.84H3.07c-2.17-2.87-1.49-5.51.65-8a3.27,3.27,0,0,1,2.1-1.21C6.67,86.44,6.91,85.72,7.43,85.27Z"/><path class="cls-17" d="M35.34,27.39l5.2.06a2.16,2.16,0,0,1,1.7.51l-7.31,3.36-3.26-.14c-1.69-2.46-1.53-2.92,1.46-4.24A2.39,2.39,0,0,1,35.34,27.39Z"/><path class="cls-18" d="M15.5,28c-1.15-.47-1.36-.81-.73-1.31a65.6,65.6,0,0,1,6.32-4.92c.71.1,1.44,0,2.13.16,1.11.25,2.31.6,2.57,1.86.29,1.44-.59,2.27-2,2.6-2.19-1.2-3.95-.67-5.31,1.37C17.56,28.43,16.49,27.69,15.5,28Z"/><path class="cls-19" d="M12.28,61.73c2.27.81,4.64.37,7,.54.37.42,1.5.29,1.27,1-.66,2,.13,4.55-2.14,6-2.28-1.6-3.79-4.06-6.27-5.46-1-.56,0-1.2.2-1.79Z"/><path class="cls-20" d="M12.3,62c0,.62-.55,1.48.7,1.58.3,0,.58.24.87.25.61,0,.91.13.83.88A1.53,1.53,0,0,0,16,66.22c1.7.33,2.06,1.43,2.05,2.88.48.63.29,1.07-.37,1.38-1.45-.88-3-1.63-3.89-3.22a1.15,1.15,0,0,0-2-.36,4.32,4.32,0,0,0-1.16,2c-.26.64-.54,1.26-1.31,1.45-.72-.52-.59-1.16-.31-1.86a10.57,10.57,0,0,0,1-4.92A5.84,5.84,0,0,1,12.3,62Z"/><path class="cls-21" d="M23,4.45a3.32,3.32,0,0,0-1.79,3c-.05,1.12-.78,2.13-.43,3.31.12.4-.2.78-.55,1a1.16,1.16,0,0,1-.54.21c-.25,0-.37-.12-.37-.39,0-1.42-.28-2.86.34-4.24a1.25,1.25,0,0,0-.33-1.66c1.49-2.7,3.56-4.64,6.79-5Z"/><path class="cls-22" d="M19.87,51.09c0,.2,0,.4,0,.6-.22.19-.4.43-.61.63,0,.21,0,.41,0,.62-.23.18-.4.43-.62.62,0,.21,0,.41,0,.62-.22.19-.4.42-.61.62h0l-.62.62h0c-.35.25-.77.45-1.07,0-.55-.75.22-1.31.4-2l0,0c.47-.28.35-.88.68-1.24v0c.41-.32.3-.9.63-1.25h0c.4-.33.3-.9.61-1.28v0c.46-.36.36-1,.58-1.42a8.23,8.23,0,0,1,1.29-3.58c.09.34,0,.83.54.82.19,0,.45-.33.57-.56a3.21,3.21,0,0,0,.17-.84c2.91,0,2.81,1.57,1.8,3.57C21.68,48.2,21.43,50.37,19.87,51.09Z"/><path class="cls-23" d="M24.21,31.22H23.6a.36.36,0,0,1-.6-.07l-.29,0-.28,0-.74-.56c-1.43-2.47-1.34-2.61,2.16-3.69a10.14,10.14,0,0,1,2.33-.25,3.71,3.71,0,0,1,2.34.59c.57,1.94-.44,3.17-1.87,4.21A4.82,4.82,0,0,1,24.21,31.22Z"/><path class="cls-24" d="M23.6,26.21A11.08,11.08,0,0,0,25,25c.67-.76.45-1-.48-1.76a2.46,2.46,0,0,0-2.5-.64c-.72.21-.83-.31-.91-.83.29-.65,1.12-.94,1.15-1.76a1.25,1.25,0,0,1,.79-.37,43.56,43.56,0,0,1,4.41.42,1.91,1.91,0,0,1,.72.5c.75,2.3-1.54,3.84-1.5,6a1.93,1.93,0,0,1-.67.5,11.91,11.91,0,0,1-2.07.06.65.65,0,0,1-.51-.54C23.48,26.46,23.54,26.34,23.6,26.21Z"/><path class="cls-25" d="M6.19,92.11c.42-.83.83-1.66,1.25-2.48l.41-.14c1.05,2,4.31,2.41,3.69,5.49-.21.42-.65.56-1,.82l-3.12,0C6.45,94.77,7.28,93.12,6.19,92.11Z"/><path class="cls-26" d="M3.72,87.8c-.08,1-.81,1.86-1.09,2.82s-.63,1.64.16,2.54c.62.69.22,1.76.28,2.67a16,16,0,0,1-1.83,0c-1-.07-1.37-.49-1.2-1.35C.56,91.9,1.2,89.33,3.72,87.8Z"/><path class="cls-27" d="M14.27,85.26l-6.78,0a1.1,1.1,0,0,1,.65-1.23,28.66,28.66,0,0,1,8.61-.64C16.78,85.19,14.78,84.21,14.27,85.26Z"/><path class="cls-28" d="M23.6,27.52c-.15.13-.27.31-.44.37-.53.18-1.35.15-1.56.49a2.48,2.48,0,0,0,.09,2.23A35.6,35.6,0,0,1,15.5,28a1.47,1.47,0,0,1,1.32-.59l1.83-.09a3,3,0,0,1,1.31-.6,5.16,5.16,0,0,1,3.3.42C23.37,27.29,23.48,27.41,23.6,27.52Z"/><path class="cls-29" d="M23,20l-.73.05a8.09,8.09,0,0,1-3.15-3.67.62.62,0,0,1,1-.18c.32.25.67.46,1,.69a3.64,3.64,0,0,0,3.1,1.25.57.57,0,0,1,.17.66A3.29,3.29,0,0,1,23,20Z"/><path class="cls-30" d="M6.19,92.11c1.74.62,1.73.61,1.41,2.22a14.44,14.44,0,0,0-.17,1.49L5,95.84C5.37,94.6,5.78,93.35,6.19,92.11Z"/><path class="cls-31" d="M16.7,53.5a3.33,3.33,0,0,1-.06.84c-.28.74,0,1,.73,1.08a5.82,5.82,0,0,1-1.79,2c-.58.49-.88.29-1.33-.83A13.25,13.25,0,0,1,16.7,53.5Z"/><path class="cls-21" d="M27.33.77,26.58.63a5.43,5.43,0,0,1,5.15,0L29.81.74A1.79,1.79,0,0,1,27.33.77Z"/><path class="cls-32" d="M10.55,95.8l.61-.59a4.19,4.19,0,0,1,3.64-.79.47.47,0,0,1,.09.79c0,.2,0,.4,0,.61A17.84,17.84,0,0,1,10.55,95.8Z"/><path class="cls-22" d="M21.09,42.33c0,.89.32,1.87-.66,2.51A3.39,3.39,0,0,1,21.09,42.33Z"/><path class="cls-31" d="M19.16,48.4a1.22,1.22,0,0,1-.58,1.42A1.71,1.71,0,0,1,19.16,48.4Z"/><path class="cls-31" d="M18.59,49.79A1.19,1.19,0,0,1,18,51.07,1.44,1.44,0,0,1,18.59,49.79Z"/><path class="cls-31" d="M18,51.06a1.18,1.18,0,0,1-.63,1.25A1.43,1.43,0,0,1,18,51.06Z"/><path class="cls-31" d="M17.36,52.29a1.12,1.12,0,0,1-.68,1.24A1.38,1.38,0,0,1,17.36,52.29Z"/><path class="cls-11" d="M36.11,3.17l-.7.06a.37.37,0,0,1-.17-.34c0-.14,0-.2.07-.2l.11-.11A.8.8,0,0,1,36.11,3.17Z"/><path class="cls-33" d="M37.26,83.4H29.18C27,79.87,25,76.3,27.56,72.08c-1.4-2.36.41-5.17-1.06-7.52a1.7,1.7,0,0,1,.19-2.26l.65-.11a2.71,2.71,0,0,1,2.52-.79c3,.78,6.21.24,9.27.86l0,.05c0,1,.81,1.64,1.28,2.42a12.77,12.77,0,0,1,1.72,9.19,16.73,16.73,0,0,1-3.91,8.26A14,14,0,0,0,37.26,83.4Z"/><path class="cls-34" d="M26.69,62.3c0,.51,0,1,.08,1.53a.72.72,0,0,0,.53.68c.37.11.89-.18,1.1.29A1.28,1.28,0,0,1,28,66.2a1.18,1.18,0,0,0,.06,1.86c.38.37,0,.7-.17,1.07-.76,1.32-.75,1.33.72,1.56a1.24,1.24,0,0,1,.74.39.54.54,0,0,1-.27.77c-1.58.7-2,2-1.78,3.54a2.37,2.37,0,0,1,0,.92c-.45,1.47-.41,2.65,1.12,3.64,1.2.76.69,2.25.76,3.45H23.6a.93.93,0,0,1-.83.19c-2.6-1.74-3.59-3.88-2.86-6.17.49-1.5,1-1.6,2.8,0-1.2-2.84-2.74-5.24-.69-7.75-2.36-2.37-.78-4.89-.29-7.37Z"/><path class="cls-35" d="M24.21,31.22l2.51-.07c1.24-.68,2.47-1.11,3.66.09a36.8,36.8,0,0,0,.53,5.21,33.9,33.9,0,0,1,.15,5.25,58,58,0,0,0,1.59,10.64A10.93,10.93,0,0,0,35.72,58a3,3,0,0,1,.41.7c-.07.17-.08.29-.15.35a.48.48,0,0,1-.29.09l-6.51,0c-1.37-2.66-1.32-5.65-1.22-8.43a67.22,67.22,0,0,0-.31-9.53,13.09,13.09,0,0,1,.64-4.24c.48-2.27.11-4.1-2.21-5.12C25.4,31.79,24.68,31.9,24.21,31.22Z"/><path class="cls-36" d="M21.73,62.28A2.59,2.59,0,0,1,22,64.9a8.94,8.94,0,0,0-.78,2.32c-.15.81.24.75.83.4s.81.09.85.53c.15,1.53.35,3.09-1.34,4.06a1,1,0,0,0-.33,1.12c.14.46.5.57.95.56.29,0,.68,0,.7.41.08,1.53.38,3.08-.44,4.51-.16.28-.43.52-.72.32a1,1,0,0,1-.41-.74,6.33,6.33,0,0,1,.31-1.17c.06-.3.09-.7-.29-.74a.76.76,0,0,0-.63.46c-.42,2.19-.55,4.32,1.74,5.71.24.14.35.49.53.74a2.65,2.65,0,0,1-3.79,0,8.88,8.88,0,0,1-1.82-5.46,1.62,1.62,0,0,0-.59-1.37c-1.15-1.17-.81-2.57-.63-4a3.87,3.87,0,0,1,1.24-2.21A1.33,1.33,0,0,0,18,69.1a3.76,3.76,0,0,0,1.25-3c0-.79-.27-1.68.42-2.35s-.34-1-.43-1.45Z"/><path class="cls-37" d="M26.08,31.81h.3c2.69.09,3.29.64,3,3.26-.17,1.36.19,2.9-1.1,4-.54.47-.41,1.4-.16,2.07a30.51,30.51,0,0,1,.81,4.53,6.84,6.84,0,0,1-.12,3.93,3.89,3.89,0,0,0-.09,2.43c.79,2.33.4,4.7.5,7.05l-5.58,0a4.48,4.48,0,0,1,.19-2.61A15.52,15.52,0,0,0,25,52.78c.38-1,.19-2.17,1.12-2.94.66-.52.6-1.25.61-2a47.05,47.05,0,0,1,.46-5.8c.34-2.49.64-5.11-.59-7.57A9.72,9.72,0,0,1,26.08,31.81Z"/><path class="cls-31" d="M24.23,56.69a4.5,4.5,0,0,1-.63,2.48l-.63,0a4.43,4.43,0,0,0-.66-1.64c-.58-1.39-1.94-2.46-1.51-4.3a2.19,2.19,0,0,0-.93-2.11l1.23-2.74c.4-.89.4-.89,1.87-.38a1,1,0,0,1,.15.77C23.38,51.41,24.47,54,24.23,56.69Z"/><path class="cls-38" d="M39.13,62.26l-11.79-.07a4.4,4.4,0,0,1-.41-.81c-.25-1,0-1.5.84-1.53,1.71-.06,3.43,0,5.15-.05,0,.2,0,.4-.07.6-.13.63-.24,1.23.72,1.23l3.94,0A1.81,1.81,0,0,1,39.13,62.26Z"/><path class="cls-39" d="M30.38,31.24l-3.66-.09,1.86-3.66a3.16,3.16,0,0,1,4.35,0,5.12,5.12,0,0,1-1,.61c-.58.19-.8.5-.65,1.09s0,1.4.37,2Z"/><path class="cls-40" d="M14.89,95.21l0-.64a2.31,2.31,0,0,1-.5-.73c-.7-2.49,1.19-4.79.53-7.28l.68-.1a117.1,117.1,0,0,1,18.54.09l-.57,1.17c-1.14,0-1.85.87-2.68,1.42a39.12,39.12,0,0,1-9.76,4.38C19,94.18,16.87,94.36,14.89,95.21Z"/><path class="cls-41" d="M34.1,86.55l-18.54-.09c.72-.84,1.71-.55,2.61-.56q8,0,16.07,0H49.69c-.6.78-1.47.61-2.28.61C43,86.53,38.54,86.53,34.1,86.55Z"/><path class="cls-42" d="M9.28,70.34l.65-1.85a1.22,1.22,0,0,1,2,.59c.52,1.22,1.8,1.67,2.39,2.78.5.93,2.32.88,2,2.41-.22,1.1.07,2.33-.61,3.31-1,1.38-4.53,1.8-6.42.83a6.7,6.7,0,0,0-.2-1.5,7.25,7.25,0,0,1,0-5.07A6.16,6.16,0,0,0,9.28,70.34Z"/><path class="cls-43" d="M9.31,78.41c.6.1,1.21.21,1.82.29.29,0,.78.14.85,0,.68-1.17,1.74-1.2,2.9-1.11.16,0,.46-.39.53-.65.12-.49.09-1,.18-1.53s.56-1.14.23-1.77-1-.58-1.61-.67c-1-.13-.29-1.37-1-1.69s-1.46,0-1.48-1.1-.73-1.65-1.81-1.7c.35-.67.53-1.44,1.23-1.88.91-.71,1.55-.07,2.06.54a29.27,29.27,0,0,1,3.56,5.07c0,1.43,0,2.87,0,4.3,0,.51,0,1-.07,1.53a.77.77,0,0,1-.76.79c-.29,0-.79,0-.85.15-.52,1.32-1.84,1.05-2.8,1.39-1.52.54-1.72.38-2.58-1.14C9.56,79,9.44,78.69,9.31,78.41Z"/><path class="cls-44" d="M19.18,83.35l3.79,0h.63a1.84,1.84,0,0,0,1.66.62c1.13,0,2.26,0,3.39,0a3.64,3.64,0,0,1,3,1.23H14.27c.06-.62.28-1.12,1-1.2s1.15-.09,1.5-.64Z"/><path class="cls-45" d="M32.93,27.47l-4.35,0-2.51-.06c-.2-.13-.26-.27-.19-.4s.13-.2.2-.2h0a3.14,3.14,0,0,1,2.75-.54c-.19-2-.64-3.87.24-5.76a1,1,0,0,1,1.34.1,13,13,0,0,0,3.15,4.06c.75.78,1.83,1.38,1.78,2.7Z"/><path class="cls-46" d="M30.41,20.63H29.18a.86.86,0,0,1-1.25,0l0,0c-.46-.84.12-1.33.63-1.83v0a4.11,4.11,0,0,0,1.86-.62.81.81,0,0,1,1-.25l.27.26c.13.58.82.88.77,1.57C31.89,20.25,30.83,19.74,30.41,20.63Z"/><path class="cls-46" d="M32.9,17.5l.64-.62Z"/><path class="cls-46" d="M32.29,17.53l-.6.61,0,0c-.14-.56.08-.77.63-.64Z"/><path class="cls-47" d="M32.3,17.48l-.63.64H30.43c.25-1.21-.91-2.35-.2-3.6a.6.6,0,0,0-.12-.57c-1.34-1.25-.55-2.63-.3-4,.22-1.18.93-2.3.43-3.59-.12-.28.15-.55.47-.65.56-.18.87-.49.76-1.12a.56.56,0,0,1,.4-.71c1.21-.23,2.14-1.26,3.45-1.2a2.35,2.35,0,0,1,.09.53c-.11.28-.15.73-.33.79a21.53,21.53,0,0,1-2.27.57c-.19.93,1,1.46.42,2.34-.37.54-.12,1.49-1.1,1.66a.61.61,0,0,0-.38.4,11.4,11.4,0,0,1-.46,2.7c-.18.47.28.68.68.83s.7.29.47.61C31.35,14.56,32.2,16,32.3,17.48Z"/><path class="cls-48" d="M23,48.59V48a9.65,9.65,0,0,0,.48-1.1,1.64,1.64,0,0,0-.92-2.22l-.8-.41c.49-1.54.53-3.22,1.42-4.64a1.18,1.18,0,0,1,.69-.54.84.84,0,0,1,.86.69,4.59,4.59,0,0,1,.22,3.55c-.19.42-.38,1.55.25,1.53,1,0,.92.39.91,1,0,1.33,0,2.66,0,4-.15,1,.37,2.23-.62,3.12C23.45,52.18,25.07,49.32,23,48.59Z"/><path class="cls-35" d="M23,31.15a4.09,4.09,0,0,1,.6.07C23.36,31.56,23.16,31.51,23,31.15Z"/><path class="cls-31" d="M19.25,52.32l.61-.63Z"/><path class="cls-31" d="M18.62,53.56l.62-.62Z"/><path class="cls-31" d="M18,54.8c.2-.21.4-.42.61-.62C18.4,54.38,18.2,54.59,18,54.8Z"/><path class="cls-31" d="M17.37,55.42,18,54.8Z"/><path class="cls-49" d="M27.33.77l2.48,0A4.13,4.13,0,0,1,28.3,4.32c-1.78,1.34-2.07,3.4-2.83,5.23-.43,1-.79,2.17.3,3.11-.22,1.68,1.5,3.15.5,4.95-.12.23.27.74.42,1.12a1.68,1.68,0,0,1-2.47,0c0-.21,0-.41,0-.61.28-.21.41-.55.19-.79-.88-1-.26-2.43-1.15-3.39a.32.32,0,0,1-.06-.28,10.72,10.72,0,0,0,.47-5.12,1.64,1.64,0,0,1,.44-1.11,3,3,0,0,0,.51-2.58c-.12-1.08,1.72-1,1.71-1.92S27,1.5,27.33.77Z"/><path class="cls-50" d="M24.22,18.75h2.47l1.89,0L28,20.61H24.3A1.63,1.63,0,0,1,23,20,1.14,1.14,0,0,1,24.22,18.75Z"/><path class="cls-32" d="M14.88,86.56c1,.76,1.49,1.54.81,2.89A8.31,8.31,0,0,0,14.88,94c-2-.33-3.17-1.78-4.11-3.31a2.28,2.28,0,0,0-3.33-1h0c-1.12-1.71-1.12-1.84.09-3.23Z"/><path class="cls-51" d="M19.87,27.38l-1.22,0c0-1.07.76-1.63,1.42-2.26s1-.76,1.86-.2c.58.4,1.11.87,1.67,1.31h0C22.74,27.82,21,26.68,19.87,27.38Z"/><path class="cls-52" d="M16.78,72.22c-.16-.13-.38-.22-.46-.38-.39-.81-1.4-.42-1.76-.82s-.09-1.59-.51-1.93c-1-.82-1.44-2.24-2.89-2.48a1.68,1.68,0,0,1,1.62-1.17,1.76,1.76,0,0,1,1.64,1.18,2.54,2.54,0,0,0,2.43,2.16c.73.07.44,1,.53,1.57S17.48,71.76,16.78,72.22Z"/><path class="cls-53" d="M26.08,26.83c0,.2,0,.4,0,.6l-2.47.09,0-.18c-.15-.12-.19-.24-.13-.34s.12-.16.17-.16Z"/><path class="cls-53" d="M27.93,20.63h1.25c0,.5-.14,1.1.07,1.49.75,1.39-.19,2.75.1,4.12.08.4-.28.53-.56.54-.9.05-1.8.05-2.71.06.72-.83-.26-1.78.15-2.57s1.08-1.41,1.5-2.18A4,4,0,0,0,27.93,20.63Z"/><path class="cls-18" d="M23.61,26.84c0,.17,0,.34,0,.5l-3.7,0a1.6,1.6,0,0,1,1.38-.54,4.41,4.41,0,0,0,2.35-.63Z"/><path class="cls-16" d="M7.44,89.62a2.21,2.21,0,0,1,1-1.11c1.05-.6,1.95-.53,2.28.47a6.28,6.28,0,0,0,3,3.63c.49.28.79.9,1.17,1.36a3,3,0,0,1,0,.6c-1.13.79-2.42.64-3.69.64.07-1.39,0-2.69-1.84-2.84-.53,0-.63-.44-.64-.85A2,2,0,0,0,7.44,89.62Z"/><path class="cls-22" d="M23,48.59c.58-.24,1.14-.51,1.67.12.4.48.9.94.54,1.62A2.53,2.53,0,0,0,25.47,53c0,1.4-.06,2.75-1.24,3.74-.05-1,.08-2.08-1.43-2.3-.64-.09-.51-.91-.17-1.25.86-.82.53-1.68.28-2.56-.05-.16-.28-.26-.41-.4C21.59,49.18,21.6,49.18,23,48.59Z"/></g></g></g></svg>