<svg xmlns="http://www.w3.org/2000/svg" viewBox="0 0 57.59 95.9"><defs><style>.cls-1{fill:#434343;}.cls-2{fill:#444;}.cls-3{fill:#606060;}.cls-4{fill:#8b8b8b;}.cls-5{fill:#5a5a5a;}.cls-6{fill:#6c6b6b;}.cls-7{fill:#707070;}.cls-8{fill:#5f6060;}.cls-9{fill:#828282;}.cls-10{fill:#4d4a4a;}.cls-11{fill:#969696;}.cls-12{fill:#353535;}.cls-13{fill:#7c7d7d;}.cls-14{fill:#8c8a8a;}.cls-15{fill:#353737;}.cls-16{fill:#828181;}.cls-17{fill:#a2a0a0;}.cls-18{fill:#878686;}.cls-19{fill:#505050;}.cls-20{fill:#898a8a;}.cls-21{fill:#959595;}.cls-22{fill:#797a7a;}.cls-23{fill:#6c6767;}.cls-24{fill:#8e8a8a;}.cls-25{fill:#848484;}.cls-26{fill:#979797;}.cls-27{fill:#626262;}.cls-28{fill:#707171;}.cls-29{fill:#606161;}.cls-30{fill:#616262;}.cls-31{fill:#6d6e6e;}.cls-32{fill:#9c9d9d;}.cls-33{fill:#666;}.cls-34{fill:#787777;}.cls-35{fill:#787979;}.cls-36{fill:#676767;}.cls-37{fill:#6c6c6c;}.cls-38{fill:#979999;}.cls-39{fill:#777878;}.cls-40{fill:#3f3c3c;}</style></defs><g id="Layer_2" data-name="Layer 2"><g id="Layer_1-2" data-name="Layer 1"><g id="pawn_black" data-name="pawn black"><path class="cls-1" d="M50.31,85.27c4.23,3.28,7.35,3.53,7.28,10.18-13.79,1-28.06,0-42,.29-.62-.36-1.14-.75-.44-1.5,5.72-2.12,11.41-2.84,16.38-6.86-4.32-.85-24.14,2-24-2.13h0c1.56-1.31,3.43-.83,5.21-.89,11.16-.2,22.32-.09,33.48,0C47.64,84.34,49.13,84.14,50.31,85.27Z"/><path class="cls-1" d="M45.56,61.08c.1,1.26,1.58,1.51,2.37,2.25,10.32,8.36,3.15,25.9-10.51,20.18-.7-1.27.21-2.14.81-3.05C48.58,66.3,29,59.06,45.56,61.08Z"/><path class="cls-2" d="M35,31.23c1.16,10.1,3.16,21.35,11.68,27.91C30.57,65.76,30.46,45.43,29.91,34.86c-.16-4.4-5-2.77-7.58-4.15C22,29.6,22.71,29.17,23.6,29c.57.42.76.19.72-.44a6.8,6.8,0,0,1,7.11-1.48C32.13,29.84,32.13,29.84,35,31.23Z"/><path class="cls-2" d="M38.67,6.25c2.72,5.49.89,10-3.33,14C38,22.67,40.82,24.65,43.41,27c-.86,1.65-10.88,2.18-11.08.25,4-2.52-4.48-5.39-3.95-8.48,4.26-3.31,8.38-4,8.86-10.65C37.32,7.27,37.24,6.1,38.67,6.25Z"/><path class="cls-3" d="M38.67,6.25A1.81,1.81,0,0,0,38,7.86c-.4,5.43-2.94,8.65-8.09,10.27C28.45,13,28.32,2.29,35.62,2.5A6.39,6.39,0,0,1,38.67,6.25Z"/><path class="cls-4" d="M8.76,83.4c-4.24-5.13-5.7-13.93-.17-18.74,2.42,1.21.28,3.57,1.3,5.13.34,2.41-.85,4.86.17,7.26,1.28,2,3.59,2.12,5.58.39.59-.51.51-2.07,1.95-1.38,2.59,8.38,1.89,7.6-4.89,7.57C11.39,83.43,9.86,84.37,8.76,83.4Z"/><path class="cls-5" d="M37.32,82.77c2.32,1.24,9.69,1,12-.52-.88,1.29,1.29,1.66,1,3l-37.85,0c.09-1.5,1.35-1.69,2.38-2.14,2.76.66,5.09-1.36,7.76-1.25C27.5,82.4,32.73,80.63,37.32,82.77Z"/><path class="cls-6" d="M35.62,2.5c-1.31,0-2.08,1.3-3.33,1.49,0,1.43-1.8,2-1.76,3.44.33,2.09-2.34,4.36-.38,6,.16,1.58.56,3.18-.28,4.7-1.87,1-3.74,2.32-5.63.54a.73.73,0,0,1,.23-.88,2.57,2.57,0,0,0,1.27-3.13C24.91,9.32,26.16,3.42,31,.55a1.39,1.39,0,0,1,1.35.14A5,5,0,0,1,35.62,2.5Z"/><path class="cls-7" d="M22.33,30.71l.71-.15c1.39.78,3-.07,4.39.51,1.94,3.72.52,7.59.54,11.4-.92,2.16.43,4.72-1.21,6.74-3-2.27-1.07-6-3-8.79-1.36,1.8-.48,5.64-2.91,6.18-1.1-.16-.55-1.18-.41-1.89C21.46,40.27,22.79,35.39,22.33,30.71Z"/><path class="cls-8" d="M24.26,18.15c1.13,1.1,2.94.4,4.36.59,1.72,2.79,4.85,4.55,6.49,7.72-.82.75-2.15,0-2.77,1a.38.38,0,0,1-.6,0c-3.37-.62-6.51,1.28-9.71.34C20.51,25.63,25,26.07,26.16,26c1-.08,2.52.58,2.3-1.38.42-6.6-4.32.87-9.22-8.31.93-1.69,1.75,0,2.63.07C22.7,16.92,23.73,17.2,24.26,18.15Z"/><path class="cls-9" d="M20.47,44.71a4.72,4.72,0,0,0,.28,1.44c.76-.26,1-1.18,1-1.92,3.41-1.18,5.8,11,3.05,12.44-3-1-2.68-3.62-3.46-6-1.66.81-1.22,3.08-2.75,4.15-.89.86-4.13,4.64-4.4,1.75l0,0a1,1,0,0,0,.63-.68l-.05,0a5.6,5.6,0,0,0,1.33-1.83v0C18.05,51.32,19.05,47.86,20.47,44.71Z"/><path class="cls-10" d="M12,61c-5.51-4.1,14.41-2.88,15.91-2.11.67,4.58-5,3.5-7.87,3.63C17.52,62,13.31,63.7,12,61Z"/><path class="cls-11" d="M21.79,17c-1,.15-1.76-1.57-2.55-.64A10.33,10.33,0,0,1,19.32,5.7c1.12,1.16,1.12,1.16.68,3.59.69-1.58.68-6,3.35-4.49C22.08,8.55,24.39,14.43,21.79,17Z"/><path class="cls-12" d="M36.66,59.12l10,0c.43,3.24-5.83,2.36-8.11,2.54-1.72,1.24-3.52,1-5.35.32C31.29,58.82,34.86,58.72,36.66,59.12Z"/><path class="cls-13" d="M15,94.61l.6,1.13a18.53,18.53,0,0,1-4.34,0c-.24-.23-.13-.64-.25-.81-.48-.63,1.74.21.48-1.2-1.85-1.25-5.18-7.6-.81-6.79C13.26,89.23,17.72,89.86,15,94.61Z"/><path class="cls-14" d="M21.86,26.88c-.89,2.5-3.94.79-5.67,1.19-.81.08-1.29-.38-1.81-1A42.36,42.36,0,0,1,21,21.74c1.9.42,4.66-.77,4.95,2.66a2.41,2.41,0,0,1-2.14,2c-.89-.34-2.4-2-3.1-.66C20.5,26.43,21.67,26.28,21.86,26.88Z"/><path class="cls-15" d="M31.74,27.44c3.22.33,7-.75,9.91.53C39.13,29.63,27.34,34.66,31.74,27.44Z"/><path class="cls-16" d="M12,61l.63.48c.6,3.19,8.83,5.14,5,8.5-5.2-.61-3.23-7.07-8.23-.24-1.79-1.48.7-3.52-.77-5.06l.05,0A1.06,1.06,0,0,0,9.3,64l0,0C10.12,63.07,11.86,62.39,12,61Z"/><path class="cls-17" d="M23,4.44c-2.73,1.1-1.27,6.53-3.3,7.05-1.55-1.76,1-4.45-.4-5.79,1.57-3.49,4.47-5,8.08-5.54a.52.52,0,0,1,.1.67C25.92,2,24.92,3.81,23,4.44Z"/><path class="cls-18" d="M3.08,88.26A3.75,3.75,0,0,1,6.24,86.5c-1.37,3,1.93,6.82-1.25,9.23C.7,95.6,1.18,90.9,3.08,88.26Z"/><path class="cls-19" d="M16.19,28.07c2.9-1.66,7.21-.22,10.58-.62l-2.49,1.86h0a2.12,2.12,0,0,0-2,1.31A33.79,33.79,0,0,1,16.19,28.07Z"/><path class="cls-20" d="M8.74,88.36c.92.43.22,1.81,1,2.06,1,.29.86,1.07,1.13,1.66a5.92,5.92,0,0,0,1.69,2.14c-.45.53-1.42.56-1.34,1.52H9.39C8.28,93.64,4,89,8.74,88.36Z"/><path class="cls-21" d="M6.87,90.85c1.83.37.45,3.22,2.39,2.32,1,.19.61,1.93.13,2.57H5c.28-1.19.84-2.34.64-3.61C6,91.66,6.12,90.84,6.87,90.85Z"/><path class="cls-21" d="M3.08,88.26c.64,1.66-1.88,3.22-.46,4.56,1.08,1.8-1.38,1.29,1.75,2.92-1.71,0-5.1.87-4.23-1.92C.56,91.7,1.11,89.59,3.08,88.26Z"/><path class="cls-22" d="M25.52,24.34c0-1.26-1.16-1.54-1.95-2.05-1-.61-2.89,2.06-2.55-.55l0,0c.74-.24.86-1.2,1.32-1.76,1.38.78,2.89.58,4.37.62C28.26,22.49,27.72,23.69,25.52,24.34Z"/><path class="cls-23" d="M14.36,83.42c0,1.13-1.21,1.18-1.9,1.82l-5,0C7.46,82.49,12.48,82.93,14.36,83.42Z"/><path class="cls-13" d="M6.25,91.48l-.62.64C5.85,87.38,3,89.8,7.47,85.25a.56.56,0,0,1,.14.46C9.07,87.57,7,89,6.87,90.85h0C6.64,91,6.46,91.27,6.25,91.48Z"/><path class="cls-24" d="M14.34,59.13l-1.26,0c-.83-1.11.56-1.84,1.15-2.51a1.43,1.43,0,0,0,1.34.69C16,58.46,14.89,58.61,14.34,59.13Z"/><path class="cls-25" d="M27.36.69c0-.17,0-.35,0-.53,1.68-.08,3.4-.52,5,.53C30.58.49,29,2.22,27.36.69Z"/><path class="cls-26" d="M13.63,57.1c-.18.66-.37,1.33-.55,2l-1.91,0A5.52,5.52,0,0,1,13.63,57.1Z"/><path class="cls-24" d="M16.16,54.14A1.59,1.59,0,0,1,14.83,56,2.69,2.69,0,0,1,16.16,54.14Z"/><path class="cls-9" d="M21.12,42.26c.08.73.18,1.46-.54,2A2.28,2.28,0,0,1,21.12,42.26Z"/><path class="cls-24" d="M16.84,53a1.16,1.16,0,0,1-.69,1.17A1.37,1.37,0,0,1,16.84,53Z"/><path class="cls-24" d="M14.88,55.94a.79.79,0,0,1-.63.68A.75.75,0,0,1,14.88,55.94Z"/><path class="cls-4" d="M9.93,63.42a.81.81,0,0,1-.65.65A.8.8,0,0,1,9.93,63.42Z"/><path class="cls-4" d="M9.3,64a.76.76,0,0,1-.65.64A.75.75,0,0,1,9.3,64Z"/><path class="cls-24" d="M17.38,52.15a.93.93,0,0,1-.52.79A.91.91,0,0,1,17.38,52.15Z"/><path class="cls-14" d="M21.72,21.1a.73.73,0,0,1-.66.66A.83.83,0,0,1,21.72,21.1Z"/><path class="cls-27" d="M15,94.61c.17-2.7-.62-5.82,1.22-8.11,5.56.29,11.62-.45,16.93.38C29.2,91.61,21,93.51,15,94.61Z"/><path class="cls-28" d="M16.2,86.5A6.32,6.32,0,0,1,15,90.86c-.64-2.3-3.76-.75-3.91-3.09-.76-1.63-2.31.47-2.94,1.21l-.62,0,.12-3.28C10.4,86.79,13.32,86.39,16.2,86.5Z"/><path class="cls-29" d="M33,61.62l5.56.06c5.59,6.11,4.46,15.43-1.22,21.09H29.25c-2.48-3.27-3.62-6.54-2.07-10.83.68-1.9-.54-4.51-.29-6.9.11-1-1.22-1.82-2.48-2-1.24-.3-4.87.62-4.49-1.43l6.85,0C28.84,60.48,30.91,60.24,33,61.62Z"/><path class="cls-30" d="M36.66,59.12c-3.2.21-6.06,1.74-9.27,0a11.53,11.53,0,0,1-.55-6.37c.66-6,0-12.1.93-18.06.13-1.69-1.1-1-.41-3.48a.37.37,0,0,1,.65-.05C33.89,29.63,28.15,51.61,36.66,59.12Z"/><path class="cls-19" d="M28,31.16c-1.58-.12-3.73.57-5-.6C24.65,30.78,26.71,30,28,31.16Z"/><path class="cls-19" d="M24.28,29.31c.41.09.16.53,0,0Z"/><path class="cls-31" d="M19.93,62.25h1.24c2.59,3.63.47,6.71-1.17,9.84.78-1.16,1.07-2.54,2.19-.26.37.81.77,2,.36,2.69-1.57,2.78-.92,5.48-.14,8.24A75,75,0,0,1,10,83.38c1.42-1.83,8.3.84,8.4-1.61a11.65,11.65,0,0,1-1-5.1c-.83-1.1-1.56-2.23-1.2-3.68a5.7,5.7,0,0,1,1.93-3.89C19.1,67.45,17.3,62.07,19.93,62.25Z"/><path class="cls-11" d="M16.81,72.83c-.23,1.53.52,3.89-.31,5.1-1.75,1.5-6.18,2.89-7.12-.14,1-1.28,3.71-1.1,3.79-2.56.34-3.09-5.72-5.81-1.95-8.63C13.76,68.07,15.13,70.59,16.81,72.83Z"/><path class="cls-32" d="M10,69.1c2.33.84,3,4.24,4.54,6.08.42.68.19,1.29-.6,1.31-1.65,0-2.92,1.28-4.56,1.3-1.22-2.71-.19-5.28,0-8.07h0C9.59,69.54,9.6,69.13,10,69.1Z"/><path class="cls-33" d="M22.41,82.77c-2-2.17-2.65-4.4-1.14-6.94.48-1,1-1.68.18-2.71-.22-.28.09-1,.09-1.45-.71-1.16-1.11.7-1.35,1.46-.36-1.1-.47-2,.08-2.64C21.65,69,21,67,21.61,65.23c.29-.84-.27-2-.44-3,2,.35,5.24-1.11,5.9,1.67.05.69,1.87.35,1.27,1.26-1.08,1.08-1,2.43-.94,3.77-.28,1.42,2.64,1.47,1.26,2.83-1.61,1.25-1,3.14-1.62,4.81-1,2.88,3,2.41,2.21,6.17Z"/><path class="cls-34" d="M27.36.69l3.76.07c-1.72,1-1.51,3.41-3.37,4.16a1.68,1.68,0,0,0-1,1.75c.37,2.37-1.31,4.65-.36,7,.5,1.46.67,5-1.52,4.49-3.62-4.52-1.8-12.18,1.24-16.78h0A1.63,1.63,0,0,1,27.36.69Z"/><path class="cls-25" d="M26.13,1.33C28,3.84,23.91,3.42,24.79,5.6a1.06,1.06,0,0,1,0,.31c.11,1.11-1.35,1.66-1.06,2.8s.62,1.94.06,3,.53,2.05.18,3c-.58,1.51.9,2.1.88,3.43A3.61,3.61,0,0,1,21.79,17c-.16-1.53,1.12-3,.47-4.5C21,8.48,22.54,3.52,26.13,1.33Z"/><path class="cls-35" d="M25.53,52.94c-1-1.73-.22-3.83-1.68-5.41-.27-1.63-.23-2.74-2.06-3.3.47-1.21,1.35-8,3.09-4.47.22,1.38,1.07,2.71.25,4.17-.06.11.06.5.16.52,1.63.37.6,3.45.86,4.76C27,50.63,27.58,52,25.53,52.94Z"/><path class="cls-36" d="M25.53,52.94c1-.91.46-2.51.62-3.73,1.68-1.81-.45-5.05,1.24-6.84-.44,3.52.68,7,.4,10.28-1.26,2.18.91,4.45-.4,6.47l-3.79,0C22.88,56.9,26.1,55.4,25.53,52.94Z"/><path class="cls-37" d="M25.52,24.34c1.11-1,1.92-2.24,1.23-3.72,3.81-.54,2.16,3.54,2.48,6-1.71.43-3.66.12-5.58.2C23.08,26.06,25.4,25.42,25.52,24.34Z"/><path class="cls-38" d="M23.67,26.22c0,.2,0,.4,0,.6-1.48,0-3,.24-4.45-.22-.12-.77.5-1.08.9-1.49A2,2,0,0,1,23.67,26.22Z"/><path class="cls-4" d="M23.66,58.53a5.32,5.32,0,0,1-.06.56H20.55c-1.39-3.1-2.13-7.82.89-10.07a2.43,2.43,0,0,1,.35,1.44c2.52.8-.92,3.53,1.72,4.3.49.29.69,1.31.77,1.91C23.68,57.15,24.22,58,23.66,58.53Z"/><path class="cls-26" d="M19.3,52.93a1.44,1.44,0,0,1,.83,2.16c-.52,1.77,2.06,1.89.42,4l-6.21.05,1.23-1.85A19.62,19.62,0,0,0,19.3,52.93Z"/><path class="cls-24" d="M17.43,55.42l-.61.62Z"/><path class="cls-24" d="M16.82,56l-.62.62Z"/><path class="cls-24" d="M16.2,56.66l-.63.62Z"/><path class="cls-24" d="M18.05,54.8l-.61.61Z"/><path class="cls-39" d="M19.3,62.27c-.06,2.27.41,5-1.24,6.83,0-1.33-.27-2.48-1.75-2.79-1.37-.52-1.67-2.38-3.17-2.68s-.58-1.34-.55-2.17C14.83,61.87,17.13,61.7,19.3,62.27Z"/><path class="cls-40" d="M28,59.18h8.07c-1.26,1.21-3.15,0-3.11,2.45H26.77C27.14,60.79,27.07,59.73,28,59.18Z"/><path class="cls-33" d="M19.3,62.27c-1.42-.2-3.24.49-4.35-.61h5c0,.19,0,.39,0,.59Z"/><path class="cls-4" d="M16.81,72.83A4.48,4.48,0,0,1,13.91,70c-1.73-.49-1.47-2.42-2.69-3.41-.08-1.41,2.32-1.64,2.72-.49.58,1.85,2.11,2.64,3.51,3.62A5.33,5.33,0,0,1,16.81,72.83Z"/><path class="cls-4" d="M10,69.1l-.63.62A1.31,1.31,0,0,1,10,68.47C10,68.68,10,68.89,10,69.1Z"/><path class="cls-25" d="M26.77.78l-.63.55Z"/><path class="cls-13" d="M8.11,89l.62-.61Z"/><path class="cls-20" d="M6.25,91.48l.62-.63Z"/><path class="cls-29" d="M25.77,77.91a5.25,5.25,0,0,1,.17,3.32C25.24,79.89,25.67,78.87,25.77,77.91Z"/><path class="cls-9" d="M23.66,58.53c0-.69-.11-1.42.62-1.87C24.27,57.35,24.38,58.08,23.66,58.53Z"/><polygon class="cls-9" points="21.79 50.45 21.65 50.71 21.53 50.59 21.79 50.45"/></g></g></g></svg>