<svg xmlns="http://www.w3.org/2000/svg" viewBox="0 0 65.84 134.37"><defs><style>.cls-1{fill:#414141;}.cls-2{fill:#424242;}.cls-3{fill:#454545;}.cls-4{fill:#434343;}.cls-5{fill:#5e5f5f;}.cls-6{fill:#616161;}.cls-7{fill:#5c5c5c;}.cls-8{fill:#797979;}.cls-9{fill:#595959;}.cls-10{fill:#6c6c6c;}.cls-11{fill:#949494;}.cls-12{fill:gray;}.cls-13{fill:#828282;}.cls-14{fill:#929292;}.cls-15{fill:#585858;}.cls-16{fill:#393838;}.cls-17{fill:#424141;}.cls-18{fill:#747575;}.cls-19{fill:#5c5d5d;}.cls-20{fill:#828383;}.cls-21{fill:#676666;}.cls-22{fill:#868686;}.cls-23{fill:#7d7c7c;}.cls-24{fill:#3f3e3e;}.cls-25{fill:#6a6666;}.cls-26{fill:#929797;}.cls-27{fill:#8b8b8b;}.cls-28{fill:#a9a2a2;}.cls-29{fill:#454242;}.cls-30{fill:#908888;}.cls-31{fill:#4a4545;}.cls-32{fill:#8d8e8e;}.cls-33{fill:#494747;}.cls-34{fill:#816d6d;}.cls-35{fill:#b9a9a9;}.cls-36{fill:#908484;}.cls-37{fill:#636363;}.cls-38{fill:#5d5d5d;}.cls-39{fill:#5f6060;}.cls-40{fill:#626262;}.cls-41{fill:#696a6a;}.cls-42{fill:#2a2a2a;}.cls-43{fill:#1c1b1b;}.cls-44{fill:#6b6b6b;}.cls-45{fill:#737373;}.cls-46{fill:#9f9f9f;}.cls-47{fill:#696969;}.cls-48{fill:#656565;}.cls-49{fill:#a1a2a2;}.cls-50{fill:#323131;}.cls-51{fill:#8a8a8a;}.cls-52{fill:#4c4747;}.cls-53{fill:#9ea0a0;}.cls-54{fill:#979797;}.cls-55{fill:#737272;}.cls-56{fill:#7e7b7b;}.cls-57{fill:#a9aaaa;}.cls-58{fill:#5f5757;}</style></defs><g id="Layer_2" data-name="Layer 2"><g id="Layer_1-2" data-name="Layer 1"><g id="queen_black" data-name="queen black"><path class="cls-1" d="M57.37,122.27c.41.42.48,1,1.21,1.29a10.16,10.16,0,0,1,7.26,9.7.87.87,0,0,1-.89,1c-.62,0-1.24,0-1.86,0q-19.58,0-39.14,0c-.72,0-1.44-.08-2.16-.13.22-1.71,1.75-1.49,2.82-1.76A80.5,80.5,0,0,0,40.07,127a13.92,13.92,0,0,0,3.65-2.56c-8.85,0-17.18,0-25.5,0a45.2,45.2,0,0,1-7.36-.07c-1.16-.14-2.67-.13-2.21-2.09,1.61-1.19,3.46-.92,5.27-.86,12.9-.32,25.79.16,38.68-.1C54.25,121.31,55.93,121.21,57.37,122.27Z"/><path class="cls-2" d="M51.66,96.87c-1.19,1.26-2.39,2.51-3.58,3.76,0,.86.71,1.22,1.18,1.71,2.93,3,5.9,6,8.84,9,1,1,1,1.06.32,2.4-1,2-2,4-3,6.06a4.72,4.72,0,0,1-3.39,1.2c-6,.39-12,.87-18-.22-1.12-1.83.72-1.74,1.5-2.06a38.74,38.74,0,0,0,8.1-4.28c2.16-1.56,3.17-3.42,1.82-6-.28-.77-.5-1.55-.78-2.31-1.44-3.88-1.73-4.08-6-4.15a7.2,7.2,0,0,1-3.58-.5c-.81-1.68.59-2.12,1.59-2.56a18.15,18.15,0,0,0,4.89-3,3.52,3.52,0,0,1,1.3-.44c1.09-.14,2.2,0,3.42-.08-1.25-2.4-1.87-4.94-3.76-6.81a4.15,4.15,0,0,1-.92-2.26c-.15-.79-.62-1.75.08-2.35,1-.81,1.45.32,1.91.86,1.08,1.28,2.58.08,3.73.76h0c.54.49-.06,1.43.73,1.82l0,0c.2.44.12,1,.57,1.32h0c.52,1,.48,2.24,1.36,3.07l0,0c.17.45.08,1,.61,1.32l0,0c.23.42.13,1,.62,1.3l0,0c.26.4.16,1,.63,1.28l0,0A1.07,1.07,0,0,1,51.66,96.87Z"/><path class="cls-3" d="M47.3,85.65c-.37.15-.84.2-1.09.47-.78.83-2-.67-2.69.49-.06.1-.45-.31-.52-.62-.15-.66,0-1.48-1.08-1.75.43,2,.42,4.11,2.46,5.38a3.07,3.07,0,0,1,1,1.86c.23.79.51,1.56.74,2.35s1.22,1.13,1.24,2.26a26.12,26.12,0,0,1-4.51.11,4.08,4.08,0,0,1-1.22-2.46c-.51-5.25-2.79-9.94-4.57-14.79-2.93-8-4.83-16.09-3-24.62.64-2.95,1.61-5.81,4.21-7.73,1.9-.33,3.82-.91,5.49.66-2.11,4.29-2.56,8.86-2.36,13.55.33,7.6,2.37,14.81,4.94,21.91A8.34,8.34,0,0,1,47.3,85.65Z"/><path class="cls-4" d="M51.05,15.47A11.17,11.17,0,0,1,50.76,17q-3.18,9.69-6.38,19.39A5.46,5.46,0,0,1,43,39.06,66.83,66.83,0,0,1,28.74,39c-.82-.36-1.12-.88-.42-1.62a17.16,17.16,0,0,1,2.75-2l.75-.55.36-.28A17.76,17.76,0,0,0,37.37,27a63.29,63.29,0,0,0,4-14.93A2.4,2.4,0,0,1,42,10.19a.44.44,0,0,0,.25-.48.44.44,0,0,1-.44.3,1.18,1.18,0,0,1-.49-.63,2.12,2.12,0,0,1,0-.87c2-1.46,3.66-.16,5.39.63h0a.88.88,0,0,0,.71.57l0,0a.66.66,0,0,0,.68.63l0,0a.68.68,0,0,0,.62.69l0,0a1.12,1.12,0,0,0,.56.73h0c.32.35.16,1,.69,1.21v0a.72.72,0,0,1-.07.89,4.59,4.59,0,0,1-5.61-1c-.08-.22-.21-.28-.37-.16a2.43,2.43,0,0,1,.34.48c1.08,2.19,2.71,2.52,4.81,1.54.68-.31,1.36-1,2.24-.39A1.28,1.28,0,0,1,51.05,15.47Z"/><path class="cls-5" d="M18.68,123.61l25.37,0a5.78,5.78,0,0,1,.93,0,.72.72,0,0,1,.48.26c.22.32,0,.63-.25.79a30.77,30.77,0,0,1-5.68,3.67A99.58,99.58,0,0,1,25,133.25c-1.05.26-2.35-.15-3.16.92a15.63,15.63,0,0,1-5,0c-1.3-1.76-.8-3.74-.66-5.68C16.7,126.71,17.15,124.87,18.68,123.61Z"/><path class="cls-6" d="M13.72,122.32l-4.92.08a.64.64,0,0,1-.15-.91,1.46,1.46,0,0,1,.69-1,1.18,1.18,0,0,0,.53-1.8c-.82-1.66-1.61-3.35-2.42-5,0-3.43,2.7-1.65,4.21-2.17,1.65-.07,3.3,0,5,0,1.06,0,2.13-.06,3.19,0s2.1,0,3.15,0a3.14,3.14,0,0,1,1.93.67c-.12,2.09-1.54.69-2,1,2.87,1,3.08,1.44,1.61,4.25-.57,1.07-1,2.23-2.22,2.82-2.66,1-5.22-.08-7.82-.3.21.6.75.08,1.12.15.6.12,1.37,0,1.43.83.09,1-.76,1-1.5,1S14.26,121.88,13.72,122.32Z"/><path class="cls-7" d="M41.71,96.24c-.55,1.76-2.17,2.25-3.59,3-.62.32-1.32.48-2,.74a2.21,2.21,0,0,0-1.26,1.25,3.24,3.24,0,0,1-2.5.86c-1.24.06-2.48,0-3.73,0s-2.8,0-4.2,0c-.87,0-1.75,0-2.62-.07-1.35-.28-2.77-.35-3.87-1.35l-3.85-3.78a2.7,2.7,0,0,1,2.24-1.42c2.16-.16,4.33-.13,6.5-.08.89,0,1.79,0,2.68,0,1.08,0,2.17,0,3.25,0,1.48-.13,3,.07,4.45-.06C36.06,95.59,39.05,94.47,41.71,96.24Z"/><path class="cls-8" d="M24.22,65c0-2.88.15-5.77.05-8.65a18.18,18.18,0,0,0-2.52-9.13c.85-1,1.94-.8,3-.64a7.66,7.66,0,0,1,3,1.2A7.29,7.29,0,0,1,29.49,52a133.72,133.72,0,0,1,.65,17.67c0,1.12,0,2.32-1.1,3.06a9.58,9.58,0,0,1-2.28-6.2,11.62,11.62,0,0,1-.63,3.92c-.19.6-.55,1.2-1.28,1.12s-.92-.81-.82-1.41C24.32,68.41,23.62,66.66,24.22,65Z"/><path class="cls-9" d="M13.72,122.32c.53-1.21,2.36.16,2.72-1.38-.67-1-2,0-3-1.1h9a14.22,14.22,0,0,1,11.21,0c.35.19.7.54,1,.55,5.27,0,10.55.16,15.81-.06,1.6-.06,3.23-.53,4.89-.5.87.64,2.09,1,2,2.42-5.78,0-11.56.06-17.33.06C31.26,122.34,22.49,122.32,13.72,122.32Z"/><path class="cls-10" d="M8.65,121.49l.15.91c0,.53.25,1,.83,1.09a16.41,16.41,0,0,0,2.11.07l6.94,0a14.92,14.92,0,0,1-1.84,4.33c-2,.16-3.86.3-5.86-.74s-3.4.81-4.53,2.36a21.16,21.16,0,0,0-1.36,3.52,2.67,2.67,0,0,1-.69,1.06c-1,0-2.05.14-3.08.12s-1.45-.39-1.27-1.57c.66-4.32,2.35-7.94,7-9.12C8.34,123.25,7.85,122,8.65,121.49Z"/><path class="cls-11" d="M25.51,96.21l-2.45,0a4.35,4.35,0,0,1-1.39-3.55c0-.66.16-1.57-.86-1.68-.86-.1-1.18.65-1.5,1.28-.78,1.53-1.39,3.19-3.12,4l-2.08.6a.69.69,0,0,1-.39-.74,4.91,4.91,0,0,1,.4-1.15,137.1,137.1,0,0,0,5.4-12.66,2.32,2.32,0,0,1,.37-.47c1.77,2.08-.34,4-.23,6.22a35.09,35.09,0,0,1,2.26-6.36,1.61,1.61,0,0,1,.65-.56c1.25.18,1.64,1,1.48,2.12,0,.17-.25.24-.24.44a.89.89,0,0,1,.76-.16C27,85.88,25.88,89,26.23,91.7c.12.91-.22,1.84-.1,2.77A2.24,2.24,0,0,1,25.51,96.21Z"/><path class="cls-12" d="M24.22,65c-.33,2,1,3.8.5,5.79,0,.06.13.23.17.22s.46-.12.46-.2c.13-1.74,1-3.36.85-5.15a1.65,1.65,0,0,1,.28-.86.66.66,0,0,1,.49-.27.52.52,0,0,1,.36.37c.05.82.05,1.65.07,2.47s-.2,1.6.89,2c.6.24.31,1.11.34,1.7s0,1,0,1.55c1,1.06.79,2.33.63,3.59-.92,2,.29,4.46-1.24,6.36-2.14.31-3.1-.55-2.79-2.76.28-2,.52-3.93.59-5.62-1,2.18-1.28,5.12-3.41,7.13h0c-1.8,0-1.65-1-1.3-2.24a45.13,45.13,0,0,0,1.28-5.25C23,70.86,23.62,67.91,24.22,65Z"/><path class="cls-13" d="M22.49,40.3a3.76,3.76,0,0,0-.38-2.07A19.18,19.18,0,0,1,20.48,33a26.51,26.51,0,0,1-.68-5.09c0-.69.11-1.54.9-1.76s1.13.63,1.45,1.21a16.16,16.16,0,0,1,1,2.86,3.66,3.66,0,0,0,1,1.9c.48-4.74,2.34-8.84,1.8-13.37.06-1.39-.22-2.86.85-4a.85.85,0,0,1,1,.37c.83,1.53.6,3.21.61,4.83,0,4.84,0,9.67,0,14.5,0,1.77-.1,3.57-2.25,4.24a5.16,5.16,0,0,0-2.76,1.61A.8.8,0,0,1,22.49,40.3Z"/><path class="cls-14" d="M26.77,14.84v4.31c-.74,2.82-1.16,5.71-2,8.51C24.4,29,24.7,30.93,22.43,31l-1.38-4.47c-.19.63-.07-.11-.36.18a.42.42,0,0,0-.09.27l-.12,6A29.51,29.51,0,0,1,18,25.49a14.42,14.42,0,0,0-1.13-4.28c-.91-1.77-.39-3.11,1.75-3.5,1.95,1.19,1.83,3.42,2.6,5.2.32.78.79,1,1.21.14a26,26,0,0,0,1.44-4.75c.37-1.39.58-2.88,2.08-3.64A.9.9,0,0,1,26.77,14.84Z"/><path class="cls-15" d="M44.63,43.37c0,.65.45,1.09.63,1.64s.29,1.19-.42,1.55c-6.11-.25-12.22.44-18.33.18a17.12,17.12,0,0,0-5.44-.05c-.69-.38-.64-1-.48-1.61s.43-1.13.65-1.7a1.92,1.92,0,0,1,1.65-.68c7.06.81,14.14.22,21.21.38C44.28,43.08,44.46,43.26,44.63,43.37Z"/><path class="cls-16" d="M28,38.38l12.7,0c.81,0,1.68-.14,2.27.64,0,.36.07.72.1,1.08a1.05,1.05,0,0,1-1,1.32c-5.63.22-11.31,1.19-16.87-.67-1-.87-.58-1.65.17-2.4A3,3,0,0,1,28,38.38Z"/><path class="cls-17" d="M44.63,43.37a11.92,11.92,0,0,1-4.24.66c-3.1-.06-6.2,0-9.3,0-2.68,0-5.37.23-8-.57a7.56,7.56,0,0,0-1.85-.06l0,0c-.56-2,1.14-2.07,2.16-2,6.65.26,13.3.2,19.94.22.77,0,1.72.17,1.62,1.37A.4.4,0,0,1,44.63,43.37Z"/><path class="cls-18" d="M5.65,129.2a4.65,4.65,0,0,1,2.93-2.54c.76-.17,1.19-.78,1.75-1.21s1.09-.31,1.18.55a1.62,1.62,0,0,0,1.83,1.37l3.32.32.18.25c0,2.07,0,4.15,0,6.22l-.62,0c-.64-3.18-3.36-2.86-5.6-3.28C8.86,130.58,6.75,131.37,5.65,129.2Z"/><path class="cls-19" d="M44.91,42.91a2,2,0,0,0-1.9-.77H38.4q-7.69,0-15.39,0c-.89,0-1.66.08-1.82,1.17-.7-1.07-.78-1.45-.19-2a11.19,11.19,0,0,1,1.49-1h.63a1.26,1.26,0,0,1,1.79,0c5.48,1.18,11,.43,16.55.61a1.75,1.75,0,0,0,1.59-.74,8.61,8.61,0,0,1,1.56.94C45.12,41.56,45.6,42.18,44.91,42.91Z"/><path class="cls-20" d="M5.65,129.2c.56.22.84,1.3,1.74.46.71-.66,1.35-.27,1.79.41s.85.51,1.36,0c.77-.84,1-.82,1.7-.12.42.41.78.86,1.16,1.29.16-.12.27-.16.32-.24.36-.54.74-1,1.49-.67a1.46,1.46,0,0,1,1,1.42c0,.82,0,1.65,0,2.47a14.12,14.12,0,0,1-3.73,0c-2.47-1.79-5.41-.56-8-1.27C4.41,131.53,5.6,130.55,5.65,129.2Z"/><path class="cls-21" d="M41.67,9.24a4,4,0,0,0,0,.6c-.67,2.89-2.81,2.69-4.95,2.27a5.27,5.27,0,0,1-2.83-1.63,4.26,4.26,0,0,1-1.13-3c.85-1.2,1.88.5,2.78-.18-.15-.68-1.37-1-.66-2a.64.64,0,0,1,.76.11c1,.12,2.09-.12,3,.57C39.26,7.45,41.18,7.69,41.67,9.24Z"/><path class="cls-22" d="M13.69,105.49a4.78,4.78,0,0,1,1.86-1.87c3.6-.51,4.92.14,6.83,3.34-.14,1.18-.27,2.39-1.48,3.06a2.36,2.36,0,0,1-1.55-.81c-2.76-2.51-3.06-2.49-5.38.35a5.81,5.81,0,0,1-.56.65,5.89,5.89,0,0,1-.65.57,4.68,4.68,0,0,1-.75.43c-.67.24-1.46.58-1.93-.13s.18-1.28.6-1.84c.77-1,1.86-1.86,2.38-3.1h0A1.79,1.79,0,0,0,13.69,105.49Z"/><path class="cls-23" d="M21.8,106.8c-.06-.52-.07-1.18-.86-.66-.58.39-1,.27-1.14-.35s-.12-1-.29-1.48a1.14,1.14,0,0,0-2-.42c-.54.44-.86,1.19-1.7,1.22-.38-.44-.23-1-.31-1.49.81-1,1.61-2,2.41-3,1.35-.27,2.57.35,3.84.56C23.84,103,23.84,104.83,21.8,106.8Z"/><path class="cls-24" d="M26.16,45.89q8.06,0,16.12,0c.9,0,1.89-.25,2.56.68a1.12,1.12,0,0,1-1,.7l-5.89-.11c-3.25,1.69-6.64.77-10,.52-.59-.05-1.2-.25-1.82-.26C24.87,46.86,25.51,46.38,26.16,45.89Z"/><path class="cls-25" d="M30.51,4.86A2.72,2.72,0,0,1,30,2.25,2.84,2.84,0,0,1,31.11.79a3.06,3.06,0,0,1,2-.79,2.63,2.63,0,0,1,2.49.89c1,2.14-.54,3.23-1.8,4.46a3,3,0,0,1-.74.46,2.42,2.42,0,0,1-1.28.13A1.76,1.76,0,0,1,30.51,4.86Z"/><path class="cls-26" d="M18.69,17.91a5.82,5.82,0,0,0-1,.69c-1,1.09-1.13,1.4-.31,2.61A4.81,4.81,0,0,1,18,25.49a7.36,7.36,0,0,1-1.16-2.84c-1.06-3.24-2.06-6.49-3.09-9.73a.59.59,0,0,1,.78,0c1.47,1.63,3.79,1.39,5.5,2.51C20,16.48,18,16.46,18.69,17.91Z"/><path class="cls-27" d="M22.41,73.82c.25,2-.43,3.76-.93,5.59a1.45,1.45,0,0,0,.95,1.9,1.05,1.05,0,0,1,0,.31c-.71,2.46-1.21,5-2.69,7.4-.87-.85-1.31-1.68-.71-2.7a7,7,0,0,0,.87-4.48A59.19,59.19,0,0,1,22.41,73.82Z"/><path class="cls-28" d="M30.51,4.86l1.16.68.27.34a1.22,1.22,0,0,1-.55.65,21.17,21.17,0,0,0-6.76,3.39,8.4,8.4,0,0,1-2.24,0,2.06,2.06,0,0,1-.58-1,4.31,4.31,0,0,1-.13-1.13A12.11,12.11,0,0,1,26.51,6C27.85,5.72,29.39,6,30.51,4.86Z"/><path class="cls-14" d="M13.06,106.14a2.06,2.06,0,0,1-.58,1.91,11.88,11.88,0,0,0-1.13,1.38c-.31.37-.65.73-1.09,1.23.88.61,1.53-.29,2.22-.13.41.81-.12,1.31-.61,1.83-1.11,0-2.21,0-3.32.1-.76,0-.94.63-1.1,1.23A1.11,1.11,0,0,1,7,112.12a3.23,3.23,0,0,1,.58-.7C9.43,109.66,11,107.65,13.06,106.14Z"/><path class="cls-29" d="M19.92,15.5a3.9,3.9,0,0,0-.59,0A4.31,4.31,0,0,1,14.43,13a.4.4,0,0,1,.63-.12,3.39,3.39,0,0,1,.51.17,9.72,9.72,0,0,0,3.58-.59c.94-.35,1.72-1.14,2.83-1a1.3,1.3,0,0,1,.88,1C22.75,14.25,21.93,15.44,19.92,15.5Z"/><path class="cls-30" d="M19.45,13.09A3.65,3.65,0,0,1,15.57,13a2.11,2.11,0,0,0,1.09-1,9.71,9.71,0,0,1,5-4.17l.75.79C21.61,10.23,19.82,11.18,19.45,13.09Z"/><path class="cls-31" d="M41.67,9.24A14.26,14.26,0,0,1,37.8,6.37L38.69,6c2.94.38,5.77,1.06,8,3.16-1.48-.27-2.94-.58-4.43-.78C41.83,8.3,41.74,8.84,41.67,9.24Z"/><path class="cls-32" d="M4.42,132.91a4.56,4.56,0,0,1,2.93-.62c1.2.09,2.41.15,3.6.31a1.52,1.52,0,0,1,1.52,1.58,48.33,48.33,0,0,1-8.07,0C4.41,133.73,4.41,133.32,4.42,132.91Z"/><path class="cls-9" d="M33,5.45a13.84,13.84,0,0,1,1.34-1.6,3.69,3.69,0,0,0,1.22-3,2.42,2.42,0,0,1,.67,3.45c-.2.35-.36.71-.54,1.07l-.85.11A1.26,1.26,0,0,1,33,5.45Z"/><path class="cls-33" d="M26.16,45.89l-.61,1.17a.38.38,0,0,1-.65.11H21.75a.74.74,0,0,1-.68-.48,1.64,1.64,0,0,1,1.51-.79Z"/><path class="cls-31" d="M51.05,15.47c0-.46-.07-.92-.11-1.38-.37-.23-.95-.06-1.16-.6l.09-.65,1,0c.68-.15,1,.1.91.82A2.83,2.83,0,0,1,51.05,15.47Z"/><path class="cls-3" d="M49.93,91.8a2.94,2.94,0,0,1-1.36-3.07A6.28,6.28,0,0,1,49.93,91.8Z"/><path class="cls-34" d="M51.75,13.63a1.51,1.51,0,0,0-.91-.82c.2-.22.39-.46.6-.66s.47-.41.73-.12a.63.63,0,0,1,.12.56A7.34,7.34,0,0,1,51.75,13.63Z"/><path class="cls-35" d="M13.58,12.33c-.34-.26-.58-.59-.16-.92.09-.07.48.17.7.33a2.13,2.13,0,0,1,.35.47A.51.51,0,0,1,13.58,12.33Z"/><path class="cls-3" d="M48,87.47c-.89-.35-.73-1.12-.73-1.82A2.31,2.31,0,0,1,48,87.47Z"/><path class="cls-36" d="M13.58,12.33l.88-.12.6.63-.63.12-.66,0A1.25,1.25,0,0,1,13.58,12.33Z"/><path class="cls-31" d="M49.88,12.87c-.59-.19-.71-.66-.69-1.21C49.71,11.9,49.79,12.39,49.88,12.87Z"/><path class="cls-3" d="M51.66,96.87l0-1.32C52.27,96,52.46,96.45,51.66,96.87Z"/><path class="cls-3" d="M51.71,95.57c-.6-.23-.68-.72-.63-1.28A1.34,1.34,0,0,1,51.71,95.57Z"/><path class="cls-3" d="M51.1,94.33c-.61-.24-.69-.74-.62-1.3A1.35,1.35,0,0,1,51.1,94.33Z"/><path class="cls-3" d="M50.51,93.07c-.65-.23-.72-.73-.61-1.32A1.4,1.4,0,0,1,50.51,93.07Z"/><path class="cls-3" d="M48.58,88.74A1.07,1.07,0,0,1,48,87.42,1.35,1.35,0,0,1,48.58,88.74Z"/><path class="cls-14" d="M13.69,105.49a.82.82,0,0,1-.63.65A.84.84,0,0,1,13.69,105.49Z"/><path class="cls-31" d="M49.19,11.66a.79.79,0,0,1-.56-.73A.7.7,0,0,1,49.19,11.66Z"/><path class="cls-31" d="M48.67,11a.67.67,0,0,1-.62-.69A.71.71,0,0,1,48.67,11Z"/><path class="cls-31" d="M48.08,10.31a.67.67,0,0,1-.68-.63A.71.71,0,0,1,48.08,10.31Z"/><path class="cls-31" d="M47.43,9.71a.75.75,0,0,1-.71-.57A.67.67,0,0,1,47.43,9.71Z"/><path class="cls-37" d="M24.9,47.17l.65-.11,12.37.09a2.72,2.72,0,0,1-.68,1.68,19.06,19.06,0,0,0-3,10.27,49.38,49.38,0,0,0,3.9,20.2c1,2.59,2,5.22,2.88,7.86a15.65,15.65,0,0,1,1.32,6c0,1,.72,2,.51,3l-1.17,0-8.73,0c-2.72-2.95-1.27-6.39-1.11-9.66,0-.65.48-.68-.54-.52s-1-1.58-.87-2.57c.24-1.95.25-3.93.55-5.86,1.34-8.42.86-16.86.55-25.32-.12-3.12-2.21-3.56-4.16-4.53C26.54,47.66,25.59,48,24.9,47.17Z"/><path class="cls-38" d="M33.63,119.86l-11.21,0c.87-1.38,1.15-3.07,2.3-4.32.28-.31.07-.86-.29-1.09-.66-.42-1.38-.74-2.14-1.13.86-.59,2,.1,2.62-.9,1.2-1.37,2.84-1.37,4.45-1.48,1.25-.09,2.49,0,3.74,0,1.64-.08,3.28,0,4.91,0,2.87-.07,6.05,1,8.06-2.22,1.47,3.14.84,3.77-.73,5.41a11.56,11.56,0,0,1-2.7,2C39.8,117.72,37,119.53,33.63,119.86Z"/><path class="cls-39" d="M46.07,108.64c-.39.46-.94.85-1.13,1.38-.63,1.72-.58,1.74-2.14,1.75H33c-1.47-3.45-3.58-6.85-.63-10.56l2.52,0c2.34,0,4.68,0,7,0a1.75,1.75,0,0,1,1.77.93C44.75,104.19,45.92,106.22,46.07,108.64Z"/><path class="cls-40" d="M33,7.34l1.26,2.42c1,4.11,2.79,4.87,6.09,2.59a2.89,2.89,0,0,1,1.37-.64,1,1,0,0,1,.51,1A79.93,79.93,0,0,1,37.55,28.6a14.35,14.35,0,0,1-5.18,6.71c-1.88-2.72-2.21-5.88-2.59-9A3.15,3.15,0,0,1,30,24.16c2.26-3.3,1.24-6.81.76-10.29-.07-1.62,1-3.08.67-4.75C31.66,8.26,31.65,7.21,33,7.34Z"/><path class="cls-41" d="M31.12,13.55a6.65,6.65,0,0,1,1.09,4.95,3.44,3.44,0,0,0,.52,3.43c.52.66.17,1.22-.87,1.3-.78.06-1.2.39-1.27,1.05a8,8,0,0,0,0,2.77,14.57,14.57,0,0,1,.53,3.65,1.66,1.66,0,0,0,.33,1.15c1.12,1,.83,2.25.88,3.46h0a.47.47,0,0,1-.66-.07,1,1,0,0,1-.21-.38,1.12,1.12,0,0,0,.24.43.45.45,0,0,1,0,.63L28,38.38l-2.43.11a.41.41,0,0,1-.68-.14c.57-.73,1.7-.3,2.19-1,.65-.88.33-2,.33-3,0-6.5,0-13,0-19.49A3.72,3.72,0,0,1,31.12,13.55Z"/><path class="cls-42" d="M41.71,11.71a6.39,6.39,0,0,1-2,2.23,3.12,3.12,0,0,1-4.18-.15,4.8,4.8,0,0,1-1.83-3,.94.94,0,0,1,.58-1,4.73,4.73,0,0,0,2.85,1.71,4,4,0,0,0,4.62-1.64h.59Z"/><path class="cls-43" d="M49.78,13.49c.44.09.93.1,1.16.6-.47.38-.92.79-1.42,1.12a4.11,4.11,0,0,1-3.72.67A3.24,3.24,0,0,1,43.53,13c-.31-.67-.53-1.31.63-1.24a4.08,4.08,0,0,0,3.54,1.82C48.39,13.57,49.08,13.51,49.78,13.49Z"/><path class="cls-42" d="M44.16,11.72c-.51.26-.58.74-.63,1.24A3.3,3.3,0,0,1,43,12c-.06-.35,0-1,.18-1.05C43.75,10.74,44,11.28,44.16,11.72Z"/><path class="cls-42" d="M42.32,9.83c0-.08.11-.25.14-.24.2,0,.14.13-.15.23Z"/><path class="cls-40" d="M31.74,35.92c0-.2,0-.41,0-.61h.62Z"/><path class="cls-44" d="M29.26,111.77c-1.51-.26-2.86.7-4.35.63l-1.87,0c-.13-3.11.71-6.18.48-9.3a2.14,2.14,0,0,1,.77-1.87h4.34c.28.31.66.67.57,1.06A24.11,24.11,0,0,0,29.26,111.77Z"/><path class="cls-14" d="M13.1,109.9c.34-.63.64-1.3,1-1.89,1.5-2.25,3.47-2,5.2.11.45.56.81,1.19,1.22,1.78l0,.38a4.38,4.38,0,0,1-.08,1.14,1.53,1.53,0,0,1-.62.93H16.83C16.18,110.62,13.77,111.59,13.1,109.9Z"/><path class="cls-45" d="M19.89,112.35l.07-1.19c.36-.34.24-.91.6-1.26h0a6.16,6.16,0,0,0,1.24-3.1,1.18,1.18,0,0,0,.54-1.3c-.06-.39-.26-1-.09-1.14,1.39-1.31.05-2.17-.45-3.16h2.49a11.09,11.09,0,0,0,.08,5.06c.08.29.29.71.17.87-1,1.33-.9,2.81-.74,4.34,0,.27-.49.6-.76.9Z"/><path class="cls-46" d="M13.1,109.9c1,.48,2.37,0,3.23,1.11.12.16.74-.12,1.13-.1s.45.34.23.61a9.55,9.55,0,0,1-.86.82l-5,0a4.06,4.06,0,0,1,.61-1.83h0a6.15,6.15,0,0,0,.62-.63Z"/><path class="cls-47" d="M27.4,47.75c.82,0,1.65,0,2.47,0,1.47.06,1.47.14,2,1.42a8.61,8.61,0,0,1,.48,3.33c0,1.74-.24,3.51.5,5.19a1,1,0,0,1,.07.61c-.56,2.13.14,4.26,0,6.38a16,16,0,0,1-.32,1.81c-.07.4-.26.88-.12,1.2.67,1.54.07,3,0,4.51-.12,2.68-1.05,5.26-.8,8a5.19,5.19,0,0,1-.31,2.43,5.25,5.25,0,0,0-.17,3.07c.87-.43.27-1.33.67-1.88.14-.21.29-.35.51-.22s.33.31.3.43c-.76,3.27-.19,6.58-.37,9.86A4.72,4.72,0,0,0,33,96.21H28.63a3.08,3.08,0,0,1-.81-2.58c.66-3.83-.07-7.74.77-11.54.43-1.93-.77-3.85.05-5.77,0-1.24,0-2.48,0-3.72a1.68,1.68,0,0,0,.6-1.36c0-3.73,0-7.46,0-11.18,0-1.42-1-2.78-.21-4.23a14.75,14.75,0,0,1-.46-4.29,7.69,7.69,0,0,0-.5-1.77C27.87,49.1,27.63,48.42,27.4,47.75Z"/><path class="cls-48" d="M29.26,111.77c-.06-.3,0-.75-.19-.88-1.58-1.12-1-2.91-1.42-4.39a1.68,1.68,0,0,1,.2-1.15,7,7,0,0,0,.78-4.14h3.73c-.13,1.9-.92,3.73-.61,5.68.06.4,0,1.06.19,1.15,1.82.86.78,2.47,1.05,3.73Z"/><path class="cls-45" d="M28.64,76.33a5.23,5.23,0,0,0,.07,1.54,8.74,8.74,0,0,1,0,6,2.43,2.43,0,0,0,.36,2.06,2.72,2.72,0,0,1,.21,2.36c-.9,2.58-.64,5.26-.69,7.92H25.51c0-.62,0-1.23,0-1.85.41-2.73.35-5.5.65-8.25.08-.64.32-1.24.4-1.88a2.59,2.59,0,0,1,.82-1.68A1.8,1.8,0,0,0,28,81c0-1,0-2,0-3A1.82,1.82,0,0,1,28.64,76.33Z"/><path class="cls-49" d="M16.19,96.26A31,31,0,0,0,18.57,92c.55-1.46,1.8-1.75,2.89-2.33.41-.22.79.09.88.55a4.46,4.46,0,0,1,.07,1.21,12.55,12.55,0,0,0,.65,4.79Z"/><path class="cls-27" d="M26.79,85.67A11.43,11.43,0,0,1,26.42,89a7.76,7.76,0,0,0-.25,2.41,5.55,5.55,0,0,1-.64,3,1,1,0,0,1-.39-1.06,20.52,20.52,0,0,0-.31-8.69c-.18-.59-.64-.73-1.16-.81,0-1.07-.11-2-1.24-2.49.75-1.34.69-3,1.5-4.32.73-1.21,1.27-2.53,1.9-3.84,1.36,2.5.46,5,0,7.37-.18.92.09,1,.77,1.17.32.09.53.56.79.86,0,.62,0,1.24,0,1.86C27,84.74,27.15,85.33,26.79,85.67Z"/><path class="cls-27" d="M23.65,84.08l-.21.52c-.43-.2-.21-.44,0-.65a1,1,0,0,1,.25-.15C23.66,83.89,23.66,84,23.65,84.08Z"/><path class="cls-50" d="M31.12,13.55a8,8,0,0,1-3.75,1.32l-.3,0-.3,0a.9.9,0,0,0-.55-.15c-1.45-.22-2.18-1.31-2.9-2.41A2.17,2.17,0,0,1,23.25,11a1.19,1.19,0,0,1,.95-.82,4,4,0,0,1,2.08.43c1.66.69,3,0,4.32-.94a3.3,3.3,0,0,1,.75-.38l.42,0a1.4,1.4,0,0,1,.5,1.86A26.1,26.1,0,0,1,31.12,13.55Z"/><path class="cls-51" d="M22.43,31a2.16,2.16,0,0,0,1.23-1.61c.48-2,1-3.92,1.59-5.86a8.91,8.91,0,0,0,.29-2.4,2,2,0,0,1,1.23-1.93c0,1.43,0,2.86,0,4.29,0,.5,0,1.16-.3,1.45-1.08,1.09-1,2.42-.91,3.73.07,1.67-.69,3.18-.82,4.8,0,.35-.74.49-1,.23A4.16,4.16,0,0,1,22.43,31Z"/><path class="cls-52" d="M24.87,38.35l.68.14a3.38,3.38,0,0,0-.64,1.78l-1.8,0C23.24,38.58,23.24,38.58,24.87,38.35Z"/><path class="cls-53" d="M23.62,11.12c.05.33.09.66.14,1,.25,4.17.37,8.29-3.2,11.38l-1.87-5.58a4.35,4.35,0,0,0-.14-.89c-.25-.66.09-.87.65-1a2.79,2.79,0,0,0,.72-.49c1.21-.75,2.33-1.57,2.59-3.11C22.85,11.94,22.41,10.8,23.62,11.12Z"/><path class="cls-54" d="M20.56,23.49c1.17-1.4,1-3.45,2.22-4.81-.49-2.31.88-4.34,1-6.57l2.46,2.58A9.81,9.81,0,0,0,24.73,18a44.06,44.06,0,0,1-1.62,5.56c-.09.27-.27.74-.39.73-.64,0-.94.95-1.6.57C20.64,24.58,20.58,24,20.56,23.49Z"/><path class="cls-55" d="M31.16,9.89c-1.41,1.57-3,2.38-5.07,1.22.84-2.85,2.94-4.28,5.65-5h0c.34-.37.93-.18,1.25-.57l0,0,1.84.07c.35,1,1.65,1.07,2.17,2a6.55,6.55,0,0,1-2.13.52c-.62-.08-1.12-.8-1.89-.74-.72.43-.9,1.21-1.22,1.89v0A2.2,2.2,0,0,0,31.16,9.89Z"/><path class="cls-14" d="M13.1,109.9l-.62.63Z"/><path class="cls-56" d="M33,5.5a1.21,1.21,0,0,1-1.25.57,2,2,0,0,0,0-.54Z"/><path class="cls-56" d="M31.74,6.07c-1.23.57-1.92,1.89-3.31,2.3-.73.21-.85,1.06-1,1.72a1.37,1.37,0,0,1-1.32,1,3.35,3.35,0,0,1-1.76-.72c-.2-.12-.28-.25-.22-.39s.11-.21.18-.21A10.06,10.06,0,0,1,31.74,6.07Z"/><path class="cls-57" d="M19.45,13.09c-.43-.31-.78-.67-.45-1.24a8,8,0,0,1,3.43-3.22c0,.41,0,.82,0,1.23.68,1,0,1.39-.7,1.78A5.93,5.93,0,0,1,19.45,13.09Z"/><path class="cls-58" d="M21.74,11.64c.2-.6.75-1.07.7-1.78.59-.62,1.22-.38,1.85-.07,0,.2,0,.4,0,.6l-.71.73-1.11,1.27Z"/><path class="cls-40" d="M31.75,35.31A1.31,1.31,0,0,1,31.16,34a2,2,0,0,1,.22-.53c.11.11.31.2.32.31.05.51,0,1,.05,1.54Z"/><path class="cls-22" d="M20.56,109.9a1.3,1.3,0,0,1-.61,1.26A1.26,1.26,0,0,1,20.56,109.9Z"/><path class="cls-12" d="M26.79,85.67a1.29,1.29,0,0,1,.59-1.26A1.27,1.27,0,0,1,26.79,85.67Z"/><path class="cls-21" d="M31.16,9.89l.61-.68Z"/></g></g></g></svg>