<svg xmlns="http://www.w3.org/2000/svg" viewBox="0 0 65.9 134.41"><defs><style>.cls-1{fill:#8c592d;}.cls-2{fill:#85542a;}.cls-3{fill:#87562b;}.cls-4{fill:#a47544;}.cls-5{fill:#9e6f3f;}.cls-6{fill:#89562b;}.cls-7{fill:#bc915e;}.cls-8{fill:#b18353;}.cls-9{fill:#c39967;}.cls-10{fill:#966a3c;}.cls-11{fill:#c69d6c;}.cls-12{fill:#a87948;}.cls-13{fill:#cfa778;}.cls-14{fill:#ad7d4c;}.cls-15{fill:#976c3e;}.cls-16{fill:#c69e6f;}.cls-17{fill:#c09664;}.cls-18{fill:#673c1d;}.cls-19{fill:#815127;}.cls-20{fill:#98693b;}.cls-21{fill:#986135;}.cls-22{fill:#80532c;}.cls-23{fill:#cda776;}.cls-24{fill:#be9463;}.cls-25{fill:#d3ad7a;}.cls-26{fill:#d3af81;}.cls-27{fill:#d3ae7f;}.cls-28{fill:#c8a06f;}.cls-29{fill:#5d2e11;}.cls-30{fill:#cda676;}.cls-31{fill:#9b6131;}.cls-32{fill:#caa072;}.cls-33{fill:#916033;}.cls-34{fill:#b08050;}.cls-35{fill:#caa06f;}.cls-36{fill:#98704b;}.cls-37{fill:#ba8d5b;}.cls-38{fill:#bb8d5f;}.cls-39{fill:#906339;}.cls-40{fill:#9a6238;}.cls-41{fill:#d9b285;}.cls-42{fill:#a17342;}.cls-43{fill:#ab7b4c;}.cls-44{fill:#c4956b;}.cls-45{fill:#9b7256;}.cls-46{fill:#a87947;}.cls-47{fill:#a27444;}.cls-48{fill:#9d7041;}.cls-49{fill:#985f33;}.cls-50{fill:#a57745;}.cls-51{fill:#af814f;}.cls-52{fill:#8c582c;}.cls-53{fill:#6f3b16;}.cls-54{fill:#7f4e26;}.cls-55{fill:#b68957;}.cls-56{fill:#af814e;}.cls-57{fill:#a87b49;}.cls-58{fill:#dab98b;}.cls-59{fill:#ba8f60;}.cls-60{fill:#d1ad7e;}.cls-61{fill:#916741;}.cls-62{fill:#d6b587;}.cls-63{fill:#7c461d;}.cls-64{fill:#c39866;}.cls-65{fill:#d7b587;}.cls-66{fill:#a97b49;}</style></defs><g id="Layer_2" data-name="Layer 2"><g id="Layer_1-2" data-name="Layer 1"><g id="queen_white" data-name="queen white"><path class="cls-1" d="M43.72,47.4C41,53.57,41.08,60,42.05,66.49A87.33,87.33,0,0,0,47.69,86a8.12,8.12,0,0,1,1,2.9c-1.7-1.38-4.61-.14-5.77-2.23.56,2,2.91,3.24,3.9,5.43.52,1.15,2.26,2,1.28,3.46s-2.76,1-4.28.8a1.82,1.82,0,0,1-1.06-.62,10.34,10.34,0,0,1-1-2.7c-.88-5.48-3.38-10.42-5.18-15.59a49.05,49.05,0,0,1-3.09-18.56c.21-4.51,1.23-8.82,4.82-12C40.17,46.35,42,46,43.72,47.4Z"/><path class="cls-2" d="M43,95.82c1.34,0,2.67,0,4-.08.78,0,1.25-1.2.62-1.6-2-1.25-2.17-4-4.18-5.22-.63-.39-.87-2.28-.87-4,.46.89.8,1.6,1.2,2.29.07.12.34.12.51.17a3.37,3.37,0,0,0,.12-.53c0-.3.07-.75.4-.56,1,.59,2.5.33,3,1.74a1.26,1.26,0,0,0,.86.82h0a5.76,5.76,0,0,0,1.16,2.58h0c.37,1,.43,2.25,1.39,3l0,0c.19.45.07,1,.65,1.31l0-.05c.16.44.28.87-.12,1.26-1.1,1.09-2.19,2.17-3.27,3.28a.73.73,0,0,0-.06,1.09c.48.54,1,1.06,1.49,1.58,2.75,2.81,5.51,5.6,8.25,8.42,1.05,1.08,1.06,1.12.41,2.4-1,1.92-2,3.81-3.06,5.72a2.14,2.14,0,0,1-1.94,1.35c-6.06.09-12.15.73-18.18-.37-1.22-1.83.67-1.76,1.43-2.06a27.31,27.31,0,0,0,8.56-5.28,2.37,2.37,0,0,0,.59-1.54A15,15,0,0,0,42.26,102c-1.46-.77-3-.29-4.56-.45-1-.1-2.4.17-2.68-1s1.11-1.51,2-1.89a22.06,22.06,0,0,0,4.58-2.55,2.93,2.93,0,0,1,.9-.36Z"/><path class="cls-3" d="M50.35,13.09l1.3-.76a1.14,1.14,0,0,1,.07,1.49C50,19.28,48.24,24.74,46.48,30.19c-.72,2.25-1.49,4.47-2.21,6.71a2.62,2.62,0,0,1-1.08,1.77c-1.72,1.24-3.7.91-5.61.88-2.93,0-5.88.31-8.8-.31a2,2,0,0,1-.85-.64.81.81,0,0,1,.31-.87c3.23-1,6.55-.41,9.82-.46,1.77,0,1.79-.47,2-2.2.43-3.44-1.16-6.37-1.45-9.58.3-4.5,2.29-8.66,2.6-13.15-.06-.4-.09-.81-.11-1.21a2.69,2.69,0,0,0-.5-1.71l-.55-.51a3.77,3.77,0,0,1-.56-.57L39.25,8a1.5,1.5,0,0,1-.15-.83l.26-.36a4.2,4.2,0,0,1,3,.11h0c.4.41,1,.34,1.45.54a.31.31,0,0,1,.4.14,1.47,1.47,0,0,0,.9.47,7.65,7.65,0,0,1,4.86,5c-2,2.78-3.82.58-5.74-.17C46.32,16.15,48,16.19,50.35,13.09Z"/><path class="cls-2" d="M58.69,123.73c2,0,3.25,1.2,4.43,2.52a11.09,11.09,0,0,1,2.42,5c.84,3.56.29,3.18-2.41,3.17-3.2,0-6.41-.07-9.61-.11a46,46,0,0,0-8.77-.29c-1.87.15-2.15-.54-1.93-2a3.59,3.59,0,0,1,1-2.2,7,7,0,0,0,2.06-5.81,1.55,1.55,0,0,1,.76-.67,47.36,47.36,0,0,1,10.51-.16C57.65,123.28,58.16,123.53,58.69,123.73Z"/><path class="cls-4" d="M8.79,121.32c.12-.55.58-.81,1-1.08a.84.84,0,0,0,.27-1.26q-1.26-2.58-2.5-5.16c-.37-2.3,1.49-2,2.69-2.08,2.83-.1,5.67,0,8.5,0a25,25,0,0,1,3.12.13,3.52,3.52,0,0,1,.91.26c4.28,1.6,4.92,4,2.08,7.68a4.23,4.23,0,0,1-1.81.44c-2,.06-4,0-6.06.06a3.36,3.36,0,0,0-3.21,1.86,4.87,4.87,0,0,1-2.9.56,3.63,3.63,0,0,1-2-.52A.58.58,0,0,1,8.79,121.32Z"/><path class="cls-5" d="M42.36,96.45a12.28,12.28,0,0,1-5.21,3.07,3.62,3.62,0,0,0-1.6.83c0,.67.56.43.87.44,1.64,0,3.28,0,4.92,0a1.87,1.87,0,0,1,1.65.6c-3,1.83-6.3.6-9.44,1-1.74-.17-3.5,0-5.25-.21a6.69,6.69,0,0,1-1-.2,10.26,10.26,0,0,0-3.78-.33H20.61c-1.19-.09-2.45-.05-3-1.45L14.32,97.1c0-1.33,1.09-1.25,1.93-1.48,2.12-.09,4.25-.09,6.37,0,.68,0,1.36,0,2,0,.34,0,.67,0,1,0,.83,0,1.65,0,2.48,0,.67,0,1.33,0,2,0,3.72-.35,7.42-1,11.18-.46a2.79,2.79,0,0,1,1,.42A.61.61,0,0,1,42.36,96.45Z"/><path class="cls-6" d="M46.08,124.39c.31.65.64,1.29.93,1.94.17.4.19.91-.28,1a1.57,1.57,0,0,0-1.26,1.82c0,.78-.3,1.1-1.1,1.05-.21,0-.56.29-.64.53a2.6,2.6,0,0,0-.12,1.21c0,.54-.67,1.23.17,1.6.56.25.89-.31,1.27-.64a.81.81,0,0,1,1.12,0c1,.94,2.28.7,3.5.79s2.67-.46,3.85.51c-.62,0-1.24.11-1.86.11H23.11c-.62,0-1.24-.06-1.86-.09-.07-.88.63-1,1.22-1.25,7.49-1.69,14.78-3.92,21.3-8.14A2.3,2.3,0,0,1,46.08,124.39Z"/><path class="cls-7" d="M24.26,65.16c0-2.57.1-5.15.11-7.72A21.72,21.72,0,0,0,22,47.32c1.28-1.13,2.77-.8,4.23-.62a3.33,3.33,0,0,1,1,.47,4.91,4.91,0,0,1,1.63,3.22c.92,6.5,1.75,13,1.35,19.59-.07,1.1,0,2.31-1.18,3-1.69-1.79-1.15-4.35-2.27-5.83-.24,1,.05,2.79-1.63,4.08A9.7,9.7,0,0,1,24.26,65.16Z"/><path class="cls-8" d="M2.52,126.77a6.61,6.61,0,0,1,4.23-3.1c.48-.13.94-.34,1.41-.51a15.64,15.64,0,0,1,2.65-.14l1.84,0c.32,0,.64,0,1,0,1.64.11,3.33-.28,4.91.47,1.33,1.55.1,2.73-.58,4a2.23,2.23,0,0,1-.73.56,6.4,6.4,0,0,1-6.83-.68c-.77-.6-1.08,0-1.53.12-1.65.45-2.25,1.94-3,3.26-.11.24-.24.47-.36.71a5.09,5.09,0,0,0-.41,1.48,1.85,1.85,0,0,1-.68,1.38l-1.24,0C0,133.74,0,133.67,1,130.39a24,24,0,0,1,1-2.84l0,0A2.4,2.4,0,0,0,2.52,126.77Z"/><path class="cls-9" d="M22.41,40.47a3.25,3.25,0,0,0-.29-2.32A7,7,0,0,1,21.18,35c-.29-1.8-.84-3.54-1.21-5.32a3.54,3.54,0,0,1,.61-3.44.67.67,0,0,1,.87.08c.91,1.37,1.22,3,2.48,5.16-.31-5.22,2.91-9.08,2.17-13.77-.15-.95-.38-2.36,1.2-2.77a1.82,1.82,0,0,1,.68.77A120.91,120.91,0,0,1,28,37.31a9.71,9.71,0,0,1-.54.87c-1.3,1-3.56.18-4.23,2.31A.69.69,0,0,1,22.41,40.47Z"/><path class="cls-10" d="M23.09,119.45H25a11.62,11.62,0,0,1,10,0,1.82,1.82,0,0,0,1.64.62c5.51,0,11,0,16.54,0a5.73,5.73,0,0,0,2.34-.62c.14.52.6.75,1,1a1.63,1.63,0,0,1,.89,1.43,3.05,3.05,0,0,1-2.53.85c-7.7,0-15.4.11-23.09,0a3.45,3.45,0,0,1-1.19-.28c-.39-1.1-1.32-.91-2.18-.92-2.36,0-4.72,0-7.08,0-1.17,0-2.4,0-3.3-1.23C19.68,119.16,21.56,120.33,23.09,119.45Z"/><path class="cls-11" d="M21.17,78.29a89.92,89.92,0,0,1,2.44-9.39c1.52,1.84.33,3.86.52,6.11a7.44,7.44,0,0,1,2.39-4.83c2.23,2.11.67,5.21,2.09,7.42a12.7,12.7,0,0,1-1,7.54c-2.1.32-3.45-.18-3-2.69.12-.74.15-1.45-.83-1.89-.79,1.11-.88,2.62-1.81,3.68-1.15.87-1.7.42-1.72-.87A22.65,22.65,0,0,1,21.17,78.29Z"/><path class="cls-12" d="M16.87,127.53h.62c1.1-1.07,1.19-2.75,2.29-3.83l.41-.13a1,1,0,0,1,.7.41,1.91,1.91,0,0,1-.22,1.79c.55-.86,1-2.22,2.3-1.36.91.59.24,1.38-.25,2.1a6.27,6.27,0,0,0-1.19,3.41.37.37,0,0,1-.26.46s0,.11.06.09c.29-.14.07-.48.23-.68.52-1.14-.11-3.46,2.11-2.89,1.92.49,1.55,2.33,1.15,3.93-.35,1.37-.87,2.51-2.35,2.92a1.37,1.37,0,0,0-1.22.54,22.41,22.41,0,0,1-5,0,3.13,3.13,0,0,1-.81-2.4A7.33,7.33,0,0,1,16.87,127.53Z"/><path class="cls-13" d="M19.34,112.59c-3.35,0-6.69,0-10,0-.9,0-1.62.18-1.76,1.22a1.19,1.19,0,0,1-.14-2c1.84-1.85,3.71-3.67,5.58-5.5.72-.19.74,1.54,2.12.43,1.59-1.29,4,0,5.65,2.42a2.25,2.25,0,0,1,.16.85,4.35,4.35,0,0,1-.55,1.65c-.28.38-.6.61-1.07.3a10,10,0,0,0-5.37-1.27c1.64,1,3.67.36,5.34,1.24.21.14.28.28.23.44S19.4,112.59,19.34,112.59Z"/><path class="cls-14" d="M40.5,8.77l.59.05c.5.55.31,1.18.23,1.81-2.51,2.27-3.76,2.29-7,.13a7,7,0,0,1-1-1.12,3.67,3.67,0,0,1-.37-1,3.26,3.26,0,0,1-.42,1.11c-1,1.14-2,2.16-3.75,1.71C28,9,29.25,7.33,31.33,6.1a9.18,9.18,0,0,1,1.45-.59,2.05,2.05,0,0,1,.74-.07c.43.32.76.25,1-.27.48-.36.84-1,1.62-.68,0,.39,0,.77,0,1.16,1,.75,2.61.38,3.12,1.89h0a5.86,5.86,0,0,0,.62.6l0,0A4.25,4.25,0,0,0,40.5,8.77Z"/><path class="cls-15" d="M22.41,40.47l.64,0a3.29,3.29,0,0,1,1.4-.72c6.19-.39,12.38.16,18.57.08a13.82,13.82,0,0,1,1.69,1.34c.49.51.95,1.15.18,1.85-6.11.49-12.23.17-18.35.21-1.82,0-3.64.1-5.46,0a1.24,1.24,0,0,1,.11-2A6.2,6.2,0,0,1,22.41,40.47Z"/><path class="cls-16" d="M16.25,131.88c0,.79,0,1.59,0,2.39a117.3,117.3,0,0,1-11.86,0c0-.59,0-1.17,0-1.75.38-.33.25-.9.61-1.25h0a3.7,3.7,0,0,1,4.56-1.34C11.79,130.67,14.54,129.51,16.25,131.88Z"/><path class="cls-17" d="M28.06,77.17c-.52-.08-1.3-.3-1.08-.8.82-1.88-.33-3.57-.18-5.37-.83,0-.89.55-1,1-.36,1-.58,2-1,2.9a8.26,8.26,0,0,1-1.07,1.84c-.12.16-.54.15-.81.12-.09,0-.25-.36-.21-.5.25-.77.89-1.59.75-2.27-.35-1.76.65-3.42.15-5.14.12-1.26-.1-2.58.65-3.73.14,1.72.93,3.33,1.11,5.14.34-1.72.66-3.43,1-5.14a.59.59,0,0,1,.67-.5.58.58,0,0,1,.32.43c.05.82,0,1.64.07,2.46,0,.3,0,.78.16.87,1.93,1.11.73,2.94,1.08,4.4a3.27,3.27,0,0,1,.49,3.38A1.55,1.55,0,0,1,28.06,77.17Z"/><path class="cls-18" d="M43,39.85a1.6,1.6,0,0,1-1.29.68,47.58,47.58,0,0,1-7.83.08c-3.14-.3-6.32-.12-9.49-.15-1.17-2.56.77-2,2.11-2.13.52,0,1.07-.1,1.54.27l15.13.08C43.13,39.07,43.08,39.46,43,39.85Z"/><path class="cls-19" d="M26.22,42.39c5.37,0,10.73,0,16.1,0,.9,0,1.89-.24,2.57.67a.65.65,0,0,1-.47.66A3,3,0,0,1,41.78,45c-4.75,0-9.49.37-14.23-.09C26.53,44.39,24.66,44.29,26.22,42.39Z"/><path class="cls-20" d="M26.83,44.21c4.65,0,9.3,0,14,0a10.18,10.18,0,0,0,3.64-.54,7.59,7.59,0,0,1,.8,1.2c.29.64.46,1.31-.38,1.73a33.75,33.75,0,0,0-9.78-.05,53.54,53.54,0,0,1-9.47.13c-1.37-.1-2.79.26-4.12-.34-.82-1.16.25-1.3.91-1.52,1.15-.37,2.43-.1,3.54-.7A.74.74,0,0,1,26.83,44.21Z"/><path class="cls-21" d="M29.93,121.93H57.31c.49.58.59,1.46,1.38,1.81l-1.42.07c-3.82-1.3-7.74-.55-11.62-.48-11.55.19-23.1.25-34.65-.41a.68.68,0,0,1-.34-1h3.11c.31-.27.66-.63,1-.62C19.84,121.43,24.93,120.72,29.93,121.93Z"/><path class="cls-22" d="M25.59,46.11l.92,0c1.85,0,3.69,0,5.54,0s3.58-.61,5.42-.55c2.05.07,4.1,0,6.15,0,.74,0,1.08.46,1.22,1.12a1.55,1.55,0,0,1-1.12.77l-5.74,0c-2.47,1.68-5.24.6-7.87.88a5.46,5.46,0,0,1-3.29-.85l-.62-.09C25.83,47,25.19,46.81,25.59,46.11Z"/><path class="cls-23" d="M21.22,26.21c-1.13,1.45-.75,3.1-.38,4.6A15.19,15.19,0,0,1,21.18,35a42.52,42.52,0,0,1-3.08-9.37c.19-1.7-1.15-3.19-.69-4.92.44-.06.89-.13.39-.73.19-.83.72-1,1.49-.83a2.07,2.07,0,0,1,.73,1c.17.38.33.77.5,1.16a11.86,11.86,0,0,1,.84,2.41C21.48,24.55,21.92,25.41,21.22,26.21Z"/><path class="cls-24" d="M17.61,100.17a5,5,0,0,0,3,.66c3.34.85,3.47,1.26,1.71,5.71-1.25.59-2.48,1.06-3.31-.63-.47-1-1.12-.8-2-.43-2.26,1-1.85-.45-1.47-1.77.52-.62,1-1.26,1.58-1.85A2,2,0,0,0,17.61,100.17Z"/><path class="cls-25" d="M24.32,6.89A10.75,10.75,0,0,1,29,5.71c.61,0,1.24,0,1.63-.64a.63.63,0,0,1,.72.14,1.46,1.46,0,0,1,.19.76,1,1,0,0,1-.49.59c-.89.24-1.64.8-2.52,1.05a8.5,8.5,0,0,0-1,.55A32.88,32.88,0,0,1,24,10.28c-1.82,1.44-2.87,4.12-5.88,3.64-1-1.77.31-2.8,1.3-3.89s2.14-1.5,3-2.48A1.36,1.36,0,0,1,23.74,7,.36.36,0,0,0,24.32,6.89Z"/><path class="cls-26" d="M18.12,20.61a.84.84,0,0,0-.27,1.29c.87,1.2.61,2.45.25,3.71-1.46-2.68-2-5.69-3-8.54a31.73,31.73,0,0,1-.8-3.23.69.69,0,0,1,.73-.27,33.59,33.59,0,0,1,3.75,1.87c.35,1.28,1.08,2.52.61,3.93a1.12,1.12,0,0,0-1.23,1.24Z"/><path class="cls-27" d="M16.26,96.43c-.69.1-1.46-.05-1.94.67-.74-.37-.64-1-.39-1.57.82-1.89,1.67-3.76,2.53-5.62.73-1.58,1.49-3.13,2.24-4.7a1.76,1.76,0,0,1,.44,2.26c-.74,1.36,0,2.36.5,3.47A7.79,7.79,0,0,1,16.26,96.43Z"/><path class="cls-28" d="M15.54,103.71a11.9,11.9,0,0,0,.13,1.2.45.45,0,0,0,.66.34,1.32,1.32,0,0,0,.25-.16c.73-.43,1.07-1.7,2.15-1.29.84.31.62,1.41,1,2.11s.73.87,1.36.34c.28-.24.55-.16.76.14.6,1.44.5,2.6-1.24,3.11a4.94,4.94,0,0,1-.75-.51c-.57-.56-.72-1.46-1.54-1.84s-1.59.54-2.3-.28c-.2-.24-.52.07-.78.22-1.26.74-1.26.73-2.09-.54a2.26,2.26,0,0,1-.16-.26l.06,0a1,1,0,0,0,.64-.78A5.74,5.74,0,0,1,15.54,103.71Z"/><path class="cls-29" d="M50.35,13.09c.46.35.72.73.31,1.29a4.79,4.79,0,0,1-2.52,1.72,3.05,3.05,0,0,1-3.4-.84c-1.06-1.16-2-2.37-1.63-4.12,1.07,0,1.41.91,2,1.39,1.52,1.17,3.09,1.67,4.84.52A.4.4,0,0,1,50.35,13.09Z"/><path class="cls-30" d="M19.36,90.85a11.76,11.76,0,0,1-1.59-1.19c-.47-.43.34-1.22.62-1.83a5.47,5.47,0,0,0,.31-2.62v0c.67-.45.11-1.35.67-1.85h0c.4-.38.31-1,.55-1.41a8.42,8.42,0,0,1,1.26-3.69,5.46,5.46,0,0,1-.3,2.74c-.38.86.36,1.7,0,2.71s.59.28,1,.27l.27.33c.23,2.32-1.13,4.07-2.09,6A1.92,1.92,0,0,1,19.36,90.85Z"/><path class="cls-31" d="M18.71,15.76a4.75,4.75,0,0,1-3.79-1.95.57.57,0,0,1,.12-.75l1.15,0c.81-.6,1.39-.09,2,.41a5.31,5.31,0,0,0,4.24-2.74c.32-.53.56-1.12,1.24-1.29.41.22.85.41.88,1a1.29,1.29,0,0,1-.34.59,5.48,5.48,0,0,0-.64.8c-.1.21-.21.42-.3.64a15.15,15.15,0,0,1-.56,1.46C21.68,15.24,20.76,16.73,18.71,15.76Z"/><path class="cls-32" d="M18.17,13.51l-2-.41a10,10,0,0,1,6.27-5.55c.29.23.37.55.09.76a16.34,16.34,0,0,0-2.62,2.07A5.73,5.73,0,0,0,18.17,13.51Z"/><path class="cls-33" d="M26.83,44.21l-.64,0c-1.74.69-3.47,1.37-4.87-.62a.42.42,0,0,1-.24-.42,1.67,1.67,0,0,1,1.51-.81h3.63C25.41,43.34,26.48,43.65,26.83,44.21Z"/><path class="cls-34" d="M21.32,43.62c1.53.94,3.24.45,4.87.62-.08.53-.25,1.06-.84,1.14a22.67,22.67,0,0,1-2.47.1c-.63,0-1.25,0-1.66.61.15.17.2.32.13.47s-.13.21-.19.21a1.15,1.15,0,0,1-.6-1.52A9.61,9.61,0,0,1,21.32,43.62Z"/><path class="cls-35" d="M30.41,4.6a1.92,1.92,0,0,1-.48-2A14.65,14.65,0,0,1,33,0c.89,0,1.84-.24,2.49.68a2.24,2.24,0,0,1-.48.66C33.59,2.57,32.34,4.08,30.41,4.6Z"/><path class="cls-36" d="M33.7,5.72l-.66,0-.15-.36c.11-1,.88-1.6,1.32-2.4a7.39,7.39,0,0,1,.42-.66c.42-.4.54-1.3,1.45-.89a2.19,2.19,0,0,1,0,3.12c-.64.42-.94,1.33-1.9,1.26l-.26.17Z"/><path class="cls-37" d="M30.41,4.6A22.3,22.3,0,0,1,35,.8a1.49,1.49,0,0,1-.05,1.78h0C34,3.71,33.26,5,31.59,5.13l-.44,0a2.54,2.54,0,0,0-.55,0A.75.75,0,0,1,30.41,4.6Z"/><path class="cls-38" d="M2,127.55c.08,1.36-.63,2.52-1,3.77-.47,1.74-.41,1.85,1.43,2.48a3.75,3.75,0,0,1,.75.47c-3.37.42-3.59,0-2.77-3.51A5.39,5.39,0,0,1,2,127.55Z"/><path class="cls-39" d="M21.16,46.77l.06-.68h4.37l.61,1.19-4.24,0Z"/><path class="cls-40" d="M39.27,7.54C38.21,7,37,6.65,36.15,5.65L38,5.77c.62.42,1.4.09,2,.46a3.07,3.07,0,0,1,2.33.69l-1.8,0A1.48,1.48,0,0,0,39.27,7.54Z"/><path class="cls-41" d="M33,0c-.72,1.24-1.55,2.34-3.11,2.54C30.49.57,30.81.3,33,0Z"/><path class="cls-1" d="M51.22,94.5c-.17-.08-.47-.12-.51-.24-.31-.91-1.73,0-1.77-1,0-.62,1-1,.89-1.76A6,6,0,0,1,51.22,94.5Z"/><path class="cls-1" d="M49.82,91.47a2.06,2.06,0,0,1-1.16-2.58A4.1,4.1,0,0,1,49.82,91.47Z"/><path class="cls-42" d="M10.67,123.78c-.88,0-1.85.3-2.51-.62a1,1,0,0,1,.11-.59.89.89,0,0,1,.73-.09,3.57,3.57,0,0,1,1.81.62A.55.55,0,0,1,10.67,123.78Z"/><path class="cls-43" d="M34.9,2.58c0-.59,0-1.19.05-1.78l.58-.08a.68.68,0,0,1,.55.65C35.69,1.78,35.3,2.18,34.9,2.58Z"/><path class="cls-44" d="M15,13.06l-.12.75-.66,0a1.64,1.64,0,0,1-.52-1.31c.08-.53.38-.56.66-.08a2,2,0,0,0,.65.69Z"/><path class="cls-45" d="M51.72,13.82c0-.5,0-1-.07-1.49.38-.51.62-.32.66.18A1.69,1.69,0,0,1,51.72,13.82Z"/><path class="cls-14" d="M40,6.23a1.92,1.92,0,0,1-2-.46A2.27,2.27,0,0,1,40,6.23Z"/><path class="cls-27" d="M19.36,83.39c0,.7.12,1.44-.67,1.85A2.15,2.15,0,0,1,19.36,83.39Z"/><path class="cls-27" d="M19.91,82a1.24,1.24,0,0,1-.55,1.41A1.59,1.59,0,0,1,19.91,82Z"/><path class="cls-1" d="M51.83,95.76c-.68-.2-.75-.71-.65-1.31A1.43,1.43,0,0,1,51.83,95.76Z"/><path class="cls-1" d="M51.67,97l.12-1.26C52.43,96.2,52.33,96.61,51.67,97Z"/><path class="cls-40" d="M43.82,7.47a1.25,1.25,0,0,1-1.45-.54A1.41,1.41,0,0,1,43.82,7.47Z"/><path class="cls-8" d="M8.83,122.58H8.27a1.07,1.07,0,0,1,.52-1.25,4.14,4.14,0,0,1,0,.61l.24.31Z"/><path class="cls-13" d="M13.69,105.56a.84.84,0,0,1-.64.78A1.08,1.08,0,0,1,13.69,105.56Z"/><path class="cls-32" d="M24.32,6.89c-.14.33-.31.46-.58.11A.9.9,0,0,1,24.32,6.89Z"/><path class="cls-40" d="M45.12,8.08a1,1,0,0,1-.9-.47A.83.83,0,0,1,45.12,8.08Z"/><path class="cls-31" d="M15.05,13.14l-.65-.69C14.75,12.56,15.08,12.68,15.05,13.14Z"/><path class="cls-38" d="M2.52,126.77a.92.92,0,0,1-.54.76A.82.82,0,0,1,2.52,126.77Z"/><path class="cls-46" d="M29.94,47.37l8,0a2.56,2.56,0,0,1-.51,1.43,19.21,19.21,0,0,0-3.19,11.14A52.24,52.24,0,0,0,37.72,78,125.68,125.68,0,0,1,42,90a13.75,13.75,0,0,1,.38,3.36,2.4,2.4,0,0,1,0,2.48H38.08a18.34,18.34,0,0,0-6,.55,7.17,7.17,0,0,1-2.13.06c2.19-2.26,1-5.18,1.47-7.79.14-.83,1.2-1.76-.48-2.89-1.26-.84-.56-3.28-.35-5,.55-4.8,2-9.54,1.3-14.42-.61-4.44-.06-8.94-.88-13.38C30.65,51.08,30.86,49.12,29.94,47.37Z"/><path class="cls-5" d="M42.35,95.81c0-.82,0-1.65,0-2.48.9.66.53,1.63.62,2.49a.4.4,0,0,1-.61,0Z"/><path class="cls-47" d="M33,101.42H43c2.23,3.17,3.8,6.58,3.72,10.57-4.4,1.61-8.87.89-13.33.47-1.09-2.31-2.54-4.5-2.46-7.23C31,103.56,31.4,102.18,33,101.42Z"/><path class="cls-48" d="M34.91,119.45H25a2.36,2.36,0,0,1,.17-.87,4.72,4.72,0,0,0,.46-3.74c-.24-1.54-.24-1.55-1.91-1.25-.78.14-.78.14-.58-1a2.89,2.89,0,0,1,2.19-.81,8.41,8.41,0,0,0,2.33-.38,9,9,0,0,1,2-.25,5.46,5.46,0,0,1,2.61.5c3.66,1.33,7.46.25,11.16.66.92.1,2.29-.83,2.72.89a1.15,1.15,0,0,1-.14.27C42.77,116.41,39.35,118.88,34.91,119.45Z"/><path class="cls-49" d="M46.1,113.23c-.6-.77-1.46-.61-2.26-.62H34.05c-.8,0-1.65.16-2.25-.61A.85.85,0,0,1,33,112H46.71A1.28,1.28,0,0,1,46.1,113.23Z"/><path class="cls-1" d="M42.37,95.84l.61,0-.62.63Z"/><path class="cls-50" d="M41.74,11.9A1,1,0,0,1,42.13,13q-1.31,5.38-2.58,10.77c-.14.6-.21,1.21-.32,1.82-.26,2.86-1.74,5.2-3.31,7.47-.54.78-1.14,1.84-2.45,1.14.45-2.86-1.41-5.55-.6-8.44,1.58.13.11-.61.24-.91,0-2.24-1-4.36-.91-6.62,0-2,.26-3.86,1.57-5.44.65-.69,1.27-.29,1.87.08a3.74,3.74,0,0,0,4.93-.46,3.24,3.24,0,0,1,.74-.43Z"/><path class="cls-51" d="M27.41,38q0-11.43,0-22.86l.23-.33a3.43,3.43,0,0,1,1.15-.44,4.14,4.14,0,0,1,1.68-.16,1.85,1.85,0,0,1,.68.56c.07,2.75.86,5.38.08,8.28s.63,6,.59,9.12a15.59,15.59,0,0,1-.06,4c-.47,1.53-2,1.27-3.07,1.89a3.68,3.68,0,0,0-.58,0C27.81,38.3,27.59,38.26,27.41,38Z"/><path class="cls-52" d="M28.65,38l2.53-1.82c.73-.75,1.32-1.7,2.47-1.9a3.45,3.45,0,0,0,1.76-1.69c1-1.94,2.46-3.59,3-5.77.11-.46.57-.84.86-1.25.28.65.74,1.26.53,2-.13.46-.62,1,0,1.38.26.16.77-.09,1.16-.07A.75.75,0,0,1,41.62,30a7.61,7.61,0,0,0-.89,2.59c.06,1-.32,1.81-.2,2.74s1.23,1.38,1.3,2.32c-.08.13-.11.23-.18.28a.62.62,0,0,1-.29.09Z"/><path class="cls-53" d="M41.17,12.57c-2.25,2.5-3.93,2.6-6.43.38-.15-.13-.32-.25-.48-.38a1.66,1.66,0,0,1-.83-2.45.52.52,0,0,1,.83-.07,1.71,1.71,0,0,1,.27.14,5.13,5.13,0,0,0,6.56.43.38.38,0,0,1,.65,0V11.9h0A2.4,2.4,0,0,0,41.17,12.57Z"/><path class="cls-40" d="M41.74,10.58l-.65,0V8.82C41.85,9.21,41.71,9.93,41.74,10.58Z"/><path class="cls-52" d="M27.41,38l.66.09c0,.18,0,.37,0,.56l-1.26,0c-.2-.13-.26-.26-.18-.37s.13-.18.2-.18Z"/><path class="cls-40" d="M39.88,8.15l-.62-.6Z"/><path class="cls-40" d="M40.5,8.77l-.6-.6Z"/><path class="cls-42" d="M21.22,130.63a7.74,7.74,0,0,1,1.42-4.9c.25-.35.36-.8-.1-1s-.8.14-1,.49c-.49.77-.92,1.58-1.39,2.37,0,.07-.23.14-.26.11s-.32-.28-.29-.38a5.83,5.83,0,0,1,.46-1.13,4,4,0,0,0,.55-2.35,1.81,1.81,0,0,1,1-.56c7.38-.18,14.76-.05,22.14-.07a2.76,2.76,0,0,1,2.29.62c0,.19,0,.39,0,.58a13.25,13.25,0,0,0-2.61,1.66,9,9,0,0,1-2.07,1.32,79.32,79.32,0,0,1-18.31,6.35,2.58,2.58,0,0,1-.62,0c1.5-1.29,1.53-3.2,2-4.9.1-.37-.76-1.46-1.23-1.59a.58.58,0,0,0-.71.38c-.25.67-.44,1.35-.71,2A6.59,6.59,0,0,1,21.22,130.63Z"/><path class="cls-54" d="M46.06,123.81l-24.83,0a.85.85,0,0,0-1.25,0v0a.61.61,0,0,1-.85,0c-1.85-.72-3.78-.15-5.66-.33h-1c-.63-.07-1.3.18-1.86-.29-.66,0-1.39.12-1.82-.61l0,0a1.53,1.53,0,0,1,1.87,0H53.34c.92,0,1.85,0,2.78,0,.76,0,1,.55,1.15,1.21Z"/><path class="cls-51" d="M29.3,112H27.44c-.51.55-1.37,0-1.87.61l-2.48,0-.62,0c1.48-2.35.7-5,.94-7.49.14-1.4-.8-3.21,1.31-4,.91.08,1.86-.27,2.72.28h0c.57.63,2,.58,1.69,1.87C28.49,106.21,29.06,109.09,29.3,112Z"/><path class="cls-55" d="M24.33,101.42c-.16.38-.52.81-.44,1.13.61,2.51.24,5,.07,7.52,0,.39-.3.81.32,1s.55.53.1.77-1.47,0-1.91.78H19.34c0-.2,0-.4,0-.59h0l.61-.62c.38-.34.23-.92.6-1.26,0-.21,0-.41,0-.62a6.42,6.42,0,0,0,1.24-3.11c.15-.24.47-.53.42-.73a2.34,2.34,0,0,1,.28-2.27c.66-.87.42-1.35-.64-1.85-.46-.21-1-.24-1.31-.71h3.1C23.89,101,24.29,101,24.33,101.42Z"/><path class="cls-48" d="M29.93,121.93H13.77a8.87,8.87,0,0,0-.14-.9c-.11-.44-.06-.81.42-1a9.41,9.41,0,0,1,3.25-.65c1.93.08,3.86,0,5.79,0a1.9,1.9,0,0,1-1.64.62,8.48,8.48,0,0,0-2.79.22c.73.64,1.44.38,2.08.38,2.86,0,5.72,0,8.57,0C30.34,120.69,30.11,121.32,29.93,121.93Z"/><path class="cls-42" d="M10.66,122.55H8.79v-.62h1.87Z"/><path class="cls-56" d="M29.94,47.37a4.49,4.49,0,0,1,2.2,2.35c.41,1.29-1,1.79-.75,2.85.23.88,1.56,1.24,1.23,2.36-.45,1.5.09,3.1-.63,4.58a2.15,2.15,0,0,0,.35,2.34,4,4,0,0,1,.46,3.83,3.42,3.42,0,0,0,0,2.4,3.85,3.85,0,0,1,.12,2.75c-.45,1.31-.22,2.71-.59,4-.6,2-.45,4.08-1,6.1-.39,1.55-.08,3.27-.08,5,.92-.37.29-1.29.68-1.84.15-.2.29-.35.51-.23s.34.33.31.42c-.77,2,0,4.15-.86,6.11a2.41,2.41,0,0,0,.1,1.51,7,7,0,0,1,.39,2.12c0,1.27-.08,1.45-1.45,1.89a2.23,2.23,0,0,0-1,.61H28.06a2.59,2.59,0,0,1-.32-1.49c.61-6.11.35-12.27.94-18.38,0-1.24,0-2.48,0-3.72a1.89,1.89,0,0,0,.61-1.66q0-5.39,0-10.77a6.3,6.3,0,0,0-.4-2.09,4,4,0,0,1-.29-3c-.63-2.64-.15-5.54-1.8-7.95Z"/><path class="cls-57" d="M29.3,112a1.83,1.83,0,0,0-.53-1.41,2.59,2.59,0,0,1-.9-2.7,30.73,30.73,0,0,1,.49-3.78c.32-1.07.3-1.69-.8-2.09-.1,0-.08-.38-.12-.58H33c-1.81,1.9-1.14,4.27-1.2,6.49a.62.62,0,0,0,.3.49c1.14.31.88,1.23.9,2,0,.51,0,1,0,1.55H29.3Z"/><path class="cls-55" d="M28.68,76.55a12,12,0,0,0,.46,4.25,3.18,3.18,0,0,1,0,2.11,5.36,5.36,0,0,0,0,3.58,5.48,5.48,0,0,1,0,3,14.42,14.42,0,0,0-.46,4.56,4.85,4.85,0,0,1-.63,2.34l-2.52,0a15.79,15.79,0,0,1,1.29-11.13c.13-.15.37-.3.39-.46.29-2.55,1.09-5,.84-7.64Z"/><path class="cls-30" d="M26.83,85.27a8.21,8.21,0,0,1-.39,3.3.84.84,0,0,0-.1.29q-.4,3.78-.8,7.54a3,3,0,0,1-.6,0,2.32,2.32,0,0,1-.7-2c.3-2.87-.89-5.32-2.13-7.75-.45-.88.5-1.83-.26-2.63h0a4.41,4.41,0,0,1,.55-2.35c.33-.62.58-1.29.88-2,.28-.19.44.15.68.24,1.63.59,1.81.79,1.54,2.12-.09.49-.36,1-.43,1.45s.16,1,.84.93S26.78,84.71,26.83,85.27Z"/><path class="cls-27" d="M21.85,84c.73.47.59,1.23.63,1.93,0,.3,0,.72.4.7,1.63-.09.95.79.64,1.48s-.53,1,.53,1.21c.83.14,1.22.82,1.11,1.85-.19,1.71-.16,3.45-.22,5.18l-1.86,0a3.61,3.61,0,0,1-1.39-2.65,4,4,0,0,0-2.32-3.51A23.72,23.72,0,0,0,21.85,84Z"/><path class="cls-58" d="M19.37,90.24a8.87,8.87,0,0,0,.87.29c.56.13,1-1,1.56-.27.32.38.24.93.31,1.43.22,1.58.63,3.14,1,4.71l-6.82,0q1.54-2.79,3.1-5.58C19.36,90.65,19.36,90.45,19.37,90.24Z"/><path class="cls-57" d="M24.33,101.42l-.63-.6h2.42a1.57,1.57,0,0,1,1.32.6Z"/><path class="cls-59" d="M16.25,131.88c-.78-.25-1.34-1.53-2.41-.5a.61.61,0,0,1-.85,0,2.66,2.66,0,0,0-2.88-.5c-.1,0-.26.1-.3,0-1.71-1.63-3.19-.06-4.75.34.09-1.67,1.37-2.74,2.09-4.09a.85.85,0,0,1,1-.49c1,.33,1.52-.4,2.12-1,.33-.29.69-.51,1.06-.12s.11.74-.15,1.07a1.69,1.69,0,0,0-.34.51c-.1.33.12.8.38.5.85-1,1.88.66,2.76-.33.31-.34.2,1.45,1.12.63a2.07,2.07,0,0,1,1.43-.45c.1,0,.21,0,.31,0C17.1,129,16.2,130.39,16.25,131.88Z"/><path class="cls-42" d="M19.37,123.77c.2,0,.41,0,.61,0-.6,1.19-1.2,2.38-1.79,3.57-.18.34-.4.44-.7.14,0-1.36,1.22-2.33,1.23-3.7A.38.38,0,0,1,19.37,123.77Z"/><path class="cls-21" d="M19.37,123.77l-.65,0-5.58,0c-.2-.14-.27-.28-.2-.42s.13-.21.2-.21c1.53,0,3.05,0,4.58,0A1.93,1.93,0,0,1,19.37,123.77Z"/><path class="cls-21" d="M10.65,123.19l1.87,0a.38.38,0,0,1,.16.42c0,.14-.11.21-.16.21l-1.85,0C10.66,123.58,10.65,123.39,10.65,123.19Z"/><path class="cls-59" d="M5.06,131.25a1.29,1.29,0,0,1-.61,1.25A1.28,1.28,0,0,1,5.06,131.25Z"/><path class="cls-42" d="M12.52,123.8v-.63h.62v.63Z"/><path class="cls-23" d="M26.79,15.07c0,2.37,0,4.73,0,7.1a3,3,0,0,1-.69,2.27,7.47,7.47,0,0,0-1.27,3.1A1.5,1.5,0,0,0,25,29c.41.55.56,1.09-.05,1.62a2.89,2.89,0,0,0-.38.47c-.38.52.06,1.75-1,1.54-.66-.13-.93-1.06-1-1.79a4,4,0,0,0-.94-2.22,2.9,2.9,0,0,1-.34-1.79c1.37-3.16,2.17-6.54,3.59-9.69.32-.74.35-1.61,1.14-2.09A.93.93,0,0,1,26.79,15.07Z"/><path class="cls-60" d="M26.22,15c-.13.28-.38.56-.38.84,0,2.13-1,3.92-2,5.69-.89,1.59-.64,3.43-1.35,5-.33.74-.81.37-1.26.26,0-.2,0-.41,0-.61-.21-.83-.41-1.66-.62-2.49a38.12,38.12,0,0,1,3.45-10.49c.81-.47,1.33,0,1.82.57a3.12,3.12,0,0,1,.34.77C26.22,14.71,26.22,14.85,26.22,15Z"/><path class="cls-61" d="M26.82,38.08c0,.18,0,.37,0,.55a8.12,8.12,0,0,0-.86,0c-1.41.15-1.41.16-1.53,1.79l-1.35,0a8.69,8.69,0,0,1,.05-.89c.19-1.29.32-1.47,1.34-1.53C25.24,38,26,38.07,26.82,38.08Z"/><path class="cls-51" d="M26.79,15.07a2.61,2.61,0,0,0-.57-.08h0a.46.46,0,0,1,0-.77c.67-.17,1.24-.19,1.26.74l-.1.13-.29,0Z"/><path class="cls-21" d="M20,123.78c.41-.62.83-.61,1.25,0l-.64,0Z"/><polygon class="cls-42" points="21.22 130.63 21.08 130.89 20.96 130.78 21.22 130.63"/><path class="cls-62" d="M19.37,112H12.52c-.28-1.15.7-1.68,1-2.46a.44.44,0,0,1,.75-.1c.45.63,1.82-.31,1.79,1.07,0,0,.17.12.26.14,2.27.45,2.28.43,3.05,1.35Z"/><path class="cls-28" d="M20.59,110.12a1.3,1.3,0,0,1-.6,1.26A1.27,1.27,0,0,1,20.59,110.12Z"/><path class="cls-63" d="M27.47,15a1.4,1.4,0,0,0-1.3-.51.36.36,0,0,1-.57-.11,3,3,0,0,0-1.23-1.22L24.1,13a3.7,3.7,0,0,1-.53-.78,2,2,0,0,1-.15-.6,1.5,1.5,0,0,1,.2-.9l.8-.11a4.74,4.74,0,0,1,4.26.7c1.59.07,2.48-1.25,3.73-1.86l.33.34c.53,2.14-.09,3.7-2.21,4.55l-.61.13c-.37.32-.93.2-1.28.54Z"/><path class="cls-64" d="M28.68,11.28a6.31,6.31,0,0,1-4.26-.69l-.77-1.11c1.52-.13,2.39-1.56,3.79-1.93.2-.2.42-.4.63-.59,1.05-.1,2-.81,3.08-.69l.34-.2.31.25c-.47.36-.95.71-1.38,1.11s-.76.7-.69.91C30.17,9.64,28.69,10.19,28.68,11.28Z"/><path class="cls-63" d="M34.26,10.05h-.65c-.69.32-.86-.31-1.2-.64h0c.36-1,.51-1.06,1-.54A9.92,9.92,0,0,1,34.26,10.05Z"/><path class="cls-64" d="M31.18,5.68a5.63,5.63,0,0,0,0-.58L31.21,5c.88-.55,1.39,0,1.83.65h0a1.3,1.3,0,0,1-1.24.64l0,0A5.58,5.58,0,0,1,31.18,5.68Z"/><path class="cls-64" d="M33.7,5.72a4.19,4.19,0,0,1,.5,0C34,6.11,33.85,6,33.7,5.72Z"/><path class="cls-65" d="M24.37,13.12a2.49,2.49,0,0,0-.1,2.05c.15.71.23,1.54-1,1a2.17,2.17,0,0,0-.56,2.5,1.38,1.38,0,0,1-.21,1.71c-1.07.91-1.05,2.38-1.92,3.37-.21-.83-.41-1.66-.62-2.49-.22-.19-.39-.44-.62-.62,0-.41,0-.83,0-1.24-.41-1.17-1.28-2.26-.64-3.61a4.83,4.83,0,0,0,3.82-2.63c.32-.35.21-.89.54-1.24h0a.37.37,0,0,1,.66,0h0c.33.35.2.94.64,1.24Z"/><path class="cls-26" d="M18.12,20.61c.08,0,.25.11.24.14,0,.2-.14.15-.24-.14Z"/><path class="cls-26" d="M19.36,20.61l.62.62Z"/><path class="cls-32" d="M31.18,5.68c.19.21.39.41.58.61h-.31l-.3,0Z"/><path class="cls-32" d="M28.07,7l-.63.59Z"/><path class="cls-25" d="M23.73,11.89h-.66a1.31,1.31,0,0,1,.55-1.2C23.66,11.09,23.69,11.49,23.73,11.89Z"/><path class="cls-25" d="M23.07,11.89a1.24,1.24,0,0,1-.54,1.24A1.31,1.31,0,0,1,23.07,11.89Z"/><path class="cls-43" d="M33,5.68,31.21,5,34.9,2.58a2.36,2.36,0,0,1-.72,1.65C33.76,4.68,33.42,5.2,33,5.68Z"/><path class="cls-4" d="M25.57,112.6c.45-.72,1.19-.59,1.87-.61C27,112.72,26.26,112.59,25.57,112.6Z"/><path class="cls-66" d="M32.41,9.41l1.2.64a5.29,5.29,0,0,0,.66,2.52,1.61,1.61,0,0,1-.1.6c-1.32,2-1.17,4.28-1.13,6.52,0,.31-.1.68,0,.91,1,1.58.54,3.3.58,5-1,.88-.65,1.86-.14,2.78a5.79,5.79,0,0,1,.23,5.31,3.76,3.76,0,0,0-.1.6,3.05,3.05,0,0,1-2.47,1.9c-.1-1.63.23-3.29-.48-4.87a1.66,1.66,0,0,1-.05-1.2c.63-1.47.1-2.88-.34-4.18a4.71,4.71,0,0,1,.62-4.65c.67-.89.48-1.43-.37-2a1.21,1.21,0,0,1-.37-1.87c1.12-1,.45-2.06.34-3.1C31.62,12.85,32.76,11.42,32.41,9.41Z"/><path class="cls-66" d="M34.46,26.17l-.52.26-.28-.85a4.28,4.28,0,0,1,.61.09C34.52,25.75,34.58,25.93,34.46,26.17Z"/><path class="cls-3" d="M41.17,12.57l.57-.66Z"/><path class="cls-66" d="M28.64,15a1.37,1.37,0,0,1,1.28-.54A1.27,1.27,0,0,1,28.64,15Z"/><path class="cls-23" d="M25.6,14.34a1.8,1.8,0,0,1,.57.11,4.9,4.9,0,0,1,0,.54Z"/><path class="cls-60" d="M24.37,13.13a1.15,1.15,0,0,1-.64-1.24A1.48,1.48,0,0,1,24.37,13.13Z"/></g></g></g></svg>