<svg xmlns="http://www.w3.org/2000/svg" viewBox="0 0 65.71 108.49"><defs><style>.cls-1{fill:#89582d;}.cls-2{fill:#85542a;}.cls-3{fill:#88572c;}.cls-4{fill:#56361d;}.cls-5{fill:#a97d4d;}.cls-6{fill:#b98e5c;}.cls-7{fill:#62371f;}.cls-8{fill:#825128;}.cls-9{fill:#c09765;}.cls-10{fill:#c39b6b;}.cls-11{fill:#b18252;}.cls-12{fill:#996b3d;}.cls-13{fill:#a17040;}.cls-14{fill:#c79f6f;}.cls-15{fill:#a77947;}.cls-16{fill:#82512a;}.cls-17{fill:#c59e6f;}.cls-18{fill:#cfa97a;}.cls-19{fill:#ba905e;}.cls-20{fill:#5e3721;}.cls-21{fill:#c9a273;}.cls-22{fill:#916033;}.cls-23{fill:#c19867;}.cls-24{fill:#986638;}.cls-25{fill:#b48a5a;}.cls-26{fill:#a57440;}.cls-27{fill:#a17241;}.cls-28{fill:#cba475;}.cls-29{fill:#a57647;}.cls-30{fill:#dcbb8e;}.cls-31{fill:#a47340;}.cls-32{fill:#ac7c49;}.cls-33{fill:#996227;}.cls-34{fill:#ba8c5e;}.cls-35{fill:#824c29;}.cls-36{fill:#a57848;}.cls-37{fill:#9f7243;}.cls-38{fill:#a17343;}.cls-39{fill:#986135;}.cls-40{fill:#7f4e26;}.cls-41{fill:#9f7343;}.cls-42{fill:#a07344;}.cls-43{fill:#b28856;}.cls-44{fill:#94552a;}.cls-45{fill:#844a1b;}.cls-46{fill:#ab7e4c;}.cls-47{fill:#b18451;}.cls-48{fill:#a77948;}.cls-49{fill:#b08351;}.cls-50{fill:#d2b081;}.cls-51{fill:#d9bc90;}.cls-52{fill:#c7a06f;}.cls-53{fill:#cea978;}.cls-54{fill:#ba8f5e;}.cls-55{fill:#9a5a30;}.cls-56{fill:#b88d5d;}.cls-57{fill:#d2ae7e;}.cls-58{fill:#d7b586;}.cls-59{fill:#ddbd90;}.cls-60{fill:#d3b081;}.cls-61{fill:#89582e;}.cls-62{fill:#785c32;}.cls-63{fill:#935d33;}</style></defs><g id="Layer_2" data-name="Layer 2"><g id="Layer_1-2" data-name="Layer 1"><g id="rock_white" data-name="rock white"><path class="cls-1" d="M44.82,23.41c-3.23,1.81-3.7,4.75-3.2,8,.43,2.76,1,5.5,1.47,8.25Q46,55.85,48.91,72c.13.71.17,1.44.25,2.16-2.81,1.15-5.61,2.5-8.59.43-1.47-4.13-1.32-8.53-2.16-12.78-.26-2.31-.52-4.62-.86-6.93A113,113,0,0,0,36.49,43c-.62-4.79-.86-9.62-1.37-14.42-.22-2-.32-4.16,1.54-5.69C39.42,22.37,42.2,21.68,44.82,23.41Z"/><path class="cls-2" d="M57.73,97.24a8.93,8.93,0,0,0,.85.35c4.85,1.51,7.4,5.31,7.1,10.56a2.26,2.26,0,0,1-1.48.31l-41.93,0a6.18,6.18,0,0,1-.62-.07c-.06-.6.33-.9.78-1.15,5.69-1.78,11.63-2.84,16.93-5.77a24,24,0,0,0,4.32-2.65c-7.71-.15-15.06,0-22.41-.09a10.84,10.84,0,0,1-1.51-.11,6.81,6.81,0,0,1-1-.2c-2.88-.65-5.82-.07-8.72-.36a2.78,2.78,0,0,1-1.48-.61.73.73,0,0,1,.08-1,3.29,3.29,0,0,1,2.07-.65c4,0,7.94-.15,11.9.1a10.51,10.51,0,0,0,2.56.27,4.24,4.24,0,0,1,1.06.15c10.16-.24,20.29.64,30.44.61A1.81,1.81,0,0,1,57.73,97.24Z"/><path class="cls-3" d="M50.18,78a2.6,2.6,0,0,0,.42,2,27.41,27.41,0,0,0,7.13,9.11c.46.38.87.84,1.3,1.26-3.94,1.73-8,.83-12,.6-3.46-3.52-5.22-7.61-4.23-12.63A11.76,11.76,0,0,1,50.18,78Z"/><path class="cls-4" d="M57.08,92.75l-1.17,1.4a3.57,3.57,0,0,1-2.88.9c-12.43,0-24.86.18-37.28-.18-.84-.23-1.65-.66-1.55-1.63a1.75,1.75,0,0,1,1.85-1.37c4.55.2,8.89-3.07,13.55-.79a.74.74,0,0,0,.6,0c4.59-1.79,9.09,1.19,13.66.21.44,0,.66.47,1.1.49-.26-.21-.58-.41-.27-.82,1.79-.83,3.47.42,5.3.27s3.83.21,5.74-.28C57.44,90.55,57.77,91.29,57.08,92.75Z"/><path class="cls-5" d="M42.2,5.87c0,.82.09,1.64.13,2.46,0,.61-.14,1.4.45,1.71a3.49,3.49,0,0,0,2.71,0c.19-.06.36-.51.37-.78,0-1.54,0-3.09.07-4.63,0-.71-.14-1.46.5-2,1.64,2.51.93,5.18.55,7.83-.75,1.26-2,1.1-3.23,1.26-2.8,2.31-6.46,3.37-9,6.1-1.36,1.49-3.26,1.07-4.85,1.71a8.33,8.33,0,0,1-4.09-.11c-1.05-.57-.77-1.36-.22-2A12.35,12.35,0,0,1,30,13.6a8,8,0,0,1,1.65-.54c-.6-.05-1.27,0-1.41-.81a1.44,1.44,0,0,1,.59-.63c1.41-.58,3-.08,4.36-.6,1.19-1.48.1-3.46,1.08-5a2.15,2.15,0,0,1,2.57-.36c.19.07.22.37.49.33-.18-.73-.34-1.59.48-1.89,1.09-.4.7,1,1.31,1.31C41.44,5.59,41.89,5.55,42.2,5.87Z"/><path class="cls-6" d="M24.69,30c-.05-.41-.11-.82-.14-1.23A6.39,6.39,0,0,0,21,23.34c2.23-1.64,4.71-.76,7.11-.71a6.12,6.12,0,0,1,2.53,1.21,3.32,3.32,0,0,1,.79,2.57c-.42,4,0,8-.33,12a15.37,15.37,0,0,0-.59,4.05,3.46,3.46,0,0,1-.58,1.9.88.88,0,0,1-.88.18c-1.14-1.1-1.23-2.54-1.24-4a8.19,8.19,0,0,0-.93-4.39c-.75.11-.85.69-1.17,1.06s-.75.72-1.33.47a1,1,0,0,1-.52-1.31C24.64,34.31,24.18,32.1,24.69,30Z"/><path class="cls-7" d="M44.63,91.66a18.43,18.43,0,0,1-7.61.41,3.21,3.21,0,0,1-1.35-.61,3,3,0,0,0-3.21,0,3.53,3.53,0,0,1-3.94.08c-1.6-.91-3.4-.53-5.13-.25-1.21,1.34-2.83,1-4.35,1a11,11,0,0,0-3.94.61c-.78.28-.44.76-.3,1.23-1,1-2.16.84-3.36.71a2.36,2.36,0,0,1-1.58-1.19,9.81,9.81,0,0,1-3.09-3.06,6.33,6.33,0,0,1,3.1-1c1.66,0,3.33,0,5,0,2.06-.11,4.12,0,6.18,0,2.27,0,4.55-.15,6.83,0,2.51,0,5-.11,7.53,0,3.7.22,7.51-.93,11.08.88H59c.39.15.39.45.14.66-.67.59-1.39,1.13-2.09,1.7,0-.21,0-.42,0-.62-.08-.56-.26-1-1-.68-.35.19-.64.65-1,.67a23.21,23.21,0,0,1-4.25,0c-.91-.12-1.72-.57-2.68-.11-.66.32-1.13-.25-1.64-.58a1.22,1.22,0,0,0-1.88.22Z"/><path class="cls-8" d="M50.18,78c-2.42.89-4.94.56-7.43.62-3.11,1.78-6.49.67-9.74.89-2.07.13-4.15,0-6.23,0-1.29.1-2.58,0-3.87,0A16.22,16.22,0,0,1,16,78.13c-1.36-.65-1.37-.67-1.26-2,1.35-1,2.93-.91,4.46-.89,7.72.13,15.45-.34,23.16.3,2.06.17,4.1-.53,6.15-.26,1.27.17,2.89.11,2.47,2.22A.75.75,0,0,1,50.18,78Z"/><path class="cls-9" d="M24.69,30a21.16,21.16,0,0,1-.43,6.73c0,.12.18.38.33.44s.46,0,.5-.15a7.81,7.81,0,0,0,.33-1.17,2.08,2.08,0,0,1,1.4-1.57,8.29,8.29,0,0,1,1.72,6.51c-.26,1.28.75,2.36.56,3.62a5.16,5.16,0,0,1,.26,5.34c-2.14.49-3.81-.88-4-3.34a11.52,11.52,0,0,1,.23-2.61,21.26,21.26,0,0,0-.79,4.24,6.87,6.87,0,0,1-.21.87,16.51,16.51,0,0,0-.38,1.83c-.2.68-.39,1.36-1.29,1.4-1.34-.34-1.33-1.46-1.19-2.42.26-1.79,0-3.61.54-5.37a71.87,71.87,0,0,1,1.59-9.9C24.1,33,23.87,31.38,24.69,30Z"/><path class="cls-10" d="M20.39,10.24c3.3-.13,3.14.42,3.19-3.22,0-1.65,0-3.3.06-4.95C23.68,1,24,.64,25.06.36c1.61-.41,3.21-.69,4.68.43A2.2,2.2,0,0,1,30,2.06a6,6,0,0,1-.48,1.24C28.25,6.35,26,9,25.67,12.47a1,1,0,0,1-.55.73c-4,2.21-7.83,5-12.83,4.09A3.86,3.86,0,0,1,12,14.9c0-.86-.42-2,.66-2.48s1.77,0,2.64.82c1.64,1.47,2.59.28,3.19-1.31.56-.49,1.26-.36,1.91-.5,1.07-.22-.26-.27-.09-.49A.66.66,0,0,1,20.39,10.24Z"/><path class="cls-11" d="M8.72,96.74c0,.14,0,.28-.05.42.47.71,1.2.3,1.81.42,2.54,0,5.07,0,7.61,0,1.78,1.43.24,2.59-.29,3.83a2.2,2.2,0,0,1-.71.54c-1.73.62-3.49,1.59-5.07-.3-.08-.27.32-.4.21-.68-.19.12,0,.42-.27.52-.29.47-.73,1-1.22.75C7.81,101,7.79,101,6.06,103.93c-1,1.36-.65,3.5-2.45,4.43H3c-1-.67-3.21,0-2.51-2.44h0c1-.18,1.05-.53.68-2.45h0c.39-.34.29-.9.6-1.27h0A23,23,0,0,0,3.58,99.7a4.13,4.13,0,0,1,2.78-1.8A3.29,3.29,0,0,0,8.56,96a.55.55,0,0,1,.25.48C8.79,96.65,8.76,96.74,8.72,96.74Z"/><path class="cls-12" d="M11.08,94.2l3.72-.1,32.14.08c3,0,6,0,9,0a3.14,3.14,0,0,1,1.82,3.09h-.65l-1-.28c-9.38-.34-18.76-.35-28.14-.34a4.24,4.24,0,0,1-.87-.12.78.78,0,0,1-.51-.81c0-.35-.58-.24-.2-.08s-.28.65-.06.3a1,1,0,0,1-1.05.4A3.43,3.43,0,0,1,23.89,96c-3.16-.73-6.37-.15-9.53-.38C13.14,95.51,11.58,96,11.08,94.2Z"/><path class="cls-13" d="M51,77.46c-.17-.61-.37-1.22-1.14-1.27-.93-.06-1.86-.07-2.79-.07l-32.31,0a1.1,1.1,0,0,1,.67-1.23c1.46-.45,2.67-1.61,4.33-1.45,1,0,2,0,3.06,0,.85,0,1.69,0,2.53,0,.68,0,1.36,0,2,0,1.2,0,2.4,0,3.59,0,.87-.06,1.74,0,2.61,0,1.43-.06,2.85,0,4.27,0a4.14,4.14,0,0,1,3.09.86c1.13,1.09,2.55.77,3.74.44a25.82,25.82,0,0,1,4.52-.49,15.08,15.08,0,0,1,1.82,1,1.52,1.52,0,0,1,.52,1.33A1,1,0,0,1,51,77.46Z"/><path class="cls-14" d="M18.56,12c.19.23.37.48.58.69s.69.72.07.85a7.57,7.57,0,0,0-2.47,1.16c-.82.49-1.58.08-2-.93a3.21,3.21,0,0,0-.22-.57,1.16,1.16,0,0,0-1.37-.38.91.91,0,0,0-.77.85c0,1.13-.05,2.26-.08,3.38a1.85,1.85,0,0,1,.49,1.73,1.38,1.38,0,0,1-.53.76c-.67-.35-.63-1-.63-1.6,0-4.92,0-9.83,0-14.75,0-1.63.3-1.93,1.89-2.27a5.51,5.51,0,0,1,1.22,0c1.36,1.67.78,3.64.87,5.51,0,1.08-.11,2.17-.1,3.28C17.82,9.5,17,7.8,17.15,6.66c.31-1.85.36-1.93,1.92-1.42C19.39,7.54,19.93,9.85,18.56,12Z"/><path class="cls-15" d="M16.65,101.61h.62c1.09-1.06,1.29-2.72,2.5-3.71H21a.76.76,0,0,1,.14,1c-.54.72-.59,1.68-1.16,2.38-.21.34,0-.14-.16.22a2.35,2.35,0,0,0,.19-.25c.64-.72.6-1.77,1.24-2.48,1.32-1,2.2-.75,1.67,1a23.8,23.8,0,0,1-1.05,2.75,2.1,2.1,0,0,0-.55,1.79c0,.51.7,0,.3.11-.16,0-.27-.16-.28-.36a1.89,1.89,0,0,1,.4-1.39c.76-.67.18-2.67,1.89-2.25s1.59,1.85,1.47,3.27c-.17,2-.67,3.6-2.85,4.14l-.6.53a29,29,0,0,1-5.59,0,3.28,3.28,0,0,1-.84-2.41C15.29,104.37,15.36,102.78,16.65,101.61Z"/><path class="cls-16" d="M28.46,23.34H21c-2.15,0-4.31-.07-6.46-.12-.6,0-1.26.11-1.64-.55.24-1.64,1.6-1.45,2.65-1.46,11.6-.09,23.2-.05,34.81,0a5,5,0,0,1,2.93.87,1,1,0,0,1-.81,1.1,19.23,19.23,0,0,1-2.15.09l-5.52.17-8.33-.09C33.81,25,31.14,23.79,28.46,23.34Z"/><path class="cls-17" d="M16,106c0,.79,0,1.59,0,2.38H3.61c.76-1.57.8-3.42,1.86-4.88,2.63-.26,5.26-.13,7.49,1.36.73.49.71,0,1-.17C15.45,103.83,15.57,105.16,16,106Z"/><path class="cls-18" d="M19.78,74.24c-1.53-.24-2.88.79-4.4.62a3.9,3.9,0,0,0,1.7-2.75c.67-3.85,1.34-7.69,2.06-11.53.35-1.9.39-3.87,1.21-5.67,1.28,1.3.74,2.9.77,4.42a36,36,0,0,0,.39,6.48,7.71,7.71,0,0,1,.2,2.44,6.07,6.07,0,0,1-.17.93,7.81,7.81,0,0,0-.37,2.26C21.11,72.57,21,73.66,19.78,74.24Z"/><path class="cls-19" d="M16,78.13a12,12,0,0,1,3.91.18,22.75,22.75,0,0,0,3,.29c1.05.74.94,1.41-.1,2,1-.32,1.69-.12,1.92,1,.32,1.64,1.22,3.3-.34,4.8-1,.39-2,.82-2.54-.53-.44-1-1.34-1.14-2.23-1.33a3.81,3.81,0,0,1-.79-.25c-1.29-.48-1-2.15-2.07-2.79a2,2,0,0,1-.43-.67c-.27-.74.21-1.56-.22-2.29A.61.61,0,0,1,16,78.13Z"/><path class="cls-20" d="M53.45,19.69l-.75,1.13a2.31,2.31,0,0,1-1,.51c-6.58,0-13.17.37-19.74-.18-1.14-1.43.1-1.82,1-2.08,1.19-.33,2.44-.43,3.63-.78A20.16,20.16,0,0,1,41.12,18c4,.28,8.11-.76,12.08.62A.82.82,0,0,1,53.45,19.69Z"/><path class="cls-21" d="M21,66.17c-.18-.24-.49-.47-.51-.72a43.72,43.72,0,0,1-.25-5.71c.1-1.61.12-3.22.1-4.83-.07-2.29.62-4.47,1-6.69.23-1.28,0-2.71.87-3.86,0,2,0,4.06,0,6.08a1.26,1.26,0,0,0,1.23,1.43c.94,1,.33,2.05.25,3.1a15,15,0,0,1-.32,2.22,9.67,9.67,0,0,0-.36,1.68c0,.43,0,.86,0,1.29A11.37,11.37,0,0,1,22.23,64a15.27,15.27,0,0,1-.65,1.57A1.7,1.7,0,0,1,21,66.17Z"/><path class="cls-22" d="M53.47,1.46a1.14,1.14,0,0,1,.86,1.14c0,1.24,0,2.49,0,3.73q0,5.26,0,10.55c0,.7.18,1.46-.35,2.08l-.32-.3C52.44,14.84,53.6,10.88,53,7c-1.67,0-2.35,3.28-4.58,1.34-.57-1.88.09-3.71.47-5.46C49.52.16,51.75,1.35,53.47,1.46Z"/><path class="cls-23" d="M16.66,81.09a5.31,5.31,0,0,0,1.14.34c.5,0,.85.31.66.72-.46,1,.12,1.48.68,2h0c1.17-1,2.16.42,3.27.27.07,0,.22.3.26.47.3,1.28.29,1.28,1.45,1.13a.72.72,0,0,1,.23.71,2.9,2.9,0,0,1-.61,1.06,1.75,1.75,0,0,1-1.12.5,4.44,4.44,0,0,1-2.94-1.28c-1.2-.9-2.48-1.74-4.11-1-.22.17-.45.32-.68.47a2.35,2.35,0,0,1-.79.32l-.42-.09c-1-1-.37-2.16-.16-3.26q1.27-2.46,2.56-4.91c.71.32,1.11.77.72,1.61a3.44,3.44,0,0,0-.14.86Z"/><path class="cls-24" d="M52.1,20.8a2,2,0,0,1,.6,0c.28.37.73.65.6,1.23q-18.75,0-37.48,0c-1,0-2.1-.33-2.91.61a.62.62,0,0,1-.33-1c.74-.88.22-1.48-.31-2.13a2.62,2.62,0,0,0,.09-.56,2.8,2.8,0,0,1,3.44-.39c.61,1.26,0,1.28-1,1.14a38.19,38.19,0,0,0,9.38.8c8.29.65,16.59.61,24.88.55C50.1,21.09,51.15,21.38,52.1,20.8Z"/><path class="cls-25" d="M42.2,5.87a5.51,5.51,0,0,0-.92.13c-.68.23-.93-.08-1-.71,0-.28,0-.65-.53-.67L39.59,7c-.42.19-.5-.12-.6-.37-.17-.43-.46-.7-.94-.54a2,2,0,0,1-1.48-.24C35.18,4.36,35.89,2.62,36,1a1.15,1.15,0,0,1,.94-.66,10.81,10.81,0,0,1,4.24.05,1.27,1.27,0,0,1,1.09,1.28C42.28,3,42.23,4.45,42.2,5.87Z"/><path class="cls-26" d="M36,1a1.89,1.89,0,0,1,.55,1.62c0,1.1,0,2.19,0,3.29,0,1.53,0,3.06,0,4.59a1.8,1.8,0,0,1-.63,1.64c-1.66-1.34-3.86,0-5.57-1.09a11.77,11.77,0,0,1,0-9.52c1,.66,1.06,1.69,1.06,2.73,0,1.55,0,3.1,0,4.64,0,1.23.25,1.41,1.47,1.43h.62c.73,0,1.16-.35,1.16-1.11,0-1.75.05-3.5,0-5.25A3.29,3.29,0,0,1,36,1Z"/><path class="cls-27" d="M11.08,94.2c.62.72,1.47.56,2.27.56,3,0,5.89,0,8.84,0,1.08,0,2,.13,2.55,1.25-3.44.68-6.92.1-10.38.31-1.31.08-2.66-.33-3.92.31l-1.72.11c-.06-.25-.11-.51-.16-.76a4.47,4.47,0,0,1,.54-1.07,2.26,2.26,0,0,0,.76-1.29Z"/><path class="cls-28" d="M13.52,83.53a2.07,2.07,0,0,1,.24,2.19c-.21.37,0,.74.41,1,.31.56,0,1-.34,1.36a3.75,3.75,0,0,1-.61.46q-.48.33-.93.69c-.65.75-1.7.69-2.46,1.22l-3.06.14c.26-.75,1-1,1.54-1.45A51.9,51.9,0,0,0,13.52,83.53Z"/><path class="cls-29" d="M53.47,1.46c-.2,0-.41.05-.61.05-2.72,0-3.33-.25-3.31,2.91,0,1.52-.78,3-.56,4.57.56,1.1.15,1.72-1,2-1.64-1.37-.7-3.22-.85-4.85a31.82,31.82,0,0,1,0-4.58c.06-.09.09-.22.16-.26A6.65,6.65,0,0,1,53.47,1.46Z"/><path class="cls-30" d="M14.8,7.11q0-3.11,0-6.19c1,0,2-.07,3.07-.06a1.25,1.25,0,0,1,1.26.7c-.17.23-.32.47-.47.71C17.43,3.93,18.21,7.18,14.8,7.11Z"/><path class="cls-31" d="M47.16,1.54c.64.52.58,1.24.58,2V8.93a2.12,2.12,0,0,0,.62,1.92,1.23,1.23,0,0,1-.16,2,1.34,1.34,0,0,1-1.26-.38c-.4-.46-.81-.93-.45-1.61l-.06-8.2A1.36,1.36,0,0,1,47.16,1.54Z"/><path class="cls-32" d="M20.39,10.24a1.79,1.79,0,0,0,.07.51c-1.78.91-1.61-.49-1.6-1.44,0-2.14-.1-4.26-.26-6.39A1.66,1.66,0,0,1,19.26,2c1,.82.86,2,.91,3.07C20.25,6.82,20,8.54,20.39,10.24Z"/><path class="cls-33" d="M30.36,1.48c0,2.47,0,4.94,0,7.41,0,.71-.05,1.45.61,2,.39.71-.25.89-.61,1.21l0,.09C29,12,29,10.86,28.91,9.89a21.43,21.43,0,0,1,.75-7.76c0-.44.05-.89.08-1.34A.81.81,0,0,1,30.36,1.48Z"/><path class="cls-34" d="M.45,105.91a1.75,1.75,0,0,0,1,1.44,14.73,14.73,0,0,1,1.52,1c-.31,0-.62.1-.92.1C-.24,108.43-.35,108.26.45,105.91Z"/><path class="cls-34" d="M1.11,103.47l1.31,2.28c-.63.38-1.32.14-2,.17A2.88,2.88,0,0,1,1.11,103.47Z"/><path class="cls-34" d="M3.58,99.7a2.76,2.76,0,0,1-1.87,2.51A3.54,3.54,0,0,1,3.58,99.7Z"/><path class="cls-34" d="M1.71,102.2a1.19,1.19,0,0,1-.6,1.27A1.29,1.29,0,0,1,1.71,102.2Z"/><path class="cls-32" d="M18.59,1.55h.52a.81.81,0,0,1,.15.48L19,2.26a.59.59,0,0,1-.65-.1A.5.5,0,0,1,18.59,1.55Z"/><path class="cls-35" d="M53.45,19.69,53.31,19a.35.35,0,0,1,.55-.05L54,19A.67.67,0,0,1,53.45,19.69Z"/><path class="cls-36" d="M28.46,23.34l8,0a12.42,12.42,0,0,0-.1,7.27,1.61,1.61,0,0,1,.11.61c-.28,4,.92,8,.68,12A27.38,27.38,0,0,0,38.41,55,25,25,0,0,1,39,61.82c.36,1,.76,1.92-.38,2.65-.29.18-.74-.78-1,.48-.68,3.16,1,6.2.13,9.3H33.43c-1.13-1.32-1-2.94-.85-4.45,1.06-11.75-.27-23.5.09-35.25.06-2,.53-3.88.42-5.86s-.68-3.85-2.75-4.78C29.66,23.88,28.94,24,28.46,23.34Z"/><path class="cls-37" d="M37.78,74.25c-.13-.5-.25-1-.39-1.49-.75-2.59-1.26-5.19-.25-7.84a4.48,4.48,0,0,0,.11-1.23c1.63.38,1.63.38,1.77-.95a7,7,0,0,0,0-.92c.17.24.5.49.49.73-.06,2.24.67,4.39.73,6.61.05,1.73,1,3.33.64,5.09Z"/><path class="cls-37" d="M38.41,55c-1.46-.66-1.64-2.17-1.73-3.36A67.86,67.86,0,0,0,36,44.36c-.17-.88.45-.55.91-.44a4.8,4.8,0,0,0,.32-.76c.66.52.6,1.26.61,2A23.4,23.4,0,0,0,38.3,51,17.24,17.24,0,0,1,38.41,55Z"/><path class="cls-38" d="M21,99.12c0-.41,0-.82,0-1.23H43.6a5.78,5.78,0,0,1,.93,0c.27,0,.66.11.76.3.25.46-.17.79-.48,1-1.2.8-2.4,1.59-3.65,2.29a58,58,0,0,1-15.6,5.67c-1.09.26-2.13.86-3.31.68a3.71,3.71,0,0,0,1.9-3.8,3,3,0,0,1,.28-1.17c.36-1.13-.29-1.67-1.19-2.11-.52.73-.59,1.79-1.61,2.1h0a3.85,3.85,0,0,1,.8-3.06.59.59,0,0,0-.05-1c-.19-.12-.55,0-.83.09a3.13,3.13,0,0,0-.54.23Z"/><path class="cls-39" d="M10.44,96.63c.61-.77,1.47-.61,2.27-.61H26c.21-.26.42-.26.62,0,8.07,0,16.15,0,24.22,0,1.74,0,3.47-.49,5.22,0a1.71,1.71,0,0,1,1,.63c-2,1.15-4.26.65-6.37.55-7.94-.36-15.88-.23-23.82-.27a2.57,2.57,0,0,1-1.49-.29h-.64a.85.85,0,0,1-1.22,0Z"/><path class="cls-40" d="M25.37,96.64H57.05a5.83,5.83,0,0,1,0,.59,1.88,1.88,0,0,1-1.65.63,45.54,45.54,0,0,1-7.11-.06c-6.68-1-13.37-.29-20-.57C27.28,97.2,26.18,97.58,25.37,96.64Z"/><path class="cls-39" d="M18.5,97.9l-8.67,0c-.21-.13-.28-.26-.22-.39s.14-.2.21-.2h7.37a2.22,2.22,0,0,1,2,.6A.42.42,0,0,1,18.5,97.9Z"/><path class="cls-38" d="M18.5,97.9l.66,0,.61,0c-.58,1.27-1.13,2.55-1.75,3.79-.15.29-.52.2-.75-.08C17.3,100.24,18.5,99.27,18.5,97.9Z"/><path class="cls-40" d="M23.51,96.65h1.22C24.32,97.27,23.92,97.27,23.51,96.65Z"/><path class="cls-27" d="M9.82,97.27c0,.19,0,.39,0,.59-.52,0-1-.08-1.16-.7Z"/><path class="cls-41" d="M32.82,78.61h9.93a27.2,27.2,0,0,0,3.55,10.9,2.76,2.76,0,0,1,.18.89l-11.18,0a33.6,33.6,0,0,1-1.52-7.73.47.47,0,0,1,.42-.31c-.26-.21-.5.24-.77,0C32.57,81.19,32,80,32.82,78.61Z"/><path class="cls-7" d="M44.63,91.66a5.22,5.22,0,0,1,.57.07c.09,0,.23.11.22.16,0,.25-.2.34-.41.19a1.9,1.9,0,0,1-.38-.42Z"/><path class="cls-42" d="M47.1,12.09l.64.63c.4,3.23-2.32,4-4.26,5.46-.76.55-1.8.22-2.6.72L36.57,19c-2.09.21-4.18.8-6.25-.09A1.74,1.74,0,0,1,32,18.32a2.54,2.54,0,0,0,2.7-1.59,13.36,13.36,0,0,0,.67-1.37c.19-.44.52-.73.94-.51,1.22.63,1.84-.61,2.78-.81A2.53,2.53,0,0,0,41,12.29c.26-.62,1.19-.94,1.83-1.39C44.05,12,45.88,11,47.1,12.09Z"/><path class="cls-43" d="M29.66,2.13c0,2.69,0,5.37.05,8.06,0,.72,0,1.46.65,2,.42.75,1.31.38,2,.82-1.61,1.16-3.74,1.67-4.8,3.29-.65,1-2,1.33-2.19,2.62a2.53,2.53,0,0,1-1.89.85,8.3,8.3,0,0,1-4-.41c-.74-.56-.34-1.09.12-1.5a17.51,17.51,0,0,1,3.15-2.46,7,7,0,0,0,3.86-5.89c.08-.82-.27-2.22,1-2.22s.72,1.39,1,2.17a23.28,23.28,0,0,1,.57-6.65Z"/><path class="cls-35" d="M23.51,19l1.84-.09h5l6.25.08c-.79.89-1.85.55-2.81.58a2.16,2.16,0,0,0-2.17,1.24c-2.49.71-5,.13-7.56.32C21.9,20.86,22.88,19.87,23.51,19Z"/><path class="cls-44" d="M30.34,12.06c.2-.4.41-.8.61-1.21,1.3,0,2.59,0,3.89.05.73,0,1,.54,1.08,1.19Z"/><path class="cls-45" d="M47.1,12.09c-1.08,0-2.17,0-3.25,0-.72,0-1-.47-1-1.16l3.66-.06Z"/><path class="cls-46" d="M30.34,23.9c.82,0,1.65,0,2.48,0s1,.3.88,1.19a3.7,3.7,0,0,0,0,1.81,10.19,10.19,0,0,1,0,5.79,5.57,5.57,0,0,0,.07,3.65,3.42,3.42,0,0,1,.12,2.12,21.53,21.53,0,0,0-.07,9.18c0,.2.18.43.12.6-1.12,3.37.65,6.71.14,10.08a10.57,10.57,0,0,1-.4,3,1.34,1.34,0,0,0-.17.89c.88,2,0,4,0,6s0,3.93,0,5.89H30.94a2.57,2.57,0,0,1-1.16-2.08c.57-5.06-1.22-10-1-15C28.83,55.22,30,53.7,30,51.78a67,67,0,0,0-.24-7.36V42.56c.93-1.13.67-2.45.61-3.74,0-2.86,0-5.73,0-8.59a10.16,10.16,0,0,1,.34-3.95C31,25.45,30.28,24.72,30.34,23.9Z"/><path class="cls-47" d="M29.71,44.42a5.62,5.62,0,0,1,1.2,4.29,8.1,8.1,0,0,0,0,3.6c.3.92-.36,1.78-.85,2.55a2.67,2.67,0,0,0-.46,2,44.09,44.09,0,0,1,.14,4.6c0,1.12-.17,2.27.64,3.24.39.45.17,1,.08,1.46a2.75,2.75,0,0,0,.11,2.1,2.18,2.18,0,0,1,0,2.74c-.66,1.1.39,2.14.41,3.25l-3.8,0c-1.37-2.09-.73-4.38-.68-6.61.7-2.13.31-4.4.78-6.55.56-2.41.16-4.86.29-7.28.08-1.31-.09-2.67.94-3.73a1.85,1.85,0,0,0,.61-1.64c0-1.32,0-2.64,0-4Z"/><path class="cls-47" d="M30.33,38.82c.93,1,.71,2.07.42,3.17-.13.45-.63.47-1,.57A6.37,6.37,0,0,1,30.33,38.82Z"/><path class="cls-48" d="M34.06,82.34c.4,1.24.37,2.62,1.21,3.72.11.15.26.42.2.54-.67,1.23.36,2.53-.17,3.76H27.85c-1.92-2.37-1.08-5.46-2-8.13-.29-.84,1.45-2.16.76-3.63h6.22c.44,1.24.3,2.66,1.24,3.73Z"/><path class="cls-49" d="M26.6,78.6c.64.77,1.61,1.31,1.69,2.46-.32.47-.77.11-1.13.22-.91.27-1.28,1.13-.6,1.53,1.36.8,1.13,1.78.68,2.9a1.88,1.88,0,0,0,.51,2.46c.87.67.54,1.44.1,2.19l-6.87,0c-.2-.4,0-.71.24-1a4.31,4.31,0,0,1,1.68-1.43l.6-.62c.23-.19.39-.44.6-.64,0-.2,0-.41,0-.61.37-1.06.67-2.57.21-3-.65-.67-.18-1.54-.65-2.15-.85.22-1.12,1.29-2.05,1.27-.25-.13-.3-.32-.12-.52.47-.54,1-1.05,1.45-1.59s.07-1-.08-1.43Z"/><path class="cls-50" d="M21.6,89.77l-.62.61h-6.2c-.59-.73-2.16-1-1.23-2.46l.62-1.23h0a7.25,7.25,0,0,0,.62-.62h0c.78-.26.85.27.93.8,0,.07-.27.22,0,.21s.34-.16.55-.2C18.05,87.86,20.75,87.12,21.6,89.77Z"/><path class="cls-51" d="M13.55,87.92a1.54,1.54,0,0,0,.6,1.24,1.52,1.52,0,0,1,.63,1.22,22.76,22.76,0,0,1-4.95,0l2.48-1.87c.18-.23.45-.37.63-.6Z"/><path class="cls-52" d="M28.47,50q0,4.45,0,8.92c0,.8.14,1.66-.6,2.28-1.12.65-.75,2-1.32,2.87-.36.56-.6,1.44-1.52.61a3.54,3.54,0,0,1-.42-1.78,15.07,15.07,0,0,0-.59-9c-.64-1.64.37-3.42.11-5.15-.22-2.18.43-4.23.87-6.31,1.58.46,1.73.57,1.39,1.68a7.89,7.89,0,0,0-.4,2.4c0,.64,0,1.21.85,1.36.17,0,.4.53.35.76C27,49.75,28.14,49.49,28.47,50Z"/><path class="cls-53" d="M24.12,48.77A1.89,1.89,0,0,1,24.65,51c-.39,1.25-.69,2.38.54,3.32.28,2.39,1.46,4.74.36,7.22a5.32,5.32,0,0,0-.19,1.52,3.67,3.67,0,0,1-2.09-4.36c.23-1.3.65-2.57-.39-3.72,0-1.07.8-2,.61-3.12,0-.62,0-1.24,0-1.85.38-.33.26-.91.62-1.25Z"/><path class="cls-52" d="M24.12,48.77A1.3,1.3,0,0,1,23.5,50,1.27,1.27,0,0,1,24.12,48.77Z"/><path class="cls-54" d="M29.09,2.77v5c0,1,0,1-.87,2.56-.77-.69,0-1.78-.64-2.6-.16.24-.34.39-.32.51.62,3.12-1.38,5.24-2.87,7.54a.56.56,0,0,1-.79.2,2.94,2.94,0,0,0-.53-.19c-.7,1.82-2.68,2-3.94,3.12A2.13,2.13,0,0,1,16,19l-3.66,0c0-.64,0-1.28,0-1.93,2,.09,3.8-.61,5.7-.91,1-.17,1.09-1.54,2.16-1.54A4.76,4.76,0,0,0,22.83,14c.6-.4,1.17-.82,1.77-1.22a1.72,1.72,0,0,0,.75-1.27c.19-1.21.41-2.41.65-3.61a2.32,2.32,0,0,1,.41-1.11c.62-.63,1.51-1.06,2-1.77S28.24,3.34,29.09,2.77Z"/><path class="cls-55" d="M18.6,2.19a.75.75,0,0,1,.42.07c.05,2.38.11,4.76.15,7.14,0,.86.36,1.38,1.29,1.35.7,0,1.41,0,2.1.13.24,0,.61.29.64.49.09.48-.28.72-.72.72-1.31,0-2.62-.05-3.92-.07,0-2.46-.07-4.92-.11-7.38A1.7,1.7,0,0,1,18.6,2.19Z"/><path class="cls-14" d="M20.83,13.1c0-.08.06-.22.09-.22a1,1,0,0,1,.26.08c0,.08-.05.22-.08.22A.92.92,0,0,1,20.83,13.1Z"/><path class="cls-56" d="M16,106l-.46-.4c-.88-.8-1-.89-1.67-.12s-.69.64-1.15-.14a2,2,0,0,0-2.4-.7c-.48.17-.83.49-1.3-.08a1.66,1.66,0,0,0-2.42-.27c-.48.28-.66-.65-1.15-.78a23.23,23.23,0,0,1,1.23-2.11c.21-.31.73-.72,1-.64,1.27.43,1.89-.47,2.65-1.11a.58.58,0,0,1,.82,0,.59.59,0,0,1,.08.81,6,6,0,0,0-.52.76c-.07.14,0,.36.06.55.69.08,1-.68,1.56-.79h0c.07.36,0,1,.55.79s1.16-.68,1.47.43c.12.43.46,0,.58-.24.45-.83,1.07-.7,1.75-.35C16.74,103.1,15.77,104.45,16,106Z"/><path class="cls-56" d="M12.31,101c0-.08.11-.25.14-.24.2.05.15.14-.15.24Z"/><path class="cls-27" d="M26.6,95.39a1.45,1.45,0,0,1,.14-.25c.21,0,.16.15-.14.25Z"/><path class="cls-27" d="M26.6,96H26l.62-.62h0Z"/><path class="cls-57" d="M22.88,55c.41,0,.89.1,1.05.51a4.22,4.22,0,0,1,.43,2.06c-.13,1-1.19,2-.32,2.85s.35,2.06,1.32,2.66v1.86c.75.73,1.69,1.33,1.87,2.49l-.09,6.77H25.35c-.79-.78-.72-1.9-1.14-2.82-.51-1.13.38-3.06-2.13-3.22-.75,0-.51-2.22-.23-3.42.36-1.58,1.18-3.1.42-4.77V58.72a2.58,2.58,0,0,0,.61-1.25Z"/><path class="cls-58" d="M22.27,60c1.08,1.27.71,2.74.34,4.07a12.28,12.28,0,0,0-.3,3.95c.81,0,.39-.8.82-1.2,2,2.11,2.14,4.75,2.22,7.41H22.87c-1.23-1.65-1.2-3.71-1.86-5.55v-3.1c.4-.33.24-.92.61-1.25C21.55,62.82,22.51,61.49,22.27,60Z"/><path class="cls-59" d="M21,68.66a6.72,6.72,0,0,1,1.86,5.55l-3.09,0a5.35,5.35,0,0,0,.61-3.09c.59-.5.06-1.36.61-1.87C21,69.07,21,68.87,21,68.66Z"/><path class="cls-60" d="M18.6,2.19l-.15,2.45a2.11,2.11,0,0,0-.55,1.71c0,1.35,0,2.7,0,4,0,.33-.16.57-.53.56s-.57-1-1.13-.69c-.4.22-.22,1-.78,1.25a.56.56,0,0,1-.52-.09,1,1,0,0,1-.13-.59c0-1.24,0-2.48,0-3.72a5.71,5.71,0,0,1,.47-.39c1.3-.85,2.37-1.78,2.08-3.61-.12-.76.51-1.28,1.24-1.56C18.59,1.76,18.6,2,18.6,2.19Z"/><path class="cls-38" d="M21,99.12a2.19,2.19,0,0,1-1.24,2.49h0A3.32,3.32,0,0,1,21,99.12Z"/><path class="cls-38" d="M21.63,102.85c0,.51,0,1-.05,1.54,0,.11-.21.2-.32.31a2,2,0,0,1-.22-.53,1.31,1.31,0,0,1,.59-1.32Z"/><path class="cls-38" d="M19.77,101.61c0,.19,0,.38-.07.57s-.12.22-.16.22c-.25,0-.34-.21-.2-.42a2,2,0,0,1,.43-.37Z"/><path class="cls-58" d="M21,69.28c0,.68.12,1.42-.61,1.87C20.41,70.46,20.28,69.73,21,69.28Z"/><path class="cls-61" d="M40.88,18.9A19.4,19.4,0,0,0,47,14.37a2.62,2.62,0,0,0,.73-1.65c.72-.46.61-1.18.62-1.87L49,9c.55-.43,1.19-.8,1.67-1.23s.58-1.27,1.45-1.35S53,5.25,53.86,5.32V18.9l-.55.05Z"/><path class="cls-62" d="M23.5,20.79h8.09l20.51,0c-.71.86-1.69.61-2.59.61-4.34,0-8.67,0-13,0h-13c-.22-.14-.29-.27-.22-.41S23.43,20.79,23.5,20.79Z"/><path class="cls-53" d="M22.87,57.47c.77.89-.23.92-.61,1.25A1.28,1.28,0,0,1,22.87,57.47Z"/><path class="cls-18" d="M21.62,64.31A1.28,1.28,0,0,1,21,65.56,1.29,1.29,0,0,1,21.62,64.31Z"/><path class="cls-28" d="M21.6,89.77a2.15,2.15,0,0,0-.18-.24,4.94,4.94,0,0,0-3.06-1c-1.07-.1-1.66-1.52-2.95-1.18h0a1.29,1.29,0,0,0-.62-1.25,11,11,0,0,1,1-1.19c.19-.18.69-.36.8-.26,1.09,1,2.87.61,3.73,2,.61,1,1.71,1,2.63,1.36C22.51,88.58,22.34,89.38,21.6,89.77Z"/><path class="cls-19" d="M16.66,81.09a1.45,1.45,0,0,1-.14.25c-.21,0-.16-.14.14-.25Z"/><path class="cls-19" d="M19.14,84.2c0,.09-.11.25-.14.25-.2,0-.15-.15.14-.25Z"/><path class="cls-28" d="M14.79,86.07l-.62.62Z"/><path class="cls-19" d="M24.1,86.68l-.6.64Z"/><path class="cls-63" d="M23.5,20.79c0,.21,0,.41,0,.62-2.89.34-5.69-.46-8.53-.67a1.35,1.35,0,0,1-.57-.23c-.16-.11-.35-.28-.37-.45s.19-.36.34-.4c.57-.18,1.25-.08,1.64-.68l3.11-.11,4.38.1C23.69,19.58,22.76,20.18,23.5,20.79Z"/><path class="cls-50" d="M12.94,88l-.63.6Z"/><path class="cls-48" d="M34.06,82.34a6.12,6.12,0,0,1,0-.86,1,1,0,0,1,.21-.47c.36.1.37.42.26.67a2.85,2.85,0,0,1-.51.66Z"/><path class="cls-53" d="M27.23,67.42c-.65-.42-1-1.17-1.87-1.39-.63-.15-.48-.72,0-1.1,1-.87.52-2.28,1.19-3.27a6.76,6.76,0,0,0,.3-.83c.13-.26.36-.56.66-.36s.24.49.35.75c0,1.2-.05,2.4,0,3.6A5.09,5.09,0,0,1,27.23,67.42Z"/><path class="cls-28" d="M15.41,87.31c0,.08-.11.25-.14.24-.2,0-.15-.14.14-.24Z"/></g></g></g></svg>