<svg xmlns="http://www.w3.org/2000/svg" viewBox="0 0 65.89 108.47"><defs><style>.cls-1{fill:#444545;}.cls-2{fill:#414141;}.cls-3{fill:#5f5f5f;}.cls-4{fill:#565858;}.cls-5{fill:#444;}.cls-6{fill:#484848;}.cls-7{fill:#787878;}.cls-8{fill:#5e5e5e;}.cls-9{fill:#414040;}.cls-10{fill:#686868;}.cls-11{fill:#232323;}.cls-12{fill:#6c6d6d;}.cls-13{fill:#353232;}.cls-14{fill:#898989;}.cls-15{fill:#858585;}.cls-16{fill:#919191;}.cls-17{fill:#848585;}.cls-18{fill:#8e8e8e;}.cls-19{fill:#898787;}.cls-20{fill:#818181;}.cls-21{fill:#757373;}.cls-22{fill:#373636;}.cls-23{fill:#4d4545;}.cls-24{fill:#4a4242;}.cls-25{fill:#575a5a;}.cls-26{fill:#555353;}.cls-27{fill:#514e4e;}.cls-28{fill:#3d3c3c;}.cls-29{fill:#626262;}.cls-30{fill:#636262;}.cls-31{fill:#a9a5a5;}.cls-32{fill:#666464;}.cls-33{fill:#4c4444;}.cls-34{fill:#6e6d6d;}.cls-35{fill:#9e9d9d;}.cls-36{fill:#636363;}.cls-37{fill:#747575;}.cls-38{fill:#606060;}.cls-39{fill:#6d6d6d;}.cls-40{fill:#8b8c8c;}.cls-41{fill:gray;}.cls-42{fill:#949494;}.cls-43{fill:#676767;}.cls-44{fill:#6e6f6f;}.cls-45{fill:#787979;}.cls-46{fill:#6f7070;}.cls-47{fill:#494545;}.cls-48{fill:#807f7f;}.cls-49{fill:#9b9a9a;}.cls-50{fill:#999b9b;}.cls-51{fill:#a3a7a7;}.cls-52{fill:#3a4242;}</style></defs><g id="Layer_2" data-name="Layer 2"><g id="Layer_1-2" data-name="Layer 1"><g id="rock_black" data-name="rock black"><path class="cls-1" d="M45.44,23.23c-.52.31-1.07.6-1.57.95a5.22,5.22,0,0,0-2.27,3.89,13.56,13.56,0,0,0,.16,4q3.56,19.69,7.1,39.39c.14.81.18,1.64.26,2.46-1.57,3-4.29,1.25-6.48,1.47-1.74.17-2.35-1.31-2.67-2.82-.77-3.61-.9-7.31-1.56-10.94-1-10-2.28-20.06-2.8-30.15-.09-1.74-.69-3.43-.5-5.21a4.59,4.59,0,0,1,1.56-3.56C39.63,22.18,42.61,21.46,45.44,23.23Z"/><path class="cls-2" d="M57.7,97.07a1.68,1.68,0,0,0,1,.58,10,10,0,0,1,7.15,9.71c0,.58-.2,1-.86,1s-1.23,0-1.85,0l-39,0c-.82,0-1.64-.09-2.47-.14.23-1.71,1.75-1.5,2.82-1.76A74.56,74.56,0,0,0,40,101.23a9.32,9.32,0,0,0,3.63-2.67c-8.76,0-17.14,0-25.52,0a43.18,43.18,0,0,1-7.37-.09c-1.14-.13-2.7-.1-2.13-2.09l0,0a5.53,5.53,0,0,1,3.82-1q20.45,0,40.89,0C54.92,95.47,56.68,95.3,57.7,97.07Z"/><path class="cls-3" d="M18.55,97.72l26.62.08c.07,0,.14.11.31.26a4,4,0,0,1-1.76,2,37.32,37.32,0,0,1-9.44,4.53,61.16,61.16,0,0,1-11.88,3.2c-.27,0-.49.35-.74.53a20.52,20.52,0,0,1-5.59,0,3.68,3.68,0,0,1-.76-2.86,24.19,24.19,0,0,1,.85-3.77A10.3,10.3,0,0,1,18.55,97.72Z"/><path class="cls-4" d="M57.7,97.07c-1.21-.8-2.57-.62-3.91-.62H12c-1.14,0-2.27,0-3.41,0a1.58,1.58,0,0,1,.7-1.61,1.26,1.26,0,0,0,.48-1.34c1.62-.87,3.35-.24,5-.39,12.26-.08,24.52-.06,36.77,0,1.51,0,3.14-.34,4.38,1C56.79,94.88,58,95.55,57.7,97.07Z"/><path class="cls-5" d="M50.32,77.91A2.42,2.42,0,0,0,50.6,80a27,27,0,0,0,8.19,10c.93.68.9.72-.36,1.67-3.85-.83-7.75-.36-11.63-.49a1.64,1.64,0,0,1-.8-.62,23.31,23.31,0,0,1-3.51-9.2c-.18-1.1-.57-2.26.46-3.2A12.12,12.12,0,0,1,50.32,77.91Z"/><path class="cls-6" d="M54.08,19a.86.86,0,0,1-.72.87c-3.68-.64-7.44.2-11.11-.56-1.76-1-.32-1.66.37-2.18a18.1,18.1,0,0,0,4.53-4.54,8.85,8.85,0,0,0,.67-1.55,26,26,0,0,0,.74-2.89A16.75,16.75,0,0,1,49.4,5.5a3.83,3.83,0,0,1,.68-.77,5.23,5.23,0,0,1,2.31-1.48c1.2-.38,2-.18,1.92,1.36C54.14,9.41,54.59,14.22,54.08,19Z"/><path class="cls-7" d="M24.1,34.15c.13-1.21.19-2.44.4-3.64a8.13,8.13,0,0,0-.43-3.92c-.57-1.83-2.06-2.7-3.69-3.39.76-1,1.8-.84,2.85-.72,1.56.61,3.26.24,4.84.73a1.91,1.91,0,0,1,.78.56c2.39,4.28,2.35,9,2.32,13.67A8.57,8.57,0,0,1,31,38.88c-.79,1.73.22,3.94-1.42,5.45C28,44,27.94,42.67,27.89,41.48a10.33,10.33,0,0,0-1.23-4.78,13.52,13.52,0,0,0-1.06,4.43c0,.74-.05,1.47-.14,2.21a6.52,6.52,0,0,1-.18.9,17,17,0,0,0-.42,1.88c-.27.57-.21,1.5-1.29,1.22-1.22-1.09-.83-2.53-.59-3.77C23.56,40.45,23.68,37.29,24.1,34.15Z"/><path class="cls-8" d="M39.09,61.63c.17.25.49.5.49.75-.08,2.26.56,4.44.77,6.68.14,1.61.47,3.22.77,4.82.05.25.36.62.57.63,2.41.09,4.86.66,7.22-.34.09,0,.14-.15.21-.23.61.37,1.23.71,1.81,1.13a1.62,1.62,0,0,1,.62,1.34,1.18,1.18,0,0,1-.68,1.24,4.16,4.16,0,0,0-1-.58c-10.12-.37-20.24,0-30.36-.18-1.63,0-3.35.29-4.73-1,0-.86.51-1.15,1.24-1.28.3-.15.62-.28.93-.4,2.62-.89,5.38.06,8-.66a7,7,0,0,1,1-.21,11,11,0,0,1,1.51-.12c1.32,0,2.64,0,3.95,0,.63,0,1.25,0,1.87,0,1.13,0,2.25.09,3.6,0-.36-2.19-2-4.48.31-6.44C35.63,64.3,37.1,62.87,39.09,61.63Z"/><path class="cls-9" d="M14.81,75.92l32.45,0A23.24,23.24,0,0,1,50,76c.6.07.76.61.75,1.16-.14.23-.29.46-.44.68l0,0a8.39,8.39,0,0,1-3.58.52c-1.32,0-2.64,0-4,0-2.54,1.69-5.39.7-8.1.93a29.67,29.67,0,0,1-4-.05c-1.5.11-3,0-4.49,0-1.26.08-2.52,0-3.78,0A21.48,21.48,0,0,1,17.16,79c-.66-.25-1.06-.9-1.73-1.13C14.67,77.39,14.33,76.79,14.81,75.92Z"/><path class="cls-10" d="M42.24,5.69c0,1,.14,1.95.14,2.92a3.41,3.41,0,0,0,.53,2,3.4,3.4,0,0,1-.25,1.54,1.73,1.73,0,0,1-.52.59c-2.75,2.69-6.5,4-9.29,6.66a10.68,10.68,0,0,1-5.21-.12c-1.44-2.53-.22-4.45,3.71-5.8C31,12.72,29,13.29,30,11.57c1.6-.69,3.31,0,4.93-.37.94-.32.95-1.27,1.33-2,.16-.38.42-.7.56-1.08C37.86,5.27,39.08,4.72,42.24,5.69Z"/><path class="cls-11" d="M55.94,94,14.22,94c-.49-2.25,1.31-2,2.48-2.1,9.47-1.1,19-.53,28.48-.58,2.88,0,5.77-.29,8.66-.07,1.24.09,2.8-.34,3.29,1.5l-.06,0a6.77,6.77,0,0,1-.56.51Z"/><path class="cls-12" d="M18.55,97.72a6.93,6.93,0,0,1-1.84,3.7,4.58,4.58,0,0,1-3.85,0c-3.06-1.27-4.74-.68-6.59,2.4-.81,1.54-1,3.43-2.62,4.49-4.53.42-3.92-.28-3-3.71s2.79-6,6.36-6.86c.84-.2,1.06-.86,1.56-1.32a1.53,1.53,0,0,0,1.76,1.29C13.06,97.66,15.81,97.7,18.55,97.72Z"/><path class="cls-13" d="M57.13,92.7a2,2,0,0,0-1.68-.59H24a16.63,16.63,0,0,0-4,.39,20.43,20.43,0,0,1-4.3.23c-.84,0-1.37.34-1.47,1.22a9.62,9.62,0,0,1-4.45-.47v-.06c-.09-.32-.24-.57-.63-.55l-.08-.07c0-.58.3-1.12.82-1.15,2.67-.18,5-1.74,7.74-1.7,8.36.1,16.73,0,25.09,0,1.33,0,2.72-.15,3.84.84a8.83,8.83,0,0,1,2-.56c2.32-.07,4.65,0,7,0a3.38,3.38,0,0,1,2.9,1.35A2.12,2.12,0,0,1,57.13,92.7Z"/><path class="cls-14" d="M12.27,19.46a1.11,1.11,0,0,1-.57-1q0-7.83,0-15.67a1.3,1.3,0,0,1,1.19-1.5c4-.65,2.34,2.49,2.8,4.21.08,1.41-.33,2.85.12,4.33,1.41,0,1.23-1.05,1.47-1.89s0-2.15,1.57-1.44c.83,1.41.39,3,.58,4.45a4.31,4.31,0,0,0,.63,1.59,1.75,1.75,0,0,1,.05.85c-1.44,1.78-3.17,3-5.52,2-1-.43-1,.27-1.22.75-.38.86-.21,1.84-.54,2.71A1.36,1.36,0,0,1,12.27,19.46Z"/><path class="cls-15" d="M24.1,34.15c0,2,0,4.08.06,6.12a12.67,12.67,0,0,1-.38,2.39c-.27,1.57-.76,3.2.38,4.68,1.08,1.2.14,2.54.24,3.81-.34,2.71-.81,5.41-1.31,8.1a5.74,5.74,0,0,1-.21.89,11.12,11.12,0,0,0-.56,2.57,6.82,6.82,0,0,1-.2.87c-.33.84-.36,1.82-1.06,2.51a1,1,0,0,1-.88-.33c-.85-3.51.19-7,.19-10.48-.14-2,.49-3.86.79-5.77.76-4.76,1.63-9.5,2.48-14.24A5.63,5.63,0,0,1,24.1,34.15Z"/><path class="cls-16" d="M20.37,55.28a15.68,15.68,0,0,0,.48,3.64,5.68,5.68,0,0,1-.17,3.61c-.34,1.14-.65,2.41.37,3.46s.75,2.29.47,3.45c-.56,2.35-.41,4.07,2.65,4a1.57,1.57,0,0,1,1.29.71,2.54,2.54,0,0,1-2,.54l-6.75.06c-.15-.13-.2-.26-.14-.39s.1-.2.15-.2l0-.05c.5-.56.06-1.37.54-1.94.08-3.09,1-6,1.41-9.09.31-2.23.77-4.44,1.2-6.65A5.6,5.6,0,0,1,20.37,55.28Z"/><path class="cls-17" d="M3.65,108.29q.95-2.49,1.87-5a12.44,12.44,0,0,1,7.29,1.11c1.12.52,2.63-1.24,3.26.75v3.11Z"/><path class="cls-18" d="M7.36,90.2a86.83,86.83,0,0,0,6.26-6.75,1.38,1.38,0,0,1,.93,1.85c0,.23-.26.23-.29.42.32-.07.26-.43.45-.6.92-1.26,2.07-1.11,3.26-.52,1.91.94,4,1.63,5.23,3.53a2.09,2.09,0,0,1-1.31,2.2,1.25,1.25,0,0,1-.85.08c-2.58-.6-4.76-3.09-7.77-1.61-1.18.32-.82,1.36-1,2.15A4.28,4.28,0,0,1,7.36,90.2Z"/><path class="cls-19" d="M19.93,3c.7,1.25.28,2.61.38,3.93,0,.51,0,1,0,1.54.07,1.48.39,1.76,1.88,1.69.92,0,1.31-.37,1.35-1.29.07-1.64.07-3.29.09-4.93,0-.62,0-1.23,0-1.85A1.64,1.64,0,0,1,25.07.36c1.6-.41,3.22-.65,4.74.3,0,.15,0,.3-.08.44a18.49,18.49,0,0,0-3.8,9.66c-.2,2.24-2,.81-3.19.8-1.2-.16-2.53.06-3.33-1.21C19.51,7.91,18.11,5.35,19.93,3Z"/><path class="cls-20" d="M14.22,85.88a4.07,4.07,0,0,0-.6-2.43c.67-1.32,1.31-2.66,2-4,.38-.66,0-1.11-.23-1.64a1.28,1.28,0,0,1,1.3.49,7.74,7.74,0,0,1,1.21,1.7c1.14,1.56,1.74,3.71,4.41,3.67,1.12,0,1.61,1.39,2.15,2.36,0,1.13,0,2.25-1.59,2.28a38.56,38.56,0,0,0-5.18-3.1c-1.08-.57-1.85-.71-2.74.13a4.37,4.37,0,0,1-.77.49Z"/><path class="cls-21" d="M42.24,5.69c-.6-.09-1.2.49-1.77.12-1-.62-.67.24-.78.61-.33,1.11-.5.35-.74,0-.09-.16-.28-.36-.43-.37a.58.58,0,0,0-.6.55c-.15,1.09,0,2.32-1.31,2.85-1.72-2.57-.68-5.41-.78-8.15.28-.29.5-.73.84-.84A7.71,7.71,0,0,1,41.23.35a1.37,1.37,0,0,1,1.11,1.33A16.31,16.31,0,0,1,42.24,5.69Z"/><path class="cls-22" d="M41.55,18.72c3.41,0,6.83,0,10.25,0,.81,0,1.42.23,1.56,1.13l-.58.75a2.7,2.7,0,0,1-1,.63c-5.56.46-11.12.18-16.68.16-1.1,0-2.37-.07-2.47-1.69,2.13-2.14,5-.7,7.37-1.44A1.86,1.86,0,0,1,41.55,18.72Z"/><path class="cls-23" d="M21,90.16l.64,0a8.52,8.52,0,0,1,5-.82c1.92-.09,3.84-.09,5.76,0,3.52-.16,7.05-.06,10.57-.06a5,5,0,0,1,3.52.94v.62q-15.12,0-30.23.08c-.93,0-2-.46-2.64.92-.21.49-1.14.23-1.74.27-1,.05-2.09-.22-2.88.7a5.31,5.31,0,0,1-1.92-1.46c-.5-.44-.38-.87.23-1.14l3,.47a2.47,2.47,0,0,0,2.06-.35c1-1.19,2.41-.81,3.68-1C17.76,89.61,19.49,89.26,21,90.16Z"/><path class="cls-24" d="M53.31,21.86c.2.58.15,1-.59,1.1-5.95-.14-11.89-.51-17.85.28-3.67.49-7.4-.09-11.1-.33A19.25,19.25,0,0,0,18,23c-1.44,0-2.88.07-4.32,0-.26,0-.51-.28-.77-.42C13.19,20.45,15,21,16.26,21c5.88,0,11.76-.15,17.65.15,5.26.26,10.53,0,15.8.06C50.94,21.25,52.21,21.08,53.31,21.86Z"/><path class="cls-25" d="M53.31,21.86H16.6c-.82,0-1.64,0-2.47,0a1.58,1.58,0,0,0-1.27.76.8.8,0,0,1-.07-1.26c.38-.46.21-.91.11-1.38,3-.2,6,.64,9.07.33,2.84-.07,5.69,0,8.53,0a107.19,107.19,0,0,0,21.64.26l.64,0Z"/><path class="cls-26" d="M21.69,21.23c-1,0-2-.06-3,0A9.62,9.62,0,0,1,12.9,20a.75.75,0,0,1-.63-.56l.13-.62c1.41-1.34,3.17-.95,4.84-1,2,0,4-.11,6,0a4.73,4.73,0,0,1,2.53.53c.79,1.19-.28,1.38-1,1.6A8.14,8.14,0,0,0,21.69,21.23Z"/><path class="cls-27" d="M54.08,19V4.13c-.85-.79-1.34-.16-1.88,0-1,.25-1.37,1.59-2.55,1.58a3,3,0,0,1-.33-3.89c.87-1.33,2.32-.73,3.58-.55a1.32,1.32,0,0,1,1.4,1,3.41,3.41,0,0,1,.1.9c0,4.92,0,9.83,0,14.74A4.46,4.46,0,0,1,54.08,19Z"/><path class="cls-28" d="M18,23c.75-.79,1.74-.54,2.64-.54,5.06,0,10.13,0,15.2,0,4.75,0,9.51,0,14.27,0,.9,0,1.88-.26,2.66.47l-7.28.27-8.9-.09c-2.58,1.4-5.24.94-7.9.37-1.68-.36-3.43.23-5.09-.36l-3.18.05Z"/><path class="cls-29" d="M52.9,1.25c-.5,0-1,.05-1.52.11-1.52.15-1.66.28-1.72,1.89,0,.81,0,1.63,0,2.44h0c-.7.71,0,1.77-.61,2.49a5.32,5.32,0,0,1-.65,3.1c-1.64-.21-1.39-1.59-1.46-2.61A46.64,46.64,0,0,1,47,1.88c.24-.3.42-.82.71-.88C49.45.6,51.22.25,52.9,1.25Z"/><path class="cls-8" d="M47,1.88a1.93,1.93,0,0,1,.78,1.89c0,1.85,0,3.69,0,5.54,0,.72-.06,1.46.6,2a1.26,1.26,0,0,1-.6,1.25.92.92,0,0,1-1.11.22,5.93,5.93,0,0,1-.91-2.22A30.43,30.43,0,0,0,46,4.65C46,3.59,46,2.57,47,1.88Z"/><path class="cls-30" d="M35.83,1.25A2,2,0,0,1,36.6,3.1c0,2.1,0,4.2,0,6.3-.12.86.29,1.86-.65,2.5-.45-.47-1.33-.52-1.39-1.39A41.62,41.62,0,0,0,34.74,4,3.11,3.11,0,0,1,35.83,1.25Z"/><path class="cls-31" d="M14.85,6.3c0-1.11,0-2.21,0-3.32-.05-1.29-.08-1.29-1.91-1.7a6.23,6.23,0,0,1,5.67,0v.47C17.86,3.68,18.7,6.89,14.85,6.3Z"/><path class="cls-24" d="M34.57,10.51A2.73,2.73,0,0,1,36,11.9l-6.18-.05c-1.41-1.56-.68-3.47-.88-5.23a14.65,14.65,0,0,1,.38-4.18A1.13,1.13,0,0,1,30,1.78c1.45,1,.79,2.56,1,3.89.28,1.62-.79,3.46.76,4.88Z"/><path class="cls-32" d="M31.77,10.55c-1.28.3-1.37.27-1.38-.68,0-2,0-3.93,0-5.89,0-.72.07-1.46-.59-2a.58.58,0,0,1-.2-.47c0-.17.05-.26.09-.26a.55.55,0,0,1,.73.05A3.89,3.89,0,0,1,31.5,4.4C31.55,6.45,31.21,8.52,31.77,10.55Z"/><path class="cls-33" d="M45.77,10.53c1.18.8,1.18.8.76,2a2.68,2.68,0,0,1-2.78.54,3.21,3.21,0,0,1-1.54-1.18,1.48,1.48,0,0,1,.7-1.32Z"/><path class="cls-34" d="M19.93,3a62,62,0,0,0-.09,7.59,1.79,1.79,0,0,1-.57,0c-.19-2.77-1.38-5.48-.45-8.3l.4-.4A1.38,1.38,0,0,1,19.93,3Z"/><path class="cls-35" d="M17.29,72.13c.05.71.17,1.44-.54,1.94A2.57,2.57,0,0,1,17.29,72.13Z"/><path class="cls-34" d="M18.57,1.25a.76.76,0,0,1,.65.68L19,2.16A.58.58,0,0,1,18.4,2a.47.47,0,0,1,.24-.54Z"/><path class="cls-19" d="M30.41,1.31h-.65q-.26-.13-.21-.3c0-.13.08-.19.13-.19l.13-.17A.68.68,0,0,1,30.41,1.31Z"/><path class="cls-13" d="M56.51,93.26a.61.61,0,0,1,.56-.51A.5.5,0,0,1,56.51,93.26Z"/><path class="cls-23" d="M9.13,92.87a.61.61,0,0,1,.63.55A.59.59,0,0,1,9.13,92.87Z"/><path class="cls-5" d="M50.34,77.88l.45-.68a3.54,3.54,0,0,0,.08.45A.42.42,0,0,1,50.34,77.88Z"/><path class="cls-35" d="M16.72,74.12c0,.2,0,.39,0,.59l-.66-.07Z"/><path class="cls-36" d="M28.51,23.15h8a12.34,12.34,0,0,0-.1,7.27,1.86,1.86,0,0,1,.1.61c-.23,3.3.57,6.54.67,9.82a10.11,10.11,0,0,0,.38,3,6.21,6.21,0,0,1,.23,1.83c.06,1.95-.14,3.92.59,5.8-.26,3.4,1,6.71.67,10.12A13.23,13.23,0,0,1,39,63.17c-.1.68-.49.81-1.08.47a2.38,2.38,0,0,0-.57-.14,3.94,3.94,0,0,0,.24,2.7,3,3,0,0,1,.14,2.1c-.12.38-.44,0-.55-.2s-.24-.31-.58-.2c.08,2.11.15,4.22,2.48,5.94a35,35,0,0,1-5.61.22c-1-1.11-.93-2.5-.84-3.82.62-9,.28-17.93.07-26.9-.14-5.51.71-11,.21-16.57-.15-1.77-.9-2.36-2.51-2.22a3.28,3.28,0,0,1-1.89-.82v0c-.2-.12-.27-.25-.2-.37S28.44,23.15,28.51,23.15Z"/><path class="cls-37" d="M16.07,105.16c-.87-.53-1.7-.73-2.35.32-.32.52-.54.44-.79-.08a1.92,1.92,0,0,0-2.53-1c-.49.13-.83.49-1.31-.08a1.67,1.67,0,0,0-2.42-.28c-.48.29-.66-.64-1.15-.77.44-.68.87-1.38,1.33-2,.17-.24.5-.66.62-.62,1.58.58,2.26-1.17,3.52-1.31a1.55,1.55,0,0,1,.85.32,7,7,0,0,0,4,1.47,4.76,4.76,0,0,1,.87.31C16.9,102.74,16.28,103.91,16.07,105.16Z"/><path class="cls-3" d="M46.53,90.21H32.23c-1.85-3.72-1.51-7.79-1.85-11.75h12.4a41.89,41.89,0,0,0,1.57,6.8,12.27,12.27,0,0,0,1.82,3.83A3.06,3.06,0,0,1,46.53,90.21Z"/><path class="cls-38" d="M43.45,12.52h4.34a2.86,2.86,0,0,1-.9,1.85,23.47,23.47,0,0,1-5.34,4.34l-1.22.05a16.31,16.31,0,0,1-6.85-.05c.16-.36.23-.86.51-1.06a4.07,4.07,0,0,0,2-2.54c0-.25.27-.42.44-.27,1,.81,1.56.12,2.34-.43,1.72-1.22,1.76-1.16,2.43-2.62l.94.73A.87.87,0,0,1,43.45,12.52Z"/><path class="cls-27" d="M49,8.18c.07-.86-.29-1.83.61-2.49C49.57,6.55,49.93,7.52,49,8.18Z"/><path class="cls-10" d="M30.38,23.72c.62,0,1.24,0,1.86,0,1.73.08,1.79.13,1.46,2.06a2.4,2.4,0,0,0,0,1.5c.44.87.15,1.89.52,2.71A2.82,2.82,0,0,1,34,32.65a3.73,3.73,0,0,0-.19,3.84c.89,1.3.43,2.21,0,3.41a15.18,15.18,0,0,0-.15,7,4.57,4.57,0,0,1,0,2.69,3.54,3.54,0,0,0-.06,2.14,23.81,23.81,0,0,1,0,9.77c0,.2-.14.45-.07.61.91,2,0,4,0,6s0,3.92,0,5.88H31.62a2.17,2.17,0,0,1-.68-1.36c0-3.92-1.36-7.62-1.82-11.44-.29-2.49,1.44-4.84,1.22-7.51-.41-5,.2-10.07,0-15.11V37.4c1.34-3.22-.23-6.46.09-9.7C30.6,26.39,30.06,25.06,30.38,23.72Z"/><path class="cls-39" d="M30.38,38.64a3.14,3.14,0,0,1,.93,3.3,26.21,26.21,0,0,0-.06,8.88c.08.6.4,1.17.18,1.8a8.8,8.8,0,0,0-.08,5.44c.09.32,0,.75-.25.77-2.37.22-1,2-1.26,3.06a.87.87,0,0,0,.42.74c1.51.48,1.13,1.39.63,2.39a8.8,8.8,0,0,0-.48,1.45c-.09.34-.08.39.83.76.38.15.38.37.38.65v6.18H27.24c-1.27-1.68-.79-3.57-.64-5.42.8-2.29.16-4.71.66-7,.87-3,0-6.21.61-9.27a15.09,15.09,0,0,0,.37-4.92c0-1.13,0-2.3.9-3.18.75-.57.62-1.39.61-2.17A5.91,5.91,0,0,1,30.38,38.64Z"/><path class="cls-40" d="M27.91,61.66c0,1.73,0,3.46,0,5.19a2,2,0,0,1-.59,1.66c-1.58-2-.39-4.07-.4-5.77.31-.41.14-.42,0-.21-.52.89.19,2.86-1.27,2.67s-1.21-2.08-.95-3.21c.87-3.8-.54-7.3-1.13-10.9.2-1.25.4-2.5.61-3.75,0-.62,0-1.24,0-1.86.39-.32.23-.92.61-1.25v-.62c2.63,1.94,1.23,4.62,1,6.91-.11,1.19-.18,1.11.86,1,.87,0,1.15.76,1.19,1.52C28,56,28.62,58.8,27.91,61.66Z"/><path class="cls-41" d="M29.14,44.24c0,2,0,4.09,0,6.13a2.2,2.2,0,0,1-.61,2c-.9-1.47-1.17-3.24-2.4-4.56a2.37,2.37,0,0,1-.24-2.64c.87-1.75.14-2.91-1.09-4,0-1.64.81-3.16.72-4.82,0-.32.36-.7.64-1a.59.59,0,0,1,.82,0,1,1,0,0,1,.37.47C27.76,37.51,29,39,28.54,41,28.27,42.13,29.05,43.13,29.14,44.24Z"/><path class="cls-15" d="M24.79,41.13l.57-.25c.55-.26,1.05-.21,1.2.43.2.88.07,1.79.89,2.53.63.56.5.7-.65,1.22a1.1,1.1,0,0,0-.66,1.47c.18.35.57.62.68,1,.27.93,1.38,1.23,1.61,2a10.62,10.62,0,0,1,.09,2.77c0,2.45,0,4.91,0,7.36a2.26,2.26,0,0,1-.6,2,46.39,46.39,0,0,0-.61-8.57c-.11-.93-.31-1-1.43-1.06-.35,0-.59.59-1.11.1a8,8,0,0,0,.45-4.75,8.22,8.22,0,0,1,.18-2.12,1.64,1.64,0,0,0-.61-1.65Z"/><path class="cls-39" d="M30.38,23.72c.71,1,1.52,2,.67,3.33.05,2.25-.41,4.53.33,6.74a3.25,3.25,0,0,1-1,3.61c-.16-2.24.39-4.54-.49-6.73.57-2.13-.67-3.85-1.28-5.72a4.91,4.91,0,0,1-.09-1.22Z"/><path class="cls-10" d="M28.51,23.15v.56H25.19a1.92,1.92,0,0,1-1.64-.56Z"/><path class="cls-15" d="M24.78,44.23a1.28,1.28,0,0,1-.61,1.25A1.26,1.26,0,0,1,24.78,44.23Z"/><path class="cls-42" d="M23.55,51.09a1.31,1.31,0,0,1,.59,1,10,10,0,0,0,.09,1.23c.13.69,1.31.54,1.2,1.55A4.71,4.71,0,0,0,25.64,57a5.13,5.13,0,0,1,0,3.6,5.78,5.78,0,0,0-.25,1.81c0,.76,0,1.53.1,2.87.7-1.52.65-2.7,1.39-3.54.1,0,.22,0,.26,0a.57.57,0,0,1,.08.29c0,2.16,0,4.31,0,6.47,0,1.85,0,3.7-.05,5.54l-1.2,0c-1.36-.69-1.17-2.07-1.37-3.24-.28-1.6-.29-3.22-2.13-4.09-1-.46-.76-1.55-.53-2.49a11.67,11.67,0,0,0,.3-4.48c.31-2.1.57-4.21,1-6.29A16.44,16.44,0,0,0,23.55,51.09Z"/><path class="cls-35" d="M22.31,59.79c1.11,1.49.69,3.14.35,4.71-.23,1-.63,1.74.95,1.75.71,0,.43,1.23,1.39,1.45.73.17.19,1,.06,1.59,0,.19-.09.52,0,.58,1.11.8.41,1.84.45,2.79A5,5,0,0,0,26,74.09l-.29,0h-.29c-1.23,0-2.46,0-3.69,0-1.67,0-1.59-.08-1.51-1.71.11-2.15,1-4.19.79-6.36h0c.71-.7,0-1.77.62-2.49,0-.2,0-.41,0-.61.68-.72-.06-1.78.6-2.49C22.3,60.19,22.3,60,22.31,59.79Z"/><path class="cls-43" d="M30.38,78.45a7.14,7.14,0,0,1,.74,6.77,1.07,1.07,0,0,0,.22.77c1.95,0,1.08,1.14,1,2.05-.09.71,0,1.44-.07,2.16h-5.6c-.55-3.89-1.95-7.74-.6-11.74Z"/><path class="cls-44" d="M26,78.45a4.47,4.47,0,0,1,0,3.8c-.27.5-.09.88.22,1.38.94,1.53.56,3.31.76,5a1.08,1.08,0,0,0-.36,1.57h-5c.41-.61.83-1.21,1.25-1.82a3.39,3.39,0,0,0,1.26-2.48c-.06-.38-.23-.72-.32-1.09s-.16-.51-.23-.77-.13-.48-.28-.52c-3.63-1-2.12-3.07-1-5Z"/><path class="cls-45" d="M24.16,84.64c.64.41.64.82,0,1.24-.29-.09-.71-.09-.85-.28-.49-.73-.7-1.78-2-1.39-.82-1-1.42.28-2.29.2-.16-.73-.33-1.5-.51-2.27-.07-.29-.14-.79-.28-.82-1.58-.33-.86-1.85-1.44-2.67a1,1,0,0,1-.1-.29l5.57.1c.4.73.76,1.45-.05,2.18a6.75,6.75,0,0,0-.95,1.17c-.07.1.05.35.11.53a.39.39,0,0,0,.27,0c.32-.24.61-.53.94-.75.82-.55.8,0,.7.57-.06.36.16.55.47.63,1.43.37.59,1.19.37,1.88Z"/><path class="cls-46" d="M29.73,6.32c0,1.84,0,3.69.05,5.53.62,1,1.62.6,2.49.69a6.73,6.73,0,0,1,.91.06.54.54,0,0,1,.37.35.75.75,0,0,1-.25.5c-.6.56-1.75,0-2.13.92s-.59.76-1,0c-.17-.33-.57-.11-.71.16a10.66,10.66,0,0,0-.37,1.13c-.1.27-.26.76-.37.75-1.93-.12-1.37,1.31-1.49,2.31a.84.84,0,0,1-1.23.05l-2.5-.06c-.74-.79-1.59-1.74-.32-2.56,2-1.3,2.76-3.23,3.34-5.36.15-.56.31-1.47,1-1.28,1.07.28.6,1.18.44,1.82C29.24,10,27,7.27,29.73,6.32Z"/><path class="cls-47" d="M26,18.77l1.23-.05h6.22l6.85.05a1.93,1.93,0,0,1-1.66.59l-5.81,0c-.47,1.09-2.65-.12-2.48,1.84H21.69c.48-1.23,1.19-2.1,2.7-1.88A1.59,1.59,0,0,0,26,18.77Z"/><path class="cls-8" d="M43.45,12.52H42.19c0-.21,0-.43,0-.65A1.41,1.41,0,0,1,43.45,12.52Z"/><path class="cls-48" d="M29.68.83a2,2,0,0,1,.08.49l0,.67-.05,0c-.29,3.91-3,7-3.68,10.81-.38,2.35-2.84,3.26-4.87,3.72a8.25,8.25,0,0,0-3.87,2.24l-4.92.11A5.45,5.45,0,0,1,14,13.64c.5,0,.68.4.78.79.15.55.34.93,1,.74a8.61,8.61,0,0,0,4-2c.52-.34,1.06.1,1.58-.06a2.8,2.8,0,0,1-1.58-.53c-.53-.05-1-.19-1.18-.77,1.41-1.13,3.32.12,4.73-1l1.81.65c.42-.89.11-1.82.27-2.69A26,26,0,0,0,26,6.05a12.53,12.53,0,0,1,.63-2.39c.08-.29.16-.7.54-.62,1.23.25,1.24-.74,1.6-1.44C28.93,1.27,29.37,1.08,29.68.83Z"/><path class="cls-49" d="M18.64,1.42l.08.65c.12,1.42.48,2.85-.21,4.23-1,1.16-.39,2.57-.57,3.86-.11.79-.48.75-1,.43s-.82.31-1.18.6-.85.24-.85-.25c0-1.54,0-3.09,0-4.64a13.47,13.47,0,0,1,1.43-.59,1.28,1.28,0,0,0,1-1.34A3.15,3.15,0,0,1,18.64,1.42Z"/><path class="cls-24" d="M18.51,6.3l.21-4.23.25.09c.44,2.18.14,4.39.22,6.59,0,.69-.06,1.42.65,1.87l3.52.18c.07.57-.1,1.08-.74,1.09-1.33,0-2.66-.05-4-.09Z"/><path class="cls-19" d="M19.81,12.57h3c.14.92-.64.89-1.06,1.07-.72.3-1.33-.23-2-.48Z"/><path class="cls-16" d="M22.29,60.4c-.07.86.29,1.83-.6,2.49C21.76,62,21.39,61.06,22.29,60.4Z"/><path class="cls-16" d="M21.67,63.5c-.08.86.29,1.84-.62,2.49C21.13,65.13,20.77,64.16,21.67,63.5Z"/><path class="cls-50" d="M21,90.16a24.09,24.09,0,0,1-4.95,0c-1-.76-3.08.45-3.11-1.85.3-.56.69-1.25,1.33-1,.82.28,1.87-.55,2.48.58a1.33,1.33,0,0,0,1.51.69A2.79,2.79,0,0,1,21,90.16Z"/><path class="cls-51" d="M13,88.36c.71.63,1.33,1.39,2.44,1.35.21,0,.44.33.67.5l-3.62.11a6,6,0,0,1-.61-.1c-.29-.07-.77-.08-.84-.25-.17-.46.25-.7.6-.9S12.51,88.59,13,88.36Z"/><path class="cls-20" d="M14.22,85.88c-.05.09-.12.26-.15.25-.21,0-.16-.14.15-.25Z"/><path class="cls-52" d="M30.38,21.22c-.39-.33-.8-.63-1.16-1a.64.64,0,0,1-.16-.52.54.54,0,0,1,.43-.31c1.12,0,2.25,0,3.37,0,.09.53.29,1.06.86,1.14a19.92,19.92,0,0,0,2.45.09c5.32,0,10.64,0,16,0-.71.88-1.7.61-2.59.61C43.16,21.24,36.77,21.22,30.38,21.22Z"/><path class="cls-7" d="M17.32,18.73c0-.5-.17-1.28.32-1.39.87-.2,1.1-.85,1.44-1.45.26-.44.59-.6,1-.27a1.34,1.34,0,0,0,2.14-.18.55.55,0,0,1,.22-.21c2.55-1,4-2.7,3.66-5.62-.15-1.29,1.51-1.95,1.36-3.31,1.31-.2.91-1.4,1.28-2.15S29,2.48,29.74,2c0,1.46,0,2.91,0,4.36-.17.25-.5.5-.49.74.05,1.66-.56,3.19-.86,4.91-.86-.46-.13-1.37-.49-1.61-.35-.42-.54-.38-.55-.07,0,2.39-1.33,4.23-2.67,6a1,1,0,0,1-.78.34c-1.19-.05-.71.59-.53,1.15a8.93,8.93,0,0,1,.17.9Z"/><path class="cls-44" d="M24.16,84.64c-.05.08-.11.25-.14.24-.2,0-.15-.14.14-.24Z"/></g></g></g></svg>